<svg width="100" height="109" viewBox="0 0 100 109" fill="none" xmlns="http://www.w3.org/2000/svg">
<g filter="url(#filter0_ddii)">
<rect x="7" y="7" width="75" height="86.194" rx="7.83582" fill="#001D9A"/>
</g>
<path d="M53.3333 40.3333H56M36 32.3333H52C57.891 32.3333 62.6667 37.1089 62.6667 43V59C62.6667 64.891 57.891 69.6666 52 69.6666H36C30.109 69.6666 25.3333 64.891 25.3333 59V43C25.3333 37.1089 30.109 32.3333 36 32.3333ZM44 59C39.5817 59 36 55.4183 36 51C36 46.5817 39.5817 43 44 43C48.4183 43 52 46.5817 52 51C52 55.4183 48.4183 59 44 59Z" stroke="white"/>
<defs>
<filter id="filter0_ddii" x="0.00373101" y="0.00373101" width="99.347" height="108.862" filterUnits="userSpaceOnUse" color-interpolation-filters="sRGB">
<feFlood flood-opacity="0" result="BackgroundImageFix"/>
<feColorMatrix in="SourceAlpha" type="matrix" values="0 0 0 0 0 0 0 0 0 0 0 0 0 0 0 0 0 0 127 0" result="hardAlpha"/>
<feOffset dx="-2.51866" dy="-2.51866"/>
<feGaussianBlur stdDeviation="2.23881"/>
<feColorMatrix type="matrix" values="0 0 0 0 0.203922 0 0 0 0 0.239216 0 0 0 0 0.729412 0 0 0 0.5 0"/>
<feBlend mode="normal" in2="BackgroundImageFix" result="effect1_dropShadow"/>
<feColorMatrix in="SourceAlpha" type="matrix" values="0 0 0 0 0 0 0 0 0 0 0 0 0 0 0 0 0 0 127 0" result="hardAlpha"/>
<feOffset dx="7.27612" dy="5.59702"/>
<feGaussianBlur stdDeviation="5.03731"/>
<feColorMatrix type="matrix" values="0 0 0 0 0 0 0 0 0 0 0 0 0 0 0.384314 0 0 0 0.5 0"/>
<feBlend mode="normal" in2="effect1_dropShadow" result="effect2_dropShadow"/>
<feBlend mode="normal" in="SourceGraphic" in2="effect2_dropShadow" result="shape"/>
<feColorMatrix in="SourceAlpha" type="matrix" values="0 0 0 0 0 0 0 0 0 0 0 0 0 0 0 0 0 0 127 0" result="hardAlpha"/>
<feOffset dx="5.03731" dy="5.03731"/>
<feGaussianBlur stdDeviation="4.19776"/>
<feComposite in2="hardAlpha" operator="arithmetic" k2="-1" k3="1"/>
<feColorMatrix type="matrix" values="0 0 0 0 0.00392157 0 0 0 0 0.0627451 0 0 0 0 0.498039 0 0 0 0.5 0"/>
<feBlend mode="normal" in2="shape" result="effect3_innerShadow"/>
<feColorMatrix in="SourceAlpha" type="matrix" values="0 0 0 0 0 0 0 0 0 0 0 0 0 0 0 0 0 0 127 0" result="hardAlpha"/>
<feOffset dx="-5.03731" dy="-5.03731"/>
<feGaussianBlur stdDeviation="4.19776"/>
<feComposite in2="hardAlpha" operator="arithmetic" k2="-1" k3="1"/>
<feColorMatrix type="matrix" values="0 0 0 0 0.203922 0 0 0 0 0.239216 0 0 0 0 0.729412 0 0 0 0.5 0"/>
<feBlend mode="normal" in2="effect3_innerShadow" result="effect4_innerShadow"/>
</filter>
</defs>
</svg>
