<svg width="100" height="109" viewBox="0 0 100 109" fill="none" xmlns="http://www.w3.org/2000/svg">
<g filter="url(#filter0_ddii)">
<rect x="7" y="7" width="75" height="86.194" rx="7.83582" fill="#001D9A"/>
</g>
<path d="M29.0661 61.2011L29.5133 61.4247L29.6517 61.148L29.4659 60.9008L29.0661 61.2011ZM32.7989 64.9339L33.0992 64.5341L32.8519 64.3483L32.5753 64.4866L32.7989 64.9339ZM25.3333 68.6666L24.8861 68.443C24.7899 68.6355 24.8276 68.868 24.9798 69.0202C25.132 69.1724 25.3645 69.2101 25.557 69.1139L25.3333 68.6666ZM36 42L35.7227 41.584C35.5836 41.6767 35.5 41.8328 35.5 42H36ZM52 58V58.5C52.1672 58.5 52.3233 58.4164 52.416 58.2773L52 58ZM40.678 43.4014L41.1712 43.3192L40.678 43.4014ZM41.0499 45.6325L40.5567 45.7147L41.0499 45.6325ZM39.8987 48.2897L40.176 48.7058L39.8987 48.2897ZM50.5986 53.322L50.6808 52.8288L50.5986 53.322ZM48.3674 52.9501L48.2852 53.4433L48.3674 52.9501ZM45.7102 54.1013L45.2942 53.8239L45.7102 54.1013ZM24.8333 50C24.8333 54.3147 26.2597 58.2978 28.6664 61.5014L29.4659 60.9008C27.1848 57.8644 25.8333 54.0907 25.8333 50H24.8333ZM44 30.8333C33.4146 30.8333 24.8333 39.4145 24.8333 50H25.8333C25.8333 39.9668 33.9668 31.8333 44 31.8333V30.8333ZM63.1667 50C63.1667 39.4145 54.5855 30.8333 44 30.8333V31.8333C54.0332 31.8333 62.1667 39.9668 62.1667 50H63.1667ZM44 69.1666C54.5855 69.1666 63.1667 60.5854 63.1667 50H62.1667C62.1667 60.0332 54.0332 68.1666 44 68.1666V69.1666ZM32.4986 65.3336C35.7022 67.7403 39.6853 69.1666 44 69.1666V68.1666C39.9093 68.1666 36.1356 66.8151 33.0992 64.5341L32.4986 65.3336ZM25.557 69.1139L33.0225 65.3811L32.5753 64.4866L25.1097 68.2194L25.557 69.1139ZM28.6189 60.9775L24.8861 68.443L25.7806 68.8903L29.5133 61.4247L28.6189 60.9775ZM35.5 42V44.6666H36.5V42H35.5ZM49.3333 58.5H52V57.5H49.3333V58.5ZM35.5 44.6666C35.5 52.3066 41.6934 58.5 49.3333 58.5V57.5C42.2457 57.5 36.5 51.7543 36.5 44.6666H35.5ZM36.2774 42.416L36.8458 42.037L36.2911 41.205L35.7227 41.584L36.2774 42.416ZM40.1848 43.4836L40.5567 45.7147L41.5431 45.5503L41.1712 43.3192L40.1848 43.4836ZM39.6213 47.8737L37.056 49.584L37.6107 50.416L40.176 48.7058L39.6213 47.8737ZM40.5567 45.7147C40.6969 46.5557 40.3308 47.4008 39.6213 47.8737L40.176 48.7058C41.2129 48.0145 41.7479 46.7795 41.5431 45.5503L40.5567 45.7147ZM36.8458 42.037C38.154 41.1649 39.9264 41.9328 40.1848 43.4836L41.1712 43.3192C40.7934 41.0526 38.2031 39.9303 36.2911 41.205L36.8458 42.037ZM52.416 58.2773L52.795 57.7089L51.9629 57.1542L51.584 57.7226L52.416 58.2773ZM50.6808 52.8288L48.4496 52.4569L48.2852 53.4433L50.5164 53.8152L50.6808 52.8288ZM45.2942 53.8239L43.584 56.3893L44.416 56.944L46.1263 54.3786L45.2942 53.8239ZM48.4496 52.4569C47.2205 52.2521 45.9854 52.7871 45.2942 53.8239L46.1263 54.3786C46.5992 53.6692 47.4442 53.3031 48.2852 53.4433L48.4496 52.4569ZM52.795 57.7089C54.0696 55.7969 52.9474 53.2065 50.6808 52.8288L50.5164 53.8152C52.0672 54.0736 52.8351 55.846 51.9629 57.1542L52.795 57.7089Z" fill="white"/>
<defs>
<filter id="filter0_ddii" x="0.00373101" y="0.00373101" width="99.347" height="108.862" filterUnits="userSpaceOnUse" color-interpolation-filters="sRGB">
<feFlood flood-opacity="0" result="BackgroundImageFix"/>
<feColorMatrix in="SourceAlpha" type="matrix" values="0 0 0 0 0 0 0 0 0 0 0 0 0 0 0 0 0 0 127 0" result="hardAlpha"/>
<feOffset dx="-2.51866" dy="-2.51866"/>
<feGaussianBlur stdDeviation="2.23881"/>
<feColorMatrix type="matrix" values="0 0 0 0 0.203922 0 0 0 0 0.239216 0 0 0 0 0.729412 0 0 0 0.5 0"/>
<feBlend mode="normal" in2="BackgroundImageFix" result="effect1_dropShadow"/>
<feColorMatrix in="SourceAlpha" type="matrix" values="0 0 0 0 0 0 0 0 0 0 0 0 0 0 0 0 0 0 127 0" result="hardAlpha"/>
<feOffset dx="7.27612" dy="5.59702"/>
<feGaussianBlur stdDeviation="5.03731"/>
<feColorMatrix type="matrix" values="0 0 0 0 0 0 0 0 0 0 0 0 0 0 0.384314 0 0 0 0.5 0"/>
<feBlend mode="normal" in2="effect1_dropShadow" result="effect2_dropShadow"/>
<feBlend mode="normal" in="SourceGraphic" in2="effect2_dropShadow" result="shape"/>
<feColorMatrix in="SourceAlpha" type="matrix" values="0 0 0 0 0 0 0 0 0 0 0 0 0 0 0 0 0 0 127 0" result="hardAlpha"/>
<feOffset dx="5.03731" dy="5.03731"/>
<feGaussianBlur stdDeviation="4.19776"/>
<feComposite in2="hardAlpha" operator="arithmetic" k2="-1" k3="1"/>
<feColorMatrix type="matrix" values="0 0 0 0 0.00392157 0 0 0 0 0.0627451 0 0 0 0 0.498039 0 0 0 0.5 0"/>
<feBlend mode="normal" in2="shape" result="effect3_innerShadow"/>
<feColorMatrix in="SourceAlpha" type="matrix" values="0 0 0 0 0 0 0 0 0 0 0 0 0 0 0 0 0 0 127 0" result="hardAlpha"/>
<feOffset dx="-5.03731" dy="-5.03731"/>
<feGaussianBlur stdDeviation="4.19776"/>
<feComposite in2="hardAlpha" operator="arithmetic" k2="-1" k3="1"/>
<feColorMatrix type="matrix" values="0 0 0 0 0.203922 0 0 0 0 0.239216 0 0 0 0 0.729412 0 0 0 0.5 0"/>
<feBlend mode="normal" in2="effect3_innerShadow" result="effect4_innerShadow"/>
</filter>
</defs>
</svg>
