<svg width="553" height="106" viewBox="0 0 553 106" fill="none" xmlns="http://www.w3.org/2000/svg">
<g filter="url(#filter0_ddd)">
<path d="M57.6947 103.06C62.9932 103.06 67.2884 98.728 67.2884 93.3849C67.2884 88.0419 62.9932 83.7104 57.6947 83.7104C52.3963 83.7104 48.101 88.0419 48.101 93.3849C48.101 98.728 52.3963 103.06 57.6947 103.06Z" fill="#4C64D2"/>
<path d="M58.2112 89.8989L58.221 89.9154L58.221 89.8961C58.221 89.235 58.3381 88.2521 58.6894 87.4519C59.0405 86.6519 59.6249 86.0359 60.559 86.1046C60.905 86.1734 61.1388 86.3295 61.2893 86.537C61.44 86.7448 61.5076 87.0048 61.5203 87.2817C61.5455 87.8357 61.3506 88.456 61.1626 88.8584L61.1625 88.8583L61.1623 88.8594C61.0609 89.2622 60.9349 89.9228 60.8864 90.5947C60.838 91.2663 60.8668 91.9503 61.0755 92.4004C61.2837 93.2973 61.2778 93.9234 61.249 94.1238L61.2484 94.1279L61.2522 94.1295C61.6134 94.2876 62.1643 94.5979 62.642 95.0153C63.1199 95.4328 63.5238 95.9567 63.593 96.5414V96.5416C63.7317 97.4719 63.4428 98.24 63.0253 98.8223C62.608 99.4044 62.062 99.8008 61.6865 99.9876C61.354 100.074 60.8253 100.164 60.3189 100.155C60.0656 100.151 59.8182 100.122 59.6039 100.055C59.3895 99.9888 59.2087 99.8846 59.0881 99.7303L59.0874 99.7295L59.0865 99.7291L57.6974 98.9524L57.696 98.9517L57.6945 98.9517C57.1306 98.9805 56.2413 98.9417 55.4063 98.7318C54.571 98.5219 53.7916 98.1413 53.4455 97.4876L53.4445 97.4858L53.4426 97.485C52.2277 97.0364 51.8035 96.4983 51.764 96.0096C51.7245 95.5206 52.0699 95.0777 52.4022 94.8191L52.4059 94.8164L52.4036 94.8123C52.2737 94.5828 52.1395 94.2084 52.159 93.8315C52.1784 93.4549 52.3511 93.0757 52.8354 92.835L52.8415 92.832L52.8371 92.8267C52.5945 92.5338 52.4735 92.2711 52.4376 92.0389C52.4018 91.8068 52.4508 91.6048 52.549 91.4328C52.7455 91.0885 53.1392 90.8647 53.4425 90.7643L53.4476 90.7625L53.4458 90.7574C53.3447 90.456 53.2712 89.9911 53.3786 89.5761C53.4323 89.3687 53.5312 89.1739 53.6944 89.018C53.8573 88.8621 54.0849 88.745 54.3966 88.6934C55.1767 88.5642 56.0655 88.758 56.7922 89.0382C57.1554 89.1784 57.478 89.3401 57.726 89.4936C57.8499 89.5703 57.9551 89.645 58.0374 89.7139C58.1198 89.7828 58.179 89.8458 58.2112 89.8989Z" fill="white" stroke="black" stroke-width="0.0362695"/>
<path d="M58.9098 96.757C57.6365 96.0666 55.7149 93.6849 58.2153 89.6808M58.2153 89.6808C58.2153 88.3577 58.6841 85.7459 60.5593 85.8839C61.9484 86.1601 61.5432 87.8399 61.167 88.6453C60.9645 89.4508 60.6635 91.2859 61.0803 92.1834C61.2885 93.0809 61.2828 93.7079 61.2539 93.9093C61.9774 94.2257 63.459 95.152 63.5979 96.3255C63.8758 98.1895 62.4403 99.4034 61.688 99.7773C61.0224 99.9499 59.5697 100.14 59.0835 99.5184L57.6944 98.7417C56.5658 98.7992 54.1349 98.5864 53.4404 97.2748M58.2153 89.6808C57.9548 89.2494 55.9581 88.2139 54.3954 88.4727M53.4404 97.2748C51.0095 96.3773 51.733 95.1175 52.3986 94.5997M53.4404 97.2748C54.4242 97.7062 56.2706 97.9651 55.7844 95.5488M54.3954 88.4727C53.1452 88.6798 53.2378 89.9398 53.4404 90.5438M54.3954 88.4727C55.2925 88.5303 57.1214 88.956 57.2603 90.1986C57.2869 91.1507 56.9236 91.5591 56.3921 91.6488M52.3986 94.5997C52.1381 94.1394 51.8603 93.0981 52.8326 92.6149M52.3986 94.5997C53.4115 95.4338 55.5934 96.6361 56.2185 94.7722C56.3574 94.22 56.1606 93.7942 56.0448 93.6504M53.4404 90.5438C52.8326 90.7451 51.8603 91.4413 52.8326 92.6149M53.4404 90.5438C54.2438 91.1117 55.5362 91.7934 56.3921 91.6488M56.3921 91.6488L56.4789 91.8382C56.7568 94.8758 54.1928 93.6217 52.8326 92.6149" stroke="black" stroke-width="0.108808"/>
<path fill-rule="evenodd" clip-rule="evenodd" d="M50.1385 32.2048C49.4855 32.0439 49.2484 31.2821 49.1892 30.7047C49.1689 31.3623 48.921 31.8394 48.7776 32.0162C48.82 32.2516 48.5681 32.5787 48.4116 32.74C48.5538 32.5695 48.4907 32.1931 48.4375 32.0162L48.3808 31.8274C48.3051 31.8485 48.1765 31.9407 48.2672 32.1419C48.3581 32.3432 48.1917 32.729 48.0972 32.8966L47.8704 32.3306C47.9611 32.7835 47.3034 33.2321 46.9631 33.3999C46.9631 33.7017 46.6607 33.8611 46.5095 33.9031L46.4527 33.3999C46.3166 33.8024 45.9046 33.6934 45.7156 33.5886C46.1692 33.4377 46.2827 33.0644 46.2827 32.8966C46.3016 32.5822 46.328 31.8777 46.2827 31.5759C46.2373 31.2739 46.7174 31.0727 46.9631 31.0098C47.3411 30.863 48.0972 30.3431 48.0972 29.4374C48.0972 28.5316 49.0045 28.2632 49.4581 28.2424C49.5488 27.7392 50.2141 27.3618 50.5355 27.2359C50.9513 27.1731 51.9984 27.0977 52.8603 27.2989C53.7222 27.5001 54.0512 28.5987 54.1078 29.1229L54.1078 30.3809L54.5047 30.7582L54.5047 31.1985L54.1078 31.3871L54.1078 31.5759L54.1078 32.5822C54.0889 32.7918 53.9377 33.1986 53.4841 33.1483C53.0304 33.098 52.7658 33.2531 52.6903 33.3369C52.5957 33.6304 52.4294 34.293 52.52 34.5949C52.6108 34.8968 52.8981 35.0142 53.0304 35.0352C53.6202 34.9345 54.1456 35.706 54.3347 36.1044L55.7522 40.0041L55.8657 40.0041L55.9791 40.0041C56.3759 39.6476 57.2152 38.8467 57.3966 38.4945C57.5781 38.1423 57.4345 37.8027 57.3399 37.6768C56.977 37.3247 57.2643 36.9011 57.4533 36.7333C57.5667 36.7124 57.9863 36.7082 58.7575 36.8592C59.5288 37.0101 59.3058 37.8445 59.0978 38.243L58.2473 39.1863L57.1699 40.8218C56.9242 41.3249 56.2399 42.3563 55.4687 42.4571C54.6976 42.5576 54.0512 41.0314 53.8243 40.2556L53.7109 40.2556L53.1438 43.7779C53.2345 44.7842 52.8791 46.126 52.6903 46.6712L52.4634 48.1806C52.9624 48.3315 54.07 50.5497 54.5615 51.64L56.6028 55.7911L56.7729 58.1812L56.943 58.1812C57.0338 56.8227 58.0393 55.7282 58.5307 55.3508L58.6441 54.8476L58.7575 52.7721C58.7575 52.2186 59.6649 49.9837 60.1185 48.9354L60.1185 48.3692C59.5741 48.2183 58.0016 45.5389 57.2833 44.2181C56.9242 43.673 56.4554 42.4318 57.4533 41.828C57.9637 41.3249 60.1752 39.9621 61.2525 39.6896C61.5247 39.0354 62.3488 38.83 62.7268 38.8089L63.464 38.18L63.464 37.9284L62.897 37.3624L62.897 36.7333L62.8403 36.2301L61.9897 34.7836L61.9897 33.8401L62.1598 33.5886C62.1031 33.6724 62.0464 33.6263 62.2732 32.7709C62.5 31.9154 64.031 31.7016 64.7682 31.7016C65.0895 31.6807 66.0157 31.6639 67.1498 31.7645C68.2838 31.8651 68.6052 33.8192 68.624 34.7836L69.1911 35.5383L69.1911 36.1044L68.9076 36.1674L68.7943 38.18L67.8302 39.6266C68.556 40.0292 68.5107 41.3039 68.3972 41.8909L69.1343 42.5827C69.7203 42.5619 70.8355 42.9351 70.6087 44.5955C69.9282 47.2623 68.0192 48.0548 67.1498 48.1177L66.8095 50.0046L66.8095 52.0802L66.6394 54.03C68.0003 54.9357 70.0417 59.0617 70.8922 61.0115L71.0056 66.0433C71.0246 66.7352 71.0736 68.2824 71.119 68.9365C71.1644 69.5907 71.5916 70.9283 71.7994 71.5153L72.0263 71.5153C72.3892 71.1128 72.5933 71.5153 72.65 71.7669L72.65 72.4587L73.9542 73.8425L75.0883 74.157C76.3131 74.8111 75.4474 75.352 74.8615 75.5407L73.047 75.5407C71.5349 75.4568 68.4766 75.0752 68.3405 74.2199C68.2044 73.3644 68.8887 72.27 69.2478 71.8297L68.7374 68.685L67.6034 65.8546L67.4333 62.2694C67.0364 61.6824 66.1517 60.5209 65.7889 60.5713C65.426 60.6215 63.8231 58.8311 63.067 57.9296C62.5945 58.4537 61.6268 59.5776 61.5361 59.8794C61.4453 60.1812 59.3435 62.3533 58.304 63.4016L58.8142 64.4709L58.9844 64.4709L60.9123 64.2822L61.7061 63.8418C61.9329 63.5694 62.4773 63.2003 62.8403 63.9047C63.2032 64.6092 62.7646 65.4982 62.5 65.8546L61.0257 67.3641L60.3453 67.427L60.3453 67.8673C60.3453 67.9092 60.1639 68.1315 59.438 68.685C58.7121 69.2384 58.2661 68.706 58.1337 68.3705L57.2266 66.6723L57.3966 65.8546L56.5461 64.4709C55.5065 65.1418 53.2119 66.6094 52.35 67.1125C51.4881 67.6156 50.1008 68.8317 49.5148 69.3768C49.6963 69.4774 49.5904 70.0058 49.5148 70.2574C49.3069 70.3413 48.9023 70.597 48.9478 70.9493C48.9931 71.3014 48.513 72.27 48.2672 72.7103C48.3239 73.2764 48.3467 74.4967 47.9838 74.8488C47.1673 75.2514 46.3583 73.2555 46.0559 72.2071C45.9613 71.0541 45.7269 68.5591 45.5455 67.8044C45.3641 67.0497 45.9236 66.7771 46.226 66.7352C46.8874 66.6932 48.2559 66.6094 48.4375 66.6094C48.6189 66.6094 49.9495 65.3095 50.5922 64.6596C51.2272 63.3514 53.0871 62.0179 53.9376 61.5147L54.7883 61.0744C54.143 59.7622 54.1605 57.6015 54.1642 57.1671C54.1644 57.1435 54.1645 57.125 54.1645 57.1119C54.1645 56.9106 51.5939 54.2606 50.3087 52.9608C50.4448 53.313 49.0045 54.9106 48.2672 55.6653L46.6229 57.5523C46.0332 58.1057 44.9028 57.8248 44.4114 57.615L37.3234 57.5523C37.2781 58.0051 36.6997 58.0344 36.4162 57.9926L34.6583 59.9423L34.148 60.8228C33.3768 61.7286 33.1084 61.0325 33.0706 60.5713L33.1273 58.936C32.9913 58.4832 33.8267 57.3635 34.2615 56.8604C34.1707 56.0553 34.4882 55.3508 34.6583 55.0992L35.1119 54.3444C35.1309 54.3864 35.214 54.3948 35.3955 54.093C35.577 53.791 35.8113 53.9252 35.9058 54.03C36.3405 54.5122 37.2781 55.4892 37.5502 55.5395C37.8905 55.6024 39.2514 55.4767 40.9526 54.8476C42.1774 54.0426 43.7689 54.5541 44.4114 54.9106C44.5815 54.9735 44.9898 55.0489 45.262 54.8476C45.5341 54.6464 45.7912 53.7994 45.8858 53.4009C46.0218 51.8412 46.9253 50.1094 47.3601 49.4386C46.3166 47.3253 47.2654 45.4132 47.8704 44.7213C47.0085 44.5704 46.3772 43.2747 46.1692 42.6457L45.3187 41.8909C45.2431 41.828 44.7857 41.3626 43.5609 40.0041C42.3361 38.6454 43.0505 37.6349 43.5609 37.2995L46.0559 35.5383C46.7817 34.3307 48.3619 33.8611 49.0612 33.7772C49.3069 33.6934 49.8437 33.4879 50.0251 33.3369C50.2066 33.186 50.1764 32.5192 50.1385 32.2048ZM48.3808 32.7709C48.3918 32.7616 48.4022 32.7512 48.4116 32.74C48.4008 32.7511 48.3905 32.7614 48.3808 32.7709ZM60.3277 45.3208L59.9069 43.8272L60.7483 43.5675L60.3277 45.3208ZM47.9381 37.9409C47.9225 39.0066 47.9755 41.2311 48.3121 41.6024C48.0783 41.5164 47.5827 41.3961 47.4705 41.6024C46.9251 41.0007 45.8061 39.6118 45.694 38.8692C45.694 38.4978 45.9121 38.4395 46.0211 38.4567L47.6576 37.8377C47.7518 37.7862 47.9399 37.7346 47.9381 37.9409Z" fill="white"/>
<path d="M100.657 42.5336C99.4664 40.4359 98.3569 40.5146 97.9508 40.816C98.8373 43.4631 99.9018 51.8149 97.0679 64.0469C92.3303 76.1777 84.2332 82.7467 80.7769 84.5149C81.9463 82.268 83.1522 77.8632 83.6088 75.9416C83.8538 70.6679 81.9036 68.4288 80.8979 67.9684C80.3907 73.0149 72.87 85.0891 69.1731 90.4955C69.3 91.9486 69.7661 95.203 70.6166 96.5968C71.4673 97.9907 73.0308 98.1797 73.7063 98.1L89.1633 97.7673L88.6331 94.6095C88.5835 92.1989 85.3444 91.5313 83.731 91.4987C85.891 90.0634 91.3832 85.3234 93.8592 83.1329C104.001 73.1745 103.781 57.0217 103.46 52.5479C103.139 48.0742 102.145 45.1556 100.657 42.5336Z" fill="#28FF0C" stroke="#28FF0C" stroke-width="0.362695"/>
<path d="M23.6773 18.7844C22.4791 20.8777 23.105 21.8049 23.5677 22.007C25.3897 19.9022 32.0105 14.7711 43.9184 11.0839C56.6976 9.10677 66.4019 12.8561 69.6568 14.9778C67.1427 15.0897 62.7613 16.256 60.885 16.8253C56.2426 19.266 55.3055 22.0924 55.4172 23.2004C59.9967 21.1025 74.1283 21.5787 80.6217 22.0791C81.8029 21.2372 84.3571 19.1929 85.1233 17.7503C85.8896 16.3076 85.2645 14.85 84.8564 14.3015L76.7917 1L74.3526 3.05134C72.312 4.30786 73.3701 7.46641 74.1542 8.88866C71.8371 7.72891 65.0113 5.32889 61.888 4.2737C48.2501 0.448458 34.5195 8.76977 30.8477 11.3017C27.1757 13.8327 25.1751 16.1678 23.6773 18.7844Z" fill="#28FF0C" stroke="#28FF0C" stroke-width="0.362695"/>
<path d="M43.9833 97.6671C46.3801 97.6568 46.8594 96.6446 46.7994 96.1397C44.0787 95.6122 36.3486 92.4278 27.1932 83.91C19.0641 73.7721 17.3895 63.4293 17.5683 59.5253C18.9301 61.6592 22.1357 64.889 23.5682 66.2371C27.9972 69.0526 30.8904 68.4458 31.7836 67.7904C27.68 64.8571 20.9718 52.3054 18.1307 46.3962C16.8145 45.7911 13.7769 44.5953 12.1551 44.6542C10.5332 44.7131 9.59921 45.9915 9.33486 46.6235L2 60.3478L4.98571 61.4398C7.08982 62.585 9.26304 60.0726 10.0867 58.6733C10.2599 61.276 11.6409 68.4315 12.3097 71.6838C15.9 85.4918 29.9436 93.2639 33.9617 95.1879C37.9793 97.1126 40.9874 97.6797 43.9833 97.6671Z" fill="#28FF0C" stroke="#28FF0C" stroke-width="0.362695"/>
<path d="M17.8416 42.7984C23.1401 42.7984 27.4353 38.467 27.4353 33.1239C27.4353 27.7809 23.1401 23.4495 17.8416 23.4495C12.5432 23.4495 8.24789 27.7809 8.24789 33.1239C8.24789 38.467 12.5432 42.7984 17.8416 42.7984Z" fill="#EFF312"/>
<path fill-rule="evenodd" clip-rule="evenodd" d="M16.8711 38.5282L16.8903 39.742L18.457 39.742L18.457 38.5747C20.2043 38.458 21.0821 37.7728 21.3815 37.5101C22.8439 36.1183 24.4732 32.9168 18.457 31.8225L18.457 28.8868C19.1173 28.9925 19.5891 29.3017 19.7104 30.0946L22.426 29.9506C22.3564 29.0627 21.4652 27.2868 18.457 27.2868L18.457 26.5668L16.6813 26.5668L16.6928 27.2927C15.3438 27.3911 12.8396 28.1001 12.9213 30.2386C13.0048 32.4274 15.5323 33.3104 16.7857 33.4783C16.7876 33.4789 16.7893 33.4792 16.791 33.4795L16.8421 36.7065C16.004 36.3791 15.4046 35.6715 15.1146 35.1343L12.0857 35.1343C12.4338 36.3103 13.8612 38.1581 16.7857 38.5181C16.8144 38.5216 16.8428 38.525 16.8711 38.5282ZM18.457 36.8039C18.8497 36.7065 19.2686 36.5187 19.7104 36.2143C20.6958 34.7759 19.7107 34.1897 18.457 33.8454L18.457 36.8039ZM16.7589 31.4561L16.718 28.8749C15.6046 28.9588 15.3235 29.7182 15.3235 30.0946C15.1915 30.4043 15.3802 31.0075 16.7589 31.4561Z" fill="#141313"/>
<path fill-rule="evenodd" clip-rule="evenodd" d="M100.854 25.5975C98.2875 20.23 93.4178 22.7808 90.7752 24.6059C90.3118 24.1245 88.7942 23.0366 86.431 22.5365C81.0443 21.6915 80.0451 26.5675 80.2189 29.1111C80.292 30.6263 81.0847 32.1643 82.1126 33.5517C82.2533 33.7415 82.3983 33.9285 82.5465 34.1122C83.8888 35.7763 85.4908 37.1725 86.431 37.9707C87.213 38.3156 89.7253 40.9743 90.8838 42.2604C91.266 41.4499 93.0848 39.8102 93.9464 39.0917C94.1917 38.8761 94.4671 38.6413 94.7636 38.3884C96.0259 37.3119 97.6725 35.9077 99.0242 34.2631L95.7275 34.2631C95.5103 34.1122 95.0411 33.5776 94.9021 32.6464L93.5337 34.4571C93.3527 34.687 92.7822 35.0434 91.9481 34.6295C91.6729 34.4212 91.101 34.1725 91.0141 34.8451L90.4059 36.0738C90.167 36.5983 89.6196 37.2939 89.3416 35.8798L88.6682 29.1542L87.8211 34.8451C87.7922 35.2331 87.6073 35.7518 86.8871 34.8882C86.3658 34.2631 86.0618 34.0475 85.6056 34.1122L82.5465 34.1122L82.1126 33.5517L86.2572 33.5517C86.4817 33.6739 87.0001 34.026 87.2781 34.4571L88.4945 25.7484C88.6031 25.5687 88.8724 25.3172 89.0809 25.7484L89.9715 35.5349L90.6014 34.2631C90.7172 33.9541 91.1922 33.4914 92.1653 34.1122C92.7213 34.4916 93.2079 33.8966 93.3816 33.5517C93.8233 32.9697 94.711 31.8057 94.7283 31.8057C94.731 31.8057 94.7391 31.7945 94.7518 31.777C94.8438 31.6502 95.178 31.1901 95.4451 32.1937L95.7275 33.2715C95.7202 33.4224 95.8491 33.7199 96.4225 33.7026C96.996 33.6854 98.6901 33.6954 99.4655 33.7026C101.226 31.363 102.282 28.585 100.854 25.5975Z" fill="#F50B0B"/>
</g>
<g filter="url(#filter1_ddddd)">
<path d="M163.637 36.179C170.652 36.179 174.159 38.0453 174.159 41.7779C174.159 43.0006 173.805 44.1268 173.097 45.1565C172.389 46.154 171.44 46.9424 170.249 47.5215C169.091 48.1007 167.836 48.3903 166.485 48.3903C165.551 48.3903 164.827 48.3582 164.313 48.2938C164.602 46.7815 164.747 45.3817 164.747 44.0946C164.747 41.1021 163.878 39.6059 162.141 39.6059C160.853 39.6059 159.679 40.5069 158.617 42.3088C157.587 44.0786 156.767 46.1862 156.156 48.6317C155.544 51.0772 155.239 53.1687 155.239 54.9063C155.239 57.1587 155.769 58.7837 156.831 59.7812C157.925 60.7465 159.615 61.2291 161.899 61.2291C163.637 61.2291 165.214 61.02 166.629 60.6017C168.077 60.1834 169.236 59.5398 170.105 58.671C170.845 59.2824 171.215 60.4086 171.215 62.0497C171.215 63.4011 170.652 64.6882 169.525 65.911C168.399 67.1015 166.758 68.0829 164.602 68.8552C162.478 69.5953 159.953 69.9653 157.024 69.9653C152.166 69.9653 148.546 68.8391 146.164 66.5867C143.816 64.3021 142.641 60.7787 142.641 56.0164C142.641 51.9299 143.462 48.4064 145.103 45.4461C146.776 42.4536 149.189 40.169 152.343 38.5923C155.496 36.9834 159.261 36.179 163.637 36.179ZM199.7 60.6499C199.539 61.5187 199.459 62.1945 199.459 62.6771C199.459 63.4816 199.684 64.1734 200.135 64.7526C200.585 65.3318 201.245 65.6696 202.114 65.7662C201.695 67.1176 200.746 68.1634 199.266 68.9035C197.818 69.6114 196.306 69.9653 194.729 69.9653C193.474 69.9653 192.316 69.724 191.254 69.2413C190.192 68.7908 189.452 68.1151 189.034 67.2142C188.133 68.0508 187.006 68.7104 185.655 69.1931C184.303 69.7079 182.807 69.9653 181.166 69.9653C178.335 69.9653 176.291 69.1448 175.036 67.5037C173.781 65.8305 173.154 63.4011 173.154 60.2156C173.154 56.7726 173.798 53.7962 175.085 51.2863C176.372 48.7443 178.206 46.7976 180.587 45.4461C183 44.0946 185.832 43.4189 189.082 43.4189C189.951 43.4189 190.739 43.4833 191.447 43.612C192.155 43.7407 192.991 43.9659 193.957 44.2877L202.982 43.2259L199.7 60.6499ZM190.771 46.8941C190.353 46.508 189.774 46.3149 189.034 46.3149C188.326 46.3149 187.682 46.6367 187.103 47.2802C186.556 47.9238 186.025 49.1787 185.51 51.045C185.027 52.8791 184.561 55.5337 184.11 59.0089C183.917 60.5534 183.821 61.9692 183.821 63.2563C183.821 64.3504 183.917 65.2191 184.11 65.8627C184.336 66.4741 184.722 66.7798 185.269 66.7798C186.138 66.7798 186.797 66.281 187.248 65.2835C187.698 64.286 188.036 63.0633 188.261 61.6153L190.771 46.8941ZM215.094 64.7043C215.094 64.2538 214.804 63.7873 214.225 63.3046C213.678 62.7898 212.825 62.1462 211.667 61.3739L210.026 60.2638C208.578 59.202 207.42 58.1401 206.551 57.0783C205.714 55.9842 205.296 54.7776 205.296 53.4583C205.296 51.5598 205.843 49.8544 206.937 48.3421C208.031 46.8297 209.624 45.6392 211.715 44.7704C213.839 43.8694 216.365 43.4189 219.293 43.4189C221.706 43.4189 223.54 43.789 224.795 44.529C226.082 45.2369 226.726 46.4597 226.726 48.1973C226.726 49.6774 226.259 50.8358 225.326 51.6724C224.393 52.4769 223.026 52.8791 221.224 52.8791C220.258 52.8791 219.486 52.7021 218.907 52.3482C219.357 51.0289 219.583 49.7901 219.583 48.6317C219.583 47.7307 219.373 47.055 218.955 46.6045C218.537 46.1218 218.022 45.8805 217.411 45.8805C216.703 45.8805 216.043 46.154 215.432 46.701C214.853 47.248 214.563 47.8916 214.563 48.6317C214.563 49.7579 214.933 50.6749 215.673 51.3828C216.445 52.0907 217.62 52.9113 219.197 53.8444C220.87 54.8419 222.141 55.8072 223.01 56.7404C223.911 57.6735 224.361 58.9124 224.361 60.4569C224.361 62.2588 223.862 63.8838 222.865 65.3318C221.867 66.7476 220.371 67.8738 218.376 68.7104C216.381 69.5148 213.919 69.9171 210.991 69.9171C208.417 69.9171 206.229 69.5631 204.427 68.8552C202.657 68.1151 201.772 66.8763 201.772 65.1387C201.772 63.916 202.239 62.9024 203.172 62.0979C204.105 61.2935 205.36 60.8913 206.937 60.8913C208.353 60.8913 209.559 61.1809 210.557 61.7601C210.171 62.8219 209.978 63.7068 209.978 64.4147C209.978 65.3479 210.203 66.0719 210.653 66.5867C211.104 67.0694 211.667 67.3107 212.343 67.3107C213.051 67.3107 213.678 67.0854 214.225 66.635C214.804 66.1523 215.094 65.5087 215.094 64.7043ZM242.636 39.799C242.218 41.9548 241.639 43.8211 240.899 45.3978C242.765 44.0786 245.243 43.4189 248.332 43.4189C253.158 43.4189 255.571 45.2369 255.571 48.873C255.571 49.6774 255.459 50.6106 255.234 51.6724C255.041 52.7343 254.735 54.134 254.317 55.8716C253.512 59.0893 253.11 61.2935 253.11 62.4841C253.11 64.4469 253.995 65.5409 255.765 65.7662C255.314 67.1176 254.365 68.1634 252.917 68.9035C251.469 69.6114 249.876 69.9653 248.138 69.9653C246.176 69.9653 244.567 69.4827 243.312 68.5173C242.089 67.5198 241.478 66.1201 241.478 64.3182C241.478 63.5137 241.574 62.5967 241.767 61.567C241.993 60.5052 242.363 58.8802 242.877 56.6921C243.811 53.0239 244.277 50.498 244.277 49.1143C244.277 47.7951 243.907 47.1354 243.167 47.1354C242.266 47.1354 241.59 47.7307 241.14 48.9213C240.689 50.0797 240.271 51.6724 239.885 53.6996L236.892 69L225.116 70.1584L231.969 35.2137L243.746 34.0553L242.636 39.799ZM280.033 50.9002C284.184 51.5116 286.26 54.0053 286.26 58.3814C286.26 62.3071 284.57 65.0904 281.192 66.7315C277.813 68.3404 272.826 69.1448 266.229 69.1448H264.202C261.049 69.1448 258.33 69.0965 256.045 69L262.127 37.1443C265.055 37.0478 268.417 36.9995 272.214 36.9995C275.271 36.9995 277.797 37.1282 279.792 37.3856C281.787 37.6109 283.476 38.174 284.86 39.075C286.244 39.9759 286.935 41.3757 286.935 43.2741C286.935 45.1404 286.276 46.7493 284.957 48.1007C283.669 49.42 282.028 50.3532 280.033 50.9002ZM271.876 50.4175C274 50.321 275.496 49.6774 276.365 48.4869C277.266 47.2641 277.717 45.8001 277.717 44.0946C277.717 42.6788 277.411 41.6652 276.8 41.0539C276.22 40.4103 275.271 40.0886 273.952 40.0886C273.984 40.0886 273.984 40.0886 273.952 40.0886C273.952 40.0564 273.936 40.0403 273.904 40.0403L271.876 50.4175ZM268.98 65.6214C271.297 65.5892 272.906 64.8974 273.807 63.5459C274.708 62.1623 275.159 60.5373 275.159 58.671C275.159 57.1265 274.853 55.952 274.241 55.1476C273.63 54.311 272.633 53.8283 271.249 53.6996L268.98 65.6214ZM268.98 65.7179C269.045 65.6857 269.045 65.6535 268.98 65.6214V65.7179ZM313.908 60.6499C313.747 61.5187 313.667 62.1945 313.667 62.6771C313.667 63.4816 313.892 64.1734 314.343 64.7526C314.793 65.3318 315.453 65.6696 316.322 65.7662C315.903 67.1176 314.954 68.1634 313.474 68.9035C312.026 69.6114 310.514 69.9653 308.937 69.9653C307.682 69.9653 306.524 69.724 305.462 69.2413C304.4 68.7908 303.66 68.1151 303.242 67.2142C302.341 68.0508 301.214 68.7104 299.863 69.1931C298.511 69.7079 297.015 69.9653 295.374 69.9653C292.542 69.9653 290.499 69.1448 289.244 67.5037C287.989 65.8305 287.362 63.4011 287.362 60.2156C287.362 56.7726 288.005 53.7962 289.293 51.2863C290.58 48.7443 292.414 46.7976 294.795 45.4461C297.208 44.0946 300.04 43.4189 303.29 43.4189C304.159 43.4189 304.947 43.4833 305.655 43.612C306.363 43.7407 307.199 43.9659 308.165 44.2877L317.19 43.2259L313.908 60.6499ZM304.979 46.8941C304.561 46.508 303.982 46.3149 303.242 46.3149C302.534 46.3149 301.89 46.6367 301.311 47.2802C300.764 47.9238 300.233 49.1787 299.718 51.045C299.235 52.8791 298.769 55.5337 298.318 59.0089C298.125 60.5534 298.029 61.9692 298.029 63.2563C298.029 64.3504 298.125 65.2191 298.318 65.8627C298.544 66.4741 298.93 66.7798 299.477 66.7798C300.346 66.7798 301.005 66.281 301.456 65.2835C301.906 64.286 302.244 63.0633 302.469 61.6153L304.979 46.8941ZM334.852 43.4189C340.451 43.4189 343.251 45.1726 343.251 48.6799C343.251 50.4497 342.623 51.7529 341.368 52.5895C340.146 53.4261 338.553 53.8444 336.59 53.8444C335.496 53.8444 334.74 53.764 334.322 53.6031C334.579 52.8952 334.804 52.0264 334.997 50.9967C335.19 49.967 335.287 49.0661 335.287 48.2938C335.287 47.6503 335.19 47.1515 334.997 46.7976C334.836 46.4436 334.531 46.2666 334.08 46.2666C333.115 46.2666 332.23 47.0389 331.426 48.5834C330.621 50.0957 329.978 51.8977 329.495 53.9892C329.044 56.0486 328.819 57.7701 328.819 59.1537C328.819 60.4086 329.077 61.3418 329.591 61.9531C330.106 62.5645 330.975 62.8702 332.198 62.8702C333.453 62.8702 334.675 62.5645 335.866 61.9531C337.057 61.3096 337.909 60.4569 338.424 59.395C339.132 59.8133 339.631 60.2638 339.92 60.7465C340.21 61.197 340.355 61.8083 340.355 62.5806C340.355 64.1573 339.776 65.5087 338.617 66.635C337.491 67.7612 336.043 68.5978 334.273 69.1448C332.504 69.6918 330.653 69.9653 328.723 69.9653C325.312 69.9653 322.641 69.0483 320.71 67.2142C318.812 65.3479 317.863 62.5323 317.863 58.7676C317.863 55.5498 318.571 52.7826 319.986 50.4658C321.402 48.149 323.381 46.3953 325.923 45.2048C328.497 44.0142 331.474 43.4189 334.852 43.4189ZM357.825 39.799C357.407 41.9548 356.827 43.8211 356.087 45.3978C357.921 44.0786 360.415 43.4189 363.569 43.4189C368.62 43.4189 371.146 45.5265 371.146 49.7418C371.146 51.6724 370.648 53.3135 369.65 54.6649C368.685 56.0164 367.189 56.9495 365.161 57.4644L366.947 62.0979C367.333 63.1276 367.768 63.9321 368.25 64.5112C368.733 65.0904 369.312 65.3961 369.988 65.4283C369.473 66.9085 368.524 68.0347 367.14 68.8069C365.789 69.5792 364.309 69.9653 362.7 69.9653C360.866 69.9653 359.369 69.4666 358.211 68.4691C357.053 67.4716 356.216 66.2166 355.701 64.7043C355.186 63.192 354.929 61.6475 354.929 60.0708C354.929 59.1698 354.993 58.4136 355.122 57.8022C356.473 57.4161 357.584 56.4347 358.452 54.858C359.353 53.2491 359.804 51.5276 359.804 49.6935C359.804 47.9881 359.386 47.1354 358.549 47.1354C357.069 47.1354 355.91 49.3235 355.074 53.6996L352.081 69L340.304 70.1584L347.158 35.2137L358.935 34.0553L357.825 39.799ZM409.423 37.1443C409.423 39.5576 409.021 41.3435 408.217 42.5019C407.412 43.6603 405.9 44.2394 403.68 44.2394C402.553 44.2394 401.331 44.1107 400.011 43.8533C398.724 43.5959 397.743 43.2902 397.067 42.9363L395.812 49.5005H405.417C405.417 53.9731 403.567 56.2095 399.867 56.2095C398.258 56.2095 396.552 55.8072 394.75 55.0028L392.289 69H379.45L385.29 37.1443H409.423ZM417.853 32.4142C419.622 32.4142 421.038 32.8004 422.1 33.5726C423.162 34.3449 423.693 35.3906 423.693 36.7099C423.693 38.0614 423.13 39.1071 422.003 39.8472C420.909 40.5873 419.461 40.9573 417.66 40.9573C415.858 40.9573 414.41 40.6034 413.316 39.8955C412.222 39.1554 411.675 38.1257 411.675 36.8065C411.675 35.455 412.254 34.3931 413.412 33.6209C414.603 32.8164 416.083 32.4142 417.853 32.4142ZM419.156 60.6499C418.995 61.5187 418.914 62.1945 418.914 62.6771C418.914 63.4816 419.14 64.1734 419.59 64.7526C420.041 65.3318 420.7 65.6696 421.569 65.7662C421.151 67.1176 420.202 68.1634 418.721 68.9035C417.273 69.6114 415.681 69.9653 413.943 69.9653C411.948 69.9653 410.339 69.4827 409.116 68.5173C407.894 67.5198 407.282 66.0558 407.282 64.1251C407.282 63.0954 407.427 61.6796 407.717 59.8777C408.006 58.0436 408.425 55.6946 408.972 52.8308C409.261 51.3185 409.422 50.498 409.454 50.3693L410.613 44.3842L422.486 43.2259L419.156 60.6499ZM438.367 44.3842H442.132L441.698 46.5562H438.029L435.423 60.6499C435.262 61.5187 435.182 62.1945 435.182 62.6771C435.182 63.4816 435.407 64.1734 435.857 64.7526C436.308 65.3318 436.967 65.6696 437.836 65.7662C437.418 67.1176 436.469 68.1634 434.989 68.9035C433.541 69.6114 431.948 69.9653 430.21 69.9653C428.215 69.9653 426.606 69.4827 425.384 68.5173C424.161 67.5198 423.549 66.0719 423.549 64.1734C423.549 62.6289 424.048 59.202 425.046 53.8927L426.445 46.5562H423.887L424.08 45.1082C428.263 43.9498 432.543 41.8744 436.919 38.8819H439.622L438.367 44.3842ZM452.111 48.149C453.72 44.9956 456.777 43.4189 461.282 43.4189C463.631 43.4189 465.465 43.8372 466.784 44.6738C468.103 45.4783 468.763 46.8619 468.763 48.8247C468.763 49.6292 468.65 50.5784 468.425 51.6724C468.232 52.7665 467.926 54.1662 467.508 55.8716C466.704 59.0893 466.301 61.2935 466.301 62.4841C466.301 64.4469 467.186 65.5409 468.956 65.7662C468.505 67.1176 467.556 68.1634 466.108 68.9035C464.66 69.6114 463.067 69.9653 461.33 69.9653C459.367 69.9653 457.758 69.4827 456.503 68.5173C455.281 67.5198 454.669 66.1201 454.669 64.3182C454.669 63.5137 454.766 62.5967 454.959 61.567C455.184 60.5052 455.554 58.8802 456.069 56.6921C457.002 53.0239 457.469 50.498 457.469 49.1143C457.469 47.7951 457.099 47.1354 456.358 47.1354C455.457 47.1354 454.782 47.7307 454.331 48.9213C453.881 50.0797 453.462 51.6724 453.076 53.6996L450.084 69L438.307 70.1584L443.375 44.3842L452.98 43.2259L452.111 48.149ZM487.288 43.4189C489.894 43.4189 492.018 43.8533 493.659 44.7221C495.3 45.5909 496.121 47.1837 496.121 49.5005C496.121 51.8494 495.139 53.7157 493.176 55.0993C491.214 56.483 488.028 57.3196 483.62 57.6092C483.362 57.6414 482.558 57.6896 481.206 57.754C481.11 58.2366 481.062 58.7676 481.062 59.3468C481.062 60.5373 481.351 61.4222 481.93 62.0014C482.542 62.5806 483.491 62.8702 484.778 62.8702C486.001 62.8702 487.272 62.6289 488.591 62.1462C489.91 61.6635 490.876 61.02 491.487 60.2156C491.938 60.5695 492.243 60.9395 492.404 61.3257C492.597 61.6796 492.694 62.1462 492.694 62.7254C492.694 64.2699 492.115 65.5892 490.956 66.6832C489.83 67.7773 488.382 68.5978 486.612 69.1448C484.843 69.6918 483.008 69.9653 481.11 69.9653C477.699 69.9653 475.028 69.0483 473.098 67.2142C471.167 65.38 470.202 62.6128 470.202 58.9124C470.202 56.0164 470.829 53.3939 472.084 51.045C473.339 48.696 475.238 46.8458 477.78 45.4944C480.354 44.1107 483.523 43.4189 487.288 43.4189ZM486.226 45.7357C484.231 45.7357 482.671 49.0982 481.544 55.8233C482.831 55.8233 483.942 55.4211 484.875 54.6167C485.808 53.8122 486.516 52.8308 486.998 51.6724C487.481 50.4819 487.722 49.3557 487.722 48.2938C487.722 47.5215 487.594 46.9102 487.336 46.4597C487.079 45.977 486.709 45.7357 486.226 45.7357ZM507.331 64.7043C507.331 64.2538 507.041 63.7873 506.462 63.3046C505.915 62.7898 505.062 62.1462 503.904 61.3739L502.263 60.2638C500.815 59.202 499.656 58.1401 498.787 57.0783C497.951 55.9842 497.533 54.7776 497.533 53.4583C497.533 51.5598 498.08 49.8544 499.174 48.3421C500.268 46.8297 501.86 45.6392 503.952 44.7704C506.076 43.8694 508.602 43.4189 511.53 43.4189C513.943 43.4189 515.777 43.789 517.032 44.529C518.319 45.2369 518.963 46.4597 518.963 48.1973C518.963 49.6774 518.496 50.8358 517.563 51.6724C516.63 52.4769 515.262 52.8791 513.46 52.8791C512.495 52.8791 511.723 52.7021 511.144 52.3482C511.594 51.0289 511.819 49.7901 511.819 48.6317C511.819 47.7307 511.61 47.055 511.192 46.6045C510.774 46.1218 510.259 45.8805 509.647 45.8805C508.939 45.8805 508.28 46.154 507.668 46.701C507.089 47.248 506.8 47.8916 506.8 48.6317C506.8 49.7579 507.17 50.6749 507.91 51.3828C508.682 52.0907 509.856 52.9113 511.433 53.8444C513.106 54.8419 514.377 55.8072 515.246 56.7404C516.147 57.6735 516.598 58.9124 516.598 60.4569C516.598 62.2588 516.099 63.8838 515.101 65.3318C514.104 66.7476 512.608 67.8738 510.613 68.7104C508.618 69.5148 506.156 69.9171 503.228 69.9171C500.654 69.9171 498.466 69.5631 496.664 68.8552C494.894 68.1151 494.009 66.8763 494.009 65.1387C494.009 63.916 494.476 62.9024 495.409 62.0979C496.342 61.2935 497.597 60.8913 499.174 60.8913C500.589 60.8913 501.796 61.1809 502.794 61.7601C502.407 62.8219 502.214 63.7068 502.214 64.4147C502.214 65.3479 502.44 66.0719 502.89 66.5867C503.341 67.0694 503.904 67.3107 504.579 67.3107C505.287 67.3107 505.915 67.0854 506.462 66.635C507.041 66.1523 507.331 65.5087 507.331 64.7043ZM530.191 64.7043C530.191 64.2538 529.901 63.7873 529.322 63.3046C528.775 62.7898 527.922 62.1462 526.764 61.3739L525.123 60.2638C523.675 59.202 522.517 58.1401 521.648 57.0783C520.811 55.9842 520.393 54.7776 520.393 53.4583C520.393 51.5598 520.94 49.8544 522.034 48.3421C523.128 46.8297 524.721 45.6392 526.812 44.7704C528.936 43.8694 531.462 43.4189 534.39 43.4189C536.803 43.4189 538.638 43.789 539.892 44.529C541.18 45.2369 541.823 46.4597 541.823 48.1973C541.823 49.6774 541.357 50.8358 540.423 51.6724C539.49 52.4769 538.123 52.8791 536.321 52.8791C535.355 52.8791 534.583 52.7021 534.004 52.3482C534.455 51.0289 534.68 49.7901 534.68 48.6317C534.68 47.7307 534.471 47.055 534.052 46.6045C533.634 46.1218 533.119 45.8805 532.508 45.8805C531.8 45.8805 531.14 46.154 530.529 46.701C529.95 47.248 529.66 47.8916 529.66 48.6317C529.66 49.7579 530.03 50.6749 530.77 51.3828C531.542 52.0907 532.717 52.9113 534.294 53.8444C535.967 54.8419 537.238 55.8072 538.107 56.7404C539.008 57.6735 539.458 58.9124 539.458 60.4569C539.458 62.2588 538.959 63.8838 537.962 65.3318C536.964 66.7476 535.468 67.8738 533.473 68.7104C531.478 69.5148 529.017 69.9171 526.088 69.9171C523.514 69.9171 521.326 69.5631 519.524 68.8552C517.754 68.1151 516.87 66.8763 516.87 65.1387C516.87 63.916 517.336 62.9024 518.269 62.0979C519.202 61.2935 520.457 60.8913 522.034 60.8913C523.45 60.8913 524.656 61.1809 525.654 61.7601C525.268 62.8219 525.075 63.7068 525.075 64.4147C525.075 65.3479 525.3 66.0719 525.751 66.5867C526.201 67.0694 526.764 67.3107 527.44 67.3107C528.148 67.3107 528.775 67.0854 529.322 66.635C529.901 66.1523 530.191 65.5087 530.191 64.7043Z" fill="white"/>
</g>
<defs>
<filter id="filter0_ddd" x="0.29089" y="0.724976" width="104.906" height="105.236" filterUnits="userSpaceOnUse" color-interpolation-filters="sRGB">
<feFlood flood-opacity="0" result="BackgroundImageFix"/>
<feColorMatrix in="SourceAlpha" type="matrix" values="0 0 0 0 0 0 0 0 0 0 0 0 0 0 0 0 0 0 127 0" result="hardAlpha"/>
<feOffset dy="1.45078"/>
<feGaussianBlur stdDeviation="0.725389"/>
<feColorMatrix type="matrix" values="0 0 0 0 0 0 0 0 0 0 0 0 0 0 0 0 0 0 0.25 0"/>
<feBlend mode="normal" in2="BackgroundImageFix" result="effect1_dropShadow"/>
<feColorMatrix in="SourceAlpha" type="matrix" values="0 0 0 0 0 0 0 0 0 0 0 0 0 0 0 0 0 0 127 0" result="hardAlpha"/>
<feOffset dy="0.83144"/>
<feGaussianBlur stdDeviation="0.41572"/>
<feComposite in2="hardAlpha" operator="out"/>
<feColorMatrix type="matrix" values="0 0 0 0 0 0 0 0 0 0 0 0 0 0 0 0 0 0 0.25 0"/>
<feBlend mode="normal" in2="effect1_dropShadow" result="effect2_dropShadow"/>
<feColorMatrix in="SourceAlpha" type="matrix" values="0 0 0 0 0 0 0 0 0 0 0 0 0 0 0 0 0 0 127 0" result="hardAlpha"/>
<feOffset dy="0.83144"/>
<feGaussianBlur stdDeviation="0.41572"/>
<feComposite in2="hardAlpha" operator="out"/>
<feColorMatrix type="matrix" values="0 0 0 0 0 0 0 0 0 0 0 0 0 0 0 0 0 0 0.25 0"/>
<feBlend mode="normal" in2="effect2_dropShadow" result="effect3_dropShadow"/>
<feBlend mode="normal" in="SourceGraphic" in2="effect3_dropShadow" result="shape"/>
</filter>
<filter id="filter1_ddddd" x="140.939" y="32.4143" width="402.587" height="41.1487" filterUnits="userSpaceOnUse" color-interpolation-filters="sRGB">
<feFlood flood-opacity="0" result="BackgroundImageFix"/>
<feColorMatrix in="SourceAlpha" type="matrix" values="0 0 0 0 0 0 0 0 0 0 0 0 0 0 0 0 0 0 127 0" result="hardAlpha"/>
<feOffset dy="1.1227"/>
<feGaussianBlur stdDeviation="0.561348"/>
<feComposite in2="hardAlpha" operator="out"/>
<feColorMatrix type="matrix" values="0 0 0 0 0 0 0 0 0 0 0 0 0 0 0 0 0 0 0.25 0"/>
<feBlend mode="normal" in2="BackgroundImageFix" result="effect1_dropShadow"/>
<feColorMatrix in="SourceAlpha" type="matrix" values="0 0 0 0 0 0 0 0 0 0 0 0 0 0 0 0 0 0 127 0" result="hardAlpha"/>
<feOffset dy="1.70229"/>
<feGaussianBlur stdDeviation="0.851146"/>
<feComposite in2="hardAlpha" operator="out"/>
<feColorMatrix type="matrix" values="0 0 0 0 0 0 0 0 0 0 0 0 0 0 0 0 0 0 0.25 0"/>
<feBlend mode="normal" in2="effect1_dropShadow" result="effect2_dropShadow"/>
<feColorMatrix in="SourceAlpha" type="matrix" values="0 0 0 0 0 0 0 0 0 0 0 0 0 0 0 0 0 0 127 0" result="hardAlpha"/>
<feOffset dy="1.70229"/>
<feGaussianBlur stdDeviation="0.851146"/>
<feComposite in2="hardAlpha" operator="out"/>
<feColorMatrix type="matrix" values="0 0 0 0 0 0 0 0 0 0 0 0 0 0 0 0 0 0 0.25 0"/>
<feBlend mode="normal" in2="effect2_dropShadow" result="effect3_dropShadow"/>
<feColorMatrix in="SourceAlpha" type="matrix" values="0 0 0 0 0 0 0 0 0 0 0 0 0 0 0 0 0 0 127 0" result="hardAlpha"/>
<feOffset dy="1.70229"/>
<feGaussianBlur stdDeviation="0.851146"/>
<feComposite in2="hardAlpha" operator="out"/>
<feColorMatrix type="matrix" values="0 0 0 0 0 0 0 0 0 0 0 0 0 0 0 0 0 0 0.25 0"/>
<feBlend mode="normal" in2="effect3_dropShadow" result="effect4_dropShadow"/>
<feColorMatrix in="SourceAlpha" type="matrix" values="0 0 0 0 0 0 0 0 0 0 0 0 0 0 0 0 0 0 127 0" result="hardAlpha"/>
<feOffset dy="1.70229"/>
<feGaussianBlur stdDeviation="0.851146"/>
<feComposite in2="hardAlpha" operator="out"/>
<feColorMatrix type="matrix" values="0 0 0 0 0 0 0 0 0 0 0 0 0 0 0 0 0 0 0.25 0"/>
<feBlend mode="normal" in2="effect4_dropShadow" result="effect5_dropShadow"/>
<feBlend mode="normal" in="SourceGraphic" in2="effect5_dropShadow" result="shape"/>
</filter>
</defs>
</svg>
