<svg width="512" height="512" viewBox="0 0 512 512" fill="none" xmlns="http://www.w3.org/2000/svg">
<g clip-path="url(#clip0)">
<path d="M154.992 251.145H38.4554C23.741 238.307 -9.57199 196.414 10.2039 111.276C69.5317 -67.1082 209.14 15.3268 262.7 78.8425C285.066 36.9493 354.87 -31.4315 455.162 30.1922C539.916 82.0858 508.133 199.117 481.649 251.145H366.878L333.33 139.655L290.951 257.227L262.7 196.414L230.917 307.904L181.477 139.655L154.992 251.145Z" fill="#FB0505"/>
<path d="M255.228 514.254L61 285.192L166.943 281.138L186.365 208.162L230.508 376.41L267.588 256.813L290.542 313.571L332.921 196L355.874 281.138H463.582L359.405 397.696L255.228 514.254Z" fill="#FB0505"/>
<path d="M255.228 514.254L61 285.192L166.943 281.138L186.365 208.162L230.508 376.41L267.588 256.813L290.542 313.571L332.921 196L355.874 281.138H463.582L359.405 397.696L255.228 514.254Z" stroke="black"/>
<path d="M154.992 251.145H38.4554C23.741 238.307 -9.57199 196.414 10.2039 111.276C69.5317 -67.1082 209.14 15.3268 262.7 78.8425C285.066 36.9493 354.87 -31.4315 455.162 30.1922C539.916 82.0858 508.133 199.117 481.649 251.145H366.878L333.33 139.655L290.951 257.227L262.7 196.414L230.917 307.904L181.477 139.655L154.992 251.145Z" stroke="#FB0505"/>
<path d="M255.637 508.587L61.4093 279.525L167.352 275.471L186.775 202.496L230.917 370.743L267.997 251.146L290.951 307.904L333.33 190.333L356.284 275.471H463.991L255.637 508.587Z" stroke="#FB0505"/>
</g>
<defs>
<clipPath id="clip0">
<rect width="512" height="512" fill="white"/>
</clipPath>
</defs>
</svg>
