<svg width="512" height="512" viewBox="0 0 512 512" fill="none" xmlns="http://www.w3.org/2000/svg">
<path d="M255.631 512C396.194 512 510.143 397.385 510.143 256C510.143 114.615 396.194 0 255.631 0C115.069 0 1.11987 114.615 1.11987 256C1.11987 397.385 115.069 512 255.631 512Z" fill="#EFF312"/>
<path fill-rule="evenodd" clip-rule="evenodd" d="M242.285 396.408L242.627 427.912H270.493V397.614C301.571 394.584 317.184 376.802 322.509 369.984C348.52 333.86 377.499 250.768 270.493 222.365V146.171C282.237 148.915 290.633 156.938 292.786 177.518L341.087 173.781C339.849 150.735 323.998 104.642 270.493 104.642V85.9561H238.912L239.116 104.796C215.124 107.353 170.581 125.751 172.033 181.255C173.519 238.061 218.476 260.983 240.769 265.343C240.8 265.352 240.83 265.362 240.861 265.372L241.771 349.127C226.864 340.627 216.203 322.264 211.046 308.32H157.171C163.363 338.842 188.752 386.802 240.769 396.144C241.277 396.237 241.782 396.324 242.285 396.408ZM270.493 351.654C277.478 349.127 284.929 344.253 292.786 336.351C310.314 299.016 292.793 283.805 270.493 274.87V351.654ZM240.291 212.859L239.563 145.861C219.761 148.039 214.761 167.747 214.761 177.518C212.41 185.557 215.771 201.208 240.291 212.859Z" fill="#141313"/>
<path d="M242.627 427.912L241.139 427.93L241.155 429.409H242.627V427.912ZM242.285 396.408L243.773 396.393L243.76 395.138L242.53 394.932L242.285 396.408ZM270.493 427.912V429.409H271.982V427.912H270.493ZM270.493 397.614L270.35 396.123L269.005 396.255V397.614H270.493ZM322.509 369.984L323.679 370.91L323.7 370.886L323.715 370.862L322.509 369.984ZM270.493 222.365H269.005V223.518L270.114 223.812L270.493 222.365ZM270.493 146.171L270.83 144.712L269.005 144.286V146.171H270.493ZM292.786 177.518L291.306 177.675L291.458 179.122L292.901 179.01L292.786 177.518ZM341.087 173.781L341.203 175.273L342.653 175.161L342.573 173.7L341.087 173.781ZM270.493 104.642H269.005V106.139H270.493V104.642ZM270.493 85.9561H271.982V84.459H270.493V85.9561ZM238.912 85.9561V84.459H237.407L237.424 85.9725L238.912 85.9561ZM239.116 104.796L239.273 106.285L240.62 106.141L240.605 104.78L239.116 104.796ZM172.033 181.255L173.52 181.216L172.033 181.255ZM240.769 265.343L241.213 263.914L241.134 263.889L241.053 263.873L240.769 265.343ZM240.861 265.372L242.35 265.355L242.338 264.267L241.304 263.943L240.861 265.372ZM241.771 349.127L241.037 350.43L243.288 351.714L243.26 349.112L241.771 349.127ZM211.045 308.32L212.44 307.799L212.08 306.823H211.045V308.32ZM157.171 308.32V306.823H155.348L155.712 308.619L157.171 308.32ZM240.769 396.144L241.031 394.671L240.769 396.144ZM270.493 351.654H269.005V353.783L270.997 353.064L270.493 351.654ZM292.786 336.351L293.839 337.408L294.022 337.225L294.132 336.989L292.786 336.351ZM270.493 274.87L271.044 273.479L269.005 272.662V274.87H270.493ZM240.291 212.859L239.655 214.212L241.805 215.234L241.779 212.842L240.291 212.859ZM239.563 145.861L241.051 145.844L241.033 144.193L239.401 144.373L239.563 145.861ZM214.761 177.518L216.189 177.94L216.249 177.733V177.518H214.761ZM244.116 427.897L243.773 396.393L240.797 396.426L241.139 427.93L244.116 427.897ZM270.493 426.415H242.627V429.409H270.493V426.415ZM269.005 397.614V427.912H271.982V397.614H269.005ZM321.339 369.059C316.136 375.721 300.854 393.15 270.35 396.123L270.637 399.102C302.288 396.019 318.232 377.886 323.679 370.91L321.339 369.059ZM270.114 223.812C296.683 230.865 314.669 241.274 326.355 253.376C338.024 265.461 343.492 279.315 344.9 293.428C347.728 321.755 334.202 351.193 321.304 369.107L323.715 370.862C336.828 352.651 350.794 322.482 347.862 293.129C346.392 278.404 340.668 263.901 328.49 251.29C316.327 238.694 297.808 228.066 270.873 220.917L270.114 223.812ZM269.005 146.171V222.365H271.982V146.171H269.005ZM294.267 177.361C293.172 166.905 290.475 159.451 286.407 154.232C282.317 148.985 276.954 146.144 270.83 144.712L270.157 147.629C275.776 148.942 280.483 151.484 284.065 156.08C287.669 160.704 290.247 167.55 291.306 177.675L294.267 177.361ZM340.974 172.288L292.672 176.025L292.901 179.01L341.203 175.273L340.974 172.288ZM270.493 106.139C296.748 106.139 313.66 117.417 324.203 131.471C334.794 145.59 338.995 162.571 339.602 173.861L342.573 173.7C341.942 161.944 337.598 144.356 326.579 129.667C315.508 114.913 297.743 103.145 270.493 103.145V106.139ZM269.005 85.9561V104.642H271.982V85.9561H269.005ZM238.912 87.4531H270.493V84.459H238.912V87.4531ZM240.605 104.78L240.4 85.9396L237.424 85.9725L237.628 104.812L240.605 104.78ZM173.52 181.216C172.807 153.933 183.373 135.888 196.993 124.314C210.671 112.691 227.504 107.539 239.273 106.285L238.96 103.307C226.736 104.61 209.301 109.936 195.072 122.027C180.785 134.167 169.806 153.072 170.545 181.294L173.52 181.216ZM241.053 263.873C219.135 259.586 174.981 237.045 173.52 181.216L170.545 181.294C172.056 239.077 217.818 262.379 240.485 266.812L241.053 263.873ZM241.304 263.943C241.274 263.933 241.244 263.923 241.213 263.914L240.326 266.772C240.356 266.781 240.387 266.791 240.418 266.801L241.304 263.943ZM243.26 349.112L242.35 265.355L239.373 265.388L240.283 349.142L243.26 349.112ZM209.651 308.844C214.853 322.907 225.677 341.672 241.037 350.43L242.505 347.825C228.051 339.582 217.552 321.617 212.44 307.799L209.651 308.844ZM157.171 309.817H211.045V306.823H157.171V309.817ZM241.031 394.671C189.869 385.482 164.761 338.246 158.629 308.02L155.712 308.619C161.965 339.438 187.635 388.123 240.508 397.62L241.031 394.671ZM242.53 394.932C242.033 394.848 241.533 394.761 241.031 394.671L240.508 397.62C241.021 397.71 241.532 397.8 242.04 397.887L242.53 394.932ZM270.997 353.064C278.239 350.445 285.87 345.423 293.839 337.408L291.734 335.291C283.989 343.082 276.718 347.813 269.99 350.247L270.997 353.064ZM294.132 336.989C303.003 318.096 303.169 304.43 297.895 294.267C292.662 284.187 282.278 277.98 271.044 273.479L269.943 276.26C281.009 280.695 290.536 286.56 295.256 295.653C299.934 304.664 300.097 317.269 291.44 335.71L294.132 336.989ZM269.005 274.87V351.654H271.982V274.87H269.005ZM241.779 212.842L241.051 145.844L238.074 145.877L238.802 212.875L241.779 212.842ZM239.401 144.373C228.949 145.522 222.369 151.334 218.45 158.088C214.565 164.785 213.272 172.429 213.272 177.518H216.249C216.249 172.836 217.457 165.741 221.021 159.597C224.553 153.51 230.373 148.378 239.725 147.349L239.401 144.373ZM213.333 177.095C210.709 186.071 214.712 202.361 239.655 214.212L240.926 211.505C216.83 200.056 214.112 185.044 216.189 177.94L213.333 177.095Z" fill="black"/>
</svg>
