<svg width="512" height="512" viewBox="0 0 512 512" fill="none" xmlns="http://www.w3.org/2000/svg">
<path d="M448 112C442.891 112.002 437.857 113.228 433.32 115.575C428.782 117.923 424.873 121.323 421.92 125.492C418.174 121.251 413.57 117.854 408.411 115.528C403.253 113.202 397.659 111.999 392 112H376C361.153 112.017 346.919 117.922 336.421 128.421C325.922 138.919 320.017 153.153 320 168V196.687L223.598 100.284C215.729 92.4358 205.066 88.0315 193.952 88.0388C182.838 88.0461 172.182 92.4643 164.323 100.323C156.464 108.182 152.046 118.838 152.039 129.952C152.032 141.066 156.436 151.729 164.284 159.598L287.238 282.551L275.43 335.688L94.7174 147.446L65.2139 82.5381C61.6073 74.632 55.806 67.9281 48.4997 63.2235C41.1935 58.5189 32.6899 56.0117 24 56C22.9494 56 21.9091 56.2069 20.9385 56.6089C19.9679 57.0109 19.086 57.6002 18.3431 58.3431C17.6002 59.086 17.0109 59.9679 16.6089 60.9385C16.2069 61.9091 16 62.9494 16 64V192C16 193.051 16.2069 194.091 16.6089 195.062C17.0109 196.032 17.6002 196.914 18.3431 197.657C19.086 198.4 19.9679 198.989 20.9385 199.391C21.9091 199.793 22.9494 200 24 200H43.7918L180.505 398.856C192.282 415.984 207.944 430.083 226.212 440H128V456H440V440H351.909C376.748 426.555 396.618 405.496 408.599 379.919C423.962 346.874 431.947 310.88 432 274.438V261.185C438.737 269.556 447.264 276.31 456.956 280.95C466.647 285.591 477.255 288 488 288C489.051 288 490.091 287.793 491.061 287.391C492.032 286.989 492.914 286.4 493.657 285.657C494.4 284.914 494.989 284.032 495.391 283.061C495.793 282.091 496 281.051 496 280V160C495.986 147.274 490.924 135.073 481.925 126.075C472.927 117.076 460.726 112.014 448 112ZM368 224H360C353.637 223.993 347.537 221.462 343.037 216.963C338.538 212.463 336.007 206.363 336 200V168C335.999 165.313 336.269 162.633 336.805 160H360V176C360 177.051 360.207 178.091 360.609 179.061C361.011 180.032 361.6 180.914 362.343 181.657L394.343 213.657C395.086 214.4 395.968 214.989 396.939 215.391C397.909 215.793 398.949 216 400 216H416V240H376V232C376 230.949 375.793 229.909 375.391 228.938C374.989 227.968 374.4 227.086 373.657 226.343C372.914 225.6 372.032 225.011 371.061 224.609C370.091 224.207 369.051 224 368 224ZM376 128H392C398.363 128.007 404.463 130.538 408.963 135.037C413.462 139.537 415.993 145.637 416 152V200H403.313L376 172.687V152C376 150.949 375.793 149.909 375.391 148.938C374.989 147.968 374.4 147.086 373.657 146.343C372.914 145.6 372.032 145.011 371.061 144.609C370.091 144.207 369.051 144 368 144H344.022C347.743 139.033 352.571 135.001 358.122 132.224C363.672 129.447 369.793 128 376 128ZM168 129.941C168 124.81 169.522 119.795 172.372 115.529C175.222 111.263 179.274 107.938 184.014 105.975C188.754 104.011 193.97 103.498 199.002 104.498C204.034 105.499 208.656 107.97 212.284 111.598L344.402 243.716C349.263 248.582 351.993 255.179 351.992 262.057C351.99 268.934 349.257 275.53 344.394 280.394C339.53 285.257 332.934 287.99 326.057 287.992C319.179 287.993 312.582 285.263 307.716 280.402L175.598 148.284C173.181 145.881 171.266 143.022 169.961 139.874C168.657 136.725 167.991 133.349 168 129.941ZM225.191 306.459L170.079 355.448L58.3622 192.951L87.8834 163.43L225.191 306.459ZM32 73.1196C36.084 74.2843 39.8664 76.3217 43.0861 79.0909C46.3058 81.8602 48.886 85.2954 50.6484 89.1592L78.4229 150.263L44.6865 184H32V73.1196ZM289.138 440C270.349 440.002 251.841 435.433 235.212 426.685C218.583 417.938 204.333 405.276 193.69 389.792L179.214 368.736L236.28 318.01L274.229 357.54C274.922 358.258 275.744 358.84 276.651 359.256L276.647 359.264L373.174 403.814C362.343 415.217 349.31 424.303 334.866 430.522C320.421 436.742 304.865 439.966 289.138 440ZM416 274.438C415.95 308.543 408.477 342.227 394.1 373.153C391.176 379.419 387.691 385.407 383.689 391.046L289.209 347.439L300.75 295.502C306.973 300.212 314.387 303.092 322.158 303.818C329.928 304.544 337.747 303.088 344.735 299.613C351.723 296.138 357.603 290.782 361.713 284.147C365.823 277.513 368 269.863 368 262.059C367.999 260.032 367.854 258.007 367.565 256H416V274.438ZM480 271.43C466.679 269.489 454.5 262.821 445.688 252.645C436.875 242.468 432.017 229.462 432 216V144C432.005 139.758 433.692 135.691 436.692 132.692C439.691 129.692 443.758 128.005 448 128C456.484 128.01 464.618 131.384 470.617 137.383C476.616 143.382 479.99 151.516 480 160V271.43Z" fill="#FD951F"/>
<path d="M112 440H96V456H112V440Z" fill="#FD951F"/>
<path d="M472 440H456V456H472V440Z" fill="#FD951F"/>
</svg>
