<svg width="315" height="37" viewBox="0 0 315 37" fill="none" xmlns="http://www.w3.org/2000/svg">
<g filter="url(#filter0_d)">
<path d="M23.5714 20.341C24.2128 20.8097 24.5334 21.5497 24.5334 22.561C24.5334 23.5477 24.3114 24.3987 23.8674 25.114C23.4481 25.8047 22.8191 26.4213 21.9804 26.964C20.1798 28.1233 17.7008 28.703 14.5434 28.703C11.4108 28.703 8.98112 27.889 7.25442 26.261C5.55242 24.6083 4.70142 22.3267 4.70142 19.416C4.70142 15.2967 5.77442 11.6707 7.92042 8.53799C9.54842 6.21929 11.8178 4.56669 14.7284 3.57999C16.2331 3.08666 17.7254 2.83999 19.2054 2.83999C20.6854 2.83999 21.8818 2.93866 22.7944 3.13599C23.7071 3.33332 24.5088 3.62932 25.1994 4.02399C26.7041 4.88729 27.4564 6.00969 27.4564 7.39099C27.4564 8.64899 26.8644 9.74669 25.6804 10.684C24.5951 11.5227 23.6084 11.942 22.7204 11.942C21.8324 11.942 21.2034 11.8803 20.8334 11.757C20.9321 10.869 20.9814 10.1413 20.9814 9.57399C20.9814 8.98199 20.9691 8.47629 20.9444 8.05699C20.9198 7.63769 20.8458 7.23069 20.7224 6.83599C20.4758 5.92329 19.9701 5.46699 19.2054 5.46699C18.4654 5.46699 17.7131 5.82469 16.9484 6.53999C16.2084 7.23069 15.5178 8.16799 14.8764 9.35199C13.4211 12.0407 12.6934 14.976 12.6934 18.158C12.6934 19.6873 13.1251 20.896 13.9884 21.784C14.8518 22.6473 16.2084 23.079 18.0584 23.079C19.4398 23.079 20.7841 22.6227 22.0914 21.71C22.6588 21.3153 23.1521 20.859 23.5714 20.341ZM29.1902 26.89C28.6229 26.2487 28.2035 25.4223 27.9322 24.411C27.6855 23.3997 27.5622 22.0677 27.5622 20.415C27.5622 18.7623 27.8459 17.1837 28.4132 15.679C28.9805 14.1743 29.7822 12.8793 30.8182 11.794C32.9395 9.52469 35.752 8.38999 39.254 8.38999C40.512 8.38999 41.598 8.59969 42.51 9.01899L48.837 8.38999L46.099 22.82C46.025 23.116 45.988 23.5353 45.988 24.078C45.988 24.6207 46.149 25.0647 46.469 25.41C46.815 25.7553 47.234 25.9527 47.727 26.002C47.481 26.8407 46.901 27.5067 45.988 28C45.1 28.4933 44.151 28.74 43.139 28.74C42.128 28.74 41.277 28.5427 40.586 28.148C39.92 27.778 39.489 27.2723 39.291 26.631C38.897 27.2477 38.28 27.7533 37.441 28.148C36.603 28.5427 35.616 28.74 34.481 28.74C33.371 28.74 32.3599 28.592 31.4472 28.296C30.5345 28 29.7822 27.5313 29.1902 26.89ZM36.997 11.868C36.726 12.312 36.467 12.9163 36.22 13.681C35.974 14.421 35.641 15.8023 35.221 17.825C34.827 19.823 34.629 21.5373 34.629 22.968C34.629 24.3987 34.74 25.3237 34.962 25.743C35.184 26.1623 35.493 26.372 35.887 26.372C36.677 26.372 37.355 26.002 37.922 25.262C38.514 24.4973 38.921 23.449 39.143 22.117L41.104 11.276C40.586 10.832 40.019 10.61 39.402 10.61C38.81 10.61 38.329 10.7087 37.959 10.906C37.614 11.1033 37.293 11.424 36.997 11.868ZM61.896 15.013C62.241 14.1003 62.414 13.2493 62.414 12.46C62.414 11.0047 61.822 10.277 60.638 10.277C60.021 10.277 59.454 10.5607 58.936 11.128C58.442 11.6707 58.196 12.2873 58.196 12.978C58.196 13.4713 58.393 13.9153 58.788 14.31C59.355 14.8527 60.366 15.568 61.822 16.456C63.277 17.344 64.276 18.158 64.819 18.898C65.386 19.6133 65.67 20.4767 65.67 21.488C65.67 22.4747 65.423 23.4243 64.93 24.337C64.461 25.2497 63.795 26.0267 62.932 26.668C61.082 28.0493 58.677 28.74 55.717 28.74C54.113 28.74 52.695 28.3207 51.462 27.482C50.228 26.668 49.612 25.78 49.612 24.818C49.612 23.856 49.957 23.0913 50.648 22.524C51.363 21.9567 52.239 21.673 53.275 21.673C54.311 21.673 55.149 21.8703 55.791 22.265C55.47 23.079 55.31 23.7573 55.31 24.3C55.31 25.928 56 26.742 57.382 26.742C57.974 26.742 58.467 26.557 58.862 26.187C59.256 25.817 59.454 25.3113 59.454 24.67C59.454 23.412 58.393 22.117 56.272 20.785C54.545 19.6503 53.484 18.861 53.09 18.417C52.424 17.6277 52.091 16.7397 52.091 15.753C52.091 14.7663 52.325 13.8043 52.794 12.867C53.262 11.9297 53.928 11.128 54.792 10.462C56.592 9.08069 59.059 8.38999 62.192 8.38999C63.795 8.38999 65.065 8.71069 66.003 9.35199C66.965 9.99329 67.446 10.8567 67.446 11.942C67.446 13.0273 67.113 13.8783 66.447 14.495C65.805 15.1117 64.893 15.42 63.709 15.42C62.895 15.42 62.29 15.2843 61.896 15.013ZM87.438 23.893C87.438 24.9783 87.993 25.6813 89.103 26.002C88.831 26.9147 88.165 27.6177 87.105 28.111C86.217 28.5303 85.279 28.74 84.293 28.74C83.331 28.74 82.591 28.6043 82.073 28.333C81.579 28.0863 81.197 27.7533 80.926 27.334C80.482 26.6927 80.26 25.7677 80.26 24.559C80.26 23.8437 80.457 22.4993 80.852 20.526L81.37 17.714C81.789 15.568 81.999 14.1003 81.999 13.311C81.999 11.9297 81.616 11.239 80.852 11.239C79.89 11.239 79.1 11.942 78.484 13.348C78.237 13.8907 78.027 14.569 77.855 15.383L75.339 28L67.902 28.74L73.119 2.09999L80.556 1.35999L80.26 2.83999C79.569 6.63869 78.928 9.17929 78.336 10.462C79.717 9.08069 81.678 8.38999 84.219 8.38999C86.907 8.38999 88.498 9.27799 88.992 11.054C89.164 11.6213 89.251 12.1517 89.251 12.645C89.251 13.1383 89.226 13.5823 89.177 13.977C89.152 14.347 89.078 14.8773 88.955 15.568L88.474 18.232L87.623 22.413C87.499 22.9803 87.438 23.4737 87.438 23.893ZM91.726 27.815L96.388 3.57999C99.299 3.33332 101.692 3.20999 103.566 3.20999C105.441 3.20999 106.983 3.29632 108.191 3.46899C109.4 3.61699 110.411 3.90066 111.225 4.31999C112.853 5.10929 113.667 6.58929 113.667 8.75999C113.667 10.018 113.125 11.1773 112.039 12.238C111.028 13.2 109.967 13.792 108.857 14.014C110.041 14.2113 111.053 14.754 111.891 15.642C112.779 16.5793 113.223 17.7757 113.223 19.231C113.223 22.043 112.175 24.2753 110.078 25.928C107.982 27.556 104.874 28.37 100.754 28.37C97.918 28.37 94.908 28.185 91.726 27.815ZM99.94 25.669C100.162 25.6937 100.298 25.706 100.347 25.706H100.68C102.703 25.706 104.146 25.04 105.009 23.708C105.651 22.672 105.971 21.2043 105.971 19.305C105.971 18.2937 105.638 17.5167 104.972 16.974C104.331 16.4313 103.27 16.1353 101.79 16.086L99.94 25.669ZM107.414 8.79699C107.414 6.74969 106.428 5.72599 104.454 5.72599H104.121C104.023 5.72599 103.899 5.73829 103.751 5.76299L102.271 13.57H102.641C105.823 13.496 107.414 11.905 107.414 8.79699ZM117.246 26.89C116.679 26.2487 116.259 25.4223 115.988 24.411C115.741 23.3997 115.618 22.0677 115.618 20.415C115.618 18.7623 115.902 17.1837 116.469 15.679C117.036 14.1743 117.838 12.8793 118.874 11.794C120.995 9.52469 123.807 8.38999 127.31 8.38999C128.568 8.38999 129.653 8.59969 130.566 9.01899L136.893 8.38999L134.155 22.82C134.081 23.116 134.044 23.5353 134.044 24.078C134.044 24.6207 134.204 25.0647 134.525 25.41C134.87 25.7553 135.29 25.9527 135.783 26.002C135.536 26.8407 134.957 27.5067 134.044 28C133.156 28.4933 132.206 28.74 131.195 28.74C130.184 28.74 129.333 28.5427 128.642 28.148C127.976 27.778 127.544 27.2723 127.347 26.631C126.952 27.2477 126.336 27.7533 125.497 28.148C124.658 28.5427 123.672 28.74 122.537 28.74C121.427 28.74 120.416 28.592 119.503 28.296C118.59 28 117.838 27.5313 117.246 26.89ZM125.053 11.868C124.782 12.312 124.523 12.9163 124.276 13.681C124.029 14.421 123.696 15.8023 123.277 17.825C122.882 19.823 122.685 21.5373 122.685 22.968C122.685 24.3987 122.796 25.3237 123.018 25.743C123.24 26.1623 123.548 26.372 123.943 26.372C124.732 26.372 125.411 26.002 125.978 25.262C126.57 24.4973 126.977 23.449 127.199 22.117L129.16 11.276C128.642 10.832 128.075 10.61 127.458 10.61C126.866 10.61 126.385 10.7087 126.015 10.906C125.67 11.1033 125.349 11.424 125.053 11.868ZM156.911 12.608C156.911 13.644 156.479 14.4827 155.616 15.124C154.752 15.7653 153.618 16.086 152.212 16.086C151.62 16.086 151.151 15.9997 150.806 15.827C151.077 15.1857 151.25 14.4703 151.324 13.681C151.422 12.867 151.472 12.349 151.472 12.127C151.472 11.091 151.114 10.573 150.399 10.573C149.905 10.573 149.375 10.8813 148.808 11.498C148.265 12.1147 147.759 12.904 147.291 13.866C146.255 16.086 145.737 18.3183 145.737 20.563C145.737 21.7963 145.971 22.6967 146.44 23.264C146.908 23.8067 147.661 24.078 148.697 24.078C150.127 24.078 151.41 23.486 152.545 22.302C152.865 21.932 153.112 21.5373 153.285 21.118C154.222 21.6113 154.691 22.5363 154.691 23.893C154.691 25.2743 153.926 26.4213 152.397 27.334C150.818 28.2713 148.771 28.74 146.255 28.74C141.247 28.74 138.744 26.0883 138.744 20.785C138.744 16.9123 139.841 13.866 142.037 11.646C144.158 9.47529 147.167 8.38999 151.065 8.38999C154.962 8.38999 156.911 9.79599 156.911 12.608ZM167.44 10.462C168.772 9.08069 170.844 8.38999 173.656 8.38999C175.21 8.38999 176.406 8.80929 177.245 9.64799C178.108 10.462 178.54 11.6337 178.54 13.163C178.54 14.6677 178.108 15.9627 177.245 17.048C176.406 18.1087 175.198 18.861 173.619 19.305C173.742 19.7983 173.89 20.304 174.063 20.822L174.581 22.302C175.05 23.56 175.469 24.411 175.839 24.855C176.209 25.299 176.641 25.595 177.134 25.743C176.863 26.7543 176.234 27.5313 175.247 28.074C174.458 28.518 173.52 28.74 172.435 28.74C169.253 28.74 167.452 26.2857 167.033 21.377C166.959 20.6863 166.922 19.9957 166.922 19.305C168.155 18.9597 169.204 18.2073 170.067 17.048C170.93 15.8887 171.362 14.6307 171.362 13.274C171.362 11.9173 170.881 11.239 169.919 11.239C169.228 11.239 168.612 11.6213 168.069 12.386C167.526 13.1507 167.132 14.1867 166.885 15.494L164.443 28L156.969 28.74L162.149 2.09999L169.586 1.35999L168.735 5.76299C168.365 7.83499 167.933 9.40129 167.44 10.462ZM204.683 8.38999C202.685 8.38999 200.959 8.05699 199.503 7.39099L198.319 13.385H205.46C205.46 14.6923 205.127 15.7653 204.461 16.604C203.82 17.418 202.907 17.825 201.723 17.825C200.441 17.825 199.207 17.5907 198.023 17.122C197.777 17.0233 197.641 16.9617 197.616 16.937L195.507 28H187.441L192.14 3.57999H208.642C208.642 5.08469 208.285 6.26869 207.569 7.13199C206.879 7.97069 205.917 8.38999 204.683 8.38999ZM216.601 25.965C215.837 27.815 214.233 28.74 211.791 28.74C210.533 28.74 209.51 28.3083 208.72 27.445C208.054 26.6803 207.721 25.9157 207.721 25.151C207.721 23.153 208.178 20.2053 209.09 16.308L210.459 9.12999L217.97 8.38999L215.713 20.082C215.294 21.9073 215.084 23.1407 215.084 23.782C215.084 25.188 215.59 25.9157 216.601 25.965ZM211.125 3.98699C211.125 3.02499 211.52 2.28499 212.309 1.76699C213.123 1.24899 214.11 0.98999 215.269 0.98999C216.429 0.98999 217.354 1.24899 218.044 1.76699C218.76 2.28499 219.117 3.02499 219.117 3.98699C219.117 4.94899 218.723 5.67669 217.933 6.16999C217.169 6.66329 216.207 6.90999 215.047 6.90999C213.888 6.90999 212.938 6.66329 212.198 6.16999C211.483 5.67669 211.125 4.94899 211.125 3.98699ZM220.346 24.3C220.346 23.634 220.518 22.4623 220.864 20.785L222.825 10.795H220.642L220.79 9.68499C223.75 8.79699 226.66 7.26769 229.522 5.09699H231.298L230.41 9.12999H233.296L232.963 10.795H230.114L228.227 20.785C227.906 22.3143 227.746 23.338 227.746 23.856C227.746 25.04 228.264 25.7553 229.3 26.002C229.053 26.8407 228.486 27.5067 227.598 28C226.71 28.4933 225.637 28.74 224.379 28.74C223.121 28.74 222.134 28.3453 221.419 27.556C220.703 26.7667 220.346 25.6813 220.346 24.3ZM248.774 28.74C245.789 28.74 244.297 27.5807 244.297 25.262C244.321 24.6207 244.432 23.7573 244.63 22.672L245.296 19.268C245.962 16.0613 246.295 14.1003 246.295 13.385C246.295 11.9543 245.875 11.239 245.037 11.239C243.631 11.239 242.558 13.0767 241.818 16.752L239.635 28L232.198 28.74L236.046 9.09299L242.114 8.38999L241.522 12.016C242.681 9.59869 245.037 8.38999 248.589 8.38999C250.315 8.38999 251.536 8.75999 252.252 9.49999C252.992 10.2153 253.362 11.387 253.362 13.015C253.362 14.5443 252.967 17.0973 252.178 20.674C251.808 22.2773 251.623 23.3873 251.623 24.004C251.623 24.596 251.783 25.0647 252.104 25.41C252.449 25.7553 252.868 25.9527 253.362 26.002C253.115 26.8407 252.56 27.5067 251.697 28C250.858 28.4933 249.884 28.74 248.774 28.74ZM271.305 21.747C271.922 22.1663 272.23 22.8447 272.23 23.782C272.23 24.6947 271.996 25.447 271.527 26.039C271.058 26.631 270.442 27.1243 269.677 27.519C268.098 28.333 266.458 28.74 264.756 28.74C263.054 28.74 261.697 28.555 260.686 28.185C259.699 27.815 258.873 27.2847 258.207 26.594C256.9 25.2867 256.246 23.4367 256.246 21.044C256.246 17.3193 257.257 14.3223 259.28 12.053C261.451 9.61099 264.423 8.38999 268.197 8.38999C270.54 8.38999 272.292 8.88329 273.451 9.86999C274.314 10.61 274.746 11.5843 274.746 12.793C274.746 17.1343 270.997 19.305 263.498 19.305C263.399 19.9463 263.35 20.5383 263.35 21.081C263.35 22.2157 263.597 23.005 264.09 23.449C264.608 23.8683 265.336 24.078 266.273 24.078C267.21 24.078 268.172 23.8683 269.159 23.449C270.17 23.005 270.886 22.4377 271.305 21.747ZM263.757 17.714C265.508 17.714 266.89 17.1713 267.901 16.086C268.912 15.05 269.418 13.7057 269.418 12.053C269.418 11.4857 269.307 11.054 269.085 10.758C268.888 10.4373 268.579 10.277 268.16 10.277C267.741 10.277 267.346 10.3633 266.976 10.536C266.631 10.684 266.273 11.0293 265.903 11.572C264.99 12.8053 264.275 14.8527 263.757 17.714ZM287.075 15.013C287.421 14.1003 287.593 13.2493 287.593 12.46C287.593 11.0047 287.001 10.277 285.817 10.277C285.201 10.277 284.633 10.5607 284.115 11.128C283.622 11.6707 283.375 12.2873 283.375 12.978C283.375 13.4713 283.573 13.9153 283.967 14.31C284.535 14.8527 285.546 15.568 287.001 16.456C288.457 17.344 289.456 18.158 289.998 18.898C290.566 19.6133 290.849 20.4767 290.849 21.488C290.849 22.4747 290.603 23.4243 290.109 24.337C289.641 25.2497 288.975 26.0267 288.111 26.668C286.261 28.0493 283.856 28.74 280.896 28.74C279.293 28.74 277.875 28.3207 276.641 27.482C275.408 26.668 274.791 25.78 274.791 24.818C274.791 23.856 275.137 23.0913 275.827 22.524C276.543 21.9567 277.418 21.673 278.454 21.673C279.49 21.673 280.329 21.8703 280.97 22.265C280.65 23.079 280.489 23.7573 280.489 24.3C280.489 25.928 281.18 26.742 282.561 26.742C283.153 26.742 283.647 26.557 284.041 26.187C284.436 25.817 284.633 25.3113 284.633 24.67C284.633 23.412 283.573 22.117 281.451 20.785C279.725 19.6503 278.664 18.861 278.269 18.417C277.603 17.6277 277.27 16.7397 277.27 15.753C277.27 14.7663 277.505 13.8043 277.973 12.867C278.442 11.9297 279.108 11.128 279.971 10.462C281.772 9.08069 284.239 8.38999 287.371 8.38999C288.975 8.38999 290.245 8.71069 291.182 9.35199C292.144 9.99329 292.625 10.8567 292.625 11.942C292.625 13.0273 292.292 13.8783 291.626 14.495C290.985 15.1117 290.072 15.42 288.888 15.42C288.074 15.42 287.47 15.2843 287.075 15.013ZM305.069 15.013C305.415 14.1003 305.587 13.2493 305.587 12.46C305.587 11.0047 304.995 10.277 303.811 10.277C303.195 10.277 302.627 10.5607 302.109 11.128C301.616 11.6707 301.369 12.2873 301.369 12.978C301.369 13.4713 301.567 13.9153 301.961 14.31C302.529 14.8527 303.54 15.568 304.995 16.456C306.451 17.344 307.45 18.158 307.992 18.898C308.56 19.6133 308.843 20.4767 308.843 21.488C308.843 22.4747 308.597 23.4243 308.103 24.337C307.635 25.2497 306.969 26.0267 306.105 26.668C304.255 28.0493 301.85 28.74 298.89 28.74C297.287 28.74 295.869 28.3207 294.635 27.482C293.402 26.668 292.785 25.78 292.785 24.818C292.785 23.856 293.131 23.0913 293.821 22.524C294.537 21.9567 295.412 21.673 296.448 21.673C297.484 21.673 298.323 21.8703 298.964 22.265C298.644 23.079 298.483 23.7573 298.483 24.3C298.483 25.928 299.174 26.742 300.555 26.742C301.147 26.742 301.641 26.557 302.035 26.187C302.43 25.817 302.627 25.3113 302.627 24.67C302.627 23.412 301.567 22.117 299.445 20.785C297.719 19.6503 296.658 18.861 296.263 18.417C295.597 17.6277 295.264 16.7397 295.264 15.753C295.264 14.7663 295.499 13.8043 295.967 12.867C296.436 11.9297 297.102 11.128 297.965 10.462C299.766 9.08069 302.233 8.38999 305.365 8.38999C306.969 8.38999 308.239 8.71069 309.176 9.35199C310.138 9.99329 310.619 10.8567 310.619 11.942C310.619 13.0273 310.286 13.8783 309.62 14.495C308.979 15.1117 308.066 15.42 306.882 15.42C306.068 15.42 305.464 15.2843 305.069 15.013Z" fill="white"/>
</g>
<defs>
<filter id="filter0_d" x="0.701416" y="0.98999" width="313.918" height="35.75" filterUnits="userSpaceOnUse" color-interpolation-filters="sRGB">
<feFlood flood-opacity="0" result="BackgroundImageFix"/>
<feColorMatrix in="SourceAlpha" type="matrix" values="0 0 0 0 0 0 0 0 0 0 0 0 0 0 0 0 0 0 127 0"/>
<feOffset dy="4"/>
<feGaussianBlur stdDeviation="2"/>
<feColorMatrix type="matrix" values="0 0 0 0 0 0 0 0 0 0 0 0 0 0 0 0 0 0 0.25 0"/>
<feBlend mode="normal" in2="BackgroundImageFix" result="effect1_dropShadow"/>
<feBlend mode="normal" in="SourceGraphic" in2="effect1_dropShadow" result="shape"/>
</filter>
</defs>
</svg>
