<svg width="1205" height="1004" viewBox="0 0 1205 1004" fill="none" xmlns="http://www.w3.org/2000/svg">
<g filter="url(#filter0_d)">
<path d="M938.068 298.578H898.919C893.975 294.817 882.784 282.543 889.428 257.6C909.358 205.339 956.258 229.49 974.251 248.098C981.764 235.825 1005.21 215.792 1038.91 233.845C1067.38 249.049 1056.7 283.335 1047.8 298.578H1009.25L997.978 265.915L983.741 300.359L974.251 282.543L963.574 315.206L946.965 265.915L938.068 298.578Z" fill="#FB0505"/>
<path d="M971.878 374L906.63 306.892L942.22 305.704L948.745 284.325L963.574 333.616L976.03 298.578L983.741 315.206L997.978 280.762L1005.69 305.704H1041.87L971.878 374Z" fill="#FB0505"/>
<path d="M938.068 298.578H898.919C893.975 294.817 882.784 282.543 889.428 257.6C909.358 205.339 956.258 229.49 974.251 248.098C981.764 235.825 1005.21 215.792 1038.91 233.845C1067.38 249.049 1056.7 283.335 1047.8 298.578H1009.25L997.978 265.915L983.741 300.359L974.251 282.543L963.574 315.206L946.965 265.915L938.068 298.578Z" stroke="#FB0505"/>
<path d="M971.878 374L906.63 306.892L942.22 305.704L948.745 284.325L963.574 333.616L976.03 298.578L983.741 315.206L997.978 280.762L1005.69 305.704H1041.87L971.878 374Z" stroke="#FB0505"/>
<path d="M298.694 155.577C287.252 176.025 293.927 185.6 298.694 187.831C316.465 167.546 381.912 119.063 501.539 87.4171C630.6 73.2983 730.419 115.209 764.196 137.929C738.711 137.929 694.631 147.666 675.777 152.534C629.487 174.93 620.948 202.843 622.465 214C668.235 195.013 811.873 206.089 877.971 214C889.674 206.089 914.899 186.736 922.181 172.617C929.462 158.498 922.614 143.609 918.28 137.929L831.811 1L807.756 20.4743C787.471 32.1589 799.304 64.2914 807.756 78.8971C783.831 66.2389 713.702 39.1371 681.628 27.1686C541.848 -17.2571 405.318 60.0314 368.91 83.7657C332.502 107.5 312.997 130.017 298.694 155.577Z" fill="#28FF0C" stroke="#28FF0C"/>
<path d="M435.629 917.349C460.109 916.281 465.991 905.985 465.872 900.97C438.608 896.804 362.791 868.143 277.629 786.825C204.524 688.926 197.518 586.381 203.153 547.346C214.975 568.094 244.551 599.035 257.862 611.912C300.333 638.224 330.466 631.001 340.223 624.101C301.189 596.481 244.946 473.921 221.704 416.094C208.858 410.584 179.011 399.875 162.395 401.117C145.779 402.358 134.995 415.494 131.68 421.907L43.4012 561.833L72.8192 571.527C93.1841 582.107 117.824 556.158 127.598 541.86C126.827 567.766 133.946 638.619 137.602 670.808C160.786 807.162 296.584 879.064 335.727 896.652C374.869 914.239 405.029 918.684 435.629 917.349Z" fill="#28FF0C" stroke="#28FF0C"/>
<path d="M1053.12 408.711C1038.43 390.189 1026.32 391.648 1022.1 394.693C1033.88 418.474 1052.04 494.656 1030.45 609.143C987.898 723.958 904.178 789.798 867.637 808.367C878.721 786.906 888.528 745.556 892.045 727.564C890.639 678.851 867.508 659.53 856.118 655.958C854.473 702.752 781.349 818.891 744.993 871.112C747.513 884.405 755.153 914.057 765.565 926.325C775.977 938.593 793.275 939.297 800.623 938.116L969.919 924.813L961.652 896.093C959.236 873.934 923.187 869.933 905.464 870.702C928.044 856.057 984.609 808.782 1010.07 786.976C1113.59 688.578 1098.64 540.02 1091.64 499.047C1084.65 458.074 1071.48 431.864 1053.12 408.711Z" fill="#28FF0C" stroke="#28FF0C"/>
<circle cx="206.876" cy="286.5" r="85.5" fill="#EFF312"/>
<path fill-rule="evenodd" clip-rule="evenodd" d="M202.393 333.394L202.508 343.916H211.869V333.797C222.309 332.785 227.554 326.846 229.343 324.569C238.081 312.504 247.816 284.752 211.869 275.266V249.819C215.814 250.735 218.634 253.415 219.358 260.288L235.584 259.04C235.168 251.343 229.843 235.949 211.869 235.949V229.708H201.259L201.328 236C193.268 236.854 178.304 242.999 178.792 261.536C179.291 280.509 194.394 288.164 201.883 289.62C201.894 289.624 201.904 289.627 201.914 289.63L202.22 317.603C197.212 314.764 193.631 308.631 191.898 303.974H173.8C175.88 314.168 184.409 330.186 201.883 333.306C202.054 333.337 202.224 333.366 202.393 333.394ZM211.869 318.447C214.215 317.603 216.718 315.975 219.358 313.336C225.246 300.867 219.36 295.786 211.869 292.802V318.447ZM201.723 272.091L201.478 249.715C194.826 250.443 193.146 257.025 193.146 260.288C192.357 262.973 193.485 268.201 201.723 272.091Z" fill="#141313"/>
<path d="M202.508 343.916L202.008 343.922L202.013 344.416H202.508V343.916ZM202.393 333.394L202.893 333.389L202.888 332.97L202.475 332.901L202.393 333.394ZM211.869 343.916V344.416H212.369V343.916H211.869ZM211.869 333.797L211.821 333.299L211.369 333.343V333.797H211.869ZM229.343 324.569L229.736 324.878L229.743 324.87L229.748 324.862L229.343 324.569ZM211.869 275.266H211.369V275.652L211.741 275.75L211.869 275.266ZM211.869 249.819L211.982 249.332L211.369 249.189V249.819H211.869ZM219.358 260.288L218.861 260.341L218.912 260.824L219.396 260.787L219.358 260.288ZM235.584 259.04L235.623 259.539L236.11 259.501L236.083 259.013L235.584 259.04ZM211.869 235.949H211.369V236.449L211.869 236.449V235.949ZM211.869 229.708H212.369V229.208H211.869V229.708ZM201.259 229.708V229.208H200.754L200.759 229.713L201.259 229.708ZM201.328 236L201.381 236.497L201.833 236.45L201.828 235.995L201.328 236ZM178.792 261.536L179.292 261.523L178.792 261.536ZM201.883 289.62L202.033 289.143L202.006 289.135L201.979 289.13L201.883 289.62ZM201.914 289.63L202.414 289.625L202.41 289.261L202.063 289.153L201.914 289.63ZM202.22 317.603L201.973 318.038L202.73 318.467L202.72 317.598L202.22 317.603ZM191.898 303.974L192.367 303.8L192.246 303.474H191.898V303.974ZM173.8 303.974V303.474H173.187L173.31 304.074L173.8 303.974ZM201.883 333.306L201.971 332.814H201.971L201.883 333.306ZM211.869 318.447H211.369V319.158L212.038 318.918L211.869 318.447ZM219.358 313.336L219.711 313.689L219.773 313.628L219.81 313.549L219.358 313.336ZM211.869 292.802L212.054 292.338L211.369 292.065V292.802H211.869ZM201.723 272.091L201.509 272.544L202.231 272.885L202.223 272.086L201.723 272.091ZM201.478 249.715L201.978 249.71L201.972 249.158L201.424 249.218L201.478 249.715ZM193.146 260.288L193.626 260.429L193.646 260.36V260.288L193.146 260.288ZM203.008 343.911L202.893 333.389L201.893 333.4L202.008 343.922L203.008 343.911ZM211.869 343.416H202.508V344.416H211.869V343.416ZM211.369 333.797V343.916H212.369V333.797H211.369ZM228.95 324.26C227.202 326.485 222.068 332.306 211.821 333.299L211.917 334.294C222.55 333.264 227.906 327.208 229.736 324.878L228.95 324.26ZM211.741 275.75C220.667 278.105 226.709 281.582 230.635 285.624C234.555 289.66 236.392 294.287 236.865 299C237.815 308.461 233.271 318.293 228.938 324.276L229.748 324.862C234.153 318.78 238.845 308.704 237.86 298.9C237.366 293.983 235.443 289.139 231.352 284.927C227.266 280.72 221.045 277.171 211.997 274.783L211.741 275.75ZM211.369 249.819V275.266H212.369V249.819H211.369ZM219.855 260.236C219.488 256.744 218.581 254.254 217.215 252.511C215.841 250.759 214.039 249.81 211.982 249.332L211.756 250.306C213.643 250.744 215.225 251.593 216.428 253.128C217.639 254.673 218.505 256.959 218.861 260.341L219.855 260.236ZM235.546 258.542L219.32 259.79L219.396 260.787L235.623 259.539L235.546 258.542ZM211.869 236.449C220.689 236.449 226.37 240.215 229.912 244.909C233.47 249.625 234.881 255.296 235.085 259.067L236.083 259.013C235.871 255.087 234.412 249.213 230.71 244.307C226.991 239.379 221.023 235.449 211.869 235.449V236.449ZM211.369 229.708V235.949H212.369V229.708H211.369ZM201.259 230.208H211.869V229.208H201.259V230.208ZM201.828 235.995L201.759 229.703L200.759 229.713L200.828 236.006L201.828 235.995ZM179.292 261.523C179.052 252.411 182.602 246.384 187.177 242.519C191.772 238.637 197.427 236.916 201.381 236.497L201.276 235.503C197.169 235.938 191.312 237.717 186.532 241.755C181.733 245.81 178.044 252.124 178.292 261.55L179.292 261.523ZM201.979 289.13C194.616 287.698 179.783 280.169 179.292 261.523L178.292 261.55C178.8 280.848 194.173 288.63 201.788 290.111L201.979 289.13ZM202.063 289.153C202.053 289.149 202.043 289.146 202.033 289.143L201.734 290.098C201.745 290.101 201.755 290.104 201.765 290.107L202.063 289.153ZM202.72 317.598L202.414 289.625L201.414 289.635L201.72 317.608L202.72 317.598ZM191.429 304.149C193.177 308.846 196.813 315.113 201.973 318.038L202.467 317.168C197.611 314.415 194.084 308.415 192.367 303.8L191.429 304.149ZM173.8 304.474H191.898V303.474H173.8V304.474ZM201.971 332.814C184.784 329.745 176.349 313.969 174.289 303.874L173.31 304.074C175.41 314.367 184.034 330.627 201.796 333.799L201.971 332.814ZM202.475 332.901C202.308 332.873 202.14 332.844 201.971 332.814L201.796 333.799C201.968 333.829 202.14 333.859 202.31 333.888L202.475 332.901ZM212.038 318.918C214.471 318.043 217.034 316.366 219.711 313.689L219.004 312.982C216.403 315.584 213.96 317.164 211.7 317.977L212.038 318.918ZM219.81 313.549C222.79 307.239 222.846 302.675 221.074 299.281C219.316 295.914 215.828 293.841 212.054 292.338L211.684 293.267C215.401 294.748 218.602 296.707 220.188 299.744C221.759 302.753 221.814 306.963 218.906 313.122L219.81 313.549ZM211.369 292.802V318.447H212.369V292.802H211.369ZM202.223 272.086L201.978 249.71L200.978 249.721L201.223 272.097L202.223 272.086ZM201.424 249.218C197.913 249.602 195.702 251.543 194.386 253.799C193.08 256.036 192.646 258.589 192.646 260.288L193.646 260.288C193.646 258.725 194.052 256.355 195.249 254.303C196.436 252.27 198.391 250.556 201.532 250.212L201.424 249.218ZM192.667 260.147C191.785 263.145 193.13 268.585 201.509 272.544L201.936 271.639C193.841 267.816 192.928 262.802 193.626 260.429L192.667 260.147Z" fill="black"/>
<circle cx="601.876" cy="869.5" r="85.5" fill="#4C64D2"/>
<path d="M551.046 859.686V880.521V906.912C551.046 910.246 554.275 912.005 555.889 912.468H571.801C573.462 912.468 576.183 908.764 577.336 906.912C576.875 895.337 575.952 870.381 575.952 863.158C575.952 855.935 574.568 854.593 573.877 852.74C570.648 851.583 562.946 851.907 557.964 852.74C553.021 853.568 551.277 857.139 551.046 859.686Z" fill="white"/>
<path d="M582.061 899.883V856.824C583.675 851.499 588.979 839.6 597.281 834.599C603.37 830.155 605.814 818.857 606.275 813.764C610.703 800.985 620.75 808.903 621.496 813.764C621.957 816.774 623.018 824.182 623.571 829.738C624.125 835.294 619.189 845.017 616.653 849.184H646.402C655.81 853.629 651.706 862.148 648.477 865.852C655.672 870.853 651.475 877.659 648.477 880.437C654.565 884.882 649.63 891.086 646.402 893.633C651.383 900.3 645.71 905.208 642.251 906.828H592.439C585.797 906.828 582.753 902.198 582.061 899.883Z" fill="white"/>
<path d="M550.968 859.602V880.437V906.828C550.968 910.162 554.196 911.922 555.811 912.385H571.723C573.383 912.385 576.104 908.681 577.257 906.828C576.796 895.253 575.874 870.297 575.874 863.074C575.874 855.851 574.49 854.509 573.798 852.657C570.57 851.499 562.867 851.823 557.886 852.657C552.943 853.484 551.198 857.055 550.968 859.602Z" stroke="white"/>
<path d="M581.487 899.967V856.908C583.101 851.583 588.405 839.684 596.707 834.683C602.795 830.238 605.24 818.941 605.701 813.848C610.129 801.069 620.176 808.986 620.921 813.848C621.382 816.857 622.443 824.266 622.997 829.822C623.55 835.378 618.615 845.101 616.078 849.268H645.827C655.236 853.713 651.131 862.232 647.903 865.936C655.098 870.937 650.901 877.743 647.903 880.521C653.991 884.966 649.056 891.17 645.827 893.717C650.808 900.384 645.135 905.292 641.676 906.912H591.864C585.223 906.912 582.179 902.282 581.487 899.967Z" stroke="white"/>
<path fill-rule="evenodd" clip-rule="evenodd" d="M534.861 277.227C527.534 275.59 524.874 267.842 524.21 261.969C523.983 268.657 521.201 273.511 519.593 275.308C520.069 277.702 517.241 281.029 515.486 282.67C517.081 280.936 516.373 277.108 515.776 275.308L515.14 273.388C514.291 273.602 512.849 274.54 513.867 276.587C514.885 278.634 513.019 282.558 511.959 284.264L509.414 278.506C510.432 283.112 503.053 287.676 499.236 289.382C499.236 292.452 495.843 294.073 494.146 294.5L493.51 289.382C491.983 293.476 487.361 292.367 485.24 291.301C490.329 289.766 491.602 285.97 491.602 284.264C491.814 281.065 492.111 273.9 491.602 270.83C491.093 267.759 496.479 265.712 499.236 265.072C503.477 263.579 511.959 258.291 511.959 249.079C511.959 239.867 522.137 237.137 527.227 236.924C528.245 231.806 535.709 227.968 539.314 226.688C543.979 226.049 555.727 225.281 565.396 227.328C575.066 229.375 578.756 240.549 579.392 245.88V258.675L583.845 262.513V266.991L579.392 268.91V270.83V281.065C579.18 283.198 577.483 287.335 572.394 286.823C567.305 286.311 564.336 287.889 563.488 288.742C562.428 291.727 560.562 298.466 561.579 301.537C562.597 304.607 565.82 305.801 567.305 306.015C573.921 304.991 579.816 312.838 581.937 316.89L597.841 356.553H599.113H600.385C604.838 352.928 614.253 344.782 616.289 341.2C618.325 337.617 616.713 334.163 615.653 332.883C611.582 329.301 614.805 324.993 616.925 323.287C618.198 323.074 622.905 323.031 631.557 324.567C640.209 326.102 637.707 334.589 635.374 338.641L625.832 348.237L613.745 364.87C610.988 369.988 603.312 380.479 594.66 381.503C586.008 382.526 578.756 367.002 576.211 359.112H574.939L568.577 394.937C569.595 405.173 565.608 418.82 563.488 424.365L560.943 439.718C566.541 441.253 578.968 463.814 584.481 474.903L607.383 517.125L609.291 541.435H611.2C612.218 527.617 623.499 516.485 629.012 512.647L630.285 507.529L631.557 486.418C631.557 480.789 641.736 458.057 646.825 447.395V441.637C640.718 440.102 623.075 412.849 615.017 399.415C610.988 393.871 605.729 381.247 616.925 375.105C622.651 369.988 647.461 356.127 659.548 353.355C662.602 346.701 671.847 344.612 676.088 344.398L684.358 338.001V335.442L677.997 329.685V323.287L677.361 318.169L667.818 303.456V293.86L669.727 291.301C669.091 292.154 668.454 291.685 670.999 282.984C673.544 274.284 690.72 272.109 698.99 272.109C702.595 271.896 712.986 271.725 725.709 272.749C738.432 273.772 742.037 293.647 742.249 303.456L748.611 311.132V316.89L745.43 317.53L744.158 338.001L733.343 352.715C741.486 356.809 740.977 369.774 739.704 375.745L747.974 382.782C754.548 382.569 767.059 386.365 764.515 403.253C756.881 430.378 735.463 438.439 725.709 439.078L721.892 458.27V479.381L719.983 499.213C735.251 508.425 758.153 550.391 767.695 570.223L768.968 621.401C769.18 628.438 769.731 644.175 770.24 650.828C770.749 657.482 775.541 671.087 777.874 677.057H780.419C784.49 672.963 786.78 677.057 787.416 679.616V686.653L802.048 700.727L814.771 703.926C828.512 710.579 818.8 716.081 812.227 718H791.87C774.905 717.147 740.595 713.266 739.068 704.566C737.541 695.865 745.218 684.734 749.247 680.256L743.521 648.27L730.798 619.482L728.89 583.017C724.437 577.046 714.512 565.233 710.441 565.745C706.37 566.256 688.387 548.045 679.905 538.876C674.604 544.207 663.747 555.637 662.729 558.708C661.711 561.778 638.131 583.87 626.468 594.532L632.193 605.408H634.102L655.731 603.489L664.637 599.01C667.182 596.238 673.289 592.485 677.361 599.65C681.432 606.815 676.512 615.857 673.544 619.482L657.003 634.835L649.37 635.475V639.953C649.37 640.38 647.334 642.64 639.191 648.27C631.048 653.899 626.044 648.483 624.559 645.071L614.381 627.798L616.289 619.482L606.747 605.408C595.084 612.232 569.341 627.159 559.671 632.276C550.001 637.394 534.437 649.762 527.863 655.307C529.899 656.33 528.711 661.704 527.863 664.263C525.53 665.116 520.992 667.717 521.501 671.3C522.01 674.882 516.624 684.734 513.867 689.212C514.503 694.97 514.758 707.381 510.687 710.963C501.526 715.057 492.45 694.757 489.057 684.094C487.997 672.366 485.367 646.99 483.332 639.313C481.296 631.637 487.573 628.864 490.966 628.438C498.387 628.012 513.74 627.159 515.776 627.159C517.812 627.159 532.74 613.937 539.95 607.327C547.075 594.021 567.941 580.458 577.483 575.34L587.026 570.862C579.786 557.516 579.984 535.539 580.024 531.121C580.026 530.88 580.028 530.692 580.028 530.559C580.028 528.512 551.189 501.558 536.769 488.337C538.296 491.92 522.137 508.169 513.867 515.846L495.419 535.038C488.803 540.667 476.122 537.81 470.608 535.677L391.088 535.038C390.579 539.644 384.091 539.942 380.91 539.516L361.189 559.347L355.463 568.303C346.812 577.516 343.8 570.436 343.376 565.745L344.012 549.112C342.486 544.506 351.858 533.118 356.736 528.001C355.718 519.812 359.28 512.647 361.189 510.088L366.278 502.411C366.49 502.838 367.423 502.923 369.459 499.853C371.495 496.782 374.124 498.147 375.184 499.213C380.061 504.117 390.579 514.055 393.633 514.566C397.45 515.206 412.718 513.927 431.803 507.529C445.544 499.341 463.399 504.544 470.608 508.169C472.517 508.809 477.097 509.576 480.151 507.529C483.204 505.482 486.088 496.867 487.149 492.815C488.675 476.95 498.811 459.336 503.689 452.513C491.983 431.018 502.628 411.57 509.414 404.533C499.745 402.998 492.662 389.819 490.329 383.422L480.787 375.745C479.939 375.105 474.807 370.371 461.066 356.553C447.325 342.735 455.34 332.457 461.066 329.045L489.057 311.132C497.2 298.85 514.928 294.073 522.774 293.22C525.53 292.367 531.553 290.277 533.588 288.742C535.624 287.207 535.285 280.425 534.861 277.227ZM515.14 282.984C515.265 282.89 515.38 282.784 515.486 282.67C515.365 282.783 515.249 282.888 515.14 282.984ZM649.172 410.631L644.451 395.439L653.892 392.797L649.172 410.631ZM510.174 335.569C509.999 346.409 510.593 369.034 514.37 372.81C511.747 371.936 506.187 370.712 504.928 372.81C498.809 366.691 486.256 352.564 484.997 345.011C484.997 341.234 487.444 340.64 488.668 340.815L507.027 334.52C508.084 333.996 510.194 333.471 510.174 335.569Z" fill="white"/>
<path d="M524.21 261.969L524.707 261.913L523.711 261.952L524.21 261.969ZM534.861 277.227L535.356 277.161L535.31 276.815L534.97 276.739L534.861 277.227ZM519.593 275.308L519.22 274.974L519.054 275.16L519.102 275.405L519.593 275.308ZM515.776 275.308L516.25 275.15V275.15L515.776 275.308ZM515.14 273.388L515.614 273.231L515.468 272.79L515.018 272.904L515.14 273.388ZM513.867 276.587L514.315 276.365L513.867 276.587ZM511.959 284.264L511.502 284.466L511.884 285.331L512.383 284.528L511.959 284.264ZM509.414 278.506L509.872 278.304L508.926 278.614L509.414 278.506ZM499.236 289.382L499.032 288.925L498.736 289.057V289.382H499.236ZM494.146 294.5L493.65 294.561L493.72 295.122L494.268 294.984L494.146 294.5ZM493.51 289.382L494.006 289.32L493.042 289.207L493.51 289.382ZM485.24 291.301L485.096 290.822L483.895 291.184L485.015 291.748L485.24 291.301ZM491.602 284.264L491.103 284.231L491.102 284.247V284.264H491.602ZM499.236 265.072L499.349 265.559L499.376 265.553L499.402 265.544L499.236 265.072ZM527.227 236.924L527.248 237.423L527.64 237.407L527.717 237.021L527.227 236.924ZM539.314 226.688L539.246 226.193L539.195 226.2L539.146 226.217L539.314 226.688ZM565.396 227.328L565.293 227.817L565.396 227.328ZM579.392 245.88H579.892V245.85L579.888 245.821L579.392 245.88ZM579.392 258.675H578.892V258.904L579.065 259.053L579.392 258.675ZM583.845 262.513H584.345V262.284L584.171 262.134L583.845 262.513ZM583.845 266.991L584.043 267.45L584.345 267.32V266.991H583.845ZM579.392 268.91L579.194 268.451L578.892 268.581V268.91H579.392ZM579.392 281.065L579.889 281.115L579.892 281.09V281.065H579.392ZM572.394 286.823L572.344 287.32V287.32L572.394 286.823ZM563.488 288.742L563.133 288.389L563.054 288.469L563.017 288.575L563.488 288.742ZM561.579 301.537L562.054 301.379L561.579 301.537ZM567.305 306.015L567.234 306.51L567.308 306.52L567.381 306.509L567.305 306.015ZM581.937 316.89L582.401 316.704L582.391 316.681L582.38 316.658L581.937 316.89ZM597.841 356.553L597.376 356.739L597.502 357.053H597.841V356.553ZM600.385 356.553V357.053H600.563L600.701 356.941L600.385 356.553ZM616.289 341.2L616.724 341.447L616.289 341.2ZM615.653 332.883L616.038 332.564L616.013 332.534L615.983 332.508L615.653 332.883ZM616.925 323.287L616.843 322.794L616.714 322.816L616.612 322.898L616.925 323.287ZM631.557 324.567L631.47 325.059L631.557 324.567ZM635.374 338.641L635.729 338.993L635.775 338.947L635.807 338.89L635.374 338.641ZM625.832 348.237L625.477 347.884L625.45 347.912L625.427 347.943L625.832 348.237ZM613.745 364.87L613.34 364.576L613.32 364.603L613.304 364.633L613.745 364.87ZM576.211 359.112L576.687 358.959L576.575 358.612H576.211V359.112ZM574.939 359.112V358.612H574.52L574.446 359.025L574.939 359.112ZM568.577 394.937L568.085 394.85L568.073 394.918L568.08 394.986L568.577 394.937ZM563.488 424.365L563.021 424.186L563.003 424.233L562.995 424.283L563.488 424.365ZM560.943 439.718L560.45 439.636L560.376 440.081L560.811 440.2L560.943 439.718ZM584.481 474.903L584.033 475.126L584.037 475.134L584.042 475.141L584.481 474.903ZM607.383 517.125L607.881 517.086L607.873 516.98L607.822 516.887L607.383 517.125ZM609.291 541.435L608.793 541.474L608.829 541.935H609.291V541.435ZM611.2 541.435V541.935H611.664L611.699 541.472L611.2 541.435ZM629.012 512.647L629.298 513.057L629.452 512.95L629.498 512.768L629.012 512.647ZM630.285 507.529L630.77 507.65L630.781 507.605L630.784 507.559L630.285 507.529ZM631.557 486.418L632.056 486.448L632.057 486.433V486.418H631.557ZM646.825 447.395L647.276 447.61L647.325 447.508V447.395H646.825ZM646.825 441.637H647.325V441.247L646.947 441.152L646.825 441.637ZM615.017 399.415L615.446 399.158L615.434 399.139L615.421 399.121L615.017 399.415ZM616.925 375.105L617.166 375.544L617.216 375.516L617.259 375.478L616.925 375.105ZM659.548 353.355L659.66 353.842L659.9 353.787L660.003 353.563L659.548 353.355ZM676.088 344.398L676.113 344.898L676.27 344.89L676.394 344.794L676.088 344.398ZM684.358 338.001L684.664 338.397L684.858 338.246V338.001H684.358ZM684.358 335.442H684.858V335.22L684.694 335.071L684.358 335.442ZM677.997 329.685H677.497V329.906L677.661 330.055L677.997 329.685ZM677.997 323.287H678.497V323.256L678.493 323.226L677.997 323.287ZM677.361 318.169L677.857 318.108L677.843 317.994L677.78 317.897L677.361 318.169ZM667.818 303.456H667.318V303.604L667.399 303.728L667.818 303.456ZM667.818 293.86L667.417 293.561L667.318 293.694V293.86H667.818ZM670.999 282.984L670.519 282.844L670.999 282.984ZM698.99 272.109V272.609H699.005L699.02 272.608L698.99 272.109ZM725.709 272.749L725.749 272.25L725.709 272.749ZM742.249 303.456L741.749 303.467L741.753 303.641L741.864 303.775L742.249 303.456ZM748.611 311.132H749.111V310.952L748.996 310.813L748.611 311.132ZM748.611 316.89L748.709 317.38L749.111 317.299V316.89H748.611ZM745.43 317.53L745.331 317.04L744.955 317.115L744.931 317.499L745.43 317.53ZM744.158 338.001L744.56 338.297L744.647 338.179L744.657 338.032L744.158 338.001ZM733.343 352.715L732.94 352.419L732.589 352.896L733.118 353.162L733.343 352.715ZM739.704 375.745L739.215 375.641L739.153 375.933L739.38 376.126L739.704 375.745ZM747.974 382.782L747.65 383.163L747.798 383.288L747.991 383.282L747.974 382.782ZM764.515 403.253L764.996 403.389L765.004 403.359L765.009 403.328L764.515 403.253ZM725.709 439.078L725.676 438.579L725.293 438.604L725.218 438.981L725.709 439.078ZM721.892 458.27L721.401 458.173L721.392 458.221V458.27H721.892ZM721.892 479.381L722.39 479.429L722.392 479.405V479.381H721.892ZM719.983 499.213L719.486 499.165L719.456 499.478L719.725 499.641L719.983 499.213ZM767.695 570.223L768.195 570.21L768.193 570.103L768.146 570.006L767.695 570.223ZM768.968 621.401L768.468 621.413L768.468 621.416L768.968 621.401ZM770.24 650.828L770.739 650.79L770.24 650.828ZM777.874 677.057L777.408 677.239L777.533 677.557H777.874V677.057ZM780.419 677.057V677.557H780.627L780.773 677.41L780.419 677.057ZM787.416 679.616H787.916V679.555L787.902 679.496L787.416 679.616ZM787.416 686.653H786.916V686.866L787.07 687.014L787.416 686.653ZM802.048 700.727L801.702 701.088L801.797 701.18L801.926 701.212L802.048 700.727ZM814.771 703.926L814.989 703.476L814.943 703.454L814.893 703.441L814.771 703.926ZM812.227 718V718.5H812.298L812.367 718.48L812.227 718ZM791.87 718L791.844 718.499L791.857 718.5H791.87V718ZM739.068 704.566L738.576 704.652L739.068 704.566ZM749.247 680.256L749.618 680.59L749.782 680.409L749.739 680.168L749.247 680.256ZM743.521 648.27L744.014 648.181L744.003 648.122L743.979 648.067L743.521 648.27ZM730.798 619.482L730.299 619.508L730.304 619.6L730.341 619.684L730.798 619.482ZM728.89 583.017L729.389 582.991L729.381 582.84L729.29 582.718L728.89 583.017ZM679.905 538.876L680.272 538.536L679.918 538.154L679.551 538.523L679.905 538.876ZM662.729 558.708L662.254 558.55L662.729 558.708ZM626.468 594.532L626.13 594.163L625.846 594.424L626.025 594.765L626.468 594.532ZM632.193 605.408L631.751 605.641L631.891 605.908H632.193V605.408ZM634.102 605.408V605.908H634.124L634.146 605.906L634.102 605.408ZM655.731 603.489L655.775 603.987L655.87 603.978L655.956 603.935L655.731 603.489ZM664.637 599.01L664.862 599.457L664.944 599.416L665.006 599.349L664.637 599.01ZM677.361 599.65L676.926 599.897L677.361 599.65ZM673.544 619.482L673.884 619.848L673.909 619.825L673.931 619.799L673.544 619.482ZM657.003 634.835L657.045 635.334L657.217 635.319L657.344 635.202L657.003 634.835ZM649.37 635.475L649.328 634.977L648.87 635.015V635.475H649.37ZM639.191 648.27L639.475 648.681L639.191 648.27ZM624.559 645.071L625.018 644.871L625.006 644.843L624.99 644.817L624.559 645.071ZM614.381 627.798L613.893 627.686L613.849 627.881L613.95 628.052L614.381 627.798ZM616.289 619.482L616.777 619.594L616.825 619.381L616.703 619.201L616.289 619.482ZM606.747 605.408L607.161 605.127L606.898 604.74L606.494 604.976L606.747 605.408ZM527.863 655.307L527.54 654.924L526.961 655.413L527.638 655.753L527.863 655.307ZM527.863 664.263L528.035 664.732L528.261 664.649L528.337 664.42L527.863 664.263ZM521.501 671.3L521.996 671.23L521.501 671.3ZM513.867 689.212L513.442 688.95L513.351 689.096L513.37 689.267L513.867 689.212ZM510.687 710.963L510.891 711.419L510.96 711.389L511.017 711.338L510.687 710.963ZM489.057 684.094L488.559 684.139L488.564 684.194L488.581 684.246L489.057 684.094ZM483.332 639.313L482.848 639.442L483.332 639.313ZM490.966 628.438L490.937 627.939L490.92 627.94L490.903 627.942L490.966 628.438ZM539.95 607.327L540.288 607.695L540.351 607.638L540.391 607.563L539.95 607.327ZM577.483 575.34L577.271 574.888L577.259 574.894L577.247 574.9L577.483 575.34ZM587.026 570.862L587.238 571.315L587.718 571.09L587.465 570.624L587.026 570.862ZM580.024 531.121L580.524 531.126L580.024 531.121ZM536.769 488.337L537.107 487.969L536.309 488.533L536.769 488.337ZM513.867 515.846L513.527 515.479L513.517 515.489L513.507 515.499L513.867 515.846ZM495.419 535.038L495.743 535.418L495.762 535.402L495.779 535.384L495.419 535.038ZM470.608 535.677L470.789 535.211L470.704 535.178L470.612 535.177L470.608 535.677ZM391.088 535.038L391.092 534.538L390.641 534.534L390.591 534.983L391.088 535.038ZM380.91 539.516L380.976 539.02L380.73 538.987L380.555 539.163L380.91 539.516ZM361.189 559.347L360.834 558.995L360.796 559.033L360.767 559.078L361.189 559.347ZM355.463 568.303L355.828 568.646L355.86 568.612L355.885 568.573L355.463 568.303ZM343.376 565.745L342.877 565.725L342.875 565.758L342.878 565.79L343.376 565.745ZM344.012 549.112L344.512 549.131L344.515 549.04L344.487 548.954L344.012 549.112ZM356.736 528.001L357.098 528.346L357.261 528.174L357.232 527.939L356.736 528.001ZM361.189 510.088L361.59 510.387L361.598 510.376L361.605 510.364L361.189 510.088ZM366.278 502.411L366.726 502.189L366.34 501.413L365.861 502.135L366.278 502.411ZM369.459 499.853L369.876 500.129H369.876L369.459 499.853ZM375.184 499.213L374.83 499.565H374.83L375.184 499.213ZM393.633 514.566L393.716 514.073L393.633 514.566ZM431.803 507.529L431.961 508.003L432.012 507.986L432.059 507.959L431.803 507.529ZM470.608 508.169L470.384 508.616L470.416 508.632L470.449 508.643L470.608 508.169ZM480.151 507.529L479.872 507.114V507.114L480.151 507.529ZM487.149 492.815L487.632 492.942L487.642 492.903L487.646 492.863L487.149 492.815ZM503.689 452.513L504.096 452.803L504.278 452.548L504.128 452.273L503.689 452.513ZM509.414 404.533L509.774 404.88L510.44 404.189L509.493 404.039L509.414 404.533ZM490.329 383.422L490.799 383.251L490.751 383.12L490.643 383.032L490.329 383.422ZM480.787 375.745L481.1 375.356L481.094 375.351L481.088 375.346L480.787 375.745ZM461.066 356.553L461.42 356.201L461.066 356.553ZM461.066 329.045L461.322 329.474L461.329 329.47L461.335 329.466L461.066 329.045ZM489.057 311.132L489.327 311.554L489.415 311.497L489.474 311.409L489.057 311.132ZM522.774 293.22L522.828 293.717L522.875 293.712L522.921 293.698L522.774 293.22ZM533.588 288.742L533.287 288.343L533.588 288.742ZM515.14 282.984L514.809 282.609L515.441 283.384L515.14 282.984ZM644.451 395.439L644.316 394.958L643.821 395.097L643.973 395.588L644.451 395.439ZM649.172 410.631L648.694 410.779L649.21 412.44L649.655 410.759L649.172 410.631ZM653.892 392.797L654.376 392.925L654.599 392.08L653.757 392.316L653.892 392.797ZM514.37 372.81L514.212 373.285L514.723 372.457L514.37 372.81ZM510.174 335.569L510.674 335.577L510.674 335.574L510.174 335.569ZM504.928 372.81L504.575 373.164L505.028 373.617L505.357 373.068L504.928 372.81ZM484.997 345.011H484.497V345.052L484.503 345.093L484.997 345.011ZM488.668 340.815L488.598 341.31L488.717 341.327L488.83 341.288L488.668 340.815ZM507.027 334.52L507.189 334.993L507.22 334.983L507.249 334.968L507.027 334.52ZM479.515 340.56L479.341 340.091L479.015 340.212V340.56H479.515ZM503.689 331.604L503.862 332.073L503.888 332.063L503.913 332.05L503.689 331.604ZM510.686 334.163L511.184 334.212L510.686 334.163ZM515.14 377.664L515.115 378.164L516.104 378.213L515.556 377.388L515.14 377.664ZM502.416 377.025L502.04 377.353L502.179 377.513L502.391 377.524L502.416 377.025ZM524.046 258.035L524.542 257.977L523.546 258.016L524.046 258.035ZM524.21 261.969L523.713 262.025L524.71 261.986L524.21 261.969ZM523.713 262.025C524.05 265.003 524.894 268.482 526.604 271.437C528.319 274.401 530.919 276.858 534.752 277.715L534.97 276.739C531.476 275.958 529.082 273.723 527.47 270.936C525.852 268.139 525.034 264.808 524.707 261.913L523.713 262.025ZM519.965 275.641C521.649 273.759 524.478 268.794 524.71 261.986L523.711 261.952C523.487 268.519 520.752 273.263 519.22 274.974L519.965 275.641ZM515.827 283.035C516.725 282.196 517.9 280.923 518.796 279.543C519.673 278.191 520.362 276.613 520.083 275.21L519.102 275.405C519.299 276.396 518.813 277.679 517.957 278.999C517.118 280.292 516.002 281.503 515.144 282.305L515.827 283.035ZM515.301 275.465C515.588 276.331 515.903 277.691 515.953 279.033C516.004 280.4 515.776 281.617 515.118 282.332L515.853 283.009C516.791 281.99 517.006 280.425 516.953 278.995C516.898 277.54 516.56 276.085 516.25 275.15L515.301 275.465ZM514.665 273.546L515.301 275.465L516.25 275.15L515.614 273.231L514.665 273.546ZM514.315 276.365C513.869 275.467 513.998 274.915 514.222 274.574C514.471 274.194 514.917 273.96 515.262 273.873L515.018 272.904C514.514 273.03 513.814 273.372 513.386 274.026C512.93 274.72 512.848 275.66 513.42 276.81L514.315 276.365ZM512.383 284.528C512.93 283.649 513.681 282.205 514.168 280.708C514.411 279.959 514.594 279.182 514.646 278.446C514.698 277.713 514.624 276.985 514.315 276.365L513.42 276.81C513.62 277.213 513.694 277.743 513.649 278.375C513.604 279.004 513.445 279.697 513.217 280.399C512.76 281.802 512.048 283.173 511.534 284L512.383 284.528ZM508.957 278.708L511.502 284.466L512.416 284.062L509.872 278.304L508.957 278.708ZM499.44 289.838C501.379 288.972 504.225 287.38 506.468 285.407C507.59 284.421 508.581 283.321 509.228 282.15C509.876 280.975 510.19 279.702 509.902 278.398L508.926 278.614C509.147 279.614 508.92 280.638 508.352 281.667C507.782 282.701 506.881 283.713 505.808 284.656C503.662 286.543 500.909 288.086 499.032 288.925L499.44 289.838ZM494.268 294.984C495.17 294.758 496.511 294.219 497.638 293.324C498.769 292.426 499.736 291.123 499.736 289.382H498.736C498.736 290.711 498.006 291.754 497.016 292.541C496.023 293.33 494.819 293.815 494.024 294.015L494.268 294.984ZM493.014 289.443L493.65 294.561L494.643 294.438L494.006 289.32L493.014 289.443ZM485.015 291.748C486.125 292.305 487.901 292.884 489.629 292.775C490.5 292.721 491.378 292.49 492.15 291.975C492.926 291.456 493.564 290.669 493.979 289.556L493.042 289.207C492.693 290.141 492.181 290.751 491.594 291.143C491.003 291.538 490.307 291.731 489.566 291.777C488.072 291.871 486.476 291.362 485.465 290.854L485.015 291.748ZM491.102 284.264C491.102 285.77 489.954 289.356 485.096 290.822L485.384 291.78C490.704 290.175 492.102 286.169 492.102 284.264H491.102ZM491.108 270.911C491.355 272.397 491.409 274.914 491.372 277.492C491.335 280.056 491.208 282.639 491.103 284.231L492.101 284.297C492.207 282.691 492.335 280.091 492.372 277.506C492.409 274.934 492.358 272.333 492.095 270.748L491.108 270.911ZM499.123 264.585C497.713 264.912 495.624 265.599 493.937 266.61C493.094 267.115 492.323 267.719 491.792 268.424C491.256 269.138 490.954 269.977 491.108 270.911L492.095 270.748C491.995 270.147 492.176 269.579 492.592 269.025C493.014 268.463 493.666 267.938 494.451 267.468C496.02 266.528 498.002 265.872 499.349 265.559L499.123 264.585ZM511.459 249.079C511.459 253.518 509.419 257.023 506.833 259.617C504.243 262.217 501.129 263.876 499.07 264.6L499.402 265.544C501.583 264.776 504.831 263.043 507.542 260.323C510.258 257.597 512.459 253.852 512.459 249.079H511.459ZM527.206 236.424C524.604 236.533 520.702 237.283 517.432 239.195C514.144 241.118 511.459 244.247 511.459 249.079H512.459C512.459 244.698 514.863 241.856 517.937 240.058C521.028 238.25 524.76 237.528 527.248 237.423L527.206 236.424ZM539.146 226.217C537.308 226.869 534.497 228.169 532.008 229.961C529.537 231.74 527.284 234.075 526.736 236.826L527.717 237.021C528.188 234.655 530.175 232.512 532.592 230.773C534.991 229.046 537.714 227.787 539.481 227.159L539.146 226.217ZM565.5 226.839C555.751 224.775 543.939 225.549 539.246 226.193L539.382 227.184C544.019 226.548 555.703 225.787 565.293 227.817L565.5 226.839ZM579.888 245.821C579.563 243.098 578.464 238.903 576.211 235.117C573.957 231.328 570.517 227.901 565.5 226.839L565.293 227.817C569.945 228.802 573.185 231.985 575.352 235.628C577.521 239.274 578.584 243.331 578.895 245.939L579.888 245.821ZM579.892 258.675V245.88H578.892V258.675H579.892ZM584.171 262.134L579.718 258.296L579.065 259.053L583.519 262.892L584.171 262.134ZM584.345 266.991V262.513H583.345V266.991H584.345ZM579.59 269.37L584.043 267.45L583.647 266.532L579.194 268.451L579.59 269.37ZM579.892 270.83V268.91H578.892V270.83H579.892ZM579.892 281.065V270.83H578.892V281.065H579.892ZM572.344 287.32C575.052 287.593 576.906 286.622 578.098 285.266C579.268 283.933 579.776 282.26 579.889 281.115L578.894 281.016C578.796 282.003 578.349 283.464 577.346 284.606C576.364 285.723 574.825 286.565 572.444 286.325L572.344 287.32ZM563.842 289.095C564.556 288.377 567.36 286.819 572.344 287.32L572.444 286.325C567.25 285.803 564.116 287.401 563.133 288.389L563.842 289.095ZM562.054 301.379C561.827 300.696 561.751 299.769 561.799 298.684C561.846 297.606 562.012 296.408 562.245 295.202C562.711 292.79 563.436 290.383 563.959 288.909L563.017 288.575C562.48 290.086 561.741 292.542 561.263 295.012C561.025 296.248 560.849 297.497 560.8 298.64C560.75 299.775 560.822 300.842 561.105 301.694L562.054 301.379ZM567.376 305.52C566.698 305.422 565.589 305.093 564.535 304.425C563.485 303.759 562.517 302.777 562.054 301.379L561.105 301.694C561.659 303.367 562.812 304.517 563.999 305.269C565.182 306.019 566.427 306.394 567.234 306.51L567.376 305.52ZM582.38 316.658C581.299 314.593 579.262 311.568 576.643 309.18C574.036 306.801 570.76 304.974 567.228 305.521L567.381 306.509C570.466 306.032 573.445 307.616 575.97 309.919C578.483 312.211 580.454 315.135 581.494 317.122L582.38 316.658ZM598.305 356.367L582.401 316.704L581.472 317.076L597.376 356.739L598.305 356.367ZM599.113 356.053H597.841V357.053H599.113V356.053ZM600.385 356.053H599.113V357.053H600.385V356.053ZM615.854 340.953C615.377 341.794 614.442 342.938 613.206 344.259C611.979 345.571 610.481 347.03 608.904 348.494C605.748 351.422 602.29 354.358 600.069 356.165L600.701 356.941C602.934 355.123 606.409 352.173 609.584 349.227C611.171 347.754 612.687 346.278 613.937 344.942C615.179 343.614 616.184 342.397 616.724 341.447L615.854 340.953ZM615.268 333.202C616.252 334.389 617.75 337.617 615.854 340.953L616.724 341.447C618.9 337.618 617.175 333.936 616.038 332.564L615.268 333.202ZM616.612 322.898C615.506 323.787 614.093 325.366 613.491 327.228C613.188 328.167 613.086 329.192 613.351 330.235C613.617 331.281 614.241 332.306 615.323 333.259L615.983 332.508C615.03 331.669 614.53 330.812 614.321 329.989C614.111 329.164 614.185 328.334 614.443 327.535C614.965 325.921 616.224 324.493 617.239 323.677L616.612 322.898ZM631.644 324.074C622.982 322.537 618.204 322.566 616.843 322.794L617.008 323.78C618.191 323.582 622.828 323.526 631.47 325.059L631.644 324.074ZM635.807 338.89C636.997 336.824 638.256 333.589 638.084 330.631C637.997 329.139 637.544 327.692 636.507 326.514C635.469 325.334 633.89 324.473 631.644 324.074L631.47 325.059C633.55 325.428 634.902 326.204 635.756 327.174C636.61 328.145 637.008 329.361 637.086 330.689C637.242 333.371 636.084 336.406 634.941 338.391L635.807 338.89ZM626.186 348.589L635.729 338.993L635.019 338.288L625.477 347.884L626.186 348.589ZM614.149 365.164L626.236 348.531L625.427 347.943L613.34 364.576L614.149 365.164ZM594.718 381.999C599.213 381.467 603.396 378.491 606.769 375.073C610.152 371.643 612.787 367.701 614.185 365.107L613.304 364.633C611.945 367.156 609.364 371.019 606.057 374.37C602.739 377.733 598.758 380.514 594.601 381.006L594.718 381.999ZM575.735 359.266C577.017 363.24 579.484 369.14 582.731 373.931C584.355 376.325 586.189 378.466 588.187 379.947C590.189 381.43 592.389 382.275 594.718 381.999L594.601 381.006C592.604 381.242 590.654 380.53 588.783 379.144C586.909 377.755 585.148 375.714 583.559 373.369C580.381 368.681 577.95 362.874 576.687 358.959L575.735 359.266ZM574.939 359.612H576.211V358.612H574.939V359.612ZM569.069 395.024L575.431 359.2L574.446 359.025L568.085 394.85L569.069 395.024ZM563.955 424.543C565.024 421.747 566.559 416.924 567.699 411.513C568.838 406.108 569.591 400.079 569.075 394.887L568.08 394.986C568.581 400.03 567.85 405.943 566.72 411.307C565.591 416.665 564.072 421.438 563.021 424.186L563.955 424.543ZM561.436 439.8L563.981 424.446L562.995 424.283L560.45 439.636L561.436 439.8ZM584.929 474.68C582.168 469.127 577.675 460.7 573.168 453.464C570.916 449.847 568.653 446.516 566.595 443.988C565.567 442.725 564.581 441.652 563.667 440.842C562.763 440.04 561.887 439.458 561.075 439.236L560.811 440.2C561.399 440.362 562.136 440.821 563.004 441.59C563.863 442.351 564.81 443.379 565.82 444.62C567.839 447.1 570.077 450.391 572.32 453.992C576.804 461.193 581.281 469.591 584.033 475.126L584.929 474.68ZM607.822 516.887L584.921 474.665L584.042 475.141L606.943 517.364L607.822 516.887ZM609.79 541.396L607.881 517.086L606.884 517.164L608.793 541.474L609.79 541.396ZM611.2 540.935H609.291V541.935H611.2V540.935ZM628.727 512.237C625.926 514.187 621.687 517.968 618.016 523.004C614.346 528.04 611.219 534.366 610.701 541.398L611.699 541.472C612.198 534.686 615.221 528.537 618.824 523.593C622.427 518.65 626.585 514.946 629.298 513.057L628.727 512.237ZM629.8 507.409L628.527 512.526L629.498 512.768L630.77 507.65L629.8 507.409ZM631.058 486.388L629.786 507.499L630.784 507.559L632.056 486.448L631.058 486.388ZM646.374 447.179C643.826 452.516 640.005 460.873 636.82 468.603C635.228 472.468 633.792 476.182 632.753 479.286C631.723 482.365 631.057 484.917 631.057 486.418H632.057C632.057 485.105 632.664 482.704 633.701 479.604C634.73 476.53 636.156 472.839 637.745 468.984C640.921 461.275 644.734 452.936 647.276 447.61L646.374 447.179ZM646.325 441.637V447.395H647.325V441.637H646.325ZM614.588 399.672C618.621 406.397 625.054 416.58 631.245 425.278C634.34 429.626 637.381 433.613 640.037 436.613C641.365 438.112 642.604 439.375 643.712 440.314C644.806 441.243 645.823 441.901 646.703 442.122L646.947 441.152C646.3 440.99 645.43 440.46 644.359 439.552C643.301 438.655 642.097 437.431 640.786 435.95C638.164 432.989 635.146 429.035 632.06 424.698C625.888 416.028 619.47 405.868 615.446 399.158L614.588 399.672ZM616.685 374.667C613.804 376.247 611.954 378.262 610.886 380.5C609.82 382.733 609.548 385.154 609.764 387.529C610.193 392.265 612.565 396.892 614.612 399.709L615.421 399.121C613.439 396.394 611.168 391.937 610.76 387.439C610.556 385.198 610.817 382.965 611.788 380.93C612.757 378.901 614.449 377.034 617.166 375.544L616.685 374.667ZM659.436 352.867C653.324 354.269 644.05 358.455 635.618 362.908C627.19 367.359 619.506 372.128 616.592 374.733L617.259 375.478C620.071 372.965 627.654 368.245 636.085 363.792C644.511 359.342 653.685 355.212 659.66 353.842L659.436 352.867ZM676.063 343.899C673.892 344.008 670.461 344.595 667.176 346.002C663.895 347.407 660.693 349.661 659.094 353.146L660.003 353.563C661.457 350.395 664.404 348.277 667.57 346.921C670.731 345.567 674.043 345.002 676.113 344.898L676.063 343.899ZM684.052 337.606L675.782 344.003L676.394 344.794L684.664 338.397L684.052 337.606ZM683.858 335.442V338.001H684.858V335.442H683.858ZM677.661 330.055L684.023 335.813L684.694 335.071L678.332 329.314L677.661 330.055ZM677.497 323.287V329.685H678.497V323.287H677.497ZM676.864 318.231L677.501 323.349L678.493 323.226L677.857 318.108L676.864 318.231ZM667.399 303.728L676.941 318.442L677.78 317.897L668.238 303.184L667.399 303.728ZM667.318 293.86V303.456H668.318V293.86H667.318ZM669.326 291.002L667.417 293.561L668.219 294.159L670.128 291.6L669.326 291.002ZM670.519 282.844C669.248 287.191 668.755 289.531 668.671 290.689C668.65 290.98 668.652 291.226 668.686 291.422C668.713 291.582 668.787 291.874 669.059 292.023C669.376 292.197 669.667 292.035 669.783 291.954C669.919 291.857 670.036 291.723 670.128 291.6L669.326 291.002C669.295 291.043 669.268 291.076 669.245 291.1C669.233 291.112 669.224 291.121 669.217 291.128C669.213 291.131 669.211 291.133 669.209 291.135C669.207 291.136 669.206 291.137 669.206 291.137C669.206 291.137 669.206 291.137 669.207 291.136C669.207 291.136 669.208 291.135 669.21 291.135C669.212 291.133 669.216 291.131 669.222 291.128C669.233 291.122 669.254 291.114 669.283 291.107C669.348 291.093 669.444 291.094 669.54 291.146C669.702 291.236 669.692 291.372 669.672 291.255C669.658 291.173 669.65 291.019 669.669 290.761C669.744 289.723 670.206 287.478 671.479 283.125L670.519 282.844ZM698.99 271.609C694.823 271.609 688.412 272.156 682.709 273.804C679.857 274.628 677.158 275.734 675.002 277.201C672.844 278.67 671.198 280.522 670.519 282.844L671.479 283.125C672.072 281.096 673.527 279.414 675.564 278.028C677.603 276.641 680.192 275.572 682.986 274.764C688.575 273.15 694.887 272.609 698.99 272.609V271.609ZM725.749 272.25C713.004 271.225 702.59 271.395 698.961 271.61L699.02 272.608C702.6 272.396 712.967 272.225 725.669 273.247L725.749 272.25ZM742.749 303.445C742.642 298.501 741.682 291.017 739.135 284.623C736.598 278.251 732.407 272.786 725.749 272.25L725.669 273.247C731.734 273.735 735.707 278.719 738.206 284.993C740.696 291.243 741.644 298.601 741.749 303.467L742.749 303.445ZM748.996 310.813L742.634 303.137L741.864 303.775L748.226 311.452L748.996 310.813ZM749.111 316.89V311.132H748.111V316.89H749.111ZM745.528 318.02L748.709 317.38L748.512 316.4L745.331 317.04L745.528 318.02ZM744.657 338.032L745.929 317.561L744.931 317.499L743.658 337.97L744.657 338.032ZM733.746 353.011L744.56 338.297L743.755 337.705L732.94 352.419L733.746 353.011ZM740.193 375.849C740.839 372.819 741.292 368.021 740.548 363.446C739.806 358.882 737.849 354.421 733.567 352.268L733.118 353.162C736.979 355.103 738.84 359.172 739.561 363.607C740.28 368.031 739.842 372.7 739.215 375.641L740.193 375.849ZM748.298 382.401L740.028 375.364L739.38 376.126L747.65 383.163L748.298 382.401ZM765.009 403.328C766.303 394.741 763.771 389.384 759.984 386.221C756.232 383.086 751.328 382.173 747.958 382.282L747.991 383.282C751.195 383.178 755.833 384.056 759.343 386.988C762.819 389.892 765.271 394.877 764.02 403.179L765.009 403.328ZM725.742 439.577C735.664 438.926 757.294 430.756 764.996 403.389L764.033 403.118C756.468 430 735.262 437.951 725.676 438.579L725.742 439.577ZM722.382 458.368L726.199 439.176L725.218 438.981L721.401 458.173L722.382 458.368ZM722.392 479.381V458.27H721.392V479.381H722.392ZM720.481 499.261L722.39 479.429L721.394 479.333L719.486 499.165L720.481 499.261ZM768.146 570.006C763.369 560.078 755.249 544.611 746.41 530.47C741.991 523.4 737.388 516.653 732.928 511.093C728.476 505.542 724.137 501.135 720.242 498.785L719.725 499.641C723.464 501.897 727.713 506.189 732.148 511.718C736.574 517.237 741.155 523.949 745.562 531C754.377 545.104 762.48 560.536 767.245 570.439L768.146 570.006ZM769.468 621.389L768.195 570.21L767.196 570.235L768.468 621.413L769.468 621.389ZM770.739 650.79C770.231 644.151 769.68 628.426 769.468 621.386L768.468 621.416C768.68 628.45 769.232 644.2 769.742 650.867L770.739 650.79ZM778.34 676.875C777.177 673.899 775.4 669.016 773.85 664.05C772.297 659.07 770.988 654.054 770.739 650.79L769.742 650.867C770.001 654.256 771.343 659.37 772.896 664.348C774.453 669.34 776.238 674.245 777.408 677.239L778.34 676.875ZM780.419 676.557H777.874V677.557H780.419V676.557ZM787.902 679.496C787.574 678.179 786.805 676.372 785.497 675.435C784.821 674.951 783.996 674.698 783.047 674.879C782.115 675.056 781.123 675.64 780.064 676.705L780.773 677.41C781.75 676.427 782.571 675.988 783.234 675.861C783.879 675.738 784.43 675.901 784.915 676.248C785.929 676.975 786.622 678.494 786.931 679.737L787.902 679.496ZM787.916 686.653V679.616H786.916V686.653H787.916ZM802.395 700.367L787.763 686.293L787.07 687.014L801.702 701.088L802.395 700.367ZM814.893 703.441L802.17 700.242L801.926 701.212L814.649 704.411L814.893 703.441ZM812.367 718.48C814.037 717.993 815.911 717.276 817.571 716.365C819.219 715.46 820.708 714.334 821.541 713.004C821.962 712.331 822.222 711.595 822.238 710.807C822.254 710.016 822.023 709.209 821.52 708.398C820.525 706.795 818.452 705.152 814.989 703.476L814.553 704.376C817.961 706.026 819.827 707.566 820.67 708.926C821.086 709.596 821.25 710.215 821.238 710.787C821.227 711.36 821.038 711.922 820.693 712.473C819.994 713.589 818.682 714.614 817.089 715.489C815.508 716.357 813.704 717.048 812.087 717.52L812.367 718.48ZM791.87 718.5H812.227V717.5H791.87V718.5ZM738.576 704.652C738.794 705.898 739.59 707.006 740.758 707.988C741.926 708.972 743.507 709.864 745.378 710.674C749.123 712.296 754.125 713.631 759.582 714.716C770.503 716.887 783.348 718.072 791.844 718.499L791.895 717.501C783.427 717.075 770.634 715.893 759.777 713.735C754.346 712.656 749.424 711.336 745.776 709.757C743.951 708.966 742.468 708.121 741.402 707.223C740.334 706.325 739.724 705.408 739.561 704.479L738.576 704.652ZM748.875 679.922C746.835 682.189 743.882 686.127 741.628 690.603C739.38 695.063 737.784 700.141 738.576 704.652L739.561 704.479C738.826 700.29 740.304 695.452 742.521 691.052C744.73 686.668 747.629 682.801 749.618 680.59L748.875 679.922ZM743.029 648.358L748.755 680.344L749.739 680.168L744.014 648.181L743.029 648.358ZM730.341 619.684L743.064 648.472L743.979 648.067L731.255 619.28L730.341 619.684ZM728.39 583.043L730.299 619.508L731.297 619.456L729.389 582.991L728.39 583.043ZM710.503 566.241C710.888 566.192 711.394 566.286 712.024 566.555C712.648 566.821 713.354 567.242 714.123 567.794C715.662 568.898 717.4 570.49 719.164 572.299C722.691 575.914 726.271 580.342 728.489 583.316L729.29 582.718C727.055 579.722 723.447 575.257 719.88 571.601C718.098 569.774 716.313 568.135 714.707 566.982C713.903 566.405 713.131 565.94 712.416 565.635C711.707 565.332 711.012 565.169 710.379 565.248L710.503 566.241ZM679.538 539.216C683.785 543.806 690.41 550.661 696.487 556.307C699.524 559.129 702.434 561.658 704.846 563.453C706.052 564.349 707.145 565.072 708.077 565.557C708.981 566.027 709.829 566.325 710.503 566.241L710.379 565.248C710.035 565.292 709.431 565.133 708.539 564.669C707.674 564.22 706.629 563.533 705.443 562.651C703.074 560.888 700.195 558.387 697.167 555.574C691.115 549.951 684.508 543.116 680.272 538.536L679.538 539.216ZM663.204 558.865C663.309 558.546 663.56 558.076 663.96 557.467C664.354 556.866 664.873 556.159 665.49 555.372C666.724 553.797 668.334 551.923 670.083 549.973C673.58 546.074 677.613 541.89 680.26 539.229L679.551 538.523C676.896 541.193 672.85 545.39 669.339 549.306C667.583 551.263 665.957 553.155 664.703 554.755C664.077 555.554 663.539 556.285 663.124 556.918C662.714 557.542 662.403 558.102 662.254 558.55L663.204 558.865ZM626.805 594.901C632.639 589.568 641.453 581.376 648.938 574.132C652.68 570.511 656.093 567.123 658.636 564.446C659.907 563.108 660.966 561.942 661.741 561.011C662.129 560.546 662.45 560.134 662.693 559.784C662.928 559.445 663.116 559.129 663.204 558.865L662.254 558.55C662.215 558.67 662.099 558.886 661.872 559.213C661.652 559.53 661.35 559.918 660.973 560.371C660.218 561.278 659.176 562.425 657.911 563.757C655.383 566.419 651.981 569.796 648.243 573.414C640.767 580.649 631.96 588.834 626.13 594.163L626.805 594.901ZM632.636 605.175L626.91 594.299L626.025 594.765L631.751 605.641L632.636 605.175ZM634.102 604.908H632.193V605.908H634.102V604.908ZM655.687 602.991L634.058 604.91L634.146 605.906L655.775 603.987L655.687 602.991ZM664.413 598.564L655.507 603.042L655.956 603.935L664.862 599.457L664.413 598.564ZM677.795 599.403C676.742 597.549 675.533 596.361 674.242 595.694C672.948 595.025 671.612 594.901 670.345 595.111C667.838 595.525 665.581 597.243 664.269 598.672L665.006 599.349C666.238 598.006 668.307 596.461 670.508 596.097C671.595 595.918 672.708 596.026 673.783 596.582C674.862 597.14 675.944 598.168 676.926 599.897L677.795 599.403ZM673.931 619.799C675.449 617.944 677.457 614.72 678.571 611.038C679.685 607.357 679.924 603.149 677.795 599.403L676.926 599.897C678.869 603.316 678.684 607.212 677.614 610.749C676.544 614.285 674.607 617.394 673.157 619.165L673.931 619.799ZM657.344 635.202L673.884 619.848L673.204 619.115L656.663 634.469L657.344 635.202ZM649.411 635.973L657.045 635.334L656.962 634.337L649.328 634.977L649.411 635.973ZM649.87 639.953V635.475H648.87V639.953H649.87ZM639.475 648.681C643.555 645.861 646.115 643.877 647.661 642.538C648.433 641.87 648.96 641.355 649.299 640.972C649.467 640.781 649.598 640.614 649.689 640.468C649.764 640.349 649.87 640.161 649.87 639.953H648.87C648.87 639.852 648.911 639.827 648.843 639.936C648.791 640.018 648.699 640.141 648.55 640.31C648.252 640.646 647.761 641.129 647.007 641.782C645.499 643.088 642.97 645.049 638.907 647.858L639.475 648.681ZM624.101 645.27C624.877 647.054 626.575 649.377 629.177 650.519C631.82 651.678 635.29 651.574 639.475 648.681L638.907 647.858C634.949 650.594 631.845 650.597 629.579 649.603C627.273 648.591 625.726 646.5 625.018 644.871L624.101 645.27ZM613.95 628.052L624.129 645.325L624.99 644.817L614.811 627.544L613.95 628.052ZM615.802 619.37L613.893 627.686L614.868 627.91L616.777 619.594L615.802 619.37ZM606.333 605.688L615.875 619.762L616.703 619.201L607.161 605.127L606.333 605.688ZM559.905 632.718C569.586 627.594 595.34 612.661 606.999 605.839L606.494 604.976C594.828 611.802 569.095 626.723 559.437 631.834L559.905 632.718ZM528.185 655.689C534.762 650.142 550.289 637.808 559.905 632.718L559.437 631.834C549.714 636.981 534.111 649.382 527.54 654.924L528.185 655.689ZM528.337 664.42C528.769 663.118 529.29 661.094 529.443 659.25C529.519 658.331 529.506 657.424 529.328 656.664C529.15 655.908 528.785 655.211 528.087 654.86L527.638 655.753C527.958 655.914 528.209 656.273 528.354 656.892C528.499 657.507 528.518 658.296 528.446 659.168C528.302 660.907 527.805 662.849 527.388 664.105L528.337 664.42ZM521.996 671.23C521.777 669.685 522.635 668.293 523.948 667.132C525.252 665.979 526.91 665.144 528.035 664.732L527.691 663.793C526.483 664.235 524.706 665.127 523.285 666.383C521.873 667.632 520.717 669.332 521.006 671.37L521.996 671.23ZM514.293 689.474C515.679 687.224 517.724 683.624 519.362 680.132C520.18 678.387 520.902 676.658 521.387 675.132C521.866 673.626 522.141 672.245 521.996 671.23L521.006 671.37C521.116 672.146 520.908 673.34 520.434 674.829C519.967 676.297 519.265 677.983 518.456 679.708C516.839 683.157 514.813 686.723 513.442 688.95L514.293 689.474ZM511.017 711.338C512.136 710.353 512.919 708.803 513.469 707.009C514.021 705.206 514.356 703.101 514.54 700.946C514.91 696.636 514.685 692.06 514.364 689.157L513.37 689.267C513.686 692.122 513.906 696.631 513.544 700.861C513.363 702.976 513.037 705.005 512.513 706.716C511.985 708.437 511.273 709.781 510.356 710.588L511.017 711.338ZM488.581 684.246C490.284 689.6 493.418 697.387 497.29 703.335C499.223 706.305 501.366 708.856 503.638 710.405C505.925 711.963 508.395 712.535 510.891 711.419L510.482 710.507C508.398 711.438 506.298 711.008 504.201 709.578C502.089 708.139 500.033 705.716 498.128 702.79C494.323 696.945 491.222 689.251 489.533 683.943L488.581 684.246ZM482.848 639.442C483.855 643.239 485.018 651.464 486.064 660.244C487.107 669.008 488.029 678.279 488.559 684.139L489.555 684.049C489.025 678.182 488.102 668.901 487.057 660.125C486.013 651.366 484.844 643.065 483.815 639.185L482.848 639.442ZM490.903 627.942C489.134 628.164 486.602 628.995 484.763 630.8C482.89 632.637 481.786 635.437 482.848 639.442L483.815 639.185C482.841 635.513 483.858 633.088 485.463 631.514C487.101 629.906 489.404 629.138 491.028 628.934L490.903 627.942ZM515.776 626.659C513.721 626.659 498.345 627.513 490.937 627.939L490.994 628.937C498.43 628.51 513.759 627.659 515.776 627.659V626.659ZM539.612 606.958C536.01 610.261 530.481 615.214 525.6 619.34C523.158 621.403 520.885 623.255 519.099 624.589C518.205 625.256 517.441 625.788 516.844 626.15C516.545 626.332 516.297 626.465 516.102 626.551C516.004 626.594 515.926 626.623 515.866 626.64C515.837 626.648 515.814 626.653 515.798 626.656C515.781 626.659 515.775 626.659 515.776 626.659V627.659C516.013 627.659 516.27 627.57 516.506 627.466C516.756 627.355 517.045 627.198 517.363 627.005C518 626.618 518.793 626.065 519.697 625.39C521.508 624.038 523.799 622.172 526.245 620.104C531.14 615.966 536.68 611.003 540.288 607.695L539.612 606.958ZM577.247 574.9C572.454 577.471 564.827 582.156 557.503 587.869C550.189 593.573 543.123 600.342 539.509 607.091L540.391 607.563C543.902 601.005 550.831 594.341 558.118 588.657C565.393 582.983 572.971 578.328 577.72 575.781L577.247 574.9ZM586.813 570.41L577.271 574.888L577.696 575.793L587.238 571.315L586.813 570.41ZM579.524 531.117C579.504 533.33 579.444 539.953 580.298 547.698C581.151 555.432 582.919 564.341 586.586 571.101L587.465 570.624C583.893 564.038 582.141 555.285 581.292 547.589C580.445 539.905 580.504 533.33 580.524 531.126L579.524 531.117ZM579.528 530.559C579.528 530.689 579.526 530.875 579.524 531.117L580.524 531.126C580.526 530.886 580.528 530.695 580.528 530.559H579.528ZM536.431 488.706C543.639 495.315 554.451 505.356 563.46 513.999C567.965 518.322 572.015 522.291 574.938 525.306C576.4 526.814 577.574 528.078 578.38 529.024C578.784 529.498 579.088 529.884 579.288 530.176C579.389 530.323 579.456 530.435 579.497 530.517C579.545 530.615 579.528 530.616 579.528 530.559H580.528C580.528 530.375 580.455 530.2 580.393 530.074C580.324 529.933 580.227 529.777 580.113 529.61C579.884 529.276 579.554 528.86 579.141 528.376C578.314 527.404 577.122 526.123 575.656 524.61C572.72 521.582 568.659 517.603 564.152 513.278C555.136 504.627 544.318 494.581 537.107 487.969L536.431 488.706ZM514.207 516.212C518.349 512.368 524.469 506.375 529.365 500.889C531.812 498.148 533.965 495.521 535.414 493.344C536.137 492.258 536.698 491.265 537.029 490.414C537.348 489.592 537.502 488.782 537.229 488.141L536.309 488.533C536.418 488.789 536.4 489.27 536.097 490.052C535.804 490.806 535.288 491.73 534.582 492.79C533.172 494.908 531.055 497.494 528.619 500.223C523.75 505.677 517.655 511.647 513.527 515.479L514.207 516.212ZM495.779 535.384L514.228 516.192L513.507 515.499L495.058 534.691L495.779 535.384ZM470.428 536.144C473.224 537.225 477.823 538.487 482.57 538.767C487.301 539.047 492.287 538.359 495.743 535.418L495.095 534.657C491.934 537.346 487.271 538.044 482.63 537.769C478.004 537.495 473.506 536.262 470.789 535.211L470.428 536.144ZM391.084 535.538L470.604 536.177L470.612 535.177L391.092 534.538L391.084 535.538ZM380.843 540.011C382.476 540.23 384.968 540.267 387.139 539.645C389.309 539.022 391.298 537.689 391.585 535.093L390.591 534.983C390.369 536.992 388.859 538.111 386.863 538.683C384.867 539.255 382.524 539.228 380.976 539.02L380.843 540.011ZM361.543 559.7L381.264 539.868L380.555 539.163L360.834 558.995L361.543 559.7ZM355.885 568.573L361.61 559.617L360.767 559.078L355.042 568.034L355.885 568.573ZM342.878 565.79C342.988 566.999 343.264 568.371 343.764 569.607C344.26 570.835 344.999 571.979 346.065 572.659C347.158 573.357 348.526 573.524 350.158 572.919C351.767 572.322 353.64 570.975 355.828 568.646L355.099 567.961C352.96 570.238 351.213 571.461 349.81 571.981C348.431 572.492 347.398 572.323 346.603 571.816C345.782 571.292 345.148 570.362 344.691 569.232C344.236 568.108 343.977 566.836 343.874 565.7L342.878 565.79ZM343.513 549.093L342.877 565.725L343.876 565.764L344.512 549.131L343.513 549.093ZM356.374 527.656C353.922 530.228 350.341 534.375 347.559 538.467C346.169 540.511 344.967 542.559 344.208 544.399C343.46 546.213 343.096 547.936 343.538 549.269L344.487 548.954C344.165 547.984 344.4 546.556 345.133 544.78C345.854 543.03 347.014 541.047 348.386 539.029C351.128 534.996 354.671 530.891 357.098 528.346L356.374 527.656ZM360.788 509.789C358.825 512.42 355.201 519.712 356.239 528.062L357.232 527.939C356.234 519.912 359.735 512.874 361.59 510.387L360.788 509.789ZM365.861 502.135L360.772 509.812L361.605 510.364L366.695 502.688L365.861 502.135ZM369.042 499.576C368.034 501.098 367.342 501.765 366.927 502.015C366.722 502.138 366.638 502.127 366.645 502.128C366.675 502.132 366.712 502.16 366.726 502.189L365.83 502.634C365.95 502.876 366.184 503.075 366.512 503.119C366.816 503.16 367.133 503.058 367.442 502.872C368.056 502.503 368.848 501.678 369.876 500.129L369.042 499.576ZM375.539 498.86C374.956 498.274 373.929 497.587 372.731 497.483C371.48 497.375 370.147 497.91 369.042 499.576L369.876 500.129C370.806 498.725 371.806 498.407 372.644 498.479C373.534 498.557 374.353 499.086 374.83 499.565L375.539 498.86ZM393.716 514.073C393.422 514.024 392.985 513.848 392.408 513.525C391.842 513.207 391.178 512.77 390.441 512.236C388.967 511.169 387.227 509.737 385.421 508.16C381.812 505.009 377.972 501.307 375.539 498.86L374.83 499.565C377.274 502.023 381.131 505.742 384.764 508.913C386.579 510.498 388.345 511.953 389.855 513.046C390.609 513.592 391.307 514.054 391.919 514.397C392.521 514.734 393.081 514.981 393.55 515.059L393.716 514.073ZM431.644 507.055C422.129 510.245 413.568 512.157 406.915 513.193C400.238 514.232 395.537 514.379 393.716 514.073L393.55 515.059C395.545 515.394 400.387 515.221 407.069 514.181C413.776 513.137 422.391 511.211 431.961 508.003L431.644 507.055ZM470.833 507.722C467.178 505.885 460.853 503.659 453.706 502.922C446.558 502.185 438.54 502.932 431.547 507.1L432.059 507.959C438.806 503.938 446.586 503.193 453.603 503.916C460.621 504.64 466.829 506.828 470.384 508.616L470.833 507.722ZM479.872 507.114C478.462 508.059 476.668 508.372 474.955 508.357C473.246 508.341 471.676 507.999 470.767 507.695L470.449 508.643C471.449 508.978 473.124 509.34 474.946 509.357C476.763 509.373 478.786 509.046 480.429 507.945L479.872 507.114ZM486.665 492.689C486.139 494.697 485.161 497.84 483.937 500.729C483.325 502.174 482.656 503.544 481.958 504.673C481.253 505.813 480.546 506.662 479.872 507.114L480.429 507.945C481.282 507.373 482.081 506.377 482.809 505.199C483.543 504.011 484.234 502.59 484.858 501.119C486.104 498.176 487.097 494.986 487.632 492.942L486.665 492.689ZM503.282 452.222C500.825 455.659 497.056 461.796 493.708 469.064C490.362 476.329 487.422 484.757 486.651 492.768L487.646 492.863C488.402 485.009 491.293 476.697 494.616 469.483C497.938 462.272 501.675 456.19 504.096 452.803L503.282 452.222ZM509.054 404.186C502.181 411.314 491.402 430.995 503.25 452.752L504.128 452.273C492.565 431.04 503.076 411.826 509.774 404.88L509.054 404.186ZM489.86 383.593C491.04 386.83 493.416 391.771 496.723 396.104C500.019 400.423 504.308 404.228 509.336 405.027L509.493 404.039C504.85 403.302 500.764 399.751 497.518 395.497C494.283 391.258 491.951 386.411 490.799 383.251L489.86 383.593ZM480.474 376.135L490.016 383.811L490.643 383.032L481.1 375.356L480.474 376.135ZM460.711 356.906C467.583 363.816 472.304 368.457 475.414 371.451C478.512 374.433 480.032 375.802 480.486 376.144L481.088 375.346C480.694 375.048 479.224 373.73 476.108 370.731C473.005 367.743 468.289 363.108 461.42 356.201L460.711 356.906ZM460.81 328.615C457.867 330.369 454.316 333.894 453.277 338.793C452.23 343.728 453.76 349.915 460.711 356.906L461.42 356.201C454.631 349.373 453.298 343.513 454.255 339C455.22 334.453 458.54 331.132 461.322 329.474L460.81 328.615ZM488.788 310.711L460.796 328.624L461.335 329.466L489.327 311.554L488.788 310.711ZM522.719 292.723C518.749 293.155 512.305 294.574 505.825 297.433C499.348 300.289 492.785 304.604 488.64 310.856L489.474 311.409C493.472 305.378 499.844 301.163 506.228 298.348C512.609 295.533 518.952 294.138 522.828 293.717L522.719 292.723ZM533.287 288.343C532.333 289.063 530.382 289.947 528.27 290.771C526.178 291.587 523.995 292.319 522.626 292.742L522.921 293.698C524.309 293.268 526.515 292.529 528.633 291.703C530.73 290.885 532.808 289.957 533.889 289.141L533.287 288.343ZM534.365 277.293C534.574 278.871 534.762 281.334 534.648 283.583C534.59 284.708 534.458 285.759 534.223 286.612C533.984 287.483 533.661 288.061 533.287 288.343L533.889 289.141C534.533 288.656 534.931 287.81 535.188 286.877C535.449 285.927 535.587 284.795 535.646 283.634C535.765 281.308 535.571 278.781 535.356 277.161L534.365 277.293ZM515.441 283.384C515.591 283.27 515.729 283.144 515.854 283.009L515.118 282.332C515.032 282.424 514.939 282.509 514.839 282.585L515.441 283.384ZM515.144 282.305C515.027 282.415 514.915 282.516 514.809 282.609L515.47 283.36C515.583 283.26 515.703 283.152 515.827 283.035L515.144 282.305ZM643.973 395.588L648.694 410.779L649.649 410.483L644.928 395.291L643.973 395.588ZM653.757 392.316L644.316 394.958L644.586 395.921L654.027 393.279L653.757 392.316ZM649.655 410.759L654.376 392.925L653.409 392.669L648.688 410.503L649.655 410.759ZM514.723 372.457C514.326 372.06 513.935 371.372 513.566 370.394C513.201 369.426 512.875 368.218 512.586 366.821C512.008 364.029 511.587 360.531 511.288 356.799C510.691 349.336 510.586 340.987 510.674 335.577L509.674 335.561C509.586 340.992 509.691 349.375 510.292 356.879C510.592 360.629 511.017 364.173 511.607 367.024C511.902 368.449 512.24 369.712 512.63 370.747C513.016 371.771 513.469 372.617 514.016 373.164L514.723 372.457ZM505.357 373.068C505.572 372.709 506.001 372.442 506.676 372.29C507.346 372.139 508.184 372.12 509.097 372.194C510.92 372.343 512.925 372.856 514.212 373.285L514.528 372.336C513.192 371.891 511.106 371.355 509.178 371.197C508.216 371.119 507.265 371.132 506.456 371.314C505.652 371.496 504.914 371.862 504.5 372.553L505.357 373.068ZM484.503 345.093C484.833 347.072 485.891 349.434 487.35 351.932C488.814 354.44 490.707 357.124 492.745 359.754C496.821 365.015 501.504 370.093 504.575 373.164L505.282 372.457C502.234 369.409 497.58 364.363 493.535 359.142C491.512 356.531 489.648 353.885 488.213 351.428C486.773 348.962 485.789 346.726 485.49 344.928L484.503 345.093ZM488.739 340.32C488.023 340.217 486.959 340.337 486.065 341.037C485.151 341.753 484.497 343.008 484.497 345.011H485.497C485.497 343.236 486.066 342.307 486.682 341.825C487.318 341.327 488.09 341.237 488.598 341.31L488.739 340.32ZM506.864 334.047L488.506 340.342L488.83 341.288L507.189 334.993L506.864 334.047ZM510.674 335.574C510.68 334.969 510.532 334.473 510.213 334.114C509.894 333.755 509.465 333.605 509.054 333.564C508.259 333.484 507.365 333.794 506.804 334.072L507.249 334.968C507.745 334.722 508.436 334.507 508.955 334.559C509.2 334.583 509.362 334.662 509.466 334.779C509.57 334.896 509.678 335.121 509.674 335.565L510.674 335.574ZM479.688 341.029L503.862 332.073L503.515 331.135L479.341 340.091L479.688 341.029ZM503.913 332.05C505.159 331.424 506.93 330.837 508.279 330.981C508.936 331.052 509.44 331.288 509.765 331.723C510.096 332.166 510.309 332.903 510.189 334.113L511.184 334.212C511.318 332.863 511.102 331.841 510.566 331.124C510.025 330.4 509.224 330.077 508.386 329.987C506.746 329.812 504.763 330.504 503.464 331.157L503.913 332.05ZM510.189 334.113C510.026 335.754 510.068 339.069 510.257 343.142C510.446 347.229 510.784 352.114 511.222 356.918C511.66 361.722 512.198 366.452 512.787 370.225C513.081 372.11 513.389 373.765 513.706 375.073C514.016 376.357 514.35 377.378 514.723 377.941L515.556 377.388C515.293 376.991 514.991 376.133 514.678 374.838C514.37 373.567 514.067 371.943 513.775 370.07C513.191 366.326 512.655 361.62 512.218 356.828C511.781 352.036 511.444 347.166 511.256 343.096C511.066 339.012 511.029 335.77 511.184 334.212L510.189 334.113ZM515.165 377.165L502.441 376.525L502.391 377.524L515.115 378.164L515.165 377.165ZM502.793 376.696C498.985 372.335 493.273 365.282 488.516 358.303C486.137 354.813 484.004 351.351 482.467 348.26C480.921 345.15 480.015 342.483 480.015 340.56H479.015C479.015 342.731 480.016 345.576 481.572 348.705C483.137 351.853 485.297 355.356 487.69 358.866C492.475 365.886 498.213 372.971 502.04 377.353L502.793 376.696ZM523.546 258.016C523.503 259.152 523.545 260.53 523.713 262.025L524.707 261.913C524.544 260.466 524.504 259.138 524.545 258.054L523.546 258.016ZM524.71 261.986C524.753 260.711 524.706 259.372 524.542 257.977L523.549 258.093C523.707 259.437 523.752 260.726 523.711 261.952L524.71 261.986Z" fill="white"/>
</g>
<defs>
<filter id="filter0_d" x="38.6354" y="0.257568" width="1062.55" height="962.742" filterUnits="userSpaceOnUse" color-interpolation-filters="sRGB">
<feFlood flood-opacity="0" result="BackgroundImageFix"/>
<feColorMatrix in="SourceAlpha" type="matrix" values="0 0 0 0 0 0 0 0 0 0 0 0 0 0 0 0 0 0 127 0"/>
<feOffset dy="4"/>
<feGaussianBlur stdDeviation="2"/>
<feColorMatrix type="matrix" values="0 0 0 0 0 0 0 0 0 0 0 0 0 0 0 0 0 0 0.25 0"/>
<feBlend mode="normal" in2="BackgroundImageFix" result="effect1_dropShadow"/>
<feBlend mode="normal" in="SourceGraphic" in2="effect1_dropShadow" result="shape"/>
</filter>
</defs>
</svg>
