<svg width="328" height="152" viewBox="0 0 328 152" fill="none" xmlns="http://www.w3.org/2000/svg">
<g filter="url(#filter0_d)">
<path d="M172.205 92.411C176.982 92.411 180.853 88.5064 180.853 83.6899C180.853 78.8735 176.982 74.969 172.205 74.969C167.429 74.969 163.557 78.8735 163.557 83.6899C163.557 88.5064 167.429 92.411 172.205 92.411Z" fill="#4C64D2"/>
<path d="M172.671 80.5479L172.68 80.5627L172.68 80.5454C172.68 79.9494 172.785 79.0634 173.102 78.3421C173.418 77.6208 173.945 77.0656 174.787 77.1275C175.099 77.1895 175.31 77.3302 175.446 77.5173C175.581 77.7047 175.642 77.939 175.654 78.1886C175.677 78.688 175.501 79.2472 175.331 79.6099L175.331 79.6098L175.331 79.6108C175.24 79.9739 175.126 80.5694 175.082 81.1751C175.039 81.7804 175.065 82.3971 175.253 82.8028C175.441 83.6112 175.435 84.1757 175.409 84.3563L175.409 84.36L175.412 84.3614C175.738 84.504 176.234 84.7837 176.665 85.16C177.096 85.5363 177.46 86.0085 177.522 86.5357V86.5359C177.647 87.3744 177.387 88.0669 177.01 88.5918C176.634 89.1165 176.142 89.4737 175.804 89.6421C175.504 89.7198 175.027 89.8013 174.571 89.7935C174.343 89.7896 174.12 89.7634 173.926 89.7033C173.733 89.6432 173.57 89.5493 173.461 89.4103L173.461 89.4095L173.46 89.4091L172.208 88.709L172.206 88.7083L172.205 88.7083C171.697 88.7343 170.895 88.6993 170.142 88.5102C169.389 88.3209 168.687 87.9778 168.375 87.3886L168.374 87.3869L168.372 87.3862C167.277 86.9819 166.895 86.4968 166.859 86.0563C166.823 85.6154 167.135 85.2162 167.434 84.9831L167.438 84.9806L167.436 84.9769C167.319 84.7701 167.198 84.4326 167.215 84.0928C167.233 83.7534 167.388 83.4115 167.825 83.1946L167.83 83.1919L167.826 83.1871C167.608 82.9231 167.499 82.6862 167.466 82.4769C167.434 82.2677 167.478 82.0856 167.567 81.9305C167.744 81.6202 168.099 81.4184 168.372 81.3279L168.377 81.3264L168.375 81.3217C168.284 81.05 168.218 80.6309 168.315 80.2569C168.363 80.0699 168.452 79.8943 168.599 79.7538C168.746 79.6133 168.951 79.5077 169.232 79.4611C169.935 79.3447 170.737 79.5194 171.392 79.772C171.719 79.8984 172.01 80.0441 172.233 80.1825C172.345 80.2516 172.44 80.319 172.514 80.3811C172.589 80.4432 172.642 80.5 172.671 80.5479Z" fill="white" stroke="black" stroke-width="0.0309178"/>
<path d="M173.301 86.7299C172.153 86.1076 170.421 83.9606 172.675 80.3512M172.675 80.3512C172.675 79.1585 173.097 76.8042 174.788 76.9286C176.04 77.1775 175.674 78.6918 175.335 79.4178C175.153 80.1439 174.881 81.7981 175.257 82.6072C175.445 83.4162 175.44 83.9814 175.414 84.163C176.066 84.4481 177.401 85.2831 177.527 86.341C177.777 88.0213 176.483 89.1155 175.805 89.4526C175.205 89.6081 173.895 89.7792 173.457 89.2192L172.205 88.5191C171.188 88.5709 168.996 88.3791 168.37 87.1967M172.675 80.3512C172.44 79.9623 170.64 79.0289 169.231 79.2622M168.37 87.1967C166.179 86.3877 166.831 85.252 167.431 84.7853M168.37 87.1967C169.257 87.5856 170.922 87.819 170.483 85.6409M169.231 79.2622C168.104 79.4489 168.188 80.5847 168.37 81.1292M169.231 79.2622C170.04 79.3141 171.688 79.6979 171.814 80.818C171.838 81.6762 171.51 82.0444 171.031 82.1253M167.431 84.7853C167.196 84.3703 166.946 83.4317 167.822 82.9961M167.431 84.7853C168.344 85.5372 170.311 86.621 170.875 84.9408C171 84.443 170.822 84.0592 170.718 83.9295M168.37 81.1292C167.822 81.3106 166.946 81.9382 167.822 82.9961M168.37 81.1292C169.095 81.6411 170.26 82.2556 171.031 82.1253M171.031 82.1253L171.109 82.296C171.36 85.0342 169.049 83.9037 167.822 82.9961" stroke="black" stroke-width="0.0927534"/>
<path fill-rule="evenodd" clip-rule="evenodd" d="M165.394 28.5401C164.805 28.395 164.591 27.7083 164.538 27.1878C164.52 27.7806 164.296 28.2107 164.167 28.37C164.205 28.5822 163.978 28.8771 163.837 29.0225C163.965 28.8688 163.908 28.5295 163.861 28.37L163.809 28.1999C163.741 28.2188 163.625 28.302 163.707 28.4834C163.789 28.6648 163.639 29.0125 163.554 29.1637L163.349 28.6534C163.431 29.0617 162.838 29.4661 162.532 29.6174C162.532 29.8894 162.259 30.0331 162.123 30.071L162.071 29.6174C161.949 29.9802 161.577 29.8819 161.407 29.7874C161.816 29.6514 161.918 29.315 161.918 29.1637C161.935 28.8803 161.959 28.2452 161.918 27.9731C161.877 27.7009 162.31 27.5195 162.532 27.4628C162.872 27.3305 163.554 26.8619 163.554 26.0454C163.554 25.2289 164.372 24.987 164.781 24.9682C164.862 24.5146 165.462 24.1744 165.752 24.0609C166.127 24.0043 167.071 23.9363 167.847 24.1177C168.624 24.2991 168.921 25.2894 168.972 25.7619L168.972 26.8959L169.33 27.236L169.33 27.6329L168.972 27.803L168.972 27.9731L168.972 28.8803C168.955 29.0692 168.819 29.4359 168.41 29.3905C168.001 29.3452 167.762 29.485 167.694 29.5606C167.609 29.8251 167.459 30.4224 167.541 30.6946C167.623 30.9667 167.882 31.0725 168.001 31.0915C168.532 31.0007 169.006 31.6962 169.177 32.0553L170.454 35.5706L170.557 35.5706L170.659 35.5706C171.017 35.2493 171.773 34.5273 171.937 34.2098C172.1 33.8923 171.971 33.5862 171.886 33.4727C171.558 33.1553 171.817 32.7735 171.988 32.6222C172.09 32.6033 172.468 32.5996 173.163 32.7357C173.859 32.8717 173.658 33.6239 173.47 33.9831L172.703 34.8335L171.732 36.3077C171.511 36.7613 170.894 37.691 170.199 37.7818C169.504 37.8724 168.921 36.4966 168.716 35.7973L168.614 35.7973L168.103 38.9724C168.185 39.8796 167.864 41.0891 167.694 41.5805L167.49 42.9412C167.939 43.0772 168.938 45.0768 169.381 46.0596L171.221 49.8016L171.374 51.9561L171.528 51.9561C171.61 50.7315 172.516 49.7449 172.959 49.4047L173.061 48.9511L173.163 47.0802C173.163 46.5812 173.981 44.5666 174.39 43.6216L174.39 43.1113C173.899 42.9752 172.482 40.5599 171.835 39.3693C171.511 38.8779 171.088 37.759 171.988 37.2148C172.448 36.7613 174.441 35.5328 175.413 35.2871C175.658 34.6974 176.401 34.5122 176.741 34.4933L177.406 33.9263L177.406 33.6996L176.895 33.1893L176.895 32.6222L176.844 32.1686L176.077 30.8647L176.077 30.0142L176.23 29.7874C176.179 29.863 176.128 29.8215 176.333 29.0503C176.537 28.2792 177.917 28.0865 178.582 28.0865C178.871 28.0676 179.706 28.0525 180.729 28.1432C181.751 28.2339 182.04 29.9953 182.057 30.8647L182.569 31.545L182.569 32.0553L182.313 32.1121L182.211 33.9263L181.342 35.2304C181.996 35.5932 181.955 36.7423 181.853 37.2714L182.517 37.8951C183.046 37.8763 184.051 38.2127 183.847 39.7094C183.233 42.1134 181.512 42.8278 180.729 42.8845L180.422 44.5854L180.422 46.4564L180.268 48.2141C181.495 49.0305 183.335 52.7498 184.102 54.5075L184.204 59.0433C184.221 59.6669 184.266 61.0617 184.307 61.6513C184.347 62.2411 184.733 63.4468 184.92 63.976L185.124 63.976C185.452 63.6131 185.635 63.976 185.687 64.2027L185.687 64.8263L186.862 66.0737L187.885 66.3573C188.989 66.9469 188.208 67.4345 187.68 67.6045L186.045 67.6045C184.681 67.529 181.925 67.185 181.802 66.4139C181.679 65.6428 182.296 64.6563 182.62 64.2594L182.16 61.4246L181.137 58.8732L180.984 55.6414C180.626 55.1122 179.829 54.0652 179.502 54.1107C179.175 54.1559 177.73 52.542 177.048 51.7293C176.622 52.2018 175.75 53.2148 175.668 53.4869C175.586 53.759 173.692 55.717 172.755 56.6619L173.215 57.6259L173.368 57.6259L175.106 57.4558L175.821 57.0588C176.026 56.8132 176.517 56.4805 176.844 57.1155C177.171 57.7506 176.776 58.5519 176.537 58.8732L175.208 60.2339L174.595 60.2906L174.595 60.6875C174.595 60.7253 174.431 60.9257 173.777 61.4246C173.122 61.9234 172.72 61.4435 172.601 61.1411L171.783 59.6103L171.937 58.8732L171.17 57.6259C170.233 58.2306 168.164 59.5536 167.387 60.0071C166.61 60.4607 165.36 61.5569 164.832 62.0482C164.995 62.1389 164.9 62.6152 164.832 62.842C164.644 62.9176 164.28 63.1481 164.321 63.4657C164.361 63.7831 163.929 64.6563 163.707 65.0532C163.758 65.5635 163.779 66.6634 163.452 66.9809C162.716 67.3438 161.986 65.5447 161.714 64.5996C161.628 63.5602 161.417 61.3111 161.254 60.6308C161.09 59.9505 161.594 59.7047 161.867 59.667C162.463 59.6292 163.697 59.5536 163.861 59.5536C164.024 59.5536 165.224 58.3818 165.803 57.7959C166.375 56.6167 168.052 55.4146 168.819 54.961L169.585 54.5641C169.004 53.3813 169.02 51.4335 169.023 51.042C169.023 51.0206 169.023 51.004 169.023 50.9922C169.023 50.8108 166.706 48.4219 165.547 47.2502C165.67 47.5677 164.372 49.0079 163.707 49.6882L162.225 51.3892C161.693 51.8881 160.674 51.6348 160.231 51.4457L153.842 51.3892C153.801 51.7974 153.28 51.8237 153.024 51.7861L151.44 53.5436L150.979 54.3373C150.284 55.1539 150.042 54.5264 150.008 54.1107L150.059 52.6365C149.937 52.2283 150.69 51.219 151.082 50.7655C151 50.0397 151.286 49.4047 151.44 49.1779L151.848 48.4975C151.865 48.5354 151.94 48.5429 152.104 48.2708C152.268 47.9987 152.479 48.1196 152.564 48.2141C152.956 48.6487 153.801 49.5295 154.046 49.5748C154.353 49.6315 155.58 49.5181 157.113 48.9511C158.217 48.2254 159.652 48.6865 160.231 49.0079C160.385 49.0645 160.753 49.1326 160.998 48.9511C161.243 48.7697 161.475 48.0062 161.56 47.647C161.683 46.241 162.497 44.6799 162.889 44.0752C161.949 42.1702 162.804 40.4465 163.349 39.8229C162.572 39.6868 162.003 38.5188 161.816 37.9519L161.049 37.2714C160.981 37.2148 160.569 36.7952 159.465 35.5706C158.361 34.3459 159.005 33.4349 159.465 33.1326L161.714 31.545C162.368 30.4564 163.792 30.0331 164.423 29.9575C164.644 29.8819 165.128 29.6967 165.292 29.5606C165.455 29.4246 165.428 28.8235 165.394 28.5401ZM163.809 29.0503C163.819 29.042 163.829 29.0326 163.837 29.0225C163.827 29.0325 163.818 29.0418 163.809 29.0503ZM174.579 40.3633L174.199 39.0169L174.958 38.7828L174.579 40.3633ZM163.41 33.7108C163.396 34.6714 163.444 36.6767 163.748 37.0114C163.537 36.9338 163.09 36.8254 162.989 37.0114C162.497 36.469 161.489 35.217 161.387 34.5476C161.387 34.2128 161.584 34.1602 161.682 34.1757L163.158 33.6178C163.242 33.5714 163.412 33.5248 163.41 33.7108Z" fill="white"/>
<path d="M210.933 37.8509C209.86 35.96 208.86 36.0309 208.494 36.3026C209.293 38.6888 210.252 46.2174 207.698 57.2438C203.427 68.1789 196.128 74.1004 193.012 75.6944C194.067 73.6689 195.154 69.6983 195.565 67.9661C195.786 63.2122 194.028 61.1938 193.122 60.7787C192.664 65.3278 185.885 76.2119 182.552 81.0855C182.667 82.3953 183.087 85.329 183.854 86.5854C184.62 87.8419 186.03 88.0123 186.639 87.9405L200.572 87.6406L200.094 84.794C200.05 82.621 197.13 82.0192 195.675 81.9898C197.623 80.6959 202.573 76.4232 204.805 74.4486C213.948 65.4717 213.75 50.911 213.46 46.8782C213.171 42.8454 212.275 40.2145 210.933 37.8509Z" fill="#28FF0C" stroke="#28FF0C" stroke-width="0.309178"/>
<path d="M141.541 16.4426C140.461 18.3296 141.025 19.1655 141.442 19.3476C143.084 17.4502 149.053 12.8249 159.787 9.50113C171.306 7.71886 180.054 11.0986 182.988 13.0112C180.722 13.1121 176.773 14.1634 175.081 14.6766C170.896 16.8768 170.052 19.4246 170.152 20.4234C174.28 18.5322 187.019 18.9615 192.873 19.4125C193.937 18.6536 196.24 16.8109 196.931 15.5104C197.621 14.2099 197.058 12.896 196.69 12.4016L189.42 0.411133L187.221 2.26029C185.382 3.39296 186.336 6.24018 187.043 7.52226C184.954 6.47681 178.801 4.31335 175.985 3.36216C163.692 -0.0860471 151.314 7.41508 148.004 9.69745C144.694 11.979 142.891 14.084 141.541 16.4426Z" fill="#28FF0C" stroke="#28FF0C" stroke-width="0.309178"/>
<path d="M159.845 87.5506C162.006 87.5413 162.438 86.6289 162.384 86.1738C159.931 85.6983 152.963 82.8277 144.71 75.1494C137.382 66.0108 135.873 56.6875 136.034 53.1682C137.261 55.0918 140.151 58.0033 141.442 59.2185C145.435 61.7564 148.043 61.2094 148.848 60.6187C145.149 57.9745 139.102 46.66 136.541 41.3332C135.354 40.7877 132.616 39.7098 131.154 39.7629C129.692 39.816 128.85 40.9684 128.612 41.5381L122 53.9097L124.691 54.8941C126.588 55.9263 128.547 53.6616 129.29 52.4002C129.446 54.7464 130.691 61.1966 131.294 64.1283C134.53 76.5753 147.189 83.5814 150.811 85.3158C154.433 87.0508 157.145 87.5619 159.845 87.5506Z" fill="#28FF0C" stroke="#28FF0C" stroke-width="0.309178"/>
<path d="M136.28 38.0898C141.056 38.0898 144.928 34.1853 144.928 29.3689C144.928 24.5525 141.056 20.6479 136.28 20.6479C131.504 20.6479 127.632 24.5525 127.632 29.3689C127.632 34.1853 131.504 38.0898 136.28 38.0898Z" fill="#EFF312"/>
<path fill-rule="evenodd" clip-rule="evenodd" d="M135.405 34.2402L135.423 35.3344L136.835 35.3344L136.835 34.2822C138.41 34.1769 139.201 33.5593 139.471 33.3225C140.789 32.0678 142.258 29.1819 136.835 28.1954L136.835 25.5491C137.43 25.6444 137.856 25.9232 137.965 26.6379L140.413 26.5081C140.35 25.7077 139.547 24.1068 136.835 24.1068L136.835 23.4578L135.234 23.4578L135.245 24.1121C134.029 24.2009 131.771 24.8399 131.845 26.7676C131.92 28.7407 134.199 29.5367 135.328 29.6881C135.33 29.6886 135.332 29.6889 135.333 29.6891L135.379 32.5981C134.624 32.3029 134.083 31.6651 133.822 31.1808L131.092 31.1808C131.405 32.2409 132.692 33.9066 135.328 34.2311C135.354 34.2343 135.38 34.2373 135.405 34.2402ZM136.835 32.6859C137.189 32.5981 137.567 32.4288 137.965 32.1544C138.853 30.8578 137.965 30.3294 136.835 30.019L136.835 32.6859ZM135.304 27.8652L135.267 25.5384C134.264 25.6141 134.01 26.2986 134.01 26.6379C133.891 26.9171 134.061 27.4608 135.304 27.8652Z" fill="#141313"/>
<path fill-rule="evenodd" clip-rule="evenodd" d="M211.11 18.3691C208.797 13.9413 204.408 16.0455 202.025 17.5511C201.608 17.154 200.24 16.2565 198.109 15.844C193.254 15.1469 192.353 19.1693 192.509 21.2676C192.575 22.5175 193.29 23.7863 194.217 24.9308C194.343 25.0874 194.474 25.2416 194.608 25.3931C195.818 26.7659 197.262 27.9177 198.109 28.5762C198.814 28.8607 201.079 31.0539 202.123 32.1149C202.468 31.4463 204.107 30.0936 204.884 29.5009C205.105 29.323 205.353 29.1293 205.621 28.9207C206.759 28.0327 208.243 26.8744 209.461 25.5176L206.49 25.5176C206.294 25.3931 205.871 24.9521 205.745 24.1839L204.512 25.6777C204.349 25.8673 203.834 26.1614 203.083 25.8199C202.835 25.648 202.319 25.4429 202.241 25.9978L201.692 27.0114C201.477 27.4441 200.984 28.0178 200.733 26.8513L200.126 21.3032L199.362 25.9978C199.336 26.3178 199.17 26.7457 198.521 26.0333C198.051 25.5176 197.776 25.3398 197.365 25.3931L194.608 25.3931L194.217 24.9308L197.953 24.9308C198.155 25.0316 198.622 25.322 198.873 25.6777L199.969 18.4936C200.067 18.3454 200.31 18.1379 200.498 18.4936L201.301 26.5668L201.869 25.5176C201.973 25.2627 202.401 24.881 203.278 25.3931C203.78 25.7061 204.218 25.2153 204.375 24.9308C204.773 24.4507 205.573 23.4904 205.589 23.4904C205.591 23.4904 205.599 23.4812 205.61 23.4668C205.693 23.3622 205.994 22.9826 206.235 23.8105L206.49 24.6996C206.483 24.8241 206.599 25.0695 207.116 25.0553C207.633 25.0411 209.16 25.0494 209.859 25.0553C211.446 23.1252 212.398 20.8336 211.11 18.3691Z" fill="#F50B0B"/>
</g>
<g filter="url(#filter1_ddddd)">
<path d="M18.9872 108.4C24.561 108.4 27.348 109.883 27.348 112.849C27.348 113.82 27.0667 114.715 26.5042 115.534C25.9417 116.326 25.1875 116.953 24.2414 117.413C23.321 117.873 22.3238 118.103 21.25 118.103C20.5085 118.103 19.9332 118.078 19.5241 118.026C19.7542 116.825 19.8693 115.712 19.8693 114.69C19.8693 112.312 19.1789 111.123 17.7983 111.123C16.7755 111.123 15.8423 111.839 14.9986 113.271C14.1804 114.677 13.5284 116.352 13.0426 118.295C12.5568 120.238 12.3139 121.9 12.3139 123.281C12.3139 125.07 12.7358 126.362 13.5795 127.154C14.4488 127.921 15.7912 128.305 17.6065 128.305C18.9872 128.305 20.24 128.139 21.365 127.806C22.5156 127.474 23.436 126.962 24.1264 126.272C24.7144 126.758 25.0085 127.653 25.0085 128.957C25.0085 130.031 24.561 131.053 23.6662 132.025C22.7713 132.971 21.4673 133.751 19.7542 134.364C18.0667 134.953 16.0596 135.247 13.7329 135.247C9.87214 135.247 6.99573 134.352 5.10369 132.562C3.23721 130.747 2.30397 127.947 2.30397 124.163C2.30397 120.916 2.95596 118.116 4.25994 115.764C5.58948 113.386 7.50709 111.57 10.0128 110.318C12.5184 109.039 15.5099 108.4 18.9872 108.4ZM47.6432 127.845C47.5153 128.535 47.4514 129.072 47.4514 129.455C47.4514 130.095 47.6304 130.644 47.9883 131.104C48.3463 131.565 48.8704 131.833 49.5608 131.91C49.2284 132.984 48.4741 133.815 47.298 134.403C46.1474 134.965 44.9457 135.247 43.6929 135.247C42.6957 135.247 41.7753 135.055 40.9315 134.671C40.0878 134.313 39.4997 133.776 39.1673 133.06C38.4514 133.725 37.5565 134.249 36.4827 134.633C35.4088 135.042 34.2199 135.247 32.9159 135.247C30.6659 135.247 29.0424 134.595 28.0452 133.291C27.048 131.961 26.5495 130.031 26.5495 127.499C26.5495 124.764 27.0608 122.399 28.0835 120.404C29.1063 118.384 30.5637 116.837 32.4557 115.764C34.3733 114.69 36.6233 114.153 39.2057 114.153C39.896 114.153 40.5224 114.204 41.0849 114.306C41.6474 114.409 42.3122 114.587 43.0793 114.843L50.2511 113.999L47.6432 127.845ZM40.548 116.914C40.2156 116.607 39.7554 116.454 39.1673 116.454C38.6048 116.454 38.0935 116.71 37.6332 117.221C37.1986 117.732 36.7767 118.73 36.3676 120.212C35.9841 121.67 35.6134 123.779 35.2554 126.541C35.102 127.768 35.0253 128.893 35.0253 129.916C35.0253 130.785 35.102 131.475 35.2554 131.987C35.4344 132.472 35.7412 132.715 36.1759 132.715C36.8662 132.715 37.3903 132.319 37.7483 131.526C38.1063 130.734 38.3747 129.762 38.5537 128.612L40.548 116.914ZM59.8748 131.066C59.8748 130.708 59.6447 130.337 59.1845 129.954C58.7498 129.545 58.0723 129.033 57.1518 128.42L55.8478 127.538C54.6973 126.694 53.7768 125.85 53.0865 125.006C52.4217 124.137 52.0893 123.178 52.0893 122.13C52.0893 120.622 52.524 119.266 53.3933 118.065C54.2626 116.863 55.5282 115.917 57.1902 115.227C58.8777 114.511 60.8848 114.153 63.2115 114.153C65.1291 114.153 66.5865 114.447 67.5836 115.035C68.6063 115.597 69.1177 116.569 69.1177 117.95C69.1177 119.126 68.747 120.046 68.0055 120.711C67.264 121.35 66.1774 121.67 64.7456 121.67C63.9785 121.67 63.3649 121.529 62.9047 121.248C63.2626 120.2 63.4416 119.215 63.4416 118.295C63.4416 117.579 63.2754 117.042 62.943 116.684C62.6106 116.301 62.2015 116.109 61.7157 116.109C61.1532 116.109 60.6291 116.326 60.1433 116.761C59.6831 117.195 59.453 117.707 59.453 118.295C59.453 119.19 59.747 119.918 60.3351 120.481C60.9487 121.043 61.8819 121.695 63.1348 122.437C64.4643 123.23 65.4742 123.997 66.1646 124.738C66.8805 125.48 67.2385 126.464 67.2385 127.691C67.2385 129.123 66.8421 130.414 66.0495 131.565C65.2569 132.69 64.068 133.585 62.4828 134.249C60.8976 134.889 58.9416 135.208 56.6149 135.208C54.5694 135.208 52.8308 134.927 51.399 134.364C49.9927 133.776 49.2896 132.792 49.2896 131.411C49.2896 130.44 49.6604 129.634 50.4018 128.995C51.1433 128.356 52.1405 128.036 53.3933 128.036C54.5183 128.036 55.4771 128.266 56.2697 128.727C55.9629 129.57 55.8095 130.274 55.8095 130.836C55.8095 131.578 55.9885 132.153 56.3464 132.562C56.7044 132.945 57.1518 133.137 57.6888 133.137C58.2512 133.137 58.7498 132.958 59.1845 132.6C59.6447 132.217 59.8748 131.705 59.8748 131.066ZM81.7599 111.276C81.4275 112.989 80.9672 114.472 80.3792 115.725C81.8621 114.677 83.8309 114.153 86.2854 114.153C90.1206 114.153 92.0382 115.597 92.0382 118.487C92.0382 119.126 91.9488 119.867 91.7698 120.711C91.6164 121.555 91.3735 122.667 91.0411 124.048C90.4019 126.605 90.0823 128.356 90.0823 129.302C90.0823 130.862 90.7854 131.731 92.1917 131.91C91.8337 132.984 91.0794 133.815 89.9289 134.403C88.7783 134.965 87.5127 135.247 86.132 135.247C84.5723 135.247 83.2939 134.863 82.2968 134.096C81.3252 133.303 80.8394 132.191 80.8394 130.759C80.8394 130.12 80.9161 129.391 81.0695 128.573C81.2485 127.73 81.5425 126.438 81.9516 124.7C82.6931 121.785 83.0638 119.778 83.0638 118.678C83.0638 117.63 82.7698 117.106 82.1817 117.106C81.4658 117.106 80.9289 117.579 80.5709 118.525C80.213 119.445 79.8806 120.711 79.5738 122.322L77.1959 134.479L67.838 135.4L73.284 107.633L82.642 106.712L81.7599 111.276ZM111.476 120.097C114.774 120.583 116.423 122.565 116.423 126.042C116.423 129.161 115.081 131.373 112.396 132.677C109.711 133.955 105.748 134.595 100.507 134.595H98.8961C96.3904 134.595 94.2299 134.556 92.4146 134.479L97.247 109.167C99.5737 109.09 102.246 109.052 105.263 109.052C107.692 109.052 109.699 109.154 111.284 109.359C112.869 109.538 114.211 109.985 115.311 110.701C116.41 111.417 116.96 112.529 116.96 114.038C116.96 115.521 116.436 116.799 115.388 117.873C114.365 118.921 113.061 119.663 111.476 120.097ZM104.994 119.714C106.682 119.637 107.871 119.126 108.561 118.18C109.277 117.208 109.635 116.045 109.635 114.69C109.635 113.565 109.392 112.759 108.906 112.274C108.446 111.762 107.692 111.507 106.643 111.507C106.669 111.507 106.669 111.507 106.643 111.507C106.643 111.481 106.63 111.468 106.605 111.468L104.994 119.714ZM102.693 131.795C104.534 131.769 105.812 131.22 106.528 130.146C107.244 129.046 107.602 127.755 107.602 126.272C107.602 125.045 107.359 124.112 106.873 123.472C106.388 122.808 105.595 122.424 104.496 122.322L102.693 131.795ZM102.693 131.872C102.744 131.846 102.744 131.82 102.693 131.795V131.872ZM138.393 127.845C138.265 128.535 138.201 129.072 138.201 129.455C138.201 130.095 138.38 130.644 138.738 131.104C139.096 131.565 139.62 131.833 140.31 131.91C139.978 132.984 139.224 133.815 138.047 134.403C136.897 134.965 135.695 135.247 134.442 135.247C133.445 135.247 132.525 135.055 131.681 134.671C130.837 134.313 130.249 133.776 129.917 133.06C129.201 133.725 128.306 134.249 127.232 134.633C126.158 135.042 124.969 135.247 123.665 135.247C121.415 135.247 119.792 134.595 118.795 133.291C117.797 131.961 117.299 130.031 117.299 127.499C117.299 124.764 117.81 122.399 118.833 120.404C119.856 118.384 121.313 116.837 123.205 115.764C125.123 114.69 127.373 114.153 129.955 114.153C130.645 114.153 131.272 114.204 131.834 114.306C132.397 114.409 133.062 114.587 133.829 114.843L141.001 113.999L138.393 127.845ZM131.297 116.914C130.965 116.607 130.505 116.454 129.917 116.454C129.354 116.454 128.843 116.71 128.383 117.221C127.948 117.732 127.526 118.73 127.117 120.212C126.734 121.67 126.363 123.779 126.005 126.541C125.851 127.768 125.775 128.893 125.775 129.916C125.775 130.785 125.851 131.475 126.005 131.987C126.184 132.472 126.491 132.715 126.925 132.715C127.616 132.715 128.14 132.319 128.498 131.526C128.856 130.734 129.124 129.762 129.303 128.612L131.297 116.914ZM155.035 114.153C159.484 114.153 161.708 115.546 161.708 118.333C161.708 119.739 161.209 120.775 160.212 121.44C159.241 122.105 157.975 122.437 156.415 122.437C155.546 122.437 154.945 122.373 154.613 122.245C154.817 121.683 154.996 120.992 155.15 120.174C155.303 119.356 155.38 118.64 155.38 118.026C155.38 117.515 155.303 117.119 155.15 116.837C155.022 116.556 154.779 116.416 154.421 116.416C153.654 116.416 152.951 117.029 152.312 118.257C151.673 119.458 151.161 120.89 150.778 122.552C150.42 124.188 150.241 125.556 150.241 126.656C150.241 127.653 150.445 128.394 150.854 128.88C151.263 129.366 151.954 129.609 152.925 129.609C153.923 129.609 154.894 129.366 155.84 128.88C156.786 128.369 157.464 127.691 157.873 126.847C158.435 127.18 158.832 127.538 159.062 127.921C159.292 128.279 159.407 128.765 159.407 129.379C159.407 130.631 158.947 131.705 158.026 132.6C157.131 133.495 155.981 134.16 154.575 134.595C153.168 135.029 151.698 135.247 150.164 135.247C147.454 135.247 145.332 134.518 143.798 133.06C142.289 131.578 141.535 129.34 141.535 126.349C141.535 123.792 142.097 121.593 143.222 119.752C144.347 117.911 145.92 116.518 147.94 115.572C149.985 114.626 152.35 114.153 155.035 114.153ZM173.289 111.276C172.956 112.989 172.496 114.472 171.908 115.725C173.365 114.677 175.347 114.153 177.852 114.153C181.867 114.153 183.874 115.828 183.874 119.177C183.874 120.711 183.477 122.015 182.685 123.089C181.918 124.163 180.729 124.904 179.118 125.313L180.537 128.995C180.844 129.813 181.189 130.453 181.573 130.913C181.956 131.373 182.416 131.616 182.953 131.641C182.544 132.818 181.79 133.712 180.691 134.326C179.617 134.94 178.441 135.247 177.162 135.247C175.705 135.247 174.516 134.85 173.595 134.058C172.675 133.265 172.01 132.268 171.601 131.066C171.192 129.864 170.987 128.637 170.987 127.384C170.987 126.668 171.039 126.068 171.141 125.582C172.215 125.275 173.097 124.495 173.787 123.242C174.503 121.964 174.861 120.596 174.861 119.139C174.861 117.783 174.529 117.106 173.864 117.106C172.688 117.106 171.767 118.845 171.103 122.322L168.725 134.479L159.367 135.4L164.813 107.633L174.171 106.712L173.289 111.276ZM214.289 109.167C214.289 111.085 213.969 112.504 213.33 113.424C212.691 114.345 211.489 114.805 209.725 114.805C208.83 114.805 207.858 114.703 206.81 114.498C205.787 114.293 205.007 114.051 204.47 113.769L203.473 118.985H211.105C211.105 122.539 209.635 124.316 206.695 124.316C205.416 124.316 204.061 123.997 202.63 123.357L200.674 134.479H190.472L195.112 109.167H214.289ZM220.986 105.409C222.393 105.409 223.518 105.715 224.361 106.329C225.205 106.943 225.627 107.774 225.627 108.822C225.627 109.896 225.18 110.727 224.285 111.315C223.415 111.903 222.265 112.197 220.833 112.197C219.401 112.197 218.251 111.916 217.381 111.353C216.512 110.765 216.077 109.947 216.077 108.899C216.077 107.825 216.538 106.981 217.458 106.367C218.404 105.728 219.58 105.409 220.986 105.409ZM222.022 127.845C221.894 128.535 221.83 129.072 221.83 129.455C221.83 130.095 222.009 130.644 222.367 131.104C222.725 131.565 223.249 131.833 223.94 131.91C223.607 132.984 222.853 133.815 221.677 134.403C220.526 134.965 219.261 135.247 217.88 135.247C216.295 135.247 215.016 134.863 214.045 134.096C213.073 133.303 212.587 132.14 212.587 130.606C212.587 129.788 212.702 128.663 212.932 127.231C213.163 125.774 213.495 123.907 213.93 121.632C214.16 120.43 214.288 119.778 214.313 119.676L215.234 114.92L224.668 113.999L222.022 127.845ZM237.287 114.92H240.279L239.934 116.646H237.019L234.948 127.845C234.82 128.535 234.756 129.072 234.756 129.455C234.756 130.095 234.935 130.644 235.293 131.104C235.651 131.565 236.175 131.833 236.865 131.91C236.533 132.984 235.779 133.815 234.603 134.403C233.452 134.965 232.186 135.247 230.806 135.247C229.221 135.247 227.942 134.863 226.971 134.096C225.999 133.303 225.513 132.153 225.513 130.644C225.513 129.417 225.91 126.694 226.702 122.475L227.814 116.646H225.782L225.935 115.495C229.259 114.575 232.659 112.926 236.137 110.548H238.284L237.287 114.92ZM248.208 117.911C249.487 115.406 251.915 114.153 255.495 114.153C257.362 114.153 258.819 114.485 259.867 115.15C260.915 115.789 261.44 116.889 261.44 118.448C261.44 119.087 261.35 119.842 261.171 120.711C261.018 121.58 260.775 122.693 260.442 124.048C259.803 126.605 259.484 128.356 259.484 129.302C259.484 130.862 260.187 131.731 261.593 131.91C261.235 132.984 260.481 133.815 259.33 134.403C258.18 134.965 256.914 135.247 255.533 135.247C253.974 135.247 252.695 134.863 251.698 134.096C250.727 133.303 250.241 132.191 250.241 130.759C250.241 130.12 250.317 129.391 250.471 128.573C250.65 127.73 250.944 126.438 251.353 124.7C252.094 121.785 252.465 119.778 252.465 118.678C252.465 117.63 252.171 117.106 251.583 117.106C250.867 117.106 250.33 117.579 249.972 118.525C249.614 119.445 249.282 120.711 248.975 122.322L246.597 134.479L237.239 135.4L241.266 114.92L248.898 113.999L248.208 117.911ZM276.16 114.153C278.231 114.153 279.918 114.498 281.222 115.188C282.526 115.879 283.178 117.144 283.178 118.985C283.178 120.852 282.398 122.335 280.839 123.434C279.279 124.533 276.748 125.198 273.245 125.428C273.04 125.454 272.401 125.492 271.327 125.543C271.251 125.927 271.212 126.349 271.212 126.809C271.212 127.755 271.442 128.458 271.903 128.918C272.388 129.379 273.143 129.609 274.165 129.609C275.137 129.609 276.147 129.417 277.195 129.033C278.243 128.65 279.011 128.139 279.496 127.499C279.854 127.781 280.097 128.075 280.225 128.381C280.378 128.663 280.455 129.033 280.455 129.494C280.455 130.721 279.995 131.769 279.074 132.639C278.18 133.508 277.029 134.16 275.623 134.595C274.217 135.029 272.759 135.247 271.251 135.247C268.54 135.247 266.418 134.518 264.884 133.06C263.35 131.603 262.583 129.404 262.583 126.464C262.583 124.163 263.082 122.079 264.079 120.212C265.076 118.346 266.584 116.876 268.604 115.802C270.65 114.703 273.168 114.153 276.16 114.153ZM275.316 115.994C273.731 115.994 272.491 118.666 271.596 124.009C272.619 124.009 273.501 123.69 274.242 123.051C274.984 122.411 275.546 121.632 275.93 120.711C276.313 119.765 276.505 118.87 276.505 118.026C276.505 117.413 276.403 116.927 276.198 116.569C275.994 116.185 275.699 115.994 275.316 115.994ZM292.085 131.066C292.085 130.708 291.855 130.337 291.395 129.954C290.96 129.545 290.283 129.033 289.362 128.42L288.058 127.538C286.908 126.694 285.987 125.85 285.297 125.006C284.632 124.137 284.3 123.178 284.3 122.13C284.3 120.622 284.735 119.266 285.604 118.065C286.473 116.863 287.739 115.917 289.401 115.227C291.088 114.511 293.095 114.153 295.422 114.153C297.34 114.153 298.797 114.447 299.794 115.035C300.817 115.597 301.328 116.569 301.328 117.95C301.328 119.126 300.958 120.046 300.216 120.711C299.475 121.35 298.388 121.67 296.956 121.67C296.189 121.67 295.575 121.529 295.115 121.248C295.473 120.2 295.652 119.215 295.652 118.295C295.652 117.579 295.486 117.042 295.154 116.684C294.821 116.301 294.412 116.109 293.926 116.109C293.364 116.109 292.84 116.326 292.354 116.761C291.894 117.195 291.664 117.707 291.664 118.295C291.664 119.19 291.958 119.918 292.546 120.481C293.159 121.043 294.093 121.695 295.345 122.437C296.675 123.23 297.685 123.997 298.375 124.738C299.091 125.48 299.449 126.464 299.449 127.691C299.449 129.123 299.053 130.414 298.26 131.565C297.468 132.69 296.279 133.585 294.693 134.249C293.108 134.889 291.152 135.208 288.826 135.208C286.78 135.208 285.041 134.927 283.61 134.364C282.203 133.776 281.5 132.792 281.5 131.411C281.5 130.44 281.871 129.634 282.612 128.995C283.354 128.356 284.351 128.036 285.604 128.036C286.729 128.036 287.688 128.266 288.48 128.727C288.174 129.57 288.02 130.274 288.02 130.836C288.02 131.578 288.199 132.153 288.557 132.562C288.915 132.945 289.362 133.137 289.899 133.137C290.462 133.137 290.96 132.958 291.395 132.6C291.855 132.217 292.085 131.705 292.085 131.066ZM310.25 131.066C310.25 130.708 310.02 130.337 309.56 129.954C309.125 129.545 308.448 129.033 307.527 128.42L306.223 127.538C305.073 126.694 304.152 125.85 303.462 125.006C302.797 124.137 302.465 123.178 302.465 122.13C302.465 120.622 302.899 119.266 303.769 118.065C304.638 116.863 305.904 115.917 307.566 115.227C309.253 114.511 311.26 114.153 313.587 114.153C315.505 114.153 316.962 114.447 317.959 115.035C318.982 115.597 319.493 116.569 319.493 117.95C319.493 119.126 319.122 120.046 318.381 120.711C317.639 121.35 316.553 121.67 315.121 121.67C314.354 121.67 313.74 121.529 313.28 121.248C313.638 120.2 313.817 119.215 313.817 118.295C313.817 117.579 313.651 117.042 313.318 116.684C312.986 116.301 312.577 116.109 312.091 116.109C311.529 116.109 311.005 116.326 310.519 116.761C310.059 117.195 309.828 117.707 309.828 118.295C309.828 119.19 310.122 119.918 310.711 120.481C311.324 121.043 312.257 121.695 313.51 122.437C314.84 123.23 315.85 123.997 316.54 124.738C317.256 125.48 317.614 126.464 317.614 127.691C317.614 129.123 317.218 130.414 316.425 131.565C315.632 132.69 314.443 133.585 312.858 134.249C311.273 134.889 309.317 135.208 306.99 135.208C304.945 135.208 303.206 134.927 301.774 134.364C300.368 133.776 299.665 132.792 299.665 131.411C299.665 130.44 300.036 129.634 300.777 128.995C301.519 128.356 302.516 128.036 303.769 128.036C304.894 128.036 305.853 128.266 306.645 128.727C306.338 129.57 306.185 130.274 306.185 130.836C306.185 131.578 306.364 132.153 306.722 132.562C307.08 132.945 307.527 133.137 308.064 133.137C308.627 133.137 309.125 132.958 309.56 132.6C310.02 132.217 310.25 131.705 310.25 131.066Z" fill="white"/>
</g>
<defs>
<filter id="filter0_d" x="121.071" y="0.176758" width="93.3466" height="93.6518" filterUnits="userSpaceOnUse" color-interpolation-filters="sRGB">
<feFlood flood-opacity="0" result="BackgroundImageFix"/>
<feColorMatrix in="SourceAlpha" type="matrix" values="0 0 0 0 0 0 0 0 0 0 0 0 0 0 0 0 0 0 127 0" result="hardAlpha"/>
<feOffset dy="0.708759"/>
<feGaussianBlur stdDeviation="0.354379"/>
<feComposite in2="hardAlpha" operator="out"/>
<feColorMatrix type="matrix" values="0 0 0 0 0 0 0 0 0 0 0 0 0 0 0 0 0 0 0.25 0"/>
<feBlend mode="normal" in2="BackgroundImageFix" result="effect1_dropShadow"/>
<feBlend mode="normal" in="SourceGraphic" in2="effect1_dropShadow" result="shape"/>
</filter>
<filter id="filter1_ddddd" x="0.951349" y="105.408" width="319.894" height="32.6967" filterUnits="userSpaceOnUse" color-interpolation-filters="sRGB">
<feFlood flood-opacity="0" result="BackgroundImageFix"/>
<feColorMatrix in="SourceAlpha" type="matrix" values="0 0 0 0 0 0 0 0 0 0 0 0 0 0 0 0 0 0 127 0" result="hardAlpha"/>
<feOffset dy="0.892092"/>
<feGaussianBlur stdDeviation="0.446046"/>
<feComposite in2="hardAlpha" operator="out"/>
<feColorMatrix type="matrix" values="0 0 0 0 0 0 0 0 0 0 0 0 0 0 0 0 0 0 0.25 0"/>
<feBlend mode="normal" in2="BackgroundImageFix" result="effect1_dropShadow"/>
<feColorMatrix in="SourceAlpha" type="matrix" values="0 0 0 0 0 0 0 0 0 0 0 0 0 0 0 0 0 0 127 0" result="hardAlpha"/>
<feOffset dy="1.35264"/>
<feGaussianBlur stdDeviation="0.676318"/>
<feComposite in2="hardAlpha" operator="out"/>
<feColorMatrix type="matrix" values="0 0 0 0 0 0 0 0 0 0 0 0 0 0 0 0 0 0 0.25 0"/>
<feBlend mode="normal" in2="effect1_dropShadow" result="effect2_dropShadow"/>
<feColorMatrix in="SourceAlpha" type="matrix" values="0 0 0 0 0 0 0 0 0 0 0 0 0 0 0 0 0 0 127 0" result="hardAlpha"/>
<feOffset dy="1.35264"/>
<feGaussianBlur stdDeviation="0.676318"/>
<feComposite in2="hardAlpha" operator="out"/>
<feColorMatrix type="matrix" values="0 0 0 0 0 0 0 0 0 0 0 0 0 0 0 0 0 0 0.25 0"/>
<feBlend mode="normal" in2="effect2_dropShadow" result="effect3_dropShadow"/>
<feColorMatrix in="SourceAlpha" type="matrix" values="0 0 0 0 0 0 0 0 0 0 0 0 0 0 0 0 0 0 127 0" result="hardAlpha"/>
<feOffset dy="1.35264"/>
<feGaussianBlur stdDeviation="0.676318"/>
<feComposite in2="hardAlpha" operator="out"/>
<feColorMatrix type="matrix" values="0 0 0 0 0 0 0 0 0 0 0 0 0 0 0 0 0 0 0.25 0"/>
<feBlend mode="normal" in2="effect3_dropShadow" result="effect4_dropShadow"/>
<feColorMatrix in="SourceAlpha" type="matrix" values="0 0 0 0 0 0 0 0 0 0 0 0 0 0 0 0 0 0 127 0" result="hardAlpha"/>
<feOffset dy="1.35264"/>
<feGaussianBlur stdDeviation="0.676318"/>
<feComposite in2="hardAlpha" operator="out"/>
<feColorMatrix type="matrix" values="0 0 0 0 0 0 0 0 0 0 0 0 0 0 0 0 0 0 0.25 0"/>
<feBlend mode="normal" in2="effect4_dropShadow" result="effect5_dropShadow"/>
<feBlend mode="normal" in="SourceGraphic" in2="effect5_dropShadow" result="shape"/>
</filter>
</defs>
</svg>
