<svg width="1292" height="1224" viewBox="0 0 1292 1224" fill="none" xmlns="http://www.w3.org/2000/svg">
<ellipse cx="646" cy="612" rx="646" ry="612" fill="black"/>
<path d="M982.068 408.578H942.919C937.975 404.817 926.784 392.543 933.428 367.6C953.358 315.339 1000.26 339.49 1018.25 358.098C1025.76 345.825 1049.21 325.792 1082.91 343.845C1111.38 359.049 1100.7 393.335 1091.8 408.578H1053.25L1041.98 375.915L1027.74 410.359L1018.25 392.543L1007.57 425.206L990.965 375.915L982.068 408.578Z" fill="#FB0505"/>
<path d="M1015.88 484L950.63 416.892L986.22 415.704L992.745 394.325L1007.57 443.616L1020.03 408.578L1027.74 425.206L1041.98 390.762L1049.69 415.704H1085.87L1015.88 484Z" fill="#FB0505"/>
<path d="M982.068 408.578H942.919C937.975 404.817 926.784 392.543 933.428 367.6C953.358 315.339 1000.26 339.49 1018.25 358.098C1025.76 345.825 1049.21 325.792 1082.91 343.845C1111.38 359.049 1100.7 393.335 1091.8 408.578H1053.25L1041.98 375.915L1027.74 410.359L1018.25 392.543L1007.57 425.206L990.965 375.915L982.068 408.578Z" stroke="#FB0505"/>
<path d="M1015.88 484L950.63 416.892L986.22 415.704L992.745 394.325L1007.57 443.616L1020.03 408.578L1027.74 425.206L1041.98 390.762L1049.69 415.704H1085.87L1015.88 484Z" stroke="#FB0505"/>
<path d="M342.694 265.577C331.252 286.025 337.926 295.6 342.694 297.831C360.465 277.546 425.912 229.063 545.539 197.417C674.6 183.298 774.419 225.209 808.196 247.929C782.711 247.929 738.631 257.666 719.777 262.534C673.487 284.93 664.948 312.843 666.465 324C712.235 305.013 855.873 316.089 921.971 324C933.674 316.089 958.899 296.736 966.181 282.617C973.462 268.498 966.614 253.609 962.28 247.929L875.811 111L851.756 130.474C831.471 142.159 843.304 174.291 851.756 188.897C827.831 176.239 757.702 149.137 725.628 137.169C585.848 92.7429 449.318 170.031 412.91 193.766C376.502 217.5 356.997 240.017 342.694 265.577Z" fill="#28FF0C" stroke="#28FF0C"/>
<path d="M479.629 1027.35C504.109 1026.28 509.991 1015.98 509.872 1010.97C482.608 1006.8 406.791 978.143 321.629 896.825C248.524 798.926 241.518 696.381 247.153 657.346C258.975 678.094 288.551 709.035 301.862 721.912C344.333 748.224 374.466 741.001 384.223 734.101C345.189 706.481 288.946 583.921 265.704 526.094C252.858 520.584 223.011 509.875 206.395 511.117C189.779 512.358 178.995 525.494 175.68 531.907L87.4012 671.833L116.819 681.527C137.184 692.107 161.824 666.158 171.598 651.86C170.827 677.766 177.946 748.619 181.602 780.808C204.786 917.162 340.584 989.064 379.727 1006.65C418.869 1024.24 449.029 1028.68 479.629 1027.35Z" fill="#28FF0C" stroke="#28FF0C"/>
<path d="M1097.12 518.711C1082.43 500.189 1070.32 501.648 1066.1 504.693C1077.88 528.474 1096.04 604.656 1074.45 719.143C1031.9 833.958 948.178 899.798 911.637 918.367C922.721 896.906 932.528 855.556 936.045 837.564C934.639 788.851 911.508 769.53 900.118 765.958C898.473 812.752 825.349 928.891 788.993 981.112C791.513 994.405 799.153 1024.06 809.565 1036.33C819.977 1048.59 837.275 1049.3 844.623 1048.12L1013.92 1034.81L1005.65 1006.09C1003.24 983.934 967.187 979.933 949.464 980.702C972.044 966.057 1028.61 918.782 1054.07 896.976C1157.59 798.578 1142.64 650.02 1135.64 609.047C1128.65 568.074 1115.48 541.864 1097.12 518.711Z" fill="#28FF0C" stroke="#28FF0C"/>
<circle cx="250.876" cy="396.5" r="85.5" fill="#EFF312"/>
<path fill-rule="evenodd" clip-rule="evenodd" d="M246.393 443.394L246.508 453.916H255.869V443.797C266.309 442.785 271.554 436.846 273.343 434.569C282.081 422.504 291.816 394.752 255.869 385.266V359.819C259.814 360.735 262.634 363.415 263.358 370.288L279.584 369.04C279.168 361.343 273.843 345.949 255.869 345.949V339.708H245.259L245.328 346C237.268 346.854 222.304 352.999 222.792 371.536C223.291 390.509 238.394 398.164 245.883 399.62C245.894 399.624 245.904 399.627 245.914 399.63L246.22 427.603C241.212 424.764 237.631 418.631 235.898 413.974H217.799C219.88 424.168 228.409 440.186 245.883 443.306C246.054 443.337 246.224 443.366 246.393 443.394ZM255.869 428.447C258.215 427.603 260.718 425.975 263.358 423.336C269.246 410.867 263.36 405.786 255.869 402.802V428.447ZM245.723 382.091L245.478 359.715C238.826 360.443 237.146 367.025 237.146 370.288C236.356 372.973 237.485 378.201 245.723 382.091Z" fill="#141313"/>
<path d="M246.508 453.916L246.008 453.922L246.013 454.416H246.508V453.916ZM246.393 443.394L246.893 443.389L246.888 442.97L246.475 442.901L246.393 443.394ZM255.869 453.916V454.416H256.369V453.916H255.869ZM255.869 443.797L255.821 443.299L255.369 443.343V443.797H255.869ZM273.343 434.569L273.736 434.878L273.743 434.87L273.748 434.862L273.343 434.569ZM255.869 385.266H255.369V385.652L255.741 385.75L255.869 385.266ZM255.869 359.819L255.982 359.332L255.369 359.189V359.819H255.869ZM263.358 370.288L262.861 370.341L262.912 370.824L263.396 370.787L263.358 370.288ZM279.584 369.04L279.623 369.539L280.11 369.501L280.083 369.013L279.584 369.04ZM255.869 345.949H255.369V346.449L255.869 346.449V345.949ZM255.869 339.708H256.369V339.208H255.869V339.708ZM245.259 339.708V339.208H244.754L244.759 339.713L245.259 339.708ZM245.328 346L245.381 346.497L245.833 346.45L245.828 345.995L245.328 346ZM222.792 371.536L223.292 371.523L222.792 371.536ZM245.883 399.62L246.032 399.143L246.006 399.135L245.979 399.13L245.883 399.62ZM245.914 399.63L246.414 399.625L246.41 399.261L246.063 399.153L245.914 399.63ZM246.22 427.603L245.973 428.038L246.729 428.467L246.72 427.598L246.22 427.603ZM235.898 413.974L236.367 413.8L236.245 413.474H235.898V413.974ZM217.799 413.974V413.474H217.187L217.31 414.074L217.799 413.974ZM245.883 443.306L245.971 442.814H245.971L245.883 443.306ZM255.869 428.447H255.369V429.158L256.038 428.918L255.869 428.447ZM263.358 423.336L263.711 423.689L263.773 423.628L263.81 423.549L263.358 423.336ZM255.869 402.802L256.054 402.338L255.369 402.065V402.802H255.869ZM245.723 382.091L245.509 382.544L246.231 382.885L246.223 382.086L245.723 382.091ZM245.478 359.715L245.978 359.71L245.972 359.158L245.424 359.218L245.478 359.715ZM237.146 370.288L237.626 370.429L237.646 370.36V370.288L237.146 370.288ZM247.008 453.911L246.893 443.389L245.893 443.4L246.008 453.922L247.008 453.911ZM255.869 453.416H246.508V454.416H255.869V453.416ZM255.369 443.797V453.916H256.369V443.797H255.369ZM272.95 434.26C271.202 436.485 266.068 442.306 255.821 443.299L255.917 444.294C266.55 443.264 271.906 437.208 273.736 434.878L272.95 434.26ZM255.741 385.75C264.667 388.105 270.709 391.582 274.635 395.624C278.555 399.66 280.392 404.287 280.865 409C281.815 418.461 277.271 428.293 272.938 434.276L273.748 434.862C278.153 428.78 282.845 418.704 281.86 408.9C281.366 403.983 279.443 399.139 275.352 394.927C271.266 390.72 265.044 387.171 255.996 384.783L255.741 385.75ZM255.369 359.819V385.266H256.369V359.819H255.369ZM263.855 370.236C263.488 366.744 262.581 364.254 261.215 362.511C259.841 360.759 258.039 359.81 255.982 359.332L255.756 360.306C257.643 360.744 259.225 361.593 260.428 363.128C261.639 364.673 262.505 366.959 262.861 370.341L263.855 370.236ZM279.546 368.542L263.32 369.79L263.396 370.787L279.623 369.539L279.546 368.542ZM255.869 346.449C264.689 346.449 270.37 350.215 273.912 354.909C277.47 359.625 278.881 365.296 279.085 369.067L280.083 369.013C279.871 365.087 278.412 359.213 274.71 354.307C270.991 349.379 265.023 345.449 255.869 345.449V346.449ZM255.369 339.708V345.949H256.369V339.708H255.369ZM245.259 340.208H255.869V339.208H245.259V340.208ZM245.828 345.995L245.759 339.703L244.759 339.713L244.828 346.006L245.828 345.995ZM223.292 371.523C223.052 362.411 226.602 356.384 231.177 352.519C235.772 348.637 241.427 346.916 245.381 346.497L245.276 345.503C241.169 345.938 235.312 347.717 230.532 351.755C225.733 355.81 222.044 362.124 222.292 371.55L223.292 371.523ZM245.979 399.13C238.616 397.698 223.783 390.169 223.292 371.523L222.292 371.55C222.8 390.848 238.173 398.63 245.788 400.111L245.979 399.13ZM246.063 399.153C246.053 399.149 246.043 399.146 246.032 399.143L245.734 400.098C245.745 400.101 245.755 400.104 245.765 400.107L246.063 399.153ZM246.72 427.598L246.414 399.625L245.414 399.635L245.72 427.608L246.72 427.598ZM235.429 414.149C237.177 418.846 240.813 425.113 245.973 428.038L246.467 427.168C241.611 424.415 238.084 418.415 236.367 413.8L235.429 414.149ZM217.799 414.474H235.898V413.474H217.799V414.474ZM245.971 442.814C228.784 439.745 220.349 423.969 218.289 413.874L217.31 414.074C219.41 424.367 228.034 440.627 245.796 443.799L245.971 442.814ZM246.475 442.901C246.308 442.873 246.14 442.844 245.971 442.814L245.796 443.799C245.968 443.829 246.14 443.859 246.31 443.888L246.475 442.901ZM256.038 428.918C258.471 428.043 261.034 426.366 263.711 423.689L263.004 422.982C260.403 425.584 257.96 427.164 255.7 427.977L256.038 428.918ZM263.81 423.549C266.79 417.239 266.846 412.675 265.074 409.281C263.316 405.914 259.828 403.841 256.054 402.338L255.684 403.267C259.401 404.748 262.602 406.707 264.187 409.744C265.759 412.753 265.814 416.963 262.906 423.122L263.81 423.549ZM255.369 402.802V428.447H256.369V402.802H255.369ZM246.223 382.086L245.978 359.71L244.978 359.721L245.223 382.097L246.223 382.086ZM245.424 359.218C241.913 359.602 239.702 361.543 238.386 363.799C237.08 366.036 236.646 368.589 236.646 370.288L237.646 370.288C237.646 368.725 238.052 366.355 239.249 364.303C240.436 362.27 242.391 360.556 245.532 360.212L245.424 359.218ZM236.667 370.147C235.785 373.145 237.13 378.585 245.509 382.544L245.936 381.639C237.841 377.816 236.928 372.802 237.626 370.429L236.667 370.147Z" fill="black"/>
<circle cx="645.876" cy="979.5" r="85.5" fill="#4C64D2"/>
<path d="M595.046 969.685V990.521V1016.91C595.046 1020.25 598.275 1022.01 599.889 1022.47H615.801C617.462 1022.47 620.183 1018.76 621.336 1016.91C620.875 1005.34 619.952 980.381 619.952 973.158C619.952 965.935 618.568 964.592 617.877 962.74C614.648 961.583 606.946 961.907 601.964 962.74C597.021 963.567 595.277 967.139 595.046 969.685Z" fill="white"/>
<path d="M626.061 1009.88V966.824C627.675 961.499 632.979 949.6 641.281 944.599C647.37 940.155 649.814 928.857 650.275 923.764C654.703 910.985 664.75 918.903 665.496 923.764C665.957 926.774 667.018 934.182 667.571 939.738C668.125 945.294 663.189 955.017 660.653 959.184H690.401C699.81 963.629 695.705 972.148 692.477 975.852C699.672 980.853 695.475 987.659 692.477 990.437C698.565 994.882 693.63 1001.09 690.401 1003.63C695.383 1010.3 689.71 1015.21 686.251 1016.83H636.439C629.797 1016.83 626.753 1012.2 626.061 1009.88Z" fill="white"/>
<path d="M594.968 969.602V990.437V1016.83C594.968 1020.16 598.196 1021.92 599.811 1022.38H615.723C617.383 1022.38 620.104 1018.68 621.257 1016.83C620.796 1005.25 619.874 980.297 619.874 973.074C619.874 965.851 618.49 964.509 617.798 962.657C614.57 961.499 606.867 961.823 601.886 962.657C596.942 963.484 595.198 967.055 594.968 969.602Z" stroke="white"/>
<path d="M625.487 1009.97V966.907C627.101 961.583 632.405 949.683 640.707 944.683C646.795 940.238 649.24 928.941 649.701 923.848C654.129 911.069 664.176 918.986 664.921 923.848C665.382 926.857 666.443 934.265 666.997 939.821C667.55 945.377 662.615 955.101 660.078 959.268H689.827C699.236 963.713 695.131 972.232 691.903 975.936C699.098 980.936 694.901 987.743 691.903 990.521C697.991 994.966 693.056 1001.17 689.827 1003.72C694.808 1010.38 689.135 1015.29 685.676 1016.91H635.864C629.223 1016.91 626.179 1012.28 625.487 1009.97Z" stroke="white"/>
<path fill-rule="evenodd" clip-rule="evenodd" d="M578.861 387.227C571.534 385.59 568.874 377.842 568.21 371.969C567.983 378.657 565.201 383.511 563.593 385.308C564.069 387.702 561.241 391.029 559.486 392.67C561.081 390.936 560.373 387.108 559.776 385.308L559.14 383.388C558.291 383.602 556.849 384.54 557.867 386.587C558.885 388.634 557.019 392.558 555.959 394.264L553.414 388.506C554.432 393.112 547.053 397.676 543.236 399.382C543.236 402.452 539.843 404.073 538.146 404.5L537.51 399.382C535.983 403.476 531.361 402.367 529.24 401.301C534.329 399.766 535.602 395.97 535.602 394.264C535.814 391.065 536.111 383.9 535.602 380.83C535.093 377.759 540.479 375.712 543.236 375.072C547.477 373.579 555.959 368.291 555.959 359.079C555.959 349.867 566.137 347.137 571.227 346.924C572.245 341.806 579.709 337.968 583.314 336.688C587.979 336.049 599.727 335.281 609.396 337.328C619.066 339.375 622.756 350.549 623.392 355.88V368.675L627.845 372.513V376.991L623.392 378.91V380.83V391.065C623.18 393.198 621.483 397.335 616.394 396.823C611.305 396.311 608.336 397.889 607.488 398.742C606.428 401.727 604.561 408.466 605.579 411.537C606.597 414.607 609.82 415.801 611.305 416.015C617.921 414.991 623.816 422.838 625.936 426.89L641.841 466.553H643.113H644.385C648.838 462.928 658.253 454.782 660.289 451.2C662.325 447.617 660.713 444.163 659.653 442.883C655.582 439.301 658.805 434.993 660.925 433.287C662.198 433.074 666.905 433.031 675.557 434.567C684.209 436.102 681.707 444.589 679.374 448.641L669.832 458.237L657.745 474.87C654.988 479.988 647.311 490.479 638.66 491.503C630.008 492.526 622.756 477.002 620.211 469.112H618.939L612.577 504.937C613.595 515.173 609.608 528.82 607.488 534.365L604.943 549.718C610.541 551.253 622.968 573.814 628.481 584.903L651.383 627.125L653.291 651.435H655.2C656.218 637.617 667.499 626.485 673.012 622.647L674.285 617.529L675.557 596.418C675.557 590.789 685.736 568.057 690.825 557.395V551.637C684.718 550.102 667.075 522.849 659.017 509.415C654.988 503.871 649.729 491.247 660.925 485.105C666.651 479.988 691.461 466.127 703.548 463.355C706.602 456.701 715.847 454.612 720.088 454.398L728.358 448.001V445.442L721.997 439.685V433.287L721.361 428.169L711.818 413.456V403.86L713.727 401.301C713.091 402.154 712.454 401.685 714.999 392.984C717.544 384.284 734.72 382.109 742.99 382.109C746.595 381.896 756.986 381.725 769.709 382.749C782.432 383.772 786.037 403.647 786.249 413.456L792.611 421.132V426.89L789.43 427.53L788.157 448.001L777.343 462.715C785.486 466.809 784.977 479.774 783.704 485.745L791.974 492.782C798.548 492.569 811.059 496.365 808.515 513.253C800.881 540.378 779.463 548.439 769.709 549.078L765.892 568.27V589.381L763.983 609.213C779.251 618.425 802.153 660.391 811.695 680.223L812.968 731.401C813.18 738.438 813.731 754.175 814.24 760.828C814.749 767.482 819.541 781.087 821.874 787.057H824.419C828.49 782.963 830.78 787.057 831.416 789.616V796.653L846.048 810.727L858.771 813.926C872.512 820.579 862.8 826.081 856.227 828H835.87C818.905 827.147 784.595 823.266 783.068 814.566C781.541 805.865 789.218 794.734 793.247 790.256L787.521 758.27L774.798 729.482L772.89 693.017C768.436 687.046 758.512 675.233 754.441 675.745C750.37 676.256 732.387 658.045 723.905 648.876C718.604 654.207 707.747 665.637 706.729 668.708C705.711 671.778 682.131 693.87 670.468 704.532L676.193 715.408H678.102L699.731 713.489L708.637 709.01C711.182 706.238 717.289 702.485 721.361 709.65C725.432 716.815 720.512 725.857 717.544 729.482L701.003 744.835L693.37 745.475V749.953C693.37 750.38 691.334 752.64 683.191 758.27C675.048 763.899 670.044 758.483 668.559 755.071L658.381 737.798L660.289 729.482L650.747 715.408C639.084 722.232 613.34 737.159 603.671 742.276C594.001 747.394 578.436 759.762 571.863 765.307C573.899 766.33 572.711 771.704 571.863 774.263C569.53 775.116 564.992 777.717 565.501 781.3C566.01 784.882 560.624 794.734 557.867 799.212C558.503 804.97 558.758 817.381 554.686 820.963C545.526 825.057 536.45 804.757 533.057 794.094C531.997 782.366 529.367 756.99 527.332 749.313C525.296 741.637 531.573 738.864 534.965 738.438C542.387 738.012 557.74 737.159 559.776 737.159C561.811 737.159 576.74 723.937 583.95 717.327C591.075 704.021 611.941 690.458 621.483 685.34L631.026 680.862C623.786 667.516 623.984 645.539 624.024 641.121C624.026 640.88 624.028 640.692 624.028 640.559C624.028 638.512 595.189 611.558 580.769 598.337C582.296 601.92 566.137 618.169 557.867 625.846L539.419 645.038C532.803 650.667 520.122 647.81 514.608 645.677L435.088 645.038C434.579 649.644 428.09 649.942 424.91 649.516L405.189 669.347L399.463 678.303C390.811 687.516 387.8 680.436 387.376 675.745L388.012 659.112C386.486 654.506 395.858 643.118 400.736 638.001C399.718 629.812 403.28 622.647 405.189 620.088L410.278 612.411C410.49 612.838 411.423 612.923 413.459 609.853C415.494 606.782 418.124 608.147 419.184 609.213C424.061 614.117 434.579 624.055 437.633 624.566C441.45 625.206 456.718 623.927 475.803 617.529C489.544 609.341 507.399 614.544 514.608 618.169C516.517 618.809 521.097 619.576 524.151 617.529C527.204 615.482 530.088 606.867 531.149 602.815C532.675 586.95 542.811 569.336 547.689 562.513C535.983 541.018 546.628 521.57 553.414 514.533C543.744 512.998 536.662 499.819 534.329 493.422L524.787 485.745C523.939 485.105 518.807 480.371 505.066 466.553C491.325 452.735 499.34 442.457 505.066 439.045L533.057 421.132C541.2 408.85 558.928 404.073 566.773 403.22C569.53 402.367 575.553 400.277 577.588 398.742C579.624 397.207 579.285 390.425 578.861 387.227ZM559.14 392.984C559.265 392.89 559.38 392.784 559.486 392.67C559.365 392.783 559.249 392.888 559.14 392.984ZM693.171 520.631L688.451 505.439L697.892 502.797L693.171 520.631ZM554.174 445.569C553.999 456.409 554.593 479.034 558.37 482.81C555.747 481.936 550.187 480.712 548.928 482.81C542.809 476.691 530.256 462.564 528.997 455.011C528.997 451.234 531.444 450.64 532.668 450.815L551.027 444.52C552.084 443.996 554.194 443.471 554.174 445.569Z" fill="white"/>
<path d="M568.21 371.969L568.707 371.913L567.711 371.952L568.21 371.969ZM578.861 387.227L579.356 387.161L579.31 386.815L578.97 386.739L578.861 387.227ZM563.593 385.308L563.22 384.974L563.054 385.16L563.102 385.405L563.593 385.308ZM559.776 385.308L560.25 385.15V385.15L559.776 385.308ZM559.14 383.388L559.614 383.231L559.468 382.79L559.018 382.904L559.14 383.388ZM557.867 386.587L558.315 386.365L557.867 386.587ZM555.959 394.264L555.501 394.466L555.884 395.331L556.383 394.528L555.959 394.264ZM553.414 388.506L553.871 388.304L552.926 388.614L553.414 388.506ZM543.236 399.382L543.032 398.925L542.736 399.057V399.382H543.236ZM538.146 404.5L537.65 404.561L537.72 405.122L538.268 404.984L538.146 404.5ZM537.51 399.382L538.006 399.32L537.042 399.207L537.51 399.382ZM529.24 401.301L529.096 400.822L527.895 401.184L529.015 401.748L529.24 401.301ZM535.602 394.264L535.103 394.231L535.102 394.247V394.264H535.602ZM543.236 375.072L543.349 375.559L543.376 375.553L543.402 375.544L543.236 375.072ZM571.227 346.924L571.248 347.423L571.64 347.407L571.717 347.021L571.227 346.924ZM583.314 336.688L583.246 336.193L583.195 336.2L583.146 336.217L583.314 336.688ZM609.396 337.328L609.293 337.817L609.396 337.328ZM623.392 355.88H623.892V355.85L623.888 355.821L623.392 355.88ZM623.392 368.675H622.892V368.904L623.065 369.053L623.392 368.675ZM627.845 372.513H628.345V372.284L628.171 372.134L627.845 372.513ZM627.845 376.991L628.043 377.45L628.345 377.32V376.991H627.845ZM623.392 378.91L623.194 378.451L622.892 378.581V378.91H623.392ZM623.392 391.065L623.889 391.115L623.892 391.09V391.065H623.392ZM616.394 396.823L616.344 397.32V397.32L616.394 396.823ZM607.488 398.742L607.133 398.389L607.054 398.469L607.017 398.575L607.488 398.742ZM605.579 411.537L606.054 411.379L605.579 411.537ZM611.305 416.015L611.234 416.51L611.308 416.52L611.381 416.509L611.305 416.015ZM625.936 426.89L626.401 426.704L626.391 426.681L626.379 426.658L625.936 426.89ZM641.841 466.553L641.376 466.739L641.502 467.053H641.841V466.553ZM644.385 466.553V467.053H644.563L644.701 466.941L644.385 466.553ZM660.289 451.2L660.724 451.447L660.289 451.2ZM659.653 442.883L660.038 442.564L660.013 442.534L659.983 442.508L659.653 442.883ZM660.925 433.287L660.843 432.794L660.714 432.816L660.612 432.898L660.925 433.287ZM675.557 434.567L675.47 435.059L675.557 434.567ZM679.374 448.641L679.729 448.993L679.775 448.947L679.807 448.89L679.374 448.641ZM669.832 458.237L669.477 457.884L669.45 457.912L669.427 457.943L669.832 458.237ZM657.745 474.87L657.34 474.576L657.32 474.603L657.304 474.633L657.745 474.87ZM620.211 469.112L620.687 468.959L620.575 468.612H620.211V469.112ZM618.939 469.112V468.612H618.52L618.446 469.025L618.939 469.112ZM612.577 504.937L612.085 504.85L612.073 504.918L612.08 504.986L612.577 504.937ZM607.488 534.365L607.021 534.186L607.003 534.233L606.995 534.283L607.488 534.365ZM604.943 549.718L604.45 549.636L604.376 550.081L604.811 550.2L604.943 549.718ZM628.481 584.903L628.033 585.126L628.037 585.134L628.042 585.141L628.481 584.903ZM651.383 627.125L651.881 627.086L651.873 626.98L651.822 626.887L651.383 627.125ZM653.291 651.435L652.793 651.474L652.829 651.935H653.291V651.435ZM655.2 651.435V651.935H655.664L655.699 651.472L655.2 651.435ZM673.012 622.647L673.298 623.057L673.452 622.95L673.498 622.768L673.012 622.647ZM674.285 617.529L674.77 617.65L674.781 617.605L674.784 617.559L674.285 617.529ZM675.557 596.418L676.056 596.448L676.057 596.433V596.418H675.557ZM690.825 557.395L691.276 557.61L691.325 557.508V557.395H690.825ZM690.825 551.637H691.325V551.247L690.947 551.152L690.825 551.637ZM659.017 509.415L659.446 509.158L659.434 509.139L659.421 509.121L659.017 509.415ZM660.925 485.105L661.166 485.544L661.216 485.516L661.259 485.478L660.925 485.105ZM703.548 463.355L703.66 463.842L703.9 463.787L704.003 463.563L703.548 463.355ZM720.088 454.398L720.113 454.898L720.27 454.89L720.394 454.794L720.088 454.398ZM728.358 448.001L728.664 448.397L728.858 448.246V448.001H728.358ZM728.358 445.442H728.858V445.22L728.694 445.071L728.358 445.442ZM721.997 439.685H721.497V439.906L721.661 440.055L721.997 439.685ZM721.997 433.287H722.497V433.256L722.493 433.226L721.997 433.287ZM721.361 428.169L721.857 428.108L721.843 427.994L721.78 427.897L721.361 428.169ZM711.818 413.456H711.318V413.604L711.399 413.728L711.818 413.456ZM711.818 403.86L711.417 403.561L711.318 403.694V403.86H711.818ZM714.999 392.984L714.519 392.844L714.999 392.984ZM742.99 382.109V382.609H743.005L743.02 382.608L742.99 382.109ZM769.709 382.749L769.749 382.25L769.709 382.749ZM786.249 413.456L785.749 413.467L785.753 413.641L785.864 413.775L786.249 413.456ZM792.611 421.132H793.111V420.952L792.996 420.813L792.611 421.132ZM792.611 426.89L792.709 427.38L793.111 427.299V426.89H792.611ZM789.43 427.53L789.331 427.04L788.955 427.115L788.931 427.499L789.43 427.53ZM788.157 448.001L788.56 448.297L788.647 448.179L788.656 448.032L788.157 448.001ZM777.343 462.715L776.94 462.419L776.589 462.896L777.118 463.162L777.343 462.715ZM783.704 485.745L783.215 485.641L783.153 485.933L783.38 486.126L783.704 485.745ZM791.974 492.782L791.65 493.163L791.798 493.288L791.991 493.282L791.974 492.782ZM808.515 513.253L808.996 513.389L809.004 513.359L809.009 513.328L808.515 513.253ZM769.709 549.078L769.676 548.579L769.293 548.604L769.218 548.981L769.709 549.078ZM765.892 568.27L765.401 568.173L765.392 568.221V568.27H765.892ZM765.892 589.381L766.39 589.429L766.392 589.405V589.381H765.892ZM763.983 609.213L763.486 609.165L763.456 609.478L763.725 609.641L763.983 609.213ZM811.695 680.223L812.195 680.21L812.193 680.103L812.146 680.006L811.695 680.223ZM812.968 731.401L812.468 731.413L812.468 731.416L812.968 731.401ZM814.24 760.828L814.739 760.79L814.24 760.828ZM821.874 787.057L821.408 787.239L821.533 787.557H821.874V787.057ZM824.419 787.057V787.557H824.627L824.773 787.41L824.419 787.057ZM831.416 789.616H831.916V789.555L831.902 789.496L831.416 789.616ZM831.416 796.653H830.916V796.866L831.07 797.014L831.416 796.653ZM846.048 810.727L845.701 811.088L845.797 811.18L845.926 811.212L846.048 810.727ZM858.771 813.926L858.989 813.476L858.943 813.454L858.893 813.441L858.771 813.926ZM856.227 828V828.5H856.298L856.367 828.48L856.227 828ZM835.87 828L835.844 828.499L835.857 828.5H835.87V828ZM783.068 814.566L782.576 814.652L783.068 814.566ZM793.247 790.256L793.618 790.59L793.782 790.409L793.739 790.168L793.247 790.256ZM787.521 758.27L788.014 758.181L788.003 758.122L787.979 758.067L787.521 758.27ZM774.798 729.482L774.299 729.508L774.304 729.6L774.341 729.684L774.798 729.482ZM772.89 693.017L773.389 692.991L773.381 692.84L773.29 692.718L772.89 693.017ZM723.905 648.876L724.272 648.536L723.918 648.154L723.551 648.523L723.905 648.876ZM706.729 668.708L706.254 668.55L706.729 668.708ZM670.468 704.532L670.13 704.163L669.846 704.424L670.025 704.765L670.468 704.532ZM676.193 715.408L675.751 715.641L675.891 715.908H676.193V715.408ZM678.102 715.408V715.908H678.124L678.146 715.906L678.102 715.408ZM699.731 713.489L699.775 713.987L699.87 713.978L699.956 713.935L699.731 713.489ZM708.637 709.01L708.862 709.457L708.944 709.416L709.006 709.349L708.637 709.01ZM721.361 709.65L720.926 709.897L721.361 709.65ZM717.544 729.482L717.884 729.848L717.909 729.825L717.93 729.799L717.544 729.482ZM701.003 744.835L701.045 745.334L701.217 745.319L701.344 745.202L701.003 744.835ZM693.37 745.475L693.328 744.977L692.87 745.015V745.475H693.37ZM683.191 758.27L683.475 758.681L683.191 758.27ZM668.559 755.071L669.018 754.871L669.006 754.843L668.99 754.817L668.559 755.071ZM658.381 737.798L657.893 737.686L657.849 737.881L657.95 738.052L658.381 737.798ZM660.289 729.482L660.777 729.594L660.825 729.381L660.703 729.201L660.289 729.482ZM650.747 715.408L651.161 715.127L650.898 714.74L650.494 714.976L650.747 715.408ZM571.863 765.307L571.54 764.924L570.961 765.413L571.638 765.753L571.863 765.307ZM571.863 774.263L572.035 774.732L572.261 774.649L572.337 774.42L571.863 774.263ZM565.501 781.3L565.996 781.23L565.501 781.3ZM557.867 799.212L557.441 798.95L557.351 799.096L557.37 799.267L557.867 799.212ZM554.686 820.963L554.891 821.419L554.96 821.389L555.017 821.338L554.686 820.963ZM533.057 794.094L532.559 794.139L532.564 794.194L532.581 794.246L533.057 794.094ZM527.332 749.313L526.848 749.442L527.332 749.313ZM534.965 738.438L534.937 737.939L534.92 737.94L534.903 737.942L534.965 738.438ZM583.95 717.327L584.288 717.695L584.35 717.638L584.391 717.563L583.95 717.327ZM621.483 685.34L621.271 684.888L621.259 684.894L621.247 684.9L621.483 685.34ZM631.026 680.862L631.238 681.315L631.718 681.09L631.465 680.624L631.026 680.862ZM624.024 641.121L624.524 641.126L624.024 641.121ZM580.769 598.337L581.107 597.969L580.309 598.533L580.769 598.337ZM557.867 625.846L557.527 625.479L557.517 625.489L557.507 625.499L557.867 625.846ZM539.419 645.038L539.743 645.418L539.762 645.402L539.779 645.384L539.419 645.038ZM514.608 645.677L514.789 645.211L514.704 645.178L514.612 645.177L514.608 645.677ZM435.088 645.038L435.092 644.538L434.641 644.534L434.591 644.983L435.088 645.038ZM424.91 649.516L424.976 649.02L424.73 648.987L424.555 649.163L424.91 649.516ZM405.189 669.347L404.834 668.995L404.796 669.033L404.767 669.078L405.189 669.347ZM399.463 678.303L399.828 678.646L399.86 678.612L399.885 678.573L399.463 678.303ZM387.376 675.745L386.877 675.725L386.875 675.758L386.878 675.79L387.376 675.745ZM388.012 659.112L388.512 659.131L388.515 659.04L388.487 658.954L388.012 659.112ZM400.736 638.001L401.098 638.346L401.261 638.174L401.232 637.939L400.736 638.001ZM405.189 620.088L405.589 620.387L405.598 620.376L405.605 620.364L405.189 620.088ZM410.278 612.411L410.726 612.189L410.34 611.413L409.861 612.135L410.278 612.411ZM413.459 609.853L413.875 610.129H413.876L413.459 609.853ZM419.184 609.213L418.83 609.565H418.83L419.184 609.213ZM437.633 624.566L437.716 624.073L437.633 624.566ZM475.803 617.529L475.961 618.003L476.012 617.986L476.058 617.959L475.803 617.529ZM514.608 618.169L514.384 618.616L514.416 618.632L514.449 618.643L514.608 618.169ZM524.151 617.529L523.872 617.114V617.114L524.151 617.529ZM531.149 602.815L531.632 602.942L531.642 602.903L531.646 602.863L531.149 602.815ZM547.689 562.513L548.095 562.803L548.278 562.548L548.128 562.273L547.689 562.513ZM553.414 514.533L553.774 514.88L554.44 514.189L553.493 514.039L553.414 514.533ZM534.329 493.422L534.799 493.251L534.751 493.12L534.643 493.032L534.329 493.422ZM524.787 485.745L525.1 485.356L525.094 485.351L525.088 485.346L524.787 485.745ZM505.066 466.553L505.42 466.201L505.066 466.553ZM505.066 439.045L505.322 439.474L505.329 439.47L505.335 439.466L505.066 439.045ZM533.057 421.132L533.326 421.554L533.415 421.497L533.474 421.409L533.057 421.132ZM566.773 403.22L566.828 403.717L566.875 403.712L566.921 403.698L566.773 403.22ZM577.588 398.742L577.287 398.343L577.588 398.742ZM559.14 392.984L558.809 392.609L559.441 393.384L559.14 392.984ZM688.451 505.439L688.316 504.958L687.821 505.097L687.973 505.588L688.451 505.439ZM693.171 520.631L692.694 520.779L693.21 522.44L693.655 520.759L693.171 520.631ZM697.892 502.797L698.376 502.925L698.599 502.08L697.757 502.316L697.892 502.797ZM558.37 482.81L558.212 483.285L558.723 482.457L558.37 482.81ZM554.174 445.569L554.674 445.577L554.674 445.574L554.174 445.569ZM548.928 482.81L548.575 483.164L549.028 483.617L549.357 483.068L548.928 482.81ZM528.997 455.011H528.497V455.052L528.503 455.093L528.997 455.011ZM532.668 450.815L532.598 451.31L532.717 451.327L532.83 451.288L532.668 450.815ZM551.027 444.52L551.189 444.993L551.219 444.983L551.249 444.968L551.027 444.52ZM523.515 450.56L523.341 450.091L523.015 450.212V450.56H523.515ZM547.689 441.604L547.862 442.073L547.888 442.063L547.913 442.05L547.689 441.604ZM554.686 444.163L555.184 444.212L554.686 444.163ZM559.14 487.664L559.114 488.164L560.104 488.213L559.556 487.388L559.14 487.664ZM546.416 487.025L546.04 487.353L546.179 487.513L546.391 487.524L546.416 487.025ZM568.046 368.035L568.542 367.977L567.546 368.016L568.046 368.035ZM568.21 371.969L567.713 372.025L568.71 371.986L568.21 371.969ZM567.713 372.025C568.05 375.003 568.894 378.482 570.604 381.437C572.319 384.401 574.919 386.858 578.751 387.715L578.97 386.739C575.476 385.958 573.082 383.723 571.47 380.936C569.852 378.139 569.034 374.808 568.707 371.913L567.713 372.025ZM563.965 385.641C565.649 383.759 568.478 378.794 568.71 371.986L567.711 371.952C567.487 378.519 564.752 383.263 563.22 384.974L563.965 385.641ZM559.827 393.035C560.725 392.196 561.9 390.923 562.795 389.543C563.673 388.191 564.362 386.613 564.083 385.21L563.102 385.405C563.299 386.396 562.813 387.679 561.957 388.999C561.118 390.292 560.002 391.503 559.144 392.305L559.827 393.035ZM559.301 385.465C559.588 386.331 559.903 387.691 559.953 389.033C560.004 390.4 559.776 391.617 559.118 392.332L559.853 393.009C560.791 391.99 561.006 390.425 560.953 388.995C560.898 387.54 560.56 386.085 560.25 385.15L559.301 385.465ZM558.665 383.546L559.301 385.465L560.25 385.15L559.614 383.231L558.665 383.546ZM558.315 386.365C557.869 385.467 557.998 384.915 558.222 384.574C558.471 384.194 558.917 383.96 559.262 383.873L559.018 382.904C558.514 383.03 557.814 383.372 557.386 384.026C556.93 384.72 556.848 385.66 557.42 386.81L558.315 386.365ZM556.383 394.528C556.93 393.649 557.681 392.205 558.168 390.708C558.411 389.959 558.594 389.182 558.646 388.446C558.698 387.713 558.624 386.985 558.315 386.365L557.42 386.81C557.62 387.213 557.694 387.743 557.649 388.375C557.604 389.004 557.445 389.697 557.217 390.399C556.76 391.802 556.048 393.173 555.534 394L556.383 394.528ZM552.957 388.708L555.501 394.466L556.416 394.062L553.871 388.304L552.957 388.708ZM543.44 399.838C545.379 398.972 548.225 397.38 550.468 395.407C551.59 394.421 552.581 393.321 553.228 392.15C553.876 390.975 554.19 389.702 553.902 388.398L552.926 388.614C553.147 389.614 552.92 390.638 552.352 391.667C551.782 392.701 550.881 393.713 549.808 394.656C547.662 396.543 544.909 398.086 543.032 398.925L543.44 399.838ZM538.268 404.984C539.17 404.758 540.511 404.219 541.638 403.324C542.769 402.426 543.736 401.123 543.736 399.382H542.736C542.736 400.711 542.006 401.754 541.016 402.541C540.023 403.33 538.819 403.815 538.024 404.015L538.268 404.984ZM537.014 399.443L537.65 404.561L538.642 404.438L538.006 399.32L537.014 399.443ZM529.015 401.748C530.125 402.305 531.901 402.884 533.629 402.775C534.5 402.721 535.378 402.49 536.15 401.975C536.926 401.456 537.564 400.669 537.979 399.556L537.042 399.207C536.693 400.141 536.181 400.751 535.594 401.143C535.003 401.538 534.307 401.731 533.566 401.777C532.072 401.871 530.476 401.362 529.465 400.854L529.015 401.748ZM535.102 394.264C535.102 395.77 533.954 399.356 529.096 400.822L529.384 401.78C534.704 400.175 536.102 396.169 536.102 394.264H535.102ZM535.108 380.911C535.355 382.397 535.409 384.914 535.372 387.492C535.335 390.056 535.208 392.639 535.103 394.231L536.101 394.297C536.207 392.691 536.335 390.091 536.372 387.506C536.409 384.934 536.358 382.333 536.095 380.748L535.108 380.911ZM543.123 374.585C541.713 374.912 539.623 375.599 537.937 376.61C537.094 377.115 536.323 377.719 535.792 378.424C535.256 379.138 534.953 379.977 535.108 380.911L536.095 380.748C535.995 380.147 536.176 379.579 536.592 379.025C537.014 378.463 537.666 377.938 538.451 377.468C540.02 376.528 542.002 375.872 543.349 375.559L543.123 374.585ZM555.459 359.079C555.459 363.518 553.419 367.023 550.833 369.617C548.243 372.217 545.129 373.876 543.07 374.6L543.402 375.544C545.583 374.776 548.831 373.043 551.542 370.323C554.258 367.597 556.459 363.852 556.459 359.079H555.459ZM571.206 346.424C568.604 346.533 564.702 347.283 561.432 349.195C558.144 351.118 555.459 354.247 555.459 359.079H556.459C556.459 354.698 558.863 351.856 561.937 350.058C565.028 348.25 568.76 347.528 571.248 347.423L571.206 346.424ZM583.146 336.217C581.308 336.869 578.497 338.169 576.008 339.961C573.537 341.74 571.283 344.075 570.736 346.826L571.717 347.021C572.188 344.655 574.175 342.512 576.592 340.773C578.991 339.046 581.714 337.787 583.481 337.159L583.146 336.217ZM609.5 336.839C599.751 334.775 587.939 335.549 583.246 336.193L583.382 337.184C588.019 336.548 599.703 335.787 609.293 337.817L609.5 336.839ZM623.888 355.821C623.563 353.098 622.464 348.903 620.211 345.117C617.957 341.328 614.517 337.901 609.5 336.839L609.293 337.817C613.945 338.802 617.185 341.985 619.352 345.628C621.521 349.274 622.584 353.331 622.895 355.939L623.888 355.821ZM623.892 368.675V355.88H622.892V368.675H623.892ZM628.171 372.134L623.718 368.296L623.065 369.053L627.519 372.892L628.171 372.134ZM628.345 376.991V372.513H627.345V376.991H628.345ZM623.59 379.37L628.043 377.45L627.647 376.532L623.194 378.451L623.59 379.37ZM623.892 380.83V378.91H622.892V380.83H623.892ZM623.892 391.065V380.83H622.892V391.065H623.892ZM616.344 397.32C619.052 397.593 620.906 396.622 622.098 395.266C623.268 393.933 623.775 392.26 623.889 391.115L622.894 391.016C622.796 392.003 622.349 393.464 621.346 394.606C620.364 395.723 618.825 396.565 616.444 396.325L616.344 397.32ZM607.842 399.095C608.556 398.377 611.36 396.819 616.344 397.32L616.444 396.325C611.25 395.803 608.116 397.401 607.133 398.389L607.842 399.095ZM606.054 411.379C605.827 410.696 605.751 409.769 605.799 408.684C605.846 407.606 606.012 406.408 606.245 405.202C606.711 402.79 607.436 400.383 607.959 398.909L607.017 398.575C606.48 400.086 605.741 402.542 605.263 405.012C605.025 406.248 604.849 407.497 604.799 408.64C604.75 409.775 604.822 410.842 605.105 411.694L606.054 411.379ZM611.376 415.52C610.698 415.422 609.589 415.093 608.535 414.425C607.485 413.759 606.517 412.777 606.054 411.379L605.105 411.694C605.659 413.367 606.812 414.517 607.999 415.269C609.182 416.019 610.427 416.394 611.234 416.51L611.376 415.52ZM626.379 426.658C625.299 424.593 623.262 421.568 620.643 419.18C618.036 416.801 614.76 414.974 611.228 415.521L611.381 416.509C614.466 416.032 617.445 417.616 619.97 419.919C622.483 422.211 624.454 425.135 625.493 427.122L626.379 426.658ZM642.305 466.367L626.401 426.704L625.472 427.076L641.376 466.739L642.305 466.367ZM643.113 466.053H641.841V467.053H643.113V466.053ZM644.385 466.053H643.113V467.053H644.385V466.053ZM659.854 450.953C659.377 451.794 658.442 452.938 657.206 454.259C655.979 455.571 654.481 457.03 652.904 458.494C649.748 461.422 646.29 464.358 644.069 466.165L644.701 466.941C646.934 465.123 650.409 462.173 653.584 459.227C655.171 457.754 656.687 456.278 657.937 454.942C659.179 453.614 660.184 452.397 660.724 451.447L659.854 450.953ZM659.268 443.202C660.252 444.389 661.75 447.617 659.854 450.953L660.724 451.447C662.9 447.618 661.175 443.936 660.038 442.564L659.268 443.202ZM660.612 432.898C659.506 433.787 658.093 435.366 657.491 437.228C657.188 438.167 657.086 439.192 657.351 440.235C657.617 441.281 658.241 442.306 659.323 443.259L659.983 442.508C659.03 441.669 658.53 440.812 658.321 439.989C658.111 439.164 658.185 438.334 658.443 437.535C658.965 435.921 660.224 434.493 661.239 433.677L660.612 432.898ZM675.644 434.074C666.982 432.537 662.204 432.566 660.843 432.794L661.008 433.78C662.191 433.582 666.828 433.526 675.47 435.059L675.644 434.074ZM679.807 448.89C680.997 446.824 682.256 443.589 682.084 440.631C681.997 439.139 681.544 437.692 680.507 436.514C679.469 435.334 677.89 434.473 675.644 434.074L675.47 435.059C677.55 435.428 678.902 436.204 679.756 437.174C680.61 438.145 681.008 439.361 681.085 440.689C681.242 443.371 680.084 446.406 678.941 448.391L679.807 448.89ZM670.186 458.589L679.729 448.993L679.019 448.288L669.477 457.884L670.186 458.589ZM658.149 475.164L670.236 458.531L669.427 457.943L657.34 474.576L658.149 475.164ZM638.718 491.999C643.213 491.467 647.396 488.491 650.769 485.073C654.152 481.643 656.787 477.701 658.185 475.107L657.304 474.633C655.945 477.156 653.364 481.019 650.057 484.37C646.739 487.733 642.758 490.514 638.601 491.006L638.718 491.999ZM619.735 469.266C621.017 473.24 623.484 479.14 626.731 483.931C628.355 486.325 630.189 488.466 632.187 489.947C634.189 491.43 636.389 492.275 638.718 491.999L638.601 491.006C636.604 491.242 634.654 490.53 632.783 489.144C630.909 487.755 629.148 485.714 627.559 483.369C624.381 478.681 621.95 472.874 620.687 468.959L619.735 469.266ZM618.939 469.612H620.211V468.612H618.939V469.612ZM613.069 505.024L619.431 469.2L618.446 469.025L612.085 504.85L613.069 505.024ZM607.955 534.543C609.024 531.747 610.559 526.924 611.699 521.513C612.837 516.108 613.591 510.079 613.075 504.887L612.08 504.986C612.581 510.03 611.85 515.943 610.72 521.307C609.591 526.665 608.072 531.438 607.021 534.186L607.955 534.543ZM605.436 549.8L607.981 534.446L606.995 534.283L604.45 549.636L605.436 549.8ZM628.929 584.68C626.168 579.127 621.675 570.7 617.168 563.464C614.916 559.847 612.653 556.516 610.595 553.988C609.567 552.725 608.581 551.652 607.667 550.842C606.763 550.04 605.887 549.458 605.075 549.236L604.811 550.2C605.399 550.362 606.136 550.821 607.004 551.59C607.863 552.351 608.81 553.379 609.82 554.62C611.839 557.1 614.076 560.391 616.32 563.992C620.804 571.193 625.281 579.591 628.033 585.126L628.929 584.68ZM651.822 626.887L628.921 584.665L628.042 585.141L650.943 627.364L651.822 626.887ZM653.79 651.396L651.881 627.086L650.884 627.164L652.793 651.474L653.79 651.396ZM655.2 650.935H653.291V651.935H655.2V650.935ZM672.727 622.237C669.926 624.187 665.687 627.968 662.016 633.004C658.346 638.04 655.219 644.366 654.701 651.398L655.699 651.472C656.198 644.686 659.221 638.537 662.824 633.593C666.427 628.65 670.585 624.946 673.298 623.057L672.727 622.237ZM673.799 617.409L672.527 622.526L673.498 622.768L674.77 617.65L673.799 617.409ZM675.058 596.388L673.786 617.499L674.784 617.559L676.056 596.448L675.058 596.388ZM690.374 557.179C687.826 562.516 684.005 570.873 680.82 578.603C679.228 582.468 677.792 586.182 676.753 589.286C675.723 592.365 675.057 594.917 675.057 596.418H676.057C676.057 595.105 676.664 592.704 677.701 589.604C678.73 586.53 680.156 582.839 681.745 578.984C684.921 571.275 688.734 562.936 691.276 557.61L690.374 557.179ZM690.325 551.637V557.395H691.325V551.637H690.325ZM658.588 509.672C662.621 516.397 669.054 526.58 675.245 535.278C678.34 539.626 681.381 543.613 684.037 546.613C685.365 548.112 686.604 549.375 687.712 550.314C688.806 551.243 689.823 551.901 690.703 552.122L690.947 551.152C690.3 550.99 689.43 550.46 688.359 549.552C687.301 548.655 686.097 547.431 684.786 545.95C682.164 542.989 679.146 539.035 676.06 534.698C669.888 526.028 663.47 515.868 659.446 509.158L658.588 509.672ZM660.685 484.667C657.804 486.247 655.954 488.262 654.886 490.5C653.82 492.733 653.548 495.154 653.764 497.529C654.193 502.265 656.565 506.892 658.612 509.709L659.421 509.121C657.439 506.394 655.168 501.937 654.759 497.439C654.556 495.198 654.817 492.965 655.788 490.93C656.757 488.901 658.449 487.034 661.166 485.544L660.685 484.667ZM703.436 462.867C697.324 464.269 688.049 468.455 679.618 472.908C671.19 477.359 663.506 482.128 660.592 484.733L661.259 485.478C664.071 482.965 671.654 478.245 680.085 473.792C688.511 469.342 697.685 465.212 703.66 463.842L703.436 462.867ZM720.063 453.899C717.892 454.008 714.461 454.595 711.176 456.002C707.895 457.407 704.693 459.661 703.094 463.146L704.003 463.563C705.457 460.395 708.404 458.277 711.57 456.921C714.731 455.567 718.043 455.002 720.113 454.898L720.063 453.899ZM728.052 447.606L719.782 454.003L720.394 454.794L728.664 448.397L728.052 447.606ZM727.858 445.442V448.001H728.858V445.442H727.858ZM721.661 440.055L728.023 445.813L728.694 445.071L722.332 439.314L721.661 440.055ZM721.497 433.287V439.685H722.497V433.287H721.497ZM720.864 428.231L721.501 433.349L722.493 433.226L721.857 428.108L720.864 428.231ZM711.399 413.728L720.941 428.442L721.78 427.897L712.238 413.184L711.399 413.728ZM711.318 403.86V413.456H712.318V403.86H711.318ZM713.326 401.002L711.417 403.561L712.219 404.159L714.127 401.6L713.326 401.002ZM714.519 392.844C713.248 397.191 712.755 399.531 712.671 400.689C712.65 400.98 712.652 401.226 712.686 401.422C712.713 401.582 712.787 401.874 713.059 402.023C713.376 402.197 713.667 402.035 713.783 401.954C713.919 401.857 714.035 401.723 714.127 401.6L713.326 401.002C713.295 401.043 713.267 401.076 713.245 401.1C713.233 401.112 713.224 401.121 713.217 401.128C713.213 401.131 713.211 401.133 713.209 401.135C713.207 401.136 713.206 401.137 713.206 401.137C713.206 401.137 713.206 401.137 713.207 401.136C713.207 401.136 713.208 401.135 713.21 401.135C713.212 401.133 713.216 401.131 713.222 401.128C713.233 401.122 713.254 401.114 713.283 401.107C713.348 401.093 713.444 401.094 713.54 401.146C713.702 401.236 713.692 401.372 713.672 401.255C713.658 401.173 713.65 401.019 713.669 400.761C713.744 399.723 714.206 397.478 715.479 393.125L714.519 392.844ZM742.99 381.609C738.823 381.609 732.412 382.156 726.709 383.804C723.857 384.628 721.158 385.734 719.002 387.201C716.844 388.67 715.198 390.522 714.519 392.844L715.479 393.125C716.072 391.096 717.527 389.414 719.564 388.028C721.603 386.641 724.192 385.572 726.986 384.764C732.575 383.15 738.887 382.609 742.99 382.609V381.609ZM769.749 382.25C757.004 381.225 746.59 381.395 742.961 381.61L743.02 382.608C746.6 382.396 756.967 382.225 769.669 383.247L769.749 382.25ZM786.749 413.445C786.642 408.501 785.682 401.017 783.135 394.623C780.598 388.251 776.407 382.786 769.749 382.25L769.669 383.247C775.734 383.735 779.707 388.719 782.206 394.993C784.696 401.243 785.644 408.601 785.749 413.467L786.749 413.445ZM792.996 420.813L786.634 413.137L785.864 413.775L792.226 421.452L792.996 420.813ZM793.111 426.89V421.132H792.111V426.89H793.111ZM789.528 428.02L792.709 427.38L792.512 426.4L789.331 427.04L789.528 428.02ZM788.656 448.032L789.929 427.561L788.931 427.499L787.658 447.97L788.656 448.032ZM777.746 463.011L788.56 448.297L787.755 447.705L776.94 462.419L777.746 463.011ZM784.193 485.849C784.839 482.819 785.292 478.021 784.548 473.446C783.806 468.882 781.849 464.421 777.567 462.268L777.118 463.162C780.979 465.103 782.84 469.172 783.561 473.607C784.28 478.031 783.842 482.7 783.215 485.641L784.193 485.849ZM792.298 492.401L784.028 485.364L783.38 486.126L791.65 493.163L792.298 492.401ZM809.009 513.328C810.303 504.741 807.771 499.384 803.984 496.221C800.232 493.086 795.328 492.173 791.958 492.282L791.991 493.282C795.195 493.178 799.833 494.056 803.343 496.988C806.819 499.892 809.271 504.877 808.02 513.179L809.009 513.328ZM769.742 549.577C779.664 548.926 801.294 540.756 808.996 513.389L808.033 513.118C800.468 540 779.262 547.951 769.676 548.579L769.742 549.577ZM766.382 568.368L770.199 549.176L769.218 548.981L765.401 568.173L766.382 568.368ZM766.392 589.381V568.27H765.392V589.381H766.392ZM764.481 609.261L766.39 589.429L765.394 589.333L763.486 609.165L764.481 609.261ZM812.146 680.006C807.369 670.078 799.249 654.611 790.41 640.47C785.991 633.4 781.388 626.653 776.928 621.093C772.476 615.542 768.137 611.135 764.242 608.785L763.725 609.641C767.464 611.897 771.713 616.189 776.148 621.718C780.574 627.237 785.155 633.949 789.562 641C798.377 655.104 806.48 670.536 811.245 680.439L812.146 680.006ZM813.468 731.389L812.195 680.21L811.196 680.235L812.468 731.413L813.468 731.389ZM814.739 760.79C814.231 754.151 813.68 738.426 813.468 731.386L812.468 731.416C812.68 738.45 813.232 754.2 813.742 760.867L814.739 760.79ZM822.34 786.875C821.177 783.899 819.4 779.016 817.85 774.05C816.297 769.07 814.988 764.054 814.739 760.79L813.742 760.867C814.001 764.256 815.343 769.37 816.896 774.348C818.453 779.34 820.238 784.245 821.408 787.239L822.34 786.875ZM824.419 786.557H821.874V787.557H824.419V786.557ZM831.902 789.496C831.574 788.179 830.805 786.372 829.497 785.435C828.821 784.951 827.996 784.698 827.047 784.879C826.115 785.056 825.123 785.64 824.064 786.705L824.773 787.41C825.75 786.427 826.571 785.988 827.234 785.861C827.879 785.738 828.43 785.901 828.915 786.248C829.929 786.975 830.622 788.494 830.931 789.737L831.902 789.496ZM831.916 796.653V789.616H830.916V796.653H831.916ZM846.395 810.367L831.763 796.293L831.07 797.014L845.701 811.088L846.395 810.367ZM858.893 813.441L846.17 810.242L845.926 811.212L858.649 814.411L858.893 813.441ZM856.367 828.48C858.037 827.993 859.911 827.276 861.571 826.365C863.219 825.46 864.708 824.334 865.541 823.004C865.962 822.331 866.222 821.595 866.238 820.807C866.254 820.016 866.023 819.209 865.52 818.398C864.525 816.795 862.452 815.152 858.989 813.476L858.553 814.376C861.961 816.026 863.827 817.566 864.67 818.926C865.086 819.596 865.25 820.215 865.238 820.787C865.227 821.36 865.038 821.922 864.693 822.473C863.994 823.589 862.682 824.614 861.089 825.489C859.508 826.357 857.704 827.048 856.087 827.52L856.367 828.48ZM835.87 828.5H856.227V827.5H835.87V828.5ZM782.576 814.652C782.794 815.898 783.59 817.006 784.758 817.988C785.926 818.972 787.507 819.864 789.378 820.674C793.123 822.296 798.125 823.631 803.582 824.716C814.503 826.887 827.348 828.072 835.844 828.499L835.895 827.501C827.427 827.075 814.634 825.893 803.777 823.735C798.346 822.656 793.424 821.336 789.776 819.757C787.951 818.966 786.468 818.121 785.401 817.223C784.334 816.325 783.724 815.408 783.561 814.479L782.576 814.652ZM792.875 789.922C790.835 792.189 787.882 796.127 785.628 800.603C783.38 805.063 781.784 810.141 782.576 814.652L783.561 814.479C782.825 810.29 784.304 805.452 786.521 801.052C788.73 796.668 791.629 792.801 793.618 790.59L792.875 789.922ZM787.029 758.358L792.755 790.344L793.739 790.168L788.014 758.181L787.029 758.358ZM774.341 729.684L787.064 758.472L787.979 758.067L775.255 729.28L774.341 729.684ZM772.39 693.043L774.299 729.508L775.297 729.456L773.389 692.991L772.39 693.043ZM754.503 676.241C754.888 676.192 755.394 676.286 756.024 676.555C756.648 676.821 757.354 677.242 758.123 677.794C759.662 678.898 761.4 680.49 763.164 682.299C766.691 685.914 770.271 690.342 772.489 693.316L773.29 692.718C771.055 689.722 767.447 685.257 763.88 681.601C762.098 679.774 760.313 678.135 758.707 676.982C757.903 676.405 757.131 675.94 756.416 675.635C755.707 675.332 755.012 675.169 754.379 675.248L754.503 676.241ZM723.538 649.216C727.785 653.806 734.41 660.661 740.487 666.307C743.524 669.129 746.434 671.658 748.846 673.453C750.052 674.349 751.145 675.072 752.077 675.557C752.981 676.027 753.829 676.325 754.503 676.241L754.379 675.248C754.035 675.292 753.43 675.133 752.538 674.669C751.674 674.22 750.629 673.533 749.443 672.651C747.074 670.888 744.195 668.387 741.167 665.574C735.115 659.951 728.508 653.116 724.272 648.536L723.538 649.216ZM707.204 668.865C707.309 668.546 707.56 668.076 707.96 667.467C708.354 666.866 708.873 666.159 709.49 665.372C710.724 663.797 712.334 661.923 714.083 659.973C717.58 656.074 721.613 651.89 724.26 649.229L723.551 648.523C720.896 651.193 716.85 655.39 713.339 659.306C711.583 661.263 709.957 663.155 708.703 664.755C708.077 665.554 707.539 666.285 707.124 666.918C706.714 667.542 706.403 668.102 706.254 668.55L707.204 668.865ZM670.805 704.901C676.639 699.568 685.453 691.376 692.938 684.132C696.68 680.511 700.093 677.123 702.636 674.446C703.907 673.108 704.966 671.942 705.741 671.011C706.129 670.546 706.45 670.134 706.693 669.784C706.928 669.445 707.116 669.129 707.204 668.865L706.254 668.55C706.215 668.67 706.099 668.886 705.871 669.213C705.651 669.53 705.35 669.918 704.973 670.371C704.218 671.278 703.176 672.425 701.911 673.757C699.382 676.419 695.981 679.796 692.242 683.414C684.767 690.649 675.96 698.834 670.13 704.163L670.805 704.901ZM676.636 715.175L670.91 704.299L670.025 704.765L675.751 715.641L676.636 715.175ZM678.102 714.908H676.193V715.908H678.102V714.908ZM699.687 712.991L678.057 714.91L678.146 715.906L699.775 713.987L699.687 712.991ZM708.413 708.564L699.507 713.042L699.956 713.935L708.862 709.457L708.413 708.564ZM721.795 709.403C720.742 707.549 719.533 706.361 718.242 705.694C716.948 705.025 715.612 704.901 714.345 705.111C711.838 705.525 709.581 707.243 708.269 708.672L709.006 709.349C710.238 708.006 712.307 706.461 714.508 706.097C715.595 705.918 716.708 706.026 717.783 706.582C718.862 707.14 719.944 708.168 720.926 709.897L721.795 709.403ZM717.93 729.799C719.449 727.944 721.457 724.72 722.571 721.038C723.685 717.357 723.924 713.149 721.795 709.403L720.926 709.897C722.869 713.316 722.684 717.212 721.614 720.749C720.544 724.285 718.607 727.394 717.157 729.165L717.93 729.799ZM701.344 745.202L717.884 729.848L717.203 729.115L700.663 744.469L701.344 745.202ZM693.411 745.973L701.045 745.334L700.962 744.337L693.328 744.977L693.411 745.973ZM693.87 749.953V745.475H692.87V749.953H693.87ZM683.475 758.681C687.554 755.861 690.115 753.877 691.661 752.538C692.433 751.87 692.96 751.355 693.299 750.972C693.467 750.781 693.598 750.614 693.689 750.468C693.764 750.349 693.87 750.161 693.87 749.953H692.87C692.87 749.852 692.911 749.827 692.843 749.936C692.791 750.018 692.699 750.141 692.55 750.31C692.252 750.646 691.761 751.129 691.007 751.782C689.499 753.088 686.97 755.049 682.907 757.858L683.475 758.681ZM668.101 755.27C668.877 757.054 670.575 759.377 673.177 760.519C675.82 761.678 679.29 761.574 683.475 758.681L682.907 757.858C678.949 760.594 675.845 760.597 673.579 759.603C671.273 758.591 669.726 756.5 669.018 754.871L668.101 755.27ZM657.95 738.052L668.129 755.325L668.99 754.817L658.811 737.544L657.95 738.052ZM659.802 729.37L657.893 737.686L658.868 737.91L660.777 729.594L659.802 729.37ZM650.333 715.688L659.875 729.762L660.703 729.201L651.161 715.127L650.333 715.688ZM603.905 742.718C613.586 737.594 639.34 722.661 650.999 715.839L650.494 714.976C638.828 721.802 613.095 736.723 603.437 741.834L603.905 742.718ZM572.185 765.689C578.762 760.142 594.289 747.808 603.905 742.718L603.437 741.834C593.714 746.981 578.111 759.382 571.54 764.924L572.185 765.689ZM572.337 774.42C572.769 773.118 573.29 771.094 573.443 769.25C573.519 768.331 573.506 767.424 573.328 766.664C573.15 765.908 572.785 765.211 572.087 764.86L571.638 765.753C571.958 765.914 572.208 766.273 572.354 766.892C572.499 767.507 572.518 768.296 572.446 769.168C572.302 770.907 571.805 772.849 571.388 774.105L572.337 774.42ZM565.996 781.23C565.777 779.685 566.635 778.293 567.948 777.132C569.252 775.979 570.91 775.144 572.035 774.732L571.691 773.793C570.483 774.235 568.706 775.127 567.285 776.383C565.873 777.632 564.717 779.332 565.006 781.37L565.996 781.23ZM558.293 799.474C559.679 797.224 561.724 793.624 563.362 790.132C564.18 788.387 564.902 786.658 565.387 785.132C565.866 783.626 566.141 782.245 565.996 781.23L565.006 781.37C565.116 782.146 564.908 783.34 564.434 784.829C563.967 786.297 563.265 787.983 562.456 789.708C560.839 793.157 558.813 796.723 557.441 798.95L558.293 799.474ZM555.017 821.338C556.136 820.353 556.919 818.803 557.469 817.009C558.021 815.206 558.356 813.101 558.54 810.946C558.91 806.636 558.685 802.06 558.364 799.157L557.37 799.267C557.686 802.122 557.906 806.631 557.544 810.861C557.363 812.976 557.037 815.005 556.513 816.716C555.985 818.437 555.273 819.781 554.356 820.588L555.017 821.338ZM532.581 794.246C534.284 799.6 537.418 807.387 541.29 813.335C543.223 816.305 545.366 818.856 547.638 820.405C549.925 821.963 552.395 822.535 554.891 821.419L554.482 820.507C552.398 821.438 550.298 821.008 548.201 819.578C546.089 818.139 544.032 815.716 542.128 812.79C538.323 806.945 535.222 799.251 533.533 793.943L532.581 794.246ZM526.848 749.442C527.855 753.239 529.018 761.464 530.064 770.244C531.107 779.008 532.029 788.279 532.559 794.139L533.555 794.049C533.025 788.182 532.102 778.901 531.057 770.125C530.013 761.366 528.844 753.065 527.815 749.185L526.848 749.442ZM534.903 737.942C533.134 738.164 530.602 738.995 528.763 740.8C526.89 742.637 525.786 745.437 526.848 749.442L527.815 749.185C526.841 745.513 527.858 743.088 529.463 741.514C531.101 739.906 533.404 739.138 535.028 738.934L534.903 737.942ZM559.776 736.659C557.721 736.659 542.345 737.513 534.937 737.939L534.994 738.937C542.43 738.51 557.759 737.659 559.776 737.659V736.659ZM583.612 716.958C580.01 720.261 574.481 725.214 569.6 729.34C567.158 731.403 564.885 733.255 563.099 734.589C562.205 735.256 561.441 735.788 560.844 736.15C560.545 736.332 560.297 736.465 560.102 736.551C560.004 736.594 559.926 736.623 559.866 736.64C559.837 736.648 559.814 736.653 559.798 736.656C559.781 736.659 559.774 736.659 559.776 736.659V737.659C560.013 737.659 560.27 737.57 560.506 737.466C560.756 737.355 561.045 737.198 561.363 737.005C562 736.618 562.793 736.065 563.697 735.39C565.508 734.038 567.799 732.172 570.245 730.104C575.14 725.966 580.68 721.003 584.288 717.695L583.612 716.958ZM621.247 684.9C616.454 687.471 608.827 692.156 601.503 697.869C594.189 703.573 587.123 710.342 583.509 717.091L584.391 717.563C587.902 711.005 594.831 704.341 602.118 698.657C609.393 692.983 616.971 688.328 621.72 685.781L621.247 684.9ZM630.813 680.41L621.271 684.888L621.696 685.793L631.238 681.315L630.813 680.41ZM623.524 641.117C623.504 643.33 623.444 649.953 624.298 657.698C625.151 665.432 626.919 674.341 630.586 681.101L631.465 680.624C627.893 674.038 626.141 665.285 625.292 657.589C624.445 649.905 624.504 643.33 624.524 641.126L623.524 641.117ZM623.528 640.559C623.528 640.689 623.526 640.875 623.524 641.117L624.524 641.126C624.526 640.886 624.528 640.695 624.528 640.559H623.528ZM580.431 598.706C587.639 605.315 598.451 615.356 607.46 623.999C611.965 628.322 616.015 632.291 618.938 635.306C620.4 636.814 621.574 638.078 622.38 639.024C622.784 639.498 623.088 639.884 623.288 640.176C623.389 640.323 623.456 640.435 623.496 640.517C623.545 640.615 623.528 640.616 623.528 640.559H624.528C624.528 640.375 624.455 640.2 624.393 640.074C624.324 639.933 624.227 639.777 624.113 639.61C623.884 639.276 623.554 638.86 623.141 638.376C622.314 637.404 621.122 636.123 619.656 634.61C616.72 631.582 612.659 627.603 608.152 623.278C599.136 614.627 588.318 604.581 581.107 597.969L580.431 598.706ZM558.207 626.212C562.349 622.368 568.469 616.375 573.365 610.889C575.811 608.148 577.965 605.521 579.414 603.344C580.137 602.258 580.698 601.265 581.029 600.414C581.348 599.592 581.502 598.782 581.229 598.141L580.309 598.533C580.418 598.789 580.4 599.27 580.097 600.052C579.804 600.806 579.288 601.73 578.582 602.79C577.172 604.908 575.055 607.494 572.619 610.223C567.75 615.677 561.655 621.647 557.527 625.479L558.207 626.212ZM539.779 645.384L558.228 626.192L557.507 625.499L539.058 644.691L539.779 645.384ZM514.428 646.144C517.224 647.225 521.823 648.487 526.57 648.767C531.301 649.047 536.287 648.359 539.743 645.418L539.095 644.657C535.934 647.346 531.271 648.044 526.629 647.769C522.004 647.495 517.506 646.262 514.789 645.211L514.428 646.144ZM435.084 645.538L514.604 646.177L514.612 645.177L435.092 644.538L435.084 645.538ZM424.843 650.011C426.476 650.23 428.968 650.267 431.139 649.645C433.309 649.022 435.298 647.689 435.585 645.093L434.591 644.983C434.369 646.992 432.859 648.111 430.863 648.683C428.867 649.255 426.524 649.228 424.976 649.02L424.843 650.011ZM405.543 669.7L425.264 649.868L424.555 649.163L404.834 668.995L405.543 669.7ZM399.885 678.573L405.61 669.617L404.767 669.078L399.042 678.034L399.885 678.573ZM386.878 675.79C386.988 676.999 387.264 678.371 387.764 679.607C388.26 680.835 388.999 681.979 390.065 682.659C391.158 683.357 392.526 683.524 394.158 682.919C395.767 682.322 397.64 680.975 399.828 678.646L399.099 677.961C396.96 680.238 395.213 681.461 393.81 681.981C392.431 682.492 391.398 682.323 390.603 681.816C389.782 681.292 389.148 680.362 388.691 679.232C388.236 678.108 387.977 676.836 387.874 675.7L386.878 675.79ZM387.513 659.093L386.877 675.725L387.876 675.764L388.512 659.131L387.513 659.093ZM400.374 637.656C397.922 640.228 394.341 644.375 391.559 648.467C390.169 650.511 388.967 652.559 388.208 654.399C387.46 656.213 387.096 657.936 387.538 659.269L388.487 658.954C388.165 657.984 388.4 656.556 389.133 654.78C389.854 653.03 391.014 651.047 392.386 649.029C395.128 644.996 398.671 640.891 401.098 638.346L400.374 637.656ZM404.788 619.789C402.825 622.42 399.201 629.712 400.239 638.062L401.232 637.939C400.234 629.912 403.735 622.874 405.589 620.387L404.788 619.789ZM409.861 612.135L404.772 619.812L405.605 620.364L410.695 612.688L409.861 612.135ZM413.042 609.576C412.033 611.098 411.342 611.765 410.927 612.015C410.722 612.138 410.638 612.127 410.645 612.128C410.675 612.132 410.712 612.16 410.726 612.189L409.83 612.634C409.95 612.876 410.184 613.075 410.512 613.119C410.816 613.16 411.133 613.058 411.442 612.872C412.056 612.503 412.848 611.678 413.875 610.129L413.042 609.576ZM419.539 608.86C418.956 608.274 417.929 607.587 416.731 607.483C415.479 607.375 414.147 607.91 413.042 609.576L413.876 610.129C414.806 608.725 415.806 608.407 416.644 608.479C417.534 608.557 418.353 609.086 418.83 609.565L419.539 608.86ZM437.716 624.073C437.422 624.024 436.985 623.848 436.408 623.525C435.842 623.207 435.178 622.77 434.441 622.236C432.967 621.169 431.227 619.737 429.421 618.16C425.812 615.009 421.972 611.307 419.539 608.86L418.83 609.565C421.274 612.023 425.131 615.742 428.764 618.913C430.579 620.498 432.345 621.953 433.855 623.046C434.609 623.592 435.307 624.054 435.919 624.397C436.521 624.734 437.081 624.981 437.55 625.059L437.716 624.073ZM475.644 617.055C466.129 620.245 457.568 622.157 450.915 623.193C444.238 624.232 439.537 624.379 437.716 624.073L437.55 625.059C439.545 625.394 444.387 625.221 451.069 624.181C457.776 623.137 466.391 621.211 475.961 618.003L475.644 617.055ZM514.833 617.722C511.178 615.885 504.853 613.659 497.706 612.922C490.558 612.185 482.54 612.932 475.547 617.1L476.058 617.959C482.806 613.938 490.586 613.193 497.603 613.916C504.621 614.64 510.829 616.828 514.384 618.616L514.833 617.722ZM523.872 617.114C522.462 618.059 520.668 618.372 518.955 618.357C517.246 618.341 515.676 617.999 514.767 617.695L514.449 618.643C515.449 618.978 517.124 619.34 518.946 619.357C520.763 619.373 522.786 619.046 524.429 617.945L523.872 617.114ZM530.665 602.689C530.139 604.697 529.16 607.84 527.937 610.729C527.325 612.174 526.656 613.544 525.958 614.673C525.253 615.813 524.546 616.662 523.872 617.114L524.429 617.945C525.282 617.373 526.081 616.377 526.809 615.199C527.543 614.011 528.234 612.59 528.858 611.119C530.104 608.176 531.097 604.986 531.632 602.942L530.665 602.689ZM547.282 562.222C544.825 565.659 541.056 571.796 537.708 579.064C534.362 586.329 531.422 594.757 530.651 602.768L531.646 602.863C532.402 595.009 535.293 586.697 538.616 579.483C541.938 572.272 545.675 566.19 548.095 562.803L547.282 562.222ZM553.054 514.186C546.181 521.314 535.402 540.995 547.25 562.752L548.128 562.273C536.565 541.04 547.076 521.826 553.774 514.88L553.054 514.186ZM533.86 493.593C535.04 496.83 537.416 501.771 540.723 506.104C544.019 510.423 548.308 514.228 553.336 515.027L553.493 514.039C548.85 513.302 544.764 509.751 541.518 505.497C538.283 501.258 535.951 496.411 534.799 493.251L533.86 493.593ZM524.473 486.135L534.016 493.811L534.643 493.032L525.1 485.356L524.473 486.135ZM504.711 466.906C511.583 473.816 516.304 478.457 519.414 481.451C522.512 484.433 524.032 485.802 524.486 486.144L525.088 485.346C524.694 485.048 523.224 483.73 520.108 480.731C517.005 477.743 512.289 473.108 505.42 466.201L504.711 466.906ZM504.81 438.615C501.867 440.369 498.316 443.894 497.277 448.793C496.23 453.728 497.76 459.915 504.711 466.906L505.42 466.201C498.631 459.373 497.298 453.513 498.255 449C499.22 444.453 502.54 441.132 505.322 439.474L504.81 438.615ZM532.787 420.711L504.796 438.624L505.335 439.466L533.326 421.554L532.787 420.711ZM566.719 402.723C562.749 403.155 556.305 404.574 549.825 407.433C543.348 410.289 536.785 414.604 532.64 420.856L533.474 421.409C537.472 415.378 543.844 411.163 550.228 408.348C556.609 405.533 562.952 404.138 566.828 403.717L566.719 402.723ZM577.287 398.343C576.333 399.063 574.382 399.947 572.27 400.771C570.178 401.587 567.995 402.319 566.626 402.742L566.921 403.698C568.309 403.268 570.515 402.529 572.633 401.703C574.73 400.885 576.808 399.957 577.889 399.141L577.287 398.343ZM578.365 387.293C578.574 388.871 578.762 391.334 578.647 393.583C578.59 394.708 578.458 395.759 578.223 396.612C577.984 397.483 577.661 398.061 577.287 398.343L577.889 399.141C578.533 398.656 578.931 397.81 579.188 396.877C579.449 395.927 579.587 394.795 579.646 393.634C579.765 391.308 579.571 388.781 579.356 387.161L578.365 387.293ZM559.441 393.384C559.591 393.27 559.729 393.144 559.853 393.009L559.118 392.332C559.032 392.424 558.939 392.509 558.839 392.585L559.441 393.384ZM559.144 392.305C559.027 392.415 558.915 392.516 558.809 392.609L559.47 393.36C559.583 393.26 559.703 393.152 559.827 393.035L559.144 392.305ZM687.973 505.588L692.694 520.779L693.649 520.483L688.928 505.291L687.973 505.588ZM697.757 502.316L688.316 504.958L688.586 505.921L698.027 503.279L697.757 502.316ZM693.655 520.759L698.376 502.925L697.409 502.669L692.688 520.503L693.655 520.759ZM558.723 482.457C558.326 482.06 557.935 481.372 557.566 480.394C557.201 479.426 556.875 478.218 556.586 476.821C556.008 474.029 555.587 470.531 555.288 466.799C554.691 459.336 554.586 450.987 554.674 445.577L553.674 445.561C553.586 450.992 553.691 459.375 554.292 466.879C554.592 470.629 555.017 474.173 555.607 477.024C555.902 478.449 556.24 479.712 556.63 480.747C557.016 481.771 557.469 482.617 558.016 483.164L558.723 482.457ZM549.357 483.068C549.572 482.709 550.001 482.442 550.676 482.29C551.346 482.139 552.184 482.12 553.097 482.194C554.92 482.343 556.925 482.856 558.212 483.285L558.528 482.336C557.192 481.891 555.106 481.355 553.178 481.197C552.216 481.119 551.265 481.132 550.456 481.314C549.652 481.496 548.914 481.862 548.5 482.553L549.357 483.068ZM528.503 455.093C528.833 457.072 529.891 459.434 531.35 461.932C532.814 464.44 534.707 467.124 536.745 469.754C540.821 475.015 545.504 480.093 548.575 483.164L549.282 482.457C546.234 479.409 541.58 474.363 537.535 469.142C535.512 466.531 533.648 463.885 532.213 461.428C530.773 458.962 529.789 456.726 529.49 454.928L528.503 455.093ZM532.739 450.32C532.023 450.217 530.959 450.337 530.065 451.037C529.151 451.753 528.497 453.008 528.497 455.011H529.497C529.497 453.236 530.066 452.307 530.682 451.825C531.318 451.327 532.09 451.237 532.598 451.31L532.739 450.32ZM550.864 444.047L532.506 450.342L532.83 451.288L551.189 444.993L550.864 444.047ZM554.674 445.574C554.679 444.969 554.532 444.473 554.213 444.114C553.894 443.755 553.465 443.605 553.054 443.564C552.259 443.484 551.365 443.794 550.804 444.072L551.249 444.968C551.745 444.722 552.436 444.507 552.955 444.559C553.2 444.583 553.362 444.662 553.466 444.779C553.57 444.896 553.678 445.121 553.674 445.565L554.674 445.574ZM523.688 451.029L547.862 442.073L547.515 441.135L523.341 450.091L523.688 451.029ZM547.913 442.05C549.159 441.424 550.93 440.837 552.279 440.981C552.936 441.052 553.44 441.288 553.765 441.723C554.096 442.166 554.309 442.903 554.189 444.113L555.184 444.212C555.318 442.863 555.102 441.841 554.566 441.124C554.025 440.4 553.224 440.077 552.386 439.987C550.746 439.812 548.763 440.504 547.464 441.157L547.913 442.05ZM554.189 444.113C554.026 445.754 554.068 449.069 554.257 453.142C554.446 457.229 554.784 462.114 555.222 466.918C555.66 471.722 556.198 476.452 556.787 480.225C557.081 482.11 557.389 483.765 557.706 485.073C558.016 486.357 558.35 487.378 558.723 487.941L559.556 487.388C559.293 486.991 558.991 486.133 558.678 484.838C558.37 483.567 558.067 481.943 557.775 480.07C557.191 476.326 556.655 471.62 556.218 466.828C555.781 462.036 555.444 457.166 555.255 453.096C555.066 449.012 555.029 445.77 555.184 444.212L554.189 444.113ZM559.165 487.165L546.441 486.525L546.391 487.524L559.114 488.164L559.165 487.165ZM546.793 486.696C542.985 482.335 537.273 475.282 532.516 468.303C530.137 464.813 528.004 461.351 526.467 458.26C524.921 455.15 524.015 452.483 524.015 450.56H523.015C523.015 452.731 524.016 455.576 525.572 458.705C527.136 461.853 529.297 465.356 531.69 468.866C536.475 475.886 542.213 482.971 546.04 487.353L546.793 486.696ZM567.546 368.016C567.503 369.152 567.545 370.53 567.713 372.025L568.707 371.913C568.544 370.466 568.504 369.138 568.545 368.054L567.546 368.016ZM568.71 371.986C568.753 370.711 568.706 369.372 568.542 367.977L567.549 368.093C567.706 369.437 567.752 370.726 567.711 371.952L568.71 371.986Z" fill="white"/>
</svg>
