<svg width="279" height="279" viewBox="0 0 279 279" fill="none" xmlns="http://www.w3.org/2000/svg">
<g filter="url(#filter0_d)">
<path d="M152.522 265C166.176 265 177.244 253.838 177.244 240.069C177.244 226.301 166.176 215.139 152.522 215.139C138.868 215.139 127.8 226.301 127.8 240.069C127.8 253.838 138.868 265 152.522 265Z" fill="#4C64D2"/>
<path d="M153.852 231.086L153.877 231.129L153.877 231.079C153.877 229.375 154.179 226.842 155.084 224.78C155.989 222.719 157.495 221.131 159.902 221.308C160.794 221.486 161.396 221.888 161.784 222.423C162.173 222.958 162.347 223.628 162.379 224.342C162.445 225.769 161.942 227.368 161.458 228.405L161.458 228.404L161.457 228.407C161.196 229.445 160.871 231.148 160.746 232.879C160.621 234.61 160.696 236.373 161.233 237.532C161.77 239.843 161.755 241.457 161.68 241.973L161.679 241.984L161.689 241.988C162.62 242.395 164.039 243.195 165.27 244.271C166.502 245.347 167.542 246.697 167.721 248.203V248.204C168.078 250.601 167.334 252.581 166.258 254.081C165.182 255.581 163.775 256.602 162.808 257.084C161.951 257.306 160.588 257.539 159.284 257.517C158.631 257.506 157.993 257.43 157.441 257.259C156.889 257.087 156.423 256.819 156.112 256.421L156.11 256.419L156.108 256.418L152.528 254.416L152.525 254.414L152.521 254.414C151.068 254.489 148.776 254.389 146.624 253.848C144.472 253.307 142.463 252.326 141.571 250.642L141.569 250.637L141.564 250.635C138.433 249.479 137.34 248.092 137.238 246.833C137.136 245.573 138.027 244.431 138.883 243.765L138.892 243.758L138.886 243.748C138.552 243.156 138.206 242.191 138.256 241.22C138.306 240.25 138.751 239.272 139.999 238.652L140.015 238.645L140.004 238.631C139.378 237.876 139.067 237.199 138.974 236.601C138.882 236.003 139.008 235.482 139.261 235.039C139.768 234.151 140.782 233.575 141.564 233.316L141.577 233.312L141.572 233.298C141.312 232.522 141.122 231.324 141.399 230.254C141.537 229.72 141.792 229.218 142.213 228.816C142.633 228.414 143.219 228.112 144.022 227.98C146.033 227.647 148.323 228.146 150.195 228.868C151.132 229.229 151.963 229.646 152.602 230.042C152.921 230.239 153.192 230.432 153.404 230.609C153.617 230.787 153.769 230.949 153.852 231.086Z" fill="white" stroke="black" stroke-width="0.17449"/>
<path d="M155.653 248.76C152.372 246.981 147.42 240.843 153.863 230.525M153.863 230.525C153.863 227.115 155.071 220.385 159.904 220.74C163.483 221.452 162.439 225.781 161.47 227.856C160.948 229.932 160.172 234.661 161.246 236.974C161.783 239.287 161.768 240.902 161.694 241.421C163.558 242.237 167.376 244.624 167.734 247.648C168.45 252.451 164.751 255.579 162.812 256.543C161.097 256.987 157.353 257.477 156.101 255.876L152.521 253.874C149.613 254.022 143.349 253.474 141.559 250.094M153.863 230.525C153.192 229.413 148.047 226.745 144.02 227.412M141.559 250.094C135.295 247.781 137.159 244.535 138.874 243.2M141.559 250.094C144.094 251.206 148.852 251.873 147.599 245.646M144.02 227.412C140.798 227.945 141.037 231.192 141.559 232.749M144.02 227.412C146.331 227.56 151.044 228.657 151.402 231.859C151.471 234.313 150.535 235.365 149.165 235.596M138.874 243.2C138.203 242.014 137.487 239.331 139.993 238.086M138.874 243.2C141.484 245.35 147.107 248.448 148.718 243.645C149.076 242.222 148.569 241.125 148.27 240.754M141.559 232.749C139.993 233.268 137.487 235.061 139.993 238.086M141.559 232.749C143.629 234.212 146.959 235.969 149.165 235.596M149.165 235.596L149.389 236.084C150.105 243.912 143.498 240.68 139.993 238.086" stroke="black" stroke-width="0.523469"/>
<path fill-rule="evenodd" clip-rule="evenodd" d="M133.05 82.4128C131.367 81.9981 130.756 80.0349 130.603 78.5472C130.551 80.2416 129.912 81.4712 129.543 81.9266C129.652 82.5333 129.003 83.3762 128.6 83.792C128.966 83.3526 128.803 82.3826 128.666 81.9266L128.52 81.4402C128.325 81.4945 127.994 81.7322 128.228 82.2507C128.462 82.7693 128.033 83.7634 127.79 84.1956L127.205 82.7369C127.439 83.9039 125.744 85.0601 124.867 85.4925C124.867 86.2701 124.088 86.6809 123.698 86.7892L123.552 85.4925C123.201 86.5296 122.139 86.2487 121.652 85.9787C122.821 85.5897 123.114 84.628 123.114 84.1956C123.162 83.3853 123.23 81.5698 123.114 80.792C122.997 80.0139 124.234 79.4953 124.867 79.3333C125.841 78.9549 127.79 77.6153 127.79 75.2813C127.79 72.9472 130.127 72.2555 131.297 72.2018C131.53 70.9051 133.245 69.9326 134.073 69.6082C135.144 69.4464 137.843 69.252 140.064 69.7705C142.285 70.2891 143.132 73.1201 143.278 74.4707L143.278 77.7125L144.301 78.6848L144.301 79.8194L143.278 80.3056L143.278 80.792L143.278 83.3853C143.23 83.9255 142.84 84.9737 141.671 84.844C140.502 84.7144 139.82 85.1141 139.625 85.3302C139.382 86.0864 138.953 87.7939 139.187 88.572C139.421 89.3498 140.161 89.6523 140.502 89.7066C142.022 89.447 143.376 91.4351 143.863 92.4617L147.516 102.511L147.808 102.511L148.101 102.511C149.123 101.592 151.286 99.5284 151.753 98.6209C152.221 97.7131 151.851 96.8381 151.607 96.5137C150.672 95.6062 151.413 94.5148 151.9 94.0824C152.192 94.0284 153.273 94.0176 155.26 94.4068C157.248 94.7957 156.673 96.9458 156.137 97.9727L153.946 100.404L151.169 104.618C150.536 105.915 148.773 108.573 146.785 108.832C144.798 109.091 143.132 105.158 142.548 103.159L142.256 103.159L140.794 112.236C141.028 114.829 140.112 118.287 139.625 119.692L139.041 123.581C140.327 123.97 143.181 129.686 144.447 132.496L149.708 143.193L150.146 149.352L150.585 149.352C150.818 145.851 153.41 143.031 154.676 142.058L154.968 140.762L155.26 135.413C155.26 133.987 157.599 128.228 158.767 125.526L158.767 124.067C157.365 123.679 153.312 116.774 151.461 113.37C150.536 111.966 149.328 108.767 151.9 107.211C153.215 105.915 158.914 102.403 161.69 101.701C162.391 100.015 164.515 99.4854 165.489 99.4311L167.389 97.8104L167.389 97.1622L165.928 95.7035L165.928 94.0824L165.781 92.7858L163.589 89.0581L163.589 86.6268L164.028 85.9787C163.882 86.1947 163.736 86.0759 164.32 83.8715C164.905 81.6671 168.85 81.1161 170.75 81.1161C171.577 81.0621 173.964 81.0189 176.887 81.2781C179.809 81.5374 180.637 86.5728 180.686 89.0581L182.147 91.003L182.147 92.4617L181.416 92.624L181.124 97.8104L178.64 101.538C180.511 102.576 180.394 105.86 180.101 107.373L182.001 109.156C183.511 109.102 186.385 110.064 185.8 114.343C184.047 121.215 179.127 123.257 176.887 123.419L176.01 128.282L176.01 133.63L175.572 138.655C179.079 140.989 184.339 151.621 186.531 156.646L186.823 169.612C186.872 171.395 186.998 175.382 187.115 177.068C187.232 178.754 188.333 182.201 188.869 183.713L189.453 183.713C190.388 182.676 190.914 183.713 191.06 184.362L191.06 186.144L194.421 189.71L197.344 190.521C200.5 192.206 198.269 193.6 196.759 194.086L192.084 194.086C188.187 193.87 180.306 192.887 179.955 190.683C179.604 188.478 181.368 185.658 182.293 184.524L180.978 176.42L178.056 169.126L177.617 159.887C176.594 158.375 174.315 155.382 173.38 155.511C172.445 155.641 168.314 151.027 166.366 148.704C165.148 150.054 162.654 152.951 162.421 153.728C162.187 154.506 156.77 160.103 154.092 162.805L155.407 165.56L155.845 165.56L160.813 165.074L162.859 163.939C163.443 163.237 164.846 162.286 165.781 164.101C166.717 165.917 165.586 168.208 164.905 169.126L161.105 173.016L159.352 173.178L159.352 174.313C159.352 174.421 158.884 174.993 157.014 176.42C155.143 177.846 153.994 176.474 153.653 175.609L151.315 171.233L151.753 169.126L149.562 165.56C146.883 167.289 140.97 171.071 138.749 172.367C136.528 173.664 132.953 176.798 131.443 178.203C131.91 178.462 131.637 179.823 131.443 180.472C130.907 180.688 129.864 181.347 129.981 182.255C130.098 183.162 128.861 185.658 128.228 186.793C128.374 188.252 128.432 191.396 127.497 192.304C125.393 193.341 123.308 188.198 122.529 185.496C122.286 182.525 121.681 176.095 121.214 174.151C120.746 172.206 122.188 171.503 122.968 171.395C124.672 171.287 128.199 171.071 128.666 171.071C129.134 171.071 132.563 167.721 134.219 166.046C135.855 162.675 140.648 159.239 142.84 157.942L145.032 156.808C143.369 153.426 143.414 147.858 143.424 146.739C143.424 146.678 143.425 146.63 143.425 146.597C143.425 146.078 136.8 139.249 133.488 135.899C133.839 136.807 130.127 140.924 128.228 142.869L123.99 147.731C122.471 149.158 119.558 148.434 118.291 147.893L100.026 147.731C99.9093 148.898 98.4188 148.974 97.6884 148.866L93.1584 153.89L91.8432 156.159C89.8561 158.494 89.1644 156.7 89.0669 155.511L89.213 151.297C88.8625 150.13 91.0153 147.245 92.1358 145.949C91.9017 143.874 92.72 142.058 93.1584 141.41L94.3273 139.465C94.3762 139.573 94.5904 139.595 95.0579 138.817C95.5257 138.039 96.1295 138.385 96.3732 138.655C97.4934 139.897 99.9093 142.415 100.611 142.545C101.487 142.707 104.994 142.383 109.378 140.762C112.534 138.687 116.636 140.005 118.291 140.924C118.73 141.086 119.782 141.281 120.483 140.762C121.185 140.243 121.847 138.061 122.091 137.034C122.441 133.014 124.77 128.552 125.89 126.823C123.201 121.377 125.646 116.45 127.205 114.667C124.984 114.278 123.357 110.939 122.821 109.318L120.629 107.373C120.435 107.211 119.256 106.012 116.1 102.511C112.943 99.0098 114.784 96.4057 116.1 95.5414L122.529 91.003C124.4 87.8911 128.472 86.6809 130.274 86.4648C130.907 86.2487 132.29 85.7191 132.758 85.3302C133.225 84.9413 133.147 83.223 133.05 82.4128ZM128.52 83.8715C128.549 83.8476 128.575 83.8208 128.6 83.792C128.572 83.8205 128.545 83.8471 128.52 83.8715ZM159.307 116.212L158.222 112.363L160.391 111.694L159.307 116.212ZM127.379 97.1943C127.339 99.9405 127.476 105.673 128.343 106.63C127.741 106.408 126.464 106.098 126.175 106.63C124.769 105.079 121.886 101.5 121.597 99.5865C121.597 98.6295 122.159 98.4791 122.44 98.5234L126.657 96.9284C126.9 96.7957 127.384 96.6627 127.379 97.1943Z" fill="white"/>
<path d="M263.233 109.03C260.164 103.624 257.305 103.827 256.259 104.604C258.543 111.425 261.286 132.947 253.984 164.468C241.775 195.728 220.909 212.656 212.003 217.213C215.016 211.423 218.124 200.072 219.3 195.12C219.932 181.53 214.906 175.76 212.315 174.573C211.008 187.578 191.627 218.692 182.101 232.624C182.428 236.369 183.629 244.755 185.821 248.347C188.013 251.939 192.042 252.426 193.782 252.221L233.614 251.363L232.248 243.226C232.12 237.014 223.773 235.293 219.615 235.209C225.182 231.511 239.334 219.296 245.715 213.651C271.85 187.989 271.284 146.365 270.456 134.836C269.629 123.307 267.068 115.786 263.233 109.03Z" fill="#28FF0C" stroke="#28FF0C" stroke-width="1.7449"/>
<path d="M64.8612 47.8291C61.7737 53.2235 63.3864 55.613 64.5788 56.1337C69.2739 50.7097 86.3353 37.4871 117.021 27.9856C149.952 22.8906 174.96 32.5523 183.347 38.0198C176.869 38.3082 165.578 41.3137 160.743 42.7807C148.78 49.0704 146.365 56.3537 146.653 59.2091C158.454 53.8027 194.87 55.0299 211.603 56.3193C214.647 54.1498 221.229 48.882 223.204 45.1643C225.178 41.4466 223.568 37.6904 222.516 36.2772L201.734 2L195.448 7.28618C190.19 10.5241 192.916 18.6635 194.937 22.3286C188.966 19.34 171.376 13.1553 163.328 10.4361C128.184 0.578712 92.8008 22.0222 83.339 28.5468C73.8764 35.0691 68.7209 41.0865 64.8612 47.8291Z" fill="#28FF0C" stroke="#28FF0C" stroke-width="1.7449"/>
<path d="M117.188 251.105C123.365 251.079 124.6 248.47 124.445 247.169C117.434 245.81 97.5141 237.604 73.9212 215.654C52.9732 189.53 48.6577 162.877 49.1184 152.816C52.6279 158.316 60.8884 166.638 64.5798 170.112C75.993 177.368 83.4487 175.804 85.7503 174.115C75.1758 166.556 57.8891 134.211 50.5677 118.984C47.176 117.424 39.3484 114.343 35.1689 114.495C30.9896 114.646 28.5826 117.941 27.9014 119.569L9 154.936L16.694 157.75C22.1161 160.701 27.7164 154.227 29.8389 150.621C30.2851 157.328 33.8441 175.767 35.5675 184.148C44.8194 219.73 81.0089 239.759 91.3631 244.717C101.716 249.677 109.468 251.138 117.188 251.105Z" fill="#28FF0C" stroke="#28FF0C" stroke-width="1.7449"/>
<path d="M49.8227 109.711C63.4766 109.711 74.5451 98.5494 74.5451 84.7806C74.5451 71.012 63.4766 59.8501 49.8227 59.8501C36.1691 59.8501 25.1003 71.012 25.1003 84.7806C25.1003 98.5494 36.1691 109.711 49.8227 109.711Z" fill="#EFF312"/>
<path fill-rule="evenodd" clip-rule="evenodd" d="M47.3216 98.7069L47.3711 101.835L51.4083 101.835L51.4083 98.8269C55.911 98.5261 58.1731 96.7604 58.9445 96.0834C62.713 92.4968 66.9116 84.2467 51.4083 81.4268L51.4083 73.8618C53.1099 74.1341 54.3258 74.931 54.6382 76.9742L61.6362 76.603C61.4568 74.315 59.1602 69.7386 51.4083 69.7386L51.4083 67.8832L46.8325 67.8832L46.8622 69.7538C43.386 70.0075 36.9327 71.8344 37.1431 77.3451C37.3584 82.9855 43.8716 85.2611 47.1016 85.6938C47.1064 85.6952 47.1107 85.696 47.1151 85.6968L47.2468 94.0125C45.0871 93.1688 43.5426 91.3455 42.7953 89.9611L34.99 89.9611C35.8869 92.9915 39.5654 97.7532 47.1016 98.6809C47.1755 98.69 47.2486 98.6986 47.3216 98.7069ZM51.4083 94.2635C52.4203 94.0125 53.4997 93.5286 54.6382 92.7441C57.1777 89.0375 54.6391 87.527 51.4083 86.6398L51.4083 94.2635ZM47.0324 80.4828L46.927 73.831C44.058 74.0474 43.3335 76.0041 43.3335 76.9742C42.9935 77.7723 43.4796 79.3265 47.0324 80.4828Z" fill="#141313"/>
<path fill-rule="evenodd" clip-rule="evenodd" d="M263.739 65.3866C257.127 51.5549 244.578 58.1282 237.768 62.8313C236.574 61.5907 232.663 58.7873 226.573 57.4986C212.692 55.3211 210.117 67.8863 210.565 74.441C210.753 78.3455 212.796 82.3089 215.445 85.8841C215.807 86.3732 216.181 86.855 216.563 87.3284C220.022 91.6166 224.15 95.2147 226.573 97.2717C228.588 98.1605 235.062 105.012 238.048 108.326C239.033 106.237 243.719 102.012 245.94 100.16C246.572 99.6047 247.282 98.9996 248.046 98.3478C251.299 95.574 255.542 91.9554 259.025 87.7173L250.53 87.7173C249.97 87.3284 248.761 85.9508 248.403 83.5511L244.876 88.2172C244.41 88.8097 242.94 89.7281 240.79 88.6616C240.081 88.1246 238.607 87.484 238.383 89.2171L236.816 92.3834C236.2 93.7351 234.79 95.5274 234.073 91.8834L232.338 74.5521L230.155 89.2171C230.081 90.217 229.604 91.5535 227.749 89.3282C226.405 87.7173 225.622 87.1618 224.446 87.3284L216.563 87.3284L215.445 85.8841L226.125 85.8841C226.704 86.1989 228.04 87.1062 228.756 88.2172L231.891 65.7754C232.17 65.3125 232.864 64.6644 233.402 65.7754L235.697 90.9946L237.32 87.7173C237.618 86.9211 238.842 85.7286 241.35 87.3284C242.783 88.3061 244.037 86.7729 244.484 85.8841C245.623 84.3843 247.91 81.3847 247.955 81.3847C247.962 81.3847 247.982 81.3559 248.015 81.3107C248.252 80.9842 249.114 79.7984 249.802 82.3846L250.53 85.162C250.511 85.5508 250.843 86.3174 252.321 86.273C253.798 86.2285 258.164 86.2545 260.162 86.273C264.699 80.2439 267.42 73.0853 263.739 65.3866Z" fill="#F50B0B"/>
</g>
<defs>
<filter id="filter0_d" x="0.777732" y="0.676758" width="277.8" height="278.283" filterUnits="userSpaceOnUse" color-interpolation-filters="sRGB">
<feFlood flood-opacity="0" result="BackgroundImageFix"/>
<feColorMatrix in="SourceAlpha" type="matrix" values="0 0 0 0 0 0 0 0 0 0 0 0 0 0 0 0 0 0 127 0" result="hardAlpha"/>
<feOffset dy="6.97959"/>
<feGaussianBlur stdDeviation="3.4898"/>
<feColorMatrix type="matrix" values="0 0 0 0 0 0 0 0 0 0 0 0 0 0 0 0 0 0 0.25 0"/>
<feBlend mode="normal" in2="BackgroundImageFix" result="effect1_dropShadow"/>
<feBlend mode="normal" in="SourceGraphic" in2="effect1_dropShadow" result="shape"/>
</filter>
</defs>
</svg>
