<svg width="581" height="627" viewBox="0 0 581 627" fill="none" xmlns="http://www.w3.org/2000/svg">
<path d="M141.711 264.412C17.6579 237.817 59.3021 391.149 95.6309 471.139C139.821 568.439 260.561 560.13 276.633 501.708C296.722 428.679 280.766 474.772 429.538 448.498C578.309 422.225 471.966 135.085 379.467 79.2258C286.968 23.3666 317.077 142.226 326.157 208.692C335.237 275.157 296.777 297.655 141.711 264.412Z" fill="url(#paint0_linear)"/>
<path d="M121.656 138.524C123.581 138.088 125.575 138.046 127.518 138.401C129.46 138.755 131.311 139.498 132.959 140.585C136.251 142.777 138.994 145.698 140.974 149.122C144.986 155.598 146.342 164.264 146.47 171.875C138.015 171.454 130.898 164.74 127.436 161.112C122.013 155.36 115.784 141.684 121.656 138.524Z" fill="#00C041"/>
<path d="M160.008 177.106C158.325 175.676 157.051 173.826 156.314 171.745C155.577 169.663 155.404 167.423 155.813 165.253C156.261 163.094 157.132 161.046 158.378 159.226C159.623 157.407 161.217 155.853 163.068 154.655C164.762 153.528 166.842 152.63 168.793 153.226C169.686 153.559 170.474 154.125 171.076 154.863C171.678 155.602 172.072 156.488 172.219 157.43C172.474 159.325 172.231 161.254 171.513 163.027C169.315 169.164 166.072 174.706 160.008 177.106Z" fill="#00C041"/>
<path d="M164.918 195.527C163.974 194.133 163.172 192.648 162.527 191.093C161.757 189.421 161.191 187.662 160.842 185.854C160.334 183.676 159.969 181.466 159.752 179.24C159.395 175.136 160.049 171.006 161.657 167.213C162.16 166.086 162.773 165.012 163.489 164.007C164.039 163.32 164.405 162.972 164.405 163.009C164.405 163.045 163.306 164.602 162.161 167.451C160.76 171.191 160.209 175.197 160.549 179.176C160.751 181.372 161.075 183.556 161.52 185.716C161.827 187.482 162.319 189.21 162.985 190.873C164.259 193.704 165.047 195.472 164.918 195.527Z" fill="#00C041"/>
<path d="M127.353 148.508C127.999 149.065 128.594 149.678 129.13 150.34C130.22 151.559 131.787 153.345 133.71 155.562C137.53 160.004 142.742 166.196 148.366 173.167C153.99 180.138 158.836 186.614 162.225 191.359C163.938 193.74 165.303 195.673 166.219 197.029C166.735 197.709 167.191 198.432 167.584 199.191C166.986 198.584 166.441 197.928 165.953 197.23L161.74 191.734C158.186 187.081 153.239 180.687 147.652 173.717L133.234 155.946L128.874 150.56C128.313 149.918 127.805 149.232 127.353 148.508Z" fill="#00C041"/>
<path d="M154.256 185.341C150.413 182.712 145.999 181.037 141.379 180.454C136.76 179.871 132.068 180.397 127.692 181.988C125.475 182.812 123.112 184.361 123.002 186.724C122.892 189.087 125.255 190.773 127.445 191.689C132.038 193.503 137.066 193.917 141.894 192.878C146.722 191.84 151.135 189.396 154.577 185.854" fill="#00C041"/>
<path d="M133.619 185.652C134.017 185.439 134.447 185.291 134.892 185.213C135.716 184.984 136.934 184.718 138.446 184.434C142.421 183.667 146.503 183.633 150.491 184.333C152.689 184.787 154.799 185.595 156.738 186.724C159.365 188.296 161.596 190.449 163.26 193.017C163.539 193.37 163.758 193.766 163.911 194.189C163.773 194.29 162.729 192.687 160.567 190.525C157.747 187.768 154.186 185.891 150.317 185.121C146.423 184.451 142.446 184.405 138.537 184.984C135.515 185.377 133.646 185.744 133.619 185.652Z" fill="#00C041"/>
<path d="M166.649 371.298C193.965 358.034 204.618 327.046 208.199 298.238C208.804 293.429 210.132 288.473 208.52 283.911C206.908 279.35 202.062 275.667 197.455 276.977C193.644 278.077 191.436 281.97 188.908 285.066C185.526 289.199 181.046 292.294 175.984 293.997C172.686 295.087 168.765 295.453 166.017 293.319C162.253 290.388 162.674 284.608 163.462 279.854L167.859 253.29C168.646 248.536 169.434 243.681 168.674 238.927C167.914 234.173 165.312 229.464 160.989 227.477C156.665 225.489 150.656 227.211 148.962 231.709C148.247 233.586 148.329 235.657 147.881 237.617C147.432 239.577 146.168 241.601 144.217 241.858C142.266 242.114 140.553 240.466 139.344 238.844C135.203 233.257 132.849 226.542 130.715 219.892C128.581 213.242 126.565 206.464 122.938 200.519C119.311 194.574 113.778 189.435 107.064 187.96C100.349 186.486 92.4077 189.545 89.6047 195.957C86.8018 202.369 89.6047 209.816 93.0306 215.926C98.0661 224.982 104.385 233.263 111.79 240.511C113.118 241.821 114.538 243.259 114.85 245.091C115.381 248.426 111.873 251.1 108.575 251.641C104.847 252.254 101.055 251.274 97.2716 251.128C93.4886 250.981 89.22 251.971 87.2598 255.25C84.5118 259.83 87.791 265.546 91.2627 269.521C98.2076 277.479 106.472 284.182 115.692 289.334C118.981 291.166 122.489 292.879 124.917 295.792C127.344 298.705 128.37 303.248 126.135 306.326C123.9 309.404 119.347 309.779 115.793 308.515C112.239 307.251 109.271 304.732 105.983 302.9C99.8456 299.392 91.3268 298.494 86.243 303.477C82.8996 306.757 81.837 311.886 82.524 316.539C83.211 321.193 85.4278 325.443 87.8643 329.437C96.3831 343.396 108.218 355.433 122.553 363.1C136.889 370.767 150.702 374.44 166.649 371.344" fill="url(#paint1_linear)"/>
<path d="M162.775 372.818C163.544 361.304 164.057 367.277 162.115 352.153C160.173 337.03 156.72 320.616 152.497 303.605L149.319 290.992C148.265 286.861 147.23 282.748 145.957 278.809C143.511 271.233 140.646 263.799 137.374 256.541C134.305 249.589 131.136 243.104 128.122 237.067C125.109 231.031 122.196 225.425 119.301 220.46C114.793 212.598 109.669 205.106 103.977 198.055C101.971 195.563 100.313 193.685 99.2319 192.421L97.9495 190.992C97.8135 190.821 97.66 190.665 97.4915 190.525C97.6056 190.714 97.7375 190.892 97.8853 191.057C98.1876 191.423 98.5907 191.908 99.0945 192.54C100.166 193.832 101.742 195.756 103.674 198.275C109.245 205.391 114.275 212.914 118.724 220.781C121.564 225.755 124.44 231.333 127.435 237.37C130.431 243.406 133.545 249.91 136.595 256.853C139.836 264.101 142.674 271.523 145.096 279.084C146.351 283.014 147.377 287.081 148.43 291.23C149.484 295.38 150.528 299.575 151.6 303.825C155.822 320.854 159.312 337.223 161.273 352.3C163.233 367.377 162.802 361.341 162.115 372.818" fill="#00C041"/>
<path d="M145.719 278.709C146.048 278.084 146.312 277.427 146.507 276.748C146.965 275.475 147.569 273.616 148.275 271.298C149.703 266.663 151.453 260.205 153.358 253.079C155.264 245.952 157.105 239.522 158.598 234.933C159.331 232.634 159.954 230.774 160.43 229.501C160.703 228.85 160.902 228.171 161.025 227.477C160.655 228.075 160.347 228.71 160.109 229.373C159.569 230.619 158.854 232.441 158.039 234.731C156.39 239.311 154.448 245.723 152.543 252.841C150.638 259.958 148.998 266.251 147.707 271.161C147.12 273.35 146.617 275.2 146.214 276.657C145.967 277.318 145.8 278.007 145.719 278.709Z" fill="#00C041"/>
<path d="M86.3712 257.54C87.1474 257.845 87.9511 258.075 88.7711 258.227C90.31 258.612 92.5542 259.143 95.3022 259.931C100.798 261.433 108.337 263.759 116.535 266.7C124.733 269.64 132.034 272.645 137.255 274.944C139.875 276.089 141.972 277.069 143.42 277.692C144.152 278.09 144.923 278.415 145.719 278.663C145.046 278.169 144.328 277.74 143.575 277.38C142.165 276.62 140.104 275.548 137.511 274.33C132.345 271.866 125.054 268.77 116.837 265.811C109.827 263.268 102.691 261.085 95.4579 259.271C92.7099 258.584 90.4108 258.117 88.8353 257.833C88.0243 257.662 87.1997 257.564 86.3712 257.54Z" fill="#00C041"/>
<path d="M161.584 350.908C161.584 350.908 161.795 350.697 162.124 350.23L163.526 348.187C164.726 346.401 166.402 343.781 168.436 340.511C172.503 333.971 177.834 324.765 183.577 314.524C189.32 304.283 194.569 295.041 198.49 288.427C200.413 285.221 201.989 282.574 203.161 280.614C203.665 279.762 204.077 279.057 204.425 278.48C204.588 278.239 204.717 277.977 204.81 277.701C204.81 277.701 204.599 277.912 204.27 278.379L202.804 280.421C201.595 282.208 199.919 284.827 197.885 288.098C193.846 294.656 188.514 303.816 182.771 314.084C177.028 324.353 171.779 333.568 167.859 340.181C165.935 343.387 164.359 346.035 163.187 347.995L161.932 350.129C161.781 350.371 161.664 350.633 161.584 350.908Z" fill="#00C041"/>
<path d="M84.4385 311.785C84.6669 311.971 84.9196 312.125 85.1896 312.243L87.388 313.407L95.632 317.611C102.603 321.165 112.175 326.185 122.736 331.745C133.298 337.305 142.888 342.233 149.978 345.65C153.496 347.354 156.39 348.7 158.36 349.598L160.668 350.615C160.929 350.748 161.206 350.847 161.492 350.908C161.264 350.722 161.011 350.568 160.741 350.45L158.506 349.286L150.262 345.082C143.291 341.528 133.719 336.508 123.158 330.948C112.596 325.388 103.006 320.451 95.9251 317.043C92.3985 315.339 89.5131 313.993 87.5346 313.095L85.2629 312.06C85.0012 311.933 84.7241 311.841 84.4385 311.785Z" fill="#00C041"/>
<path d="M474.27 449.46C474.27 449.588 387.552 449.698 280.609 449.698C173.666 449.698 86.93 449.597 86.93 449.46C86.93 449.323 173.629 449.222 280.609 449.222C387.589 449.222 474.27 449.332 474.27 449.46Z" fill="#263238"/>
<path d="M108.209 297.761C108.209 297.761 114.529 293.493 122.425 308.634C130.321 323.776 133.344 332.524 133.344 332.524C133.344 332.524 135.423 335.693 137.594 333.586C139.765 331.479 142.705 325.544 146.442 326.579C150.18 327.614 151.627 331.937 150.949 338.276C150.271 344.615 149.3 358.556 149.218 359.811C149.136 361.066 149.859 362.862 151.563 361.643C153.267 360.425 163.059 349.341 168.051 354.315C173.043 359.289 168.262 376.62 167.776 378.525C167.291 380.43 167.666 381.273 168.573 381.704C169.48 382.134 172.42 378.122 175.333 375.081C178.246 372.04 182.157 369.008 184.795 372.113C187.434 375.218 188.395 388.189 176.24 409.385L169.965 418.838L158.579 418.316C134.278 415.706 124.339 407.324 123.387 403.358C122.434 399.392 127.161 398.008 131.338 397.44C135.515 396.873 140.498 396.863 140.672 395.856C140.846 394.848 140.397 394.07 138.565 393.346C136.733 392.622 119.888 386.311 118.807 379.359C117.726 372.406 132.455 371.005 134.434 370.318C136.412 369.631 135.35 367.991 134.305 367.332C133.261 366.672 121.381 359.262 115.857 356.083C110.334 352.905 107.613 349.332 109.033 345.567C110.389 341.903 116.92 343.048 119.906 342.526C122.892 342.004 121.536 338.459 121.536 338.459C121.536 338.459 116.224 330.884 108.612 315.559C101 300.235 108.346 297.633 108.346 297.633" fill="url(#paint2_linear)"/>
<path d="M115.308 311.309C115.364 311.395 115.416 311.483 115.463 311.575L115.894 312.39L117.497 315.513L123.359 327.037C128.351 336.765 135.267 350.166 142.824 364.977C150.381 379.789 157.315 393.218 162.188 402.982C164.607 407.855 166.558 411.812 167.923 414.57L169.452 417.73L169.846 418.563C169.929 418.747 169.965 418.847 169.965 418.847C169.965 418.847 169.901 418.765 169.8 418.582L169.379 417.776C168.994 417.034 168.463 415.944 167.776 414.643C166.375 411.895 164.378 407.974 161.914 403.12C157.004 393.392 150.07 379.981 142.44 365.188C134.809 350.395 127.958 336.939 123.112 327.174L117.341 315.587C116.691 314.231 116.178 313.168 115.811 312.426C115.647 312.078 115.518 311.804 115.427 311.593C115.374 311.504 115.333 311.409 115.308 311.309Z" fill="#28FF0C"/>
<path d="M142.659 335.052C142.516 336.06 142.305 337.058 142.027 338.038C141.588 339.989 141.02 342.462 140.388 345.21C139.756 347.958 139.16 350.532 138.684 352.364C138.437 353.28 138.226 354.004 138.061 354.508C137.999 354.775 137.897 355.031 137.759 355.268C137.914 354.262 138.122 353.266 138.382 352.282L139.966 345.1C140.608 342.297 141.23 339.769 141.734 337.946C141.991 337.03 142.211 336.307 142.375 335.812C142.433 335.546 142.528 335.29 142.659 335.052Z" fill="#28FF0C"/>
<path d="M136.715 355.497C136.715 355.607 131.475 354.269 125.081 352.492C118.688 350.715 113.54 349.195 113.576 349.076C113.613 348.957 118.807 350.303 125.2 352.071C131.594 353.839 136.742 355.378 136.715 355.497Z" fill="#28FF0C"/>
<path d="M151.407 380.98C151.136 381.057 150.856 381.097 150.574 381.099C150.042 381.154 149.264 381.209 148.302 381.255C146.378 381.346 143.722 381.41 140.772 381.328C137.823 381.246 135.185 381.035 133.27 380.833C132.354 380.733 131.539 380.632 130.999 380.549C130.72 380.529 130.446 380.471 130.183 380.375C131.221 380.359 132.258 380.408 133.289 380.522C135.212 380.65 137.869 380.806 140.791 380.888C143.713 380.971 146.369 380.962 148.293 380.943C149.331 380.889 150.371 380.901 151.407 380.98Z" fill="#28FF0C"/>
<path d="M160.86 363.668C160.503 364.56 160.077 365.424 159.587 366.251C158.744 367.817 157.563 369.97 156.235 372.333C154.906 374.696 153.679 376.831 152.772 378.36C152.32 379.209 151.803 380.02 151.224 380.788C151.581 379.895 152.007 379.032 152.497 378.205C153.34 376.638 154.522 374.486 155.85 372.122C157.178 369.759 158.405 367.625 159.312 366.104C159.765 365.254 160.283 364.439 160.86 363.668Z" fill="#28FF0C"/>
<path d="M176.689 384.516C176.591 384.837 176.452 385.145 176.277 385.432L174.985 387.804C173.886 389.792 172.338 392.531 170.607 395.544C168.875 398.558 167.281 401.279 166.109 403.23C165.559 404.146 165.083 404.906 164.708 405.538C164.552 405.829 164.361 406.099 164.14 406.344C164.241 406.024 164.379 405.716 164.552 405.428L165.843 403.056C166.943 401.059 168.491 398.32 170.222 395.306C171.953 392.293 173.547 389.581 174.719 387.63L176.121 385.322C176.283 385.035 176.473 384.765 176.689 384.516Z" fill="#28FF0C"/>
<path d="M164.332 405.73C163.986 405.804 163.632 405.835 163.279 405.822C162.592 405.822 161.602 405.868 160.384 405.877C157.947 405.877 154.567 405.877 150.848 405.63C147.13 405.382 143.759 405.107 141.34 404.823C140.122 404.686 139.142 404.549 138.473 404.448C138.118 404.418 137.768 404.348 137.429 404.237C137.783 404.205 138.138 404.205 138.492 404.237L141.368 404.475C143.795 404.686 147.157 404.952 150.867 405.153C154.577 405.355 157.947 405.465 160.384 405.529L163.279 405.611C163.633 405.616 163.986 405.656 164.332 405.73Z" fill="#28FF0C"/>
<path d="M467.299 292.632L436.64 322.484L408.391 376.391L376.624 437.351L337.593 419.031L295.402 397.431L322.388 345.879L339.16 288.171C327.307 296.03 305.268 306.738 278.979 301.151C250.454 295.105 264.149 187.567 264.149 187.567L295.494 186.76L298.645 262.578L334.048 246.933L334.103 247.061C336.238 246.145 338.106 245.229 339.096 244.725C358.689 234.035 371.55 232.744 392.572 240.246L422.9 250.322C430.696 253.986 459.431 268.138 467.299 292.632Z" fill="#0012ED"/>
<path d="M360.017 237.992C360.017 237.992 359.312 238.395 358.121 239.247C356.451 240.461 354.97 241.915 353.724 243.562C351.895 246.018 350.438 248.731 349.401 251.613C348.139 255.155 347.059 258.76 346.167 262.413L340.781 282.226C340.076 284.708 339.508 286.742 339.086 288.207C338.894 288.876 338.729 289.417 338.61 289.829C338.566 290.022 338.498 290.21 338.409 290.388C338.421 290.191 338.457 289.997 338.519 289.81C338.619 289.38 338.748 288.839 338.912 288.162C339.288 286.678 339.828 284.635 340.451 282.134C341.807 277.005 343.657 270.016 345.709 262.285C346.607 258.619 347.702 255.005 348.988 251.458C350.06 248.547 351.567 245.817 353.459 243.36C354.749 241.703 356.295 240.262 358.039 239.092C358.508 238.774 358.998 238.486 359.504 238.23C359.669 238.139 359.841 238.059 360.017 237.992Z" fill="#263238"/>
<g opacity="0.3">
<path opacity="0.3" d="M348.576 253.189C339.81 276.922 324.046 290.186 301.723 302.076C314.902 300.616 327.532 295.99 338.537 288.592" fill="black"/>
</g>
<g opacity="0.3">
<path opacity="0.3" d="M376.505 236.298C380.218 295.764 383.931 355.228 387.644 414.689L376.652 437.351L376.505 236.298Z" fill="black"/>
</g>
<path d="M411.02 297.99C410.892 298.045 409.774 295.242 408.208 291.862C406.641 288.482 405.249 285.798 405.368 285.734C405.8 286.239 406.166 286.796 406.458 287.392C407.072 288.455 407.86 289.957 408.638 291.661C409.417 293.365 410.058 294.931 410.47 296.085C410.74 296.692 410.925 297.333 411.02 297.99Z" fill="#FAFAFA"/>
<path d="M435.972 285.45C434.083 286.919 432.093 288.254 430.018 289.444C428.03 290.778 425.955 291.978 423.807 293.035C425.708 291.577 427.699 290.243 429.77 289.041C431.756 287.708 433.828 286.509 435.972 285.45Z" fill="#FAFAFA"/>
<path d="M425.145 276.419C424.827 274.816 424.662 273.188 424.65 271.555C424.496 269.925 424.496 268.284 424.65 266.654C424.979 268.258 425.144 269.89 425.145 271.527C425.304 273.154 425.304 274.792 425.145 276.419Z" fill="#FAFAFA"/>
<path d="M450.051 274.678C446.977 273.153 444.052 271.347 441.312 269.283C442.885 269.974 444.39 270.808 445.81 271.774C447.311 272.608 448.731 273.58 450.051 274.678Z" fill="#FAFAFA"/>
<path d="M411.973 324.087C412.649 321.92 413.476 319.802 414.446 317.748C415.276 315.636 416.249 313.582 417.359 311.602C416.685 313.771 415.859 315.889 414.886 317.941C414.058 320.054 413.085 322.108 411.973 324.087Z" fill="#FAFAFA"/>
<path d="M400.88 335.317C400 334.086 399.251 332.766 398.645 331.378C397.893 330.059 397.279 328.665 396.813 327.22C397.694 328.452 398.446 329.772 399.057 331.159C399.81 332.476 400.421 333.87 400.88 335.317Z" fill="#FAFAFA"/>
<path d="M410.159 350.44C408.663 351.088 407.074 351.493 405.451 351.64C403.851 351.95 402.212 351.999 400.596 351.787C400.596 351.65 402.749 351.549 405.387 351.173C408.025 350.798 410.122 350.294 410.159 350.44Z" fill="#FAFAFA"/>
<path d="M422.058 333.898C422.456 332.367 423.002 330.879 423.688 329.455C424.23 327.969 424.92 326.542 425.749 325.196C425.357 326.726 424.814 328.215 424.128 329.638C423.59 331.127 422.896 332.555 422.058 333.898Z" fill="#FAFAFA"/>
<path d="M393.121 368.834C393.002 368.907 391.656 367.048 389.805 364.913C387.955 362.779 386.306 361.176 386.407 361.075C389.158 363.169 391.444 365.811 393.121 368.834Z" fill="#FAFAFA"/>
<path d="M387.873 331.269C387.224 332.868 386.423 334.402 385.482 335.849C384.681 337.386 383.74 338.846 382.67 340.209C383.332 338.614 384.135 337.081 385.07 335.629C385.868 334.093 386.807 332.633 387.873 331.269Z" fill="#FAFAFA"/>
<path d="M391.61 318.38C389.875 318.171 388.161 317.809 386.489 317.3C384.779 316.939 383.105 316.424 381.488 315.761C383.224 315.965 384.938 316.327 386.609 316.842C388.32 317.199 389.994 317.714 391.61 318.38Z" fill="#FAFAFA"/>
<path d="M391.39 291.817C392.397 292.993 393.316 294.242 394.138 295.554C395.082 296.771 395.933 298.057 396.685 299.401C395.557 298.338 394.572 297.135 393.753 295.819C392.791 294.596 391.996 293.25 391.39 291.817Z" fill="#FAFAFA"/>
<path d="M382.917 290.488C380.917 292.654 378.688 294.595 376.267 296.277C377.207 295.138 378.27 294.106 379.436 293.2C380.497 292.175 381.664 291.266 382.917 290.488Z" fill="#FAFAFA"/>
<path d="M389.613 276.593C386.52 274.153 383.942 271.124 382.029 267.68C382.148 267.607 383.65 269.75 385.748 272.205C387.845 274.66 389.714 276.492 389.613 276.593Z" fill="#FAFAFA"/>
<path d="M413.044 272.315C411.389 273.075 409.669 273.688 407.906 274.147C406.191 274.755 404.425 275.209 402.629 275.503C404.288 274.749 406.007 274.137 407.768 273.671C409.484 273.064 411.249 272.611 413.044 272.315Z" fill="#FAFAFA"/>
<path d="M380.059 250.001C379.922 250.001 379.986 247.903 379.656 245.357C379.326 242.81 378.74 240.777 378.905 240.777C380.148 243.692 380.548 246.897 380.059 250.029V250.001Z" fill="#FAFAFA"/>
<path d="M359.211 316.42C358.536 317.006 357.816 317.539 357.058 318.014C355.703 318.93 353.852 320.295 351.874 321.852C349.895 323.409 348.155 324.884 346.909 325.965C346.265 326.588 345.576 327.164 344.848 327.687C345.387 326.967 346.001 326.307 346.68 325.718C348.239 324.22 349.875 322.804 351.581 321.477C353.279 320.14 355.043 318.89 356.866 317.73C357.605 317.221 358.39 316.782 359.211 316.42Z" fill="#FAFAFA"/>
<path d="M358.011 309.074C357.892 309.138 356.353 306.747 354.219 303.954C352.085 301.16 350.198 299.035 350.298 298.934C350.819 299.288 351.286 299.717 351.681 300.207C352.713 301.308 353.688 302.461 354.604 303.66C355.666 305.071 356.555 306.408 357.15 307.398C357.514 307.914 357.804 308.478 358.011 309.074Z" fill="#FAFAFA"/>
<path d="M363.589 280.119C360.757 282.045 357.752 283.704 354.613 285.075C355.987 284.048 357.453 283.15 358.991 282.391C360.449 281.491 361.989 280.73 363.589 280.119Z" fill="#FAFAFA"/>
<path d="M358.066 267.478C357.489 267.141 356.962 266.725 356.5 266.242C355.313 265.158 354.208 263.989 353.193 262.743C352.168 261.499 351.234 260.182 350.399 258.804C350.013 258.257 349.705 257.659 349.483 257.027C349.611 256.954 351.178 259.555 353.55 262.44C355.923 265.326 358.185 267.369 358.066 267.478Z" fill="#FAFAFA"/>
<path d="M367.574 267.213C367.991 265.822 368.556 264.48 369.26 263.21C369.825 261.87 370.535 260.595 371.376 259.408C370.963 260.801 370.398 262.143 369.69 263.411C369.129 264.753 368.419 266.029 367.574 267.213Z" fill="#FAFAFA"/>
<path d="M365.037 252.749C364.89 252.749 365.037 249.9 364.505 246.465C363.974 243.03 362.957 240.374 363.095 240.319C363.441 240.843 363.703 241.418 363.873 242.023C364.379 243.441 364.75 244.904 364.982 246.392C365.21 247.88 365.305 249.385 365.266 250.89C365.29 251.518 365.212 252.146 365.037 252.749Z" fill="#FAFAFA"/>
<path d="M367.345 325.708C367.284 324.815 367.284 323.918 367.345 323.025C367.409 321.376 367.455 319.095 367.391 316.613C367.327 314.13 367.162 311.822 367.024 310.201C366.9 309.315 366.845 308.42 366.86 307.526C367.113 308.387 367.282 309.27 367.363 310.164C367.649 312.309 367.817 314.468 367.867 316.631C367.925 318.791 367.864 320.953 367.684 323.107C367.662 323.984 367.548 324.855 367.345 325.708Z" fill="#FAFAFA"/>
<path d="M365.989 348.508C364.71 347.33 363.354 346.238 361.932 345.238C360.429 344.369 358.871 343.598 357.269 342.929C359.025 343.227 360.703 343.875 362.204 344.833C363.705 345.791 364.998 347.041 366.008 348.508H365.989Z" fill="#FAFAFA"/>
<path d="M377.421 362.614C375.404 363.928 373.302 365.106 371.128 366.141C369.03 367.319 366.854 368.354 364.615 369.237C366.635 367.93 368.737 366.756 370.908 365.719C373.008 364.54 375.183 363.503 377.421 362.614Z" fill="#FAFAFA"/>
<path d="M345.196 368.87C343.525 367.01 341.977 365.042 340.561 362.981C339.015 361.012 337.595 358.946 336.311 356.797C337.978 358.665 339.526 360.635 340.946 362.697C342.489 364.665 343.908 366.727 345.196 368.87Z" fill="#FAFAFA"/>
<path d="M335.285 342.819C335.127 342.206 335.056 341.574 335.074 340.942C335.029 339.778 335.01 338.194 335.074 336.362C335.139 334.53 335.322 332.982 335.477 331.782C335.521 331.157 335.647 330.541 335.853 329.95C335.99 329.95 335.716 332.826 335.551 336.362C335.386 339.897 335.377 342.819 335.285 342.819Z" fill="#FAFAFA"/>
<path d="M324.495 387.291C322.618 386.036 320.831 384.653 319.145 383.151C317.359 381.769 315.673 380.263 314.098 378.644C315.975 379.898 317.763 381.282 319.447 382.784C321.233 384.167 322.92 385.673 324.495 387.291Z" fill="#FAFAFA"/>
<path d="M330.943 385.926C330.647 383.544 330.51 381.145 330.531 378.745C330.399 376.349 330.423 373.947 330.604 371.554C330.9 373.936 331.038 376.335 331.017 378.736C331.149 381.132 331.124 383.534 330.943 385.926Z" fill="#FAFAFA"/>
<path d="M343.676 413.507C343.676 413.58 342.531 413.132 340.689 412.536C335.895 410.993 330.865 410.308 325.832 410.512C323.899 410.585 322.708 410.722 322.699 410.64C322.963 410.536 323.241 410.472 323.524 410.448C324.055 410.347 324.843 410.255 325.814 410.173C330.892 409.789 335.994 410.488 340.781 412.225C341.51 412.488 342.222 412.794 342.915 413.141C343.186 413.223 343.443 413.347 343.676 413.507Z" fill="#FAFAFA"/>
<path d="M354.164 418.545C354.908 418.934 355.603 419.411 356.234 419.965C359.403 422.474 362.271 425.342 364.78 428.511C365.335 429.142 365.811 429.837 366.2 430.581C365.594 430.013 365.031 429.4 364.515 428.749C363.507 427.586 362.078 426.001 360.42 424.343C358.762 422.685 357.177 421.266 356.014 420.249C355.356 419.727 354.738 419.158 354.164 418.545Z" fill="#FAFAFA"/>
<path d="M358.735 370.822C357.805 369.107 357.011 367.321 356.362 365.481C355.571 363.704 354.925 361.866 354.43 359.985C355.36 361.7 356.153 363.486 356.802 365.326C357.593 367.103 358.239 368.941 358.735 370.822Z" fill="#FAFAFA"/>
<path d="M321.939 277.985C321.549 278.561 321.077 279.076 320.537 279.515C319.316 280.651 318.005 281.686 316.617 282.611C315.227 283.542 313.763 284.357 312.239 285.047C311.625 285.374 310.968 285.611 310.287 285.753C310.232 285.615 313.136 284.369 316.351 282.217C319.566 280.064 321.838 277.875 321.939 277.985Z" fill="#FAFAFA"/>
<path d="M324.293 268.275C324.103 265.552 324.233 262.816 324.678 260.123C324.867 262.846 324.738 265.582 324.293 268.275Z" fill="#FAFAFA"/>
<path d="M306.019 276.428C304.378 275.939 302.786 275.299 301.265 274.513C299.669 273.871 298.136 273.083 296.685 272.159C298.324 272.652 299.915 273.293 301.439 274.074C303.035 274.716 304.568 275.504 306.019 276.428Z" fill="#FAFAFA"/>
<path d="M338.619 264.007C338.513 262.317 338.565 260.621 338.775 258.941C338.819 257.249 339.027 255.564 339.398 253.912C339.505 255.602 339.456 257.297 339.251 258.978C339.2 260.67 338.989 262.354 338.619 264.007Z" fill="#FAFAFA"/>
<path d="M296.309 295.847C294.454 295.379 292.689 294.605 291.088 293.557C289.404 292.643 287.889 291.447 286.609 290.021C286.7 289.911 288.652 291.551 291.326 293.154C294.001 294.757 296.364 295.709 296.309 295.847Z" fill="#FAFAFA"/>
<path d="M282.725 277.206C281.545 278.832 280.241 280.363 278.823 281.786C277.519 283.328 276.098 284.768 274.573 286.092C277.053 282.906 279.779 279.92 282.725 277.161V277.206Z" fill="#FAFAFA"/>
<path d="M281.562 260.508C280.001 259.98 278.551 259.17 277.284 258.117C275.927 257.191 274.745 256.031 273.794 254.691C273.895 254.59 275.434 256.138 277.577 257.732C279.721 259.326 281.626 260.389 281.562 260.508Z" fill="#FAFAFA"/>
<path d="M272.997 264.007C272.478 264.987 271.821 265.888 271.046 266.681C270.388 267.576 269.608 268.375 268.729 269.054C269.902 267.176 271.34 265.476 272.997 264.007Z" fill="#FAFAFA"/>
<path d="M291.317 233.009C290.251 234.683 289.053 236.27 287.736 237.754C286.544 239.344 285.223 240.833 283.788 242.206C284.855 240.53 286.053 238.94 287.369 237.452C288.565 235.869 289.886 234.383 291.317 233.009Z" fill="#FAFAFA"/>
<path d="M275.626 236.536C274.214 235.282 272.908 233.913 271.724 232.441C270.425 231.076 269.243 229.606 268.188 228.045C269.602 229.293 270.908 230.66 272.09 232.13C273.389 233.498 274.572 234.971 275.626 236.536Z" fill="#FAFAFA"/>
<path d="M283.485 216.64C282.435 215.283 281.515 213.829 280.737 212.298C279.83 210.844 279.054 209.311 278.42 207.719C279.469 209.08 280.389 210.537 281.168 212.069C282.076 213.52 282.852 215.05 283.485 216.64Z" fill="#FAFAFA"/>
<path d="M283.073 203.807C282.963 203.716 284.337 201.975 285.427 199.511C286.517 197.047 286.911 194.876 287.058 194.931C286.83 198.278 285.417 201.435 283.073 203.835V203.807Z" fill="#FAFAFA"/>
<path d="M267.968 203.047C267.826 201.111 268.216 199.172 269.095 197.441C269.664 196.199 270.417 195.05 271.33 194.034C271.679 193.586 272.112 193.21 272.603 192.925C271.414 194.382 270.382 195.96 269.525 197.633C268.814 199.377 268.292 201.192 267.968 203.047Z" fill="#FAFAFA"/>
<path d="M400.037 181.255C399.616 177.458 399.57 173.629 399.9 169.824C400.242 165.995 401.708 162.352 404.113 159.354C406.614 156.459 410.461 154.6 414.244 155.085C416.589 155.387 418.824 156.542 421.16 156.477C423.908 156.395 426.262 154.71 428.745 153.583C432.658 151.806 437.042 151.347 441.239 152.273C443.451 152.69 445.499 153.725 447.147 155.259C447.959 156.033 448.56 157.001 448.895 158.071C449.23 159.142 449.287 160.28 449.061 161.378C451.829 161.257 454.601 161.5 457.305 162.102C460.014 162.712 462.377 164.355 463.891 166.682C465.256 169.072 465.165 172.398 463.204 174.33C464.495 174.157 465.804 174.468 466.879 175.202C467.955 175.935 468.721 177.041 469.03 178.306C469.274 179.586 469.144 180.908 468.657 182.117C468.169 183.325 467.345 184.368 466.282 185.121C463.721 186.689 460.686 187.299 457.718 186.843C455.171 186.357 452.222 185.643 450.179 184.095" fill="#263238"/>
<path d="M398.049 267.543C403.103 268.84 408.465 268.088 412.965 265.449C417.466 262.81 420.741 258.498 422.076 253.454C423.624 247.583 424.888 242.664 424.888 242.664C424.888 242.664 440.195 245.293 445.26 230.756C450.326 216.219 459 182.016 459 182.016C451.922 175.686 443.282 171.359 433.973 169.484C424.665 167.608 415.024 168.25 406.046 171.344L403.298 172.26L383.851 243.094C383.147 245.632 382.957 248.285 383.293 250.898C383.628 253.51 384.483 256.029 385.805 258.306C387.128 260.584 388.892 262.574 390.995 264.16C393.098 265.746 395.496 266.896 398.049 267.543Z" fill="#B78876"/>
<path d="M424.98 242.462C418.222 240.333 412.25 236.242 407.823 230.71C407.823 230.71 408.794 242.682 423.752 246.282L424.98 242.462Z" fill="#AA6550"/>
<path d="M400.083 187.997C399.872 187.805 391.079 181.686 388.065 191.743C385.051 201.801 395.759 202.735 395.86 202.47C395.961 202.204 400.083 187.997 400.083 187.997Z" fill="#B78876"/>
<path d="M393.909 197.734C393.909 197.734 393.698 197.807 393.36 197.853C392.899 197.891 392.441 197.754 392.077 197.469C391.161 196.763 390.749 194.803 391.244 192.98C391.473 192.11 391.896 191.302 392.48 190.617C392.673 190.338 392.93 190.109 393.23 189.95C393.529 189.79 393.863 189.705 394.202 189.701C394.425 189.699 394.64 189.777 394.809 189.922C394.977 190.067 395.087 190.269 395.118 190.489C395.173 190.809 395.045 190.992 395.118 191.029C395.192 191.066 395.384 190.919 395.421 190.479C395.44 190.216 395.369 189.955 395.219 189.737C395.111 189.589 394.974 189.464 394.817 189.369C394.66 189.275 394.485 189.213 394.303 189.188C393.865 189.144 393.424 189.213 393.021 189.39C392.618 189.566 392.268 189.844 392.004 190.195C391.313 190.936 390.815 191.836 390.557 192.815C390.007 194.858 390.474 197.065 391.802 197.927C392.05 198.085 392.33 198.186 392.621 198.223C392.913 198.259 393.209 198.23 393.488 198.137C393.845 197.972 393.964 197.771 393.909 197.734Z" fill="#AA6550"/>
<path d="M446.68 203.01C446.501 203.561 446.112 204.019 445.598 204.285C445.083 204.551 444.485 204.603 443.932 204.43C443.661 204.362 443.406 204.241 443.182 204.073C442.959 203.905 442.771 203.694 442.63 203.452C442.49 203.211 442.399 202.943 442.362 202.666C442.326 202.389 442.346 202.107 442.42 201.838C442.598 201.296 442.978 200.844 443.483 200.577C443.987 200.31 444.575 200.25 445.123 200.409C445.398 200.473 445.658 200.592 445.887 200.759C446.116 200.925 446.308 201.136 446.454 201.379C446.599 201.622 446.694 201.891 446.733 202.172C446.772 202.452 446.754 202.737 446.68 203.01Z" fill="#263238"/>
<path d="M449.391 201.6C449.043 201.783 447.862 200.097 445.626 199.346C443.391 198.595 441.367 199.172 441.221 198.815C441.138 198.659 441.569 198.256 442.457 197.972C443.658 197.618 444.94 197.65 446.121 198.064C447.286 198.449 448.297 199.197 449.007 200.198C449.492 200.959 449.556 201.526 449.391 201.6Z" fill="#263238"/>
<path d="M424.696 195.637C424.519 196.179 424.138 196.631 423.634 196.897C423.13 197.164 422.541 197.224 421.994 197.065C421.723 196.997 421.468 196.876 421.244 196.708C421.021 196.54 420.833 196.329 420.692 196.087C420.551 195.846 420.46 195.579 420.424 195.302C420.388 195.024 420.408 194.743 420.482 194.473C420.657 193.93 421.038 193.476 421.543 193.209C422.047 192.942 422.637 192.883 423.184 193.044C423.456 193.112 423.71 193.234 423.934 193.402C424.157 193.57 424.345 193.781 424.486 194.022C424.627 194.264 424.718 194.531 424.754 194.808C424.79 195.085 424.77 195.367 424.696 195.637Z" fill="#263238"/>
<path d="M427.279 194.638C426.931 194.83 425.74 193.136 423.505 192.385C421.27 191.634 419.255 192.211 419.099 191.853C419.026 191.698 419.447 191.295 420.345 191.02C421.545 190.665 422.826 190.694 424.009 191.102C425.175 191.491 426.188 192.238 426.903 193.237C427.371 193.997 427.444 194.565 427.279 194.638Z" fill="#263238"/>
<path d="M429.825 213.956C429.825 213.828 431.328 214.048 433.673 214.515C434.268 214.653 434.845 214.717 435.074 214.36C435.319 213.781 435.383 213.143 435.257 212.528C435.184 210.961 435.111 209.322 435.028 207.609C434.763 200.638 434.772 194.977 435.028 194.968C435.285 194.959 435.752 200.61 436.018 207.581C436.073 209.294 436.118 210.934 436.164 212.5C436.296 213.307 436.137 214.135 435.715 214.836C435.565 215.01 435.378 215.147 435.166 215.238C434.955 215.328 434.726 215.369 434.497 215.358C434.151 215.341 433.809 215.276 433.48 215.166C431.199 214.534 429.789 214.076 429.825 213.956Z" fill="#263238"/>
<path d="M422.726 213.288C423.093 213.389 422.287 215.816 423.789 218.234C425.291 220.653 427.957 221.257 427.865 221.596C427.865 221.761 427.123 221.88 426.033 221.541C424.605 221.084 423.385 220.137 422.589 218.866C421.818 217.65 421.555 216.18 421.856 214.772C422.094 213.728 422.562 213.215 422.726 213.288Z" fill="#263238"/>
<path d="M449.886 197.395C449.327 197.771 447.962 196.727 446.121 196.076C444.28 195.426 442.585 195.27 442.402 194.62C442.329 194.308 442.75 193.878 443.593 193.63C444.707 193.363 445.876 193.432 446.951 193.83C448.026 194.228 448.958 194.936 449.629 195.866C450.106 196.607 450.142 197.203 449.886 197.395Z" fill="#263238"/>
<path d="M427.077 185.56C426.739 185.744 426.161 185.441 425.511 185.048C424.669 184.545 423.787 184.113 422.873 183.756C421.947 183.423 420.994 183.171 420.024 183.005C419.246 182.849 418.641 182.73 418.504 182.364C418.366 181.997 418.806 181.448 419.795 181.081C421.112 180.665 422.53 180.701 423.824 181.182C425.118 181.663 426.215 182.563 426.94 183.738C427.444 184.699 427.398 185.414 427.077 185.56Z" fill="#263238"/>
<path d="M458.24 186.77C450.59 186.324 443.281 183.453 437.373 178.571C430.796 173.185 422.562 169.411 420.317 170.474C418.073 171.537 415.939 179.084 408.08 179.634C408.08 179.634 405.277 194.336 399.579 192.458C393.882 190.58 402.648 168.853 402.648 168.853L418.449 165.134L434.634 165.729L449.171 169.027L461.748 176.254L458.24 186.77Z" fill="#263238"/>
<path d="M376.624 129.107H170.955V449.378H376.624V129.107Z" fill="#FAFAFA"/>
<path d="M376.624 449.368C376.624 447.399 376.533 317.327 376.404 129.098L376.624 129.318H170.982L171.229 129.08C171.229 250.248 171.229 361.817 171.175 449.35L170.982 449.158L376.652 449.35L170.982 449.533H170.799V449.368C170.799 361.836 170.799 250.267 170.744 129.098V128.86H171.01H376.652H376.872V129.08C376.716 317.336 376.624 447.408 376.624 449.368Z" fill="#263238"/>
<path d="M226.08 200.427H199.763C198.89 200.427 198.053 200.081 197.434 199.465C196.816 198.848 196.468 198.012 196.465 197.139V160.709C196.468 159.836 196.816 159 197.434 158.384C198.053 157.767 198.89 157.421 199.763 157.421H216.452L229.368 170.73V197.139C229.368 198.011 229.022 198.847 228.405 199.464C227.788 200.081 226.952 200.427 226.08 200.427Z" fill="#0012ED"/>
<path d="M216.452 157.421V167.671C216.455 168.482 216.778 169.259 217.351 169.832C217.924 170.405 218.701 170.728 219.512 170.73H229.368L216.452 157.421Z" fill="#0012ED"/>
<g opacity="0.2">
<path opacity="0.2" d="M216.59 168.569C216.594 169.345 216.863 170.096 217.353 170.697C217.843 171.299 218.524 171.714 219.283 171.875L219.613 171.949C220.895 172.178 229.368 173.68 229.368 173.488V170.74H219.512C219.512 170.74 217.057 170.648 216.59 168.569Z" fill="black"/>
</g>
<g opacity="0.3">
<path opacity="0.3" d="M216.452 157.421V167.671C216.455 168.482 216.778 169.259 217.351 169.832C217.924 170.405 218.701 170.728 219.512 170.73H229.368L216.452 157.421Z" fill="white"/>
</g>
<path d="M214.245 167.241C212.224 167.476 210.187 167.556 208.153 167.479C206.123 167.556 204.089 167.476 202.071 167.241C204.089 167.005 206.123 166.925 208.153 167.002C210.187 166.925 212.224 167.005 214.245 167.241Z" fill="#FAFAFA"/>
<path d="M222.104 173.048C222.104 173.176 217.625 173.286 212.092 173.286C206.56 173.286 202.071 173.176 202.071 173.048C202.071 172.92 206.56 172.81 212.092 172.81C217.625 172.81 222.104 172.911 222.104 173.048Z" fill="#FAFAFA"/>
<path d="M223.909 177.884C223.909 178.022 219.026 178.123 212.99 178.123C206.954 178.123 202.071 178.022 202.071 177.884C202.071 177.747 206.963 177.646 212.99 177.646C219.017 177.646 223.909 177.756 223.909 177.884Z" fill="#FAFAFA"/>
<path d="M223.909 182.455C223.909 182.584 219.026 182.693 212.99 182.693C206.954 182.693 202.071 182.584 202.071 182.455C202.071 182.327 206.963 182.217 212.99 182.217C219.017 182.217 223.909 182.318 223.909 182.455Z" fill="#FAFAFA"/>
<path d="M223.909 187.017C223.909 187.154 219.026 187.255 212.99 187.255C206.954 187.255 202.071 187.154 202.071 187.017C202.071 186.88 206.963 186.779 212.99 186.779C219.017 186.779 223.909 186.889 223.909 187.017Z" fill="#FAFAFA"/>
<path d="M223.909 191.588C223.909 191.716 219.026 191.826 212.99 191.826C206.954 191.826 202.071 191.716 202.071 191.588C202.071 191.46 206.963 191.35 212.99 191.35C219.017 191.35 223.909 191.45 223.909 191.588Z" fill="#FAFAFA"/>
<path d="M238.574 176.135H235.826V175.127H242.522V176.135H239.774V183.225H238.629L238.574 176.135Z" fill="#263238"/>
<path d="M249.63 182.217V183.225H243.758V175.127H249.465V176.135H244.885V178.617H248.943V179.607H244.885V182.217H249.63Z" fill="#263238"/>
<path d="M256.912 183.225L255.163 180.733C254.995 180.743 254.827 180.743 254.659 180.733H252.662V183.197H251.499V175.1H254.677C256.784 175.1 258.048 176.162 258.048 177.921C258.076 178.484 257.917 179.04 257.595 179.502C257.274 179.965 256.808 180.307 256.271 180.477L258.195 183.225H256.912ZM256.912 177.949C256.912 176.794 256.143 176.117 254.659 176.117H252.662V179.781H254.622C256.106 179.781 256.876 179.149 256.876 177.949H256.912Z" fill="#263238"/>
<path d="M267.409 183.225V177.317L264.478 182.226H263.947L261.025 177.353V183.216H259.917V175.118H260.833L264.203 180.807L267.529 175.118H268.445V183.216L267.409 183.225Z" fill="#263238"/>
<path d="M270.249 182.3L270.67 181.384C271.427 181.993 272.374 182.317 273.345 182.3C274.747 182.3 275.342 181.75 275.342 181.045C275.342 179.066 270.441 180.321 270.441 177.317C270.441 176.062 271.412 174.999 273.538 174.999C274.457 174.981 275.361 175.233 276.139 175.723L275.763 176.639C275.097 176.217 274.326 175.991 273.538 175.988C272.164 175.988 271.577 176.565 271.577 177.271C271.577 179.24 276.478 178.004 276.478 180.935C276.478 182.171 275.479 183.234 273.345 183.234C272.236 183.288 271.143 182.958 270.249 182.3Z" fill="#263238"/>
<path d="M280.582 179.149C280.549 178.291 280.773 177.443 281.226 176.713C281.678 175.984 282.339 175.407 283.122 175.055C283.905 174.704 284.775 174.595 285.621 174.742C286.467 174.889 287.249 175.286 287.868 175.881C288.487 176.476 288.913 177.242 289.093 178.081C289.273 178.921 289.198 179.795 288.878 180.591C288.557 181.387 288.006 182.07 287.295 182.55C286.584 183.031 285.745 183.288 284.887 183.289C284.328 183.315 283.771 183.227 283.247 183.03C282.724 182.834 282.246 182.532 281.843 182.145C281.44 181.757 281.121 181.292 280.904 180.777C280.687 180.262 280.577 179.708 280.582 179.149ZM288.02 179.149C288.025 178.526 287.845 177.915 287.503 177.395C287.16 176.874 286.671 176.467 286.097 176.225C285.523 175.984 284.89 175.918 284.278 176.037C283.667 176.156 283.104 176.454 282.663 176.893C282.221 177.332 281.92 177.893 281.797 178.504C281.675 179.114 281.737 179.748 281.975 180.323C282.213 180.899 282.617 181.391 283.136 181.736C283.654 182.081 284.264 182.265 284.887 182.263C285.3 182.277 285.712 182.206 286.098 182.055C286.483 181.903 286.833 181.675 287.126 181.383C287.42 181.091 287.65 180.742 287.804 180.358C287.958 179.974 288.031 179.562 288.02 179.149Z" fill="#263238"/>
<path d="M292.105 176.135V178.956H296.163V179.955H292.105V183.225H290.951V175.127H296.657V176.135H292.105Z" fill="#263238"/>
<path d="M300.66 182.3L301.091 181.384C301.845 181.991 302.788 182.315 303.756 182.3C305.158 182.3 305.762 181.75 305.762 181.045C305.762 179.066 300.862 180.321 300.862 177.317C300.862 176.062 301.833 174.999 303.958 174.999C304.877 174.983 305.781 175.234 306.559 175.723L306.175 176.639C305.512 176.218 304.743 175.992 303.958 175.988C302.584 175.988 301.989 176.565 301.989 177.271C301.989 179.24 306.889 178.004 306.889 180.935C306.889 182.171 305.9 183.234 303.756 183.234C302.648 183.287 301.555 182.957 300.66 182.3Z" fill="#263238"/>
<path d="M314.455 182.217V183.225H308.584V175.127H314.29V176.135H309.71V178.617H313.768V179.607H309.71V182.217H314.455Z" fill="#263238"/>
<path d="M321.737 183.225L319.997 180.733C319.826 180.743 319.655 180.743 319.484 180.733H317.487V183.197H316.333V175.1H319.484C321.591 175.1 322.864 176.162 322.864 177.921C322.892 178.485 322.731 179.042 322.408 179.504C322.085 179.967 321.617 180.309 321.078 180.477L323.002 183.225H321.737ZM321.737 177.949C321.737 176.794 320.968 176.117 319.484 176.117H317.524V179.781H319.484C320.931 179.781 321.701 179.149 321.701 177.949H321.737Z" fill="#263238"/>
<path d="M331.758 175.127L328.214 183.225H327.041L323.478 175.127H324.733L327.646 181.777L330.577 175.127H331.758Z" fill="#263238"/>
<path d="M332.794 175.127H333.948V183.225H332.794V175.127Z" fill="#263238"/>
<path d="M335.716 179.149C335.709 178.59 335.816 178.037 336.031 177.522C336.246 177.007 336.564 176.541 336.965 176.153C337.367 175.765 337.843 175.464 338.366 175.267C338.888 175.07 339.445 174.982 340.003 175.008C340.576 174.985 341.148 175.086 341.679 175.304C342.21 175.523 342.688 175.853 343.08 176.272L342.329 176.996C342.036 176.69 341.681 176.45 341.287 176.292C340.894 176.134 340.472 176.062 340.048 176.08C339.533 176.082 339.026 176.212 338.573 176.459C338.12 176.705 337.735 177.06 337.453 177.492C337.171 177.923 337.001 178.418 336.958 178.932C336.914 179.446 336.999 179.963 337.205 180.436C337.41 180.908 337.73 181.323 338.135 181.642C338.54 181.961 339.018 182.174 339.526 182.262C340.034 182.351 340.556 182.312 341.046 182.149C341.535 181.986 341.976 181.704 342.329 181.329L343.08 182.052C342.687 182.474 342.208 182.806 341.676 183.025C341.143 183.245 340.569 183.347 339.993 183.325C339.433 183.351 338.874 183.261 338.351 183.061C337.827 182.861 337.35 182.556 336.949 182.165C336.548 181.773 336.231 181.303 336.019 180.785C335.807 180.266 335.704 179.709 335.716 179.149Z" fill="#263238"/>
<path d="M350.61 182.217V183.225H344.738V175.127H350.445V176.135H345.865V178.617H349.941V179.607H345.883V182.217H350.61Z" fill="#263238"/>
<path d="M245.838 191.533L243.676 197.945H242.714L240.937 192.834L239.169 197.981H238.189L236.036 191.569H236.952L238.693 196.818L240.525 191.569H241.377L243.154 196.846L244.931 191.569L245.838 191.533Z" fill="#E0E0E0"/>
<path d="M250.857 195.838H246.891C246.95 196.257 247.167 196.638 247.497 196.904C247.827 197.169 248.246 197.299 248.668 197.267C248.93 197.275 249.191 197.227 249.433 197.126C249.674 197.025 249.892 196.873 250.07 196.681L250.564 197.249C250.319 197.513 250.019 197.72 249.685 197.856C249.351 197.993 248.992 198.054 248.631 198.036C248.292 198.062 247.95 198.016 247.63 197.902C247.309 197.788 247.015 197.607 246.768 197.372C246.521 197.138 246.327 196.854 246.196 196.539C246.066 196.224 246.003 195.885 246.012 195.545C245.998 195.218 246.051 194.892 246.169 194.586C246.286 194.28 246.465 194.002 246.694 193.769C246.924 193.535 247.198 193.351 247.502 193.228C247.805 193.105 248.13 193.046 248.457 193.053C248.786 193.045 249.113 193.105 249.416 193.23C249.72 193.355 249.995 193.542 250.222 193.779C250.45 194.016 250.626 194.298 250.738 194.607C250.851 194.916 250.897 195.245 250.876 195.572C250.876 195.637 250.867 195.756 250.857 195.838ZM246.891 195.206H250.024C249.982 194.82 249.799 194.463 249.51 194.203C249.221 193.944 248.846 193.8 248.457 193.8C248.069 193.8 247.694 193.944 247.405 194.203C247.116 194.463 246.933 194.82 246.891 195.206Z" fill="#E0E0E0"/>
<path d="M252.103 191.148H253.019V197.981H252.103V191.148Z" fill="#E0E0E0"/>
<path d="M254.219 195.545C254.212 195.208 254.275 194.873 254.404 194.562C254.532 194.25 254.724 193.969 254.966 193.735C255.209 193.501 255.497 193.32 255.813 193.202C256.129 193.085 256.466 193.034 256.802 193.053C257.197 193.032 257.59 193.117 257.94 193.301C258.29 193.485 258.584 193.76 258.79 194.098L258.112 194.528C257.971 194.308 257.776 194.128 257.544 194.006C257.313 193.884 257.054 193.824 256.793 193.832C256.359 193.864 255.953 194.058 255.657 194.377C255.361 194.696 255.197 195.114 255.197 195.549C255.197 195.984 255.361 196.403 255.657 196.722C255.953 197.041 256.359 197.235 256.793 197.267C257.054 197.275 257.313 197.215 257.544 197.093C257.776 196.971 257.971 196.791 258.112 196.571L258.79 196.992C258.584 197.329 258.29 197.605 257.94 197.788C257.59 197.972 257.197 198.058 256.802 198.036C256.466 198.055 256.129 198.005 255.813 197.887C255.497 197.77 255.209 197.589 254.966 197.355C254.724 197.121 254.532 196.839 254.404 196.528C254.275 196.216 254.212 195.882 254.219 195.545Z" fill="#E0E0E0"/>
<path d="M259.404 195.545C259.395 195.042 259.535 194.547 259.808 194.124C260.081 193.701 260.473 193.369 260.936 193.169C261.398 192.97 261.909 192.913 262.404 193.004C262.899 193.096 263.355 193.333 263.715 193.685C264.075 194.038 264.322 194.489 264.424 194.981C264.527 195.474 264.481 195.986 264.292 196.453C264.103 196.919 263.779 197.319 263.362 197.601C262.945 197.883 262.453 198.034 261.95 198.036C261.616 198.052 261.283 197.998 260.971 197.879C260.659 197.76 260.374 197.578 260.135 197.344C259.897 197.11 259.708 196.83 259.583 196.52C259.457 196.211 259.396 195.879 259.404 195.545ZM263.59 195.545C263.575 195.222 263.466 194.91 263.276 194.649C263.086 194.387 262.823 194.187 262.521 194.074C262.218 193.961 261.888 193.939 261.573 194.011C261.258 194.084 260.971 194.247 260.748 194.481C260.526 194.715 260.376 195.01 260.319 195.328C260.263 195.646 260.301 195.974 260.429 196.271C260.557 196.568 260.769 196.821 261.04 196.998C261.31 197.175 261.627 197.268 261.95 197.267C262.174 197.273 262.397 197.231 262.604 197.146C262.811 197.06 262.998 196.932 263.152 196.77C263.307 196.608 263.425 196.415 263.501 196.204C263.576 195.993 263.606 195.768 263.59 195.545Z" fill="#E0E0E0"/>
<path d="M273.812 195.178V197.981H272.896V195.279C272.896 194.317 272.429 193.85 271.632 193.85C270.835 193.85 270.167 194.409 270.167 195.472V197.981H269.251V195.279C269.251 194.317 268.784 193.85 267.987 193.85C267.19 193.85 266.521 194.409 266.521 195.472V197.981H265.605V193.099H266.585V193.832C266.781 193.575 267.038 193.369 267.331 193.234C267.625 193.098 267.947 193.036 268.271 193.053C268.61 193.034 268.949 193.109 269.248 193.271C269.547 193.432 269.796 193.674 269.965 193.969C270.178 193.673 270.461 193.435 270.789 193.275C271.116 193.115 271.479 193.039 271.843 193.053C272.122 193.029 272.402 193.068 272.663 193.168C272.924 193.269 273.159 193.428 273.349 193.633C273.539 193.838 273.68 194.084 273.76 194.352C273.84 194.62 273.858 194.903 273.812 195.178Z" fill="#E0E0E0"/>
<path d="M279.867 195.838H275.91C275.965 196.258 276.179 196.64 276.508 196.906C276.837 197.172 277.256 197.301 277.678 197.267C277.941 197.277 278.204 197.229 278.447 197.128C278.691 197.027 278.909 196.874 279.088 196.681L279.574 197.249C279.214 197.622 278.753 197.882 278.247 197.997C277.741 198.112 277.212 198.077 276.726 197.896C276.24 197.716 275.817 197.397 275.509 196.979C275.202 196.561 275.023 196.063 274.994 195.545C274.981 195.217 275.036 194.891 275.154 194.585C275.273 194.28 275.453 194.002 275.683 193.768C275.913 193.535 276.188 193.351 276.492 193.228C276.795 193.105 277.121 193.046 277.449 193.053C277.777 193.045 278.103 193.105 278.407 193.23C278.71 193.355 278.984 193.542 279.211 193.78C279.438 194.017 279.613 194.299 279.724 194.608C279.835 194.916 279.881 195.245 279.858 195.572C279.885 195.637 279.876 195.756 279.867 195.838ZM275.91 195.206H279.043C279.001 194.82 278.818 194.463 278.529 194.203C278.24 193.944 277.865 193.8 277.476 193.8C277.088 193.8 276.713 193.944 276.424 194.203C276.135 194.463 275.952 194.82 275.91 195.206Z" fill="#E0E0E0"/>
<path d="M280.911 197.469C280.911 197.39 280.927 197.312 280.958 197.24C280.988 197.168 281.033 197.102 281.089 197.047C281.146 196.993 281.213 196.95 281.286 196.922C281.359 196.893 281.437 196.88 281.516 196.882C281.671 196.882 281.82 196.944 281.93 197.054C282.04 197.164 282.102 197.313 282.102 197.469C282.102 197.624 282.04 197.773 281.93 197.883C281.82 197.993 281.671 198.055 281.516 198.055C281.437 198.057 281.359 198.044 281.286 198.016C281.213 197.987 281.146 197.944 281.089 197.89C281.033 197.835 280.988 197.77 280.958 197.697C280.927 197.625 280.911 197.547 280.911 197.469ZM280.994 191.551H282.038L281.864 195.966H281.159L280.994 191.551Z" fill="#E0E0E0"/>
<path d="M363.425 148.82H362.344C361.671 148.82 361.125 149.365 361.125 150.038V416.512C361.125 417.184 361.671 417.73 362.344 417.73H363.425C364.097 417.73 364.643 417.184 364.643 416.512V150.038C364.643 149.365 364.097 148.82 363.425 148.82Z" fill="#E0E0E0"/>
<path d="M363.425 148.82H362.344C361.671 148.82 361.125 149.365 361.125 150.038V286.238C361.125 286.911 361.671 287.456 362.344 287.456H363.425C364.097 287.456 364.643 286.911 364.643 286.238V150.038C364.643 149.365 364.097 148.82 363.425 148.82Z" fill="#0012ED"/>
<path d="M203.152 229.089V235.501H202.236V229.895H200.78V229.089H203.152Z" fill="#263238"/>
<path d="M204.544 234.96C204.546 234.838 204.584 234.718 204.654 234.617C204.723 234.516 204.821 234.437 204.935 234.392C205.049 234.346 205.174 234.335 205.294 234.36C205.415 234.385 205.525 234.445 205.611 234.532C205.697 234.62 205.755 234.731 205.779 234.851C205.802 234.972 205.789 235.097 205.742 235.21C205.694 235.323 205.615 235.42 205.512 235.488C205.41 235.556 205.29 235.592 205.167 235.592C205.084 235.594 205.002 235.578 204.925 235.547C204.849 235.515 204.779 235.469 204.721 235.41C204.663 235.351 204.617 235.28 204.587 235.203C204.556 235.126 204.542 235.043 204.544 234.96Z" fill="#263238"/>
<path d="M210.938 229.895H208.721V229.089H214.062V229.895H211.845V235.538H210.929L210.938 229.895Z" fill="#263238"/>
<path d="M218.825 233.394H214.859C214.916 233.813 215.131 234.194 215.459 234.459C215.788 234.725 216.205 234.855 216.626 234.823C216.891 234.831 217.153 234.783 217.397 234.68C217.64 234.577 217.859 234.423 218.037 234.228L218.523 234.805C218.164 235.182 217.703 235.446 217.196 235.564C216.688 235.681 216.158 235.647 215.67 235.466C215.182 235.284 214.758 234.963 214.451 234.543C214.144 234.122 213.967 233.621 213.943 233.101C213.929 232.774 213.982 232.448 214.1 232.142C214.217 231.836 214.396 231.558 214.625 231.325C214.854 231.091 215.129 230.907 215.432 230.784C215.736 230.661 216.061 230.602 216.388 230.609C216.717 230.601 217.043 230.661 217.347 230.786C217.651 230.911 217.926 231.098 218.153 231.335C218.381 231.572 218.556 231.854 218.669 232.163C218.781 232.472 218.828 232.801 218.807 233.128C218.843 233.193 218.834 233.312 218.825 233.394ZM214.859 232.753H218.037C217.995 232.367 217.812 232.009 217.523 231.75C217.234 231.491 216.859 231.347 216.471 231.347C216.082 231.347 215.707 231.491 215.418 231.75C215.129 232.009 214.946 232.367 214.904 232.753H214.859Z" fill="#263238"/>
<path d="M222.69 230.609V231.47H222.489C222.273 231.456 222.058 231.49 221.857 231.57C221.656 231.649 221.476 231.772 221.329 231.93C221.181 232.088 221.071 232.276 221.005 232.482C220.94 232.688 220.921 232.905 220.95 233.119V235.547H220.034V230.664H220.877V231.489C221.06 231.181 221.329 230.933 221.652 230.777C221.974 230.621 222.335 230.563 222.69 230.609Z" fill="#263238"/>
<path d="M231.887 232.725V235.537H230.971V232.789C230.971 231.873 230.513 231.37 229.707 231.37C228.901 231.37 228.251 231.928 228.251 232.991V235.501H227.335V232.753C227.335 231.837 226.877 231.333 226.07 231.333C225.862 231.324 225.654 231.361 225.462 231.442C225.269 231.523 225.097 231.645 224.957 231.799C224.817 231.954 224.713 232.138 224.652 232.338C224.591 232.537 224.575 232.748 224.605 232.954V235.464H223.689V230.582H224.532V231.315C224.727 231.057 224.983 230.851 225.277 230.715C225.571 230.58 225.894 230.518 226.217 230.536C226.557 230.516 226.895 230.592 227.194 230.753C227.494 230.915 227.742 231.157 227.912 231.452C228.125 231.155 228.41 230.916 228.739 230.756C229.069 230.596 229.433 230.52 229.799 230.536C230.093 230.488 230.394 230.512 230.677 230.607C230.96 230.701 231.215 230.864 231.421 231.079C231.627 231.295 231.777 231.558 231.858 231.845C231.939 232.131 231.949 232.434 231.887 232.725Z" fill="#263238"/>
<path d="M205.68 334.795V335.592H201.1V334.969L203.72 332.432C204.407 331.772 204.535 331.369 204.535 330.957C204.535 330.298 204.059 329.895 203.161 329.895C202.851 329.877 202.542 329.93 202.256 330.051C201.97 330.171 201.716 330.356 201.512 330.591L200.88 330.05C201.177 329.722 201.543 329.463 201.951 329.293C202.36 329.124 202.802 329.048 203.244 329.07C204.59 329.07 205.451 329.766 205.451 330.902C205.441 331.298 205.341 331.685 205.158 332.036C204.976 332.387 204.716 332.691 204.398 332.927L202.419 334.832L205.68 334.795Z" fill="#263238"/>
<path d="M206.514 335.015C206.511 334.932 206.526 334.85 206.556 334.772C206.586 334.695 206.632 334.625 206.69 334.566C206.748 334.507 206.818 334.46 206.895 334.429C206.971 334.397 207.054 334.382 207.137 334.383C207.304 334.383 207.465 334.45 207.584 334.568C207.702 334.687 207.769 334.847 207.769 335.015C207.769 335.183 207.702 335.343 207.584 335.462C207.465 335.581 207.304 335.647 207.137 335.647C207.054 335.647 206.972 335.631 206.896 335.599C206.82 335.567 206.751 335.52 206.693 335.461C206.635 335.403 206.589 335.333 206.559 335.256C206.528 335.18 206.513 335.098 206.514 335.015Z" fill="#263238"/>
<path d="M211.625 329.144H212.541V334.795H216.031V335.592H211.625V329.144Z" fill="#263238"/>
<path d="M216.819 329.198C216.819 329.121 216.834 329.045 216.864 328.973C216.895 328.902 216.939 328.838 216.994 328.784C217.05 328.73 217.116 328.688 217.188 328.66C217.26 328.632 217.337 328.619 217.414 328.621C217.528 328.625 217.637 328.662 217.73 328.727C217.822 328.793 217.893 328.884 217.934 328.99C217.975 329.096 217.984 329.211 217.96 329.322C217.935 329.433 217.879 329.534 217.798 329.613C217.716 329.691 217.613 329.745 217.502 329.765C217.391 329.786 217.275 329.774 217.171 329.73C217.067 329.685 216.978 329.612 216.915 329.517C216.852 329.423 216.819 329.312 216.819 329.198ZM216.975 330.71H217.891V335.592H216.975V330.71Z" fill="#263238"/>
<path d="M219.091 333.156C219.084 332.819 219.146 332.486 219.274 332.175C219.402 331.864 219.593 331.583 219.835 331.349C220.076 331.115 220.363 330.934 220.678 330.816C220.993 330.698 221.329 330.646 221.664 330.664C222.061 330.64 222.456 330.724 222.808 330.908C223.16 331.092 223.455 331.369 223.661 331.708L222.984 332.139C222.843 331.919 222.647 331.739 222.416 331.617C222.185 331.495 221.926 331.435 221.664 331.443C221.231 331.474 220.825 331.669 220.529 331.988C220.233 332.306 220.068 332.725 220.068 333.16C220.068 333.595 220.233 334.014 220.529 334.333C220.825 334.651 221.231 334.846 221.664 334.878C221.926 334.884 222.186 334.822 222.417 334.698C222.648 334.575 222.843 334.394 222.984 334.172L223.661 334.594C223.456 334.934 223.161 335.212 222.809 335.398C222.457 335.583 222.062 335.669 221.664 335.647C221.329 335.665 220.993 335.613 220.678 335.495C220.363 335.377 220.076 335.196 219.835 334.962C219.593 334.728 219.402 334.447 219.274 334.136C219.146 333.825 219.084 333.492 219.091 333.156Z" fill="#263238"/>
<path d="M229.121 333.449H225.164C225.221 333.867 225.435 334.248 225.764 334.514C226.093 334.779 226.51 334.91 226.931 334.878C227.196 334.886 227.458 334.837 227.702 334.734C227.945 334.632 228.164 334.477 228.342 334.282L228.828 334.859C228.467 335.233 228.006 335.493 227.5 335.608C226.994 335.723 226.466 335.688 225.98 335.507C225.493 335.326 225.071 335.007 224.763 334.59C224.455 334.172 224.276 333.674 224.248 333.156C224.235 332.828 224.29 332.502 224.408 332.196C224.526 331.89 224.706 331.612 224.936 331.379C225.166 331.146 225.442 330.962 225.745 330.839C226.049 330.716 226.375 330.656 226.702 330.664C227.031 330.656 227.357 330.716 227.66 330.841C227.964 330.966 228.238 331.153 228.465 331.39C228.691 331.628 228.866 331.91 228.978 332.218C229.089 332.527 229.135 332.856 229.112 333.183C229.139 333.256 229.13 333.366 229.121 333.449ZM225.164 332.808H228.296C228.254 332.421 228.071 332.064 227.782 331.805C227.493 331.545 227.118 331.402 226.73 331.402C226.341 331.402 225.967 331.545 225.678 331.805C225.388 332.064 225.205 332.421 225.164 332.808Z" fill="#263238"/>
<path d="M235.001 332.78V335.592H234.085V332.844C234.085 331.928 233.609 331.424 232.776 331.424C232.562 331.408 232.347 331.439 232.146 331.516C231.946 331.592 231.765 331.713 231.617 331.868C231.469 332.023 231.357 332.209 231.29 332.413C231.222 332.617 231.201 332.833 231.228 333.046V335.555H230.312V330.673H231.163V331.406C231.373 331.145 231.642 330.938 231.948 330.802C232.254 330.667 232.588 330.607 232.922 330.627C233.21 330.595 233.501 330.629 233.773 330.726C234.045 330.824 234.291 330.983 234.492 331.191C234.693 331.399 234.844 331.651 234.932 331.926C235.02 332.202 235.044 332.494 235.001 332.78Z" fill="#263238"/>
<path d="M236.22 333.156C236.212 332.819 236.273 332.485 236.401 332.173C236.528 331.862 236.719 331.58 236.961 331.346C237.203 331.112 237.49 330.93 237.806 330.813C238.121 330.696 238.458 330.645 238.794 330.664C239.19 330.64 239.586 330.724 239.937 330.908C240.289 331.092 240.584 331.369 240.791 331.708L240.113 332.139C239.97 331.918 239.773 331.738 239.54 331.616C239.308 331.494 239.047 331.434 238.784 331.443C238.351 331.474 237.945 331.669 237.649 331.988C237.353 332.306 237.188 332.725 237.188 333.16C237.188 333.595 237.353 334.014 237.649 334.333C237.945 334.651 238.351 334.846 238.784 334.878C239.048 334.884 239.309 334.823 239.541 334.699C239.774 334.576 239.971 334.394 240.113 334.172L240.791 334.594C240.585 334.934 240.29 335.212 239.938 335.398C239.587 335.583 239.191 335.669 238.794 335.647C238.458 335.665 238.122 335.613 237.807 335.495C237.493 335.377 237.205 335.196 236.964 334.962C236.722 334.728 236.532 334.447 236.404 334.136C236.276 333.825 236.213 333.492 236.22 333.156Z" fill="#263238"/>
<path d="M246.25 333.449H242.293C242.35 333.867 242.565 334.248 242.893 334.514C243.222 334.779 243.639 334.91 244.061 334.878C244.325 334.886 244.588 334.837 244.831 334.734C245.075 334.632 245.293 334.477 245.471 334.282L245.957 334.859C245.597 335.233 245.135 335.493 244.629 335.608C244.124 335.723 243.595 335.688 243.109 335.507C242.623 335.326 242.2 335.007 241.892 334.59C241.584 334.172 241.405 333.674 241.377 333.156C241.364 332.828 241.419 332.502 241.537 332.196C241.656 331.89 241.835 331.612 242.065 331.379C242.295 331.146 242.571 330.962 242.875 330.839C243.178 330.716 243.504 330.656 243.832 330.664C244.16 330.656 244.486 330.716 244.789 330.841C245.093 330.966 245.367 331.153 245.594 331.39C245.821 331.628 245.995 331.91 246.107 332.218C246.218 332.527 246.264 332.856 246.241 333.183C246.268 333.256 246.259 333.366 246.25 333.449ZM242.293 332.808H245.425C245.384 332.421 245.201 332.064 244.912 331.805C244.622 331.545 244.248 331.402 243.859 331.402C243.471 331.402 243.096 331.545 242.807 331.805C242.518 332.064 242.335 332.421 242.293 332.808Z" fill="#263238"/>
<path d="M341.908 250.038C341.908 250.175 310.297 250.276 271.312 250.276C232.327 250.276 200.706 250.175 200.706 250.038C200.706 249.9 232.318 249.8 271.312 249.8C310.306 249.8 341.908 249.909 341.908 250.038Z" fill="#263238"/>
<path d="M341.908 260.727C341.908 260.856 310.297 260.966 271.312 260.966C232.327 260.966 200.706 260.856 200.706 260.727C200.706 260.599 232.318 260.489 271.312 260.489C310.306 260.489 341.908 260.59 341.908 260.727Z" fill="#263238"/>
<path d="M341.908 271.408C341.908 271.545 310.297 271.646 271.312 271.646C232.327 271.646 200.706 271.545 200.706 271.408C200.706 271.271 232.318 271.17 271.312 271.17C310.306 271.17 341.908 271.28 341.908 271.408Z" fill="#263238"/>
<path d="M341.908 282.098C341.908 282.226 310.297 282.336 271.312 282.336C232.327 282.336 200.706 282.226 200.706 282.098C200.706 281.97 232.318 281.86 271.312 281.86C310.306 281.86 341.908 281.96 341.908 282.098Z" fill="#263238"/>
<path d="M341.908 292.778C341.908 292.916 310.297 293.016 271.312 293.016C232.327 293.016 200.706 292.916 200.706 292.778C200.706 292.641 232.318 292.54 271.312 292.54C310.306 292.54 341.908 292.65 341.908 292.778Z" fill="#263238"/>
<path d="M341.908 303.468C341.908 303.596 310.297 303.706 271.312 303.706C232.327 303.706 200.706 303.596 200.706 303.468C200.706 303.34 232.318 303.23 271.312 303.23C310.306 303.23 341.908 303.331 341.908 303.468Z" fill="#263238"/>
<path d="M341.908 344.028C341.908 344.157 310.297 344.267 271.312 344.267C232.327 344.267 200.706 344.157 200.706 344.028C200.706 343.9 232.318 343.79 271.312 343.79C310.306 343.79 341.908 343.919 341.908 344.028Z" fill="#263238"/>
<path d="M341.908 353.188C341.908 353.326 310.297 353.427 271.312 353.427C232.327 353.427 200.706 353.326 200.706 353.188C200.706 353.051 232.318 352.95 271.312 352.95C310.306 352.95 341.908 353.06 341.908 353.188Z" fill="#E0E0E0"/>
<path d="M341.908 362.349C341.908 362.477 310.297 362.587 271.312 362.587C232.327 362.587 200.706 362.477 200.706 362.349C200.706 362.22 232.318 362.11 271.312 362.11C310.306 362.11 341.908 362.202 341.908 362.349Z" fill="#EBEBEB"/>
<path d="M378.612 410.768L389.274 405.639L383.412 388.308L370.533 385.331C369.333 385.056 367.995 384.736 366.512 384.323C364.766 383.837 363.116 383.059 361.629 382.024C359.735 380.821 358.015 379.363 356.518 377.692C355.3 376.034 352.717 376.656 352.717 378.498C352.717 380.339 355.968 384.983 361.748 388.271C367.528 391.56 357.306 393.144 353.605 393.767C349.904 394.39 338.528 396.946 337.85 398.237C336.861 400.124 338.766 401.572 342.43 400.848C346.094 400.124 357.352 398.695 357.645 400.656V400.711C356.741 402.124 356.302 403.785 356.389 405.46C356.476 407.135 357.085 408.742 358.13 410.054C360.2 412.646 363.306 415.898 365.586 415.403C369.873 414.496 378.612 410.768 378.612 410.768Z" fill="#B78876"/>
<path d="M377.962 380.275L387.955 414.066L465.549 390.488C469.51 389.278 473.19 387.29 476.373 384.641C479.557 381.991 482.179 378.733 484.088 375.058C485.997 371.382 487.154 367.363 487.491 363.235C487.827 359.107 487.338 354.954 486.05 351.018L467.024 291.817L425.703 302.076L448.384 356.853L377.962 380.275Z" fill="#0012ED"/>
<path d="M467.299 389.893L466.923 390.03L465.806 390.387L461.464 391.734L445.205 396.717L388.725 413.855L388.514 413.91L388.441 413.709C384.987 403.376 381.635 392.018 377.76 380.348L377.687 380.128L377.916 380.046L379.867 379.404L448.347 356.66L448.237 356.907C442.741 343.625 438.289 332.743 435.175 325.159C433.636 321.385 432.427 318.435 431.603 316.411C431.209 315.413 430.897 314.643 430.687 314.112C430.476 313.581 430.393 313.324 430.393 313.324C430.393 313.324 430.522 313.581 430.741 314.094L431.712 316.365C432.555 318.381 433.792 321.321 435.376 325.076C438.527 332.643 443.053 343.506 448.585 356.77L448.658 356.953L448.466 357.017L379.986 379.853L378.035 380.504L378.181 380.201C382.065 391.88 385.399 403.239 388.844 413.562L388.569 413.416L445.095 396.451L461.418 391.587L465.778 390.314L466.914 389.993L467.299 389.893Z" fill="#263238"/>
<path d="M462.728 366.7C462.655 366.7 462.142 365.848 461.107 364.556C458.389 361.181 454.693 358.73 450.527 357.54C448.933 357.082 447.907 356.953 447.916 356.871C448.159 356.827 448.407 356.827 448.649 356.871C449.31 356.932 449.965 357.043 450.609 357.201C452.749 357.719 454.782 358.605 456.618 359.82C458.456 361.035 460.065 362.564 461.372 364.336C461.769 364.87 462.124 365.434 462.435 366.022C462.573 366.228 462.672 366.458 462.728 366.7Z" fill="#263238"/>
<path d="M443.923 304.952C443.682 303.293 443.602 301.615 443.685 299.941C443.602 298.267 443.682 296.589 443.923 294.931C444.24 298.264 444.24 301.619 443.923 304.952Z" fill="#FAFAFA"/>
<path d="M459.504 305.749C458.791 304.206 458.227 302.599 457.818 300.949C457.255 299.346 456.844 297.692 456.591 296.012C457.865 299.159 458.84 302.419 459.504 305.749Z" fill="#FAFAFA"/>
<path d="M449.84 319.809C446.632 319.785 443.494 318.865 440.781 317.153C440.845 317.025 442.759 317.932 445.26 318.655C447.761 319.379 449.849 319.672 449.84 319.809Z" fill="#FAFAFA"/>
<path d="M467.464 327.541C467.5 325.931 467.697 324.329 468.05 322.759C468.246 321.159 468.599 319.582 469.104 318.051C469.062 319.663 468.866 321.267 468.517 322.841C468.324 324.439 467.971 326.013 467.464 327.541Z" fill="#FAFAFA"/>
<path d="M461.162 340.163C459.5 337.306 458.123 334.293 457.049 331.168C458.705 334.028 460.082 337.04 461.162 340.163Z" fill="#FAFAFA"/>
<path d="M458.579 351.21C457.07 350.748 455.612 350.135 454.228 349.378C452.776 348.765 451.392 348.004 450.097 347.106C451.599 347.578 453.052 348.192 454.438 348.938C455.892 349.553 457.28 350.314 458.579 351.21Z" fill="#FAFAFA"/>
<path d="M478.401 348.27C477.907 349.706 477.322 351.111 476.651 352.474C476.128 353.897 475.516 355.286 474.819 356.633C475.472 353.643 476.687 350.805 478.401 348.27Z" fill="#FAFAFA"/>
<path d="M472.887 374.879C472.225 371.49 471.885 368.046 471.87 364.593C472.268 366.274 472.517 367.988 472.612 369.713C472.86 371.423 472.952 373.153 472.887 374.879Z" fill="#FAFAFA"/>
<path d="M458.89 383.279C457.568 382.4 456.34 381.387 455.226 380.256C454.011 379.246 452.901 378.117 451.91 376.885C453.232 377.765 454.46 378.778 455.574 379.908C456.789 380.919 457.9 382.048 458.89 383.279Z" fill="#FAFAFA"/>
<path d="M434.708 385.688C432.975 388.596 430.969 391.332 428.717 393.859C429.513 392.364 430.451 390.95 431.52 389.636C432.457 388.223 433.524 386.901 434.708 385.688Z" fill="#FAFAFA"/>
<path d="M442.375 374.357C440.984 373.459 439.734 372.36 438.665 371.096C437.481 369.942 436.481 368.613 435.697 367.158C435.807 367.075 437.172 368.797 439.013 370.776C440.854 372.754 442.457 374.256 442.375 374.357Z" fill="#FAFAFA"/>
<path d="M424.137 376.931C422.976 377.399 421.713 377.554 420.473 377.38C419.225 377.364 418.002 377.03 416.919 376.409C416.974 376.272 418.522 376.766 420.501 376.904C422.479 377.041 424.137 376.794 424.137 376.931Z" fill="#FAFAFA"/>
<path d="M412.586 396.973C412.129 395.7 411.822 394.379 411.67 393.034C411.361 391.717 411.21 390.367 411.222 389.013C411.987 391.604 412.445 394.276 412.586 396.973Z" fill="#FAFAFA"/>
<path d="M398.956 403.88C395.796 402.265 392.789 400.367 389.97 398.21C391.588 398.95 393.136 399.833 394.596 400.848C396.135 401.729 397.594 402.744 398.956 403.88Z" fill="#FAFAFA"/>
<path d="M403.82 379.496C403.921 379.588 402.593 381.163 401.118 383.215C399.643 385.267 398.544 387.016 398.425 386.952C398.978 385.501 399.754 384.144 400.724 382.931C401.568 381.629 402.613 380.47 403.82 379.496Z" fill="#FAFAFA"/>
<path d="M393.286 384.122C392.339 383.913 391.433 383.551 390.602 383.05C389.706 382.69 388.876 382.182 388.147 381.548C389.992 382.114 391.728 382.984 393.286 384.122Z" fill="#FAFAFA"/>
<g opacity="0.2">
<path opacity="0.2" d="M447.733 355.451C451.874 355.872 456.023 356.303 460.154 356.825C461.595 356.93 463.014 357.238 464.368 357.741C465.041 358.003 465.654 358.399 466.17 358.904C466.687 359.41 467.096 360.014 467.372 360.681C467.631 361.358 467.659 362.101 467.452 362.795C467.244 363.489 466.814 364.095 466.227 364.519C465.641 364.82 464.986 364.963 464.328 364.934C463.669 364.905 463.03 364.705 462.472 364.355C461.363 363.649 460.326 362.836 459.376 361.927C457.513 360.386 455.347 359.253 453.019 358.602C451.958 358.4 450.933 358.042 449.977 357.54C449.5 357.274 449.117 356.867 448.881 356.375C448.645 355.883 448.567 355.33 448.658 354.792" fill="black"/>
</g>
<defs>
<linearGradient id="paint0_linear" x1="409.134" y1="104.508" x2="113.589" y2="490.397" gradientUnits="userSpaceOnUse">
<stop stop-color="#FCA104"/>
<stop offset="0.893144" stop-color="#7D2DBC" stop-opacity="0.803508"/>
<stop offset="1" stop-color="#3920D2" stop-opacity="0.78"/>
</linearGradient>
<linearGradient id="paint1_linear" x1="145.807" y1="187.595" x2="145.807" y2="372.441" gradientUnits="userSpaceOnUse">
<stop stop-color="#00FF57"/>
<stop offset="1" stop-color="#004F1B"/>
</linearGradient>
<linearGradient id="paint2_linear" x1="145.809" y1="297.207" x2="145.809" y2="418.838" gradientUnits="userSpaceOnUse">
<stop stop-color="#0CFF1F"/>
<stop offset="1" stop-color="#004A19"/>
</linearGradient>
</defs>
</svg>
