<svg width="25" height="25" viewBox="0 0 40 40" fill="none" xmlns="http://www.w3.org/2000/svg">
<path d="M5.06613 31.2011L5.51334 31.4247L5.65166 31.148L5.46589 30.9008L5.06613 31.2011ZM8.79892 34.9339L9.09923 34.5341L8.85195 34.3483L8.57531 34.4866L8.79892 34.9339ZM1.33334 38.6666L0.88613 38.443C0.789883 38.6355 0.82761 38.868 0.97979 39.0202C1.13197 39.1724 1.36446 39.2101 1.55695 39.1139L1.33334 38.6666ZM12 12L11.7227 11.584C11.5836 11.6767 11.5 11.8328 11.5 12H12ZM28 28V28.5C28.1672 28.5 28.3233 28.4164 28.416 28.2773L28 28ZM16.678 13.4014L17.1712 13.3192L16.678 13.4014ZM17.0499 15.6325L16.5567 15.7147L17.0499 15.6325ZM15.8987 18.2897L16.176 18.7058L15.8987 18.2897ZM26.5986 23.322L26.6808 22.8288L26.5986 23.322ZM24.3674 22.9501L24.2852 23.4433L24.3674 22.9501ZM21.7102 24.1013L21.2942 23.8239L21.7102 24.1013ZM0.833344 20C0.833344 24.3147 2.25968 28.2978 4.66637 31.5014L5.46589 30.9008C3.18484 27.8644 1.83334 24.0907 1.83334 20H0.833344ZM20 0.833313C9.41455 0.833313 0.833344 9.41452 0.833344 20H1.83334C1.83334 9.96681 9.96684 1.83331 20 1.83331V0.833313ZM39.1667 20C39.1667 9.41452 30.5855 0.833313 20 0.833313V1.83331C30.0332 1.83331 38.1667 9.96681 38.1667 20H39.1667ZM20 39.1666C30.5855 39.1666 39.1667 30.5854 39.1667 20H38.1667C38.1667 30.0332 30.0332 38.1666 20 38.1666V39.1666ZM8.4986 35.3336C11.7022 37.7403 15.6853 39.1666 20 39.1666V38.1666C15.9093 38.1666 12.1356 36.8151 9.09923 34.5341L8.4986 35.3336ZM1.55695 39.1139L9.02252 35.3811L8.57531 34.4866L1.10974 38.2194L1.55695 39.1139ZM4.61892 30.9775L0.88613 38.443L1.78056 38.8903L5.51334 31.4247L4.61892 30.9775ZM11.5 12V14.6666H12.5V12H11.5ZM25.3333 28.5H28V27.5H25.3333V28.5ZM11.5 14.6666C11.5 22.3066 17.6934 28.5 25.3333 28.5V27.5C18.2457 27.5 12.5 21.7543 12.5 14.6666H11.5ZM12.2774 12.416L12.8458 12.037L12.2911 11.205L11.7227 11.584L12.2774 12.416ZM16.1848 13.4836L16.5567 15.7147L17.5431 15.5503L17.1712 13.3192L16.1848 13.4836ZM15.6213 17.8737L13.056 19.584L13.6107 20.416L16.176 18.7058L15.6213 17.8737ZM16.5567 15.7147C16.6969 16.5557 16.3308 17.4008 15.6213 17.8737L16.176 18.7058C17.2129 18.0145 17.7479 16.7795 17.5431 15.5503L16.5567 15.7147ZM12.8458 12.037C14.154 11.1649 15.9264 11.9328 16.1848 13.4836L17.1712 13.3192C16.7934 11.0526 14.2031 9.93034 12.2911 11.205L12.8458 12.037ZM28.416 28.2773L28.795 27.7089L27.9629 27.1542L27.584 27.7226L28.416 28.2773ZM26.6808 22.8288L24.4496 22.4569L24.2852 23.4433L26.5164 23.8152L26.6808 22.8288ZM21.2942 23.8239L19.584 26.3893L20.416 26.944L22.1263 24.3786L21.2942 23.8239ZM24.4496 22.4569C23.2205 22.2521 21.9854 22.7871 21.2942 23.8239L22.1263 24.3786C22.5992 23.6692 23.4442 23.3031 24.2852 23.4433L24.4496 22.4569ZM28.795 27.7089C30.0696 25.7969 28.9474 23.2065 26.6808 22.8288L26.5164 23.8152C28.0672 24.0736 28.8351 25.846 27.9629 27.1542L28.795 27.7089Z" fill="white"/>
</svg>
