<svg width="40" height="40" viewBox="0 0 40 40" fill="none" xmlns="http://www.w3.org/2000/svg">
<g filter="url(#filter0_d)">
<path d="M8.05291 24.9609L8.50012 25.1845L8.63844 24.9079L8.45267 24.6606L8.05291 24.9609ZM11.0391 27.9471L11.3395 27.5474L11.0922 27.3616L10.8155 27.4999L11.0391 27.9471ZM5.06668 30.9333L4.61947 30.7097C4.52322 30.9022 4.56095 31.1347 4.71313 31.2869C4.86531 31.4391 5.09779 31.4768 5.29029 31.3806L5.06668 30.9333ZM13.6 9.60001L13.3227 9.18399C13.1836 9.27672 13.1 9.43284 13.1 9.60001H13.6ZM26.4 22.4V22.9C26.5672 22.9 26.7233 22.8165 26.816 22.6774L26.4 22.4ZM17.3424 10.7212L17.8356 10.639L17.3424 10.7212ZM17.6399 12.5061L17.1467 12.5883L17.6399 12.5061ZM16.719 14.6318L16.9963 15.0478L16.719 14.6318ZM26.7032 21.9453L27.1192 22.2226L26.7032 21.9453ZM25.2789 18.6576L25.3611 18.1644L25.2789 18.6576ZM23.494 18.3601L23.4118 18.8533H23.4118L23.494 18.3601ZM21.3682 19.2811L20.9522 19.0037L21.3682 19.2811ZM4.56668 16C4.56668 19.4742 5.71524 22.6816 7.65315 25.2612L8.45267 24.6606C6.64039 22.2482 5.56668 19.2502 5.56668 16H4.56668ZM20 0.566681C11.4764 0.566681 4.56668 7.47642 4.56668 16H5.56668C5.56668 8.0287 12.0287 1.56668 20 1.56668V0.566681ZM35.4333 16C35.4333 7.47642 28.5236 0.566681 20 0.566681V1.56668C27.9713 1.56668 34.4333 8.0287 34.4333 16H35.4333ZM20 31.4333C28.5236 31.4333 35.4333 24.5236 35.4333 16H34.4333C34.4333 23.9713 27.9713 30.4333 20 30.4333V31.4333ZM10.7388 28.3469C13.3184 30.2848 16.5258 31.4333 20 31.4333V30.4333C16.7498 30.4333 13.7518 29.3596 11.3395 27.5474L10.7388 28.3469ZM5.29029 31.3806L11.2627 28.3943L10.8155 27.4999L4.84307 30.4861L5.29029 31.3806ZM7.6057 24.7373L4.61947 30.7097L5.51389 31.157L8.50012 25.1845L7.6057 24.7373ZM13.1 9.60001V11.7333H14.1V9.60001H13.1ZM24.2667 22.9H26.4V21.9H24.2667V22.9ZM13.1 11.7333C13.1 17.9005 18.0995 22.9 24.2667 22.9V21.9C18.6518 21.9 14.1 17.3482 14.1 11.7333H13.1ZM13.8774 10.016L14.3321 9.71287L13.7774 8.88082L13.3227 9.18399L13.8774 10.016ZM16.8492 10.8034L17.1467 12.5883L18.1331 12.4239L17.8356 10.639L16.8492 10.8034ZM16.4416 14.2158L14.3893 15.584L14.944 16.416L16.9963 15.0478L16.4416 14.2158ZM17.1467 12.5883C17.2524 13.2223 16.9764 13.8593 16.4416 14.2158L16.9963 15.0478C17.8585 14.473 18.3035 13.446 18.1331 12.4239L17.1467 12.5883ZM14.3321 9.71287C15.3183 9.05542 16.6544 9.63426 16.8492 10.8034L17.8356 10.639C17.5215 8.75407 15.3674 7.82085 13.7774 8.88082L14.3321 9.71287ZM26.816 22.6774L27.1192 22.2226L26.2872 21.6679L25.984 22.1227L26.816 22.6774ZM25.3611 18.1644L23.5762 17.8669L23.4118 18.8533L25.1967 19.1508L25.3611 18.1644ZM20.9522 19.0037L19.584 21.056L20.416 21.6107L21.7842 19.5584L20.9522 19.0037ZM23.5762 17.8669C22.554 17.6966 21.527 18.1415 20.9522 19.0037L21.7842 19.5584C22.1408 19.0236 22.7778 18.7476 23.4118 18.8533L23.5762 17.8669ZM27.1192 22.2226C28.1792 20.6327 27.246 18.4785 25.3611 18.1644L25.1967 19.1508C26.3658 19.3456 26.9446 20.6817 26.2872 21.6679L27.1192 22.2226Z" fill="white"/>
</g>
<defs>
<filter id="filter0_d" x="0" y="0" width="40" height="40" filterUnits="userSpaceOnUse" color-interpolation-filters="sRGB">
<feFlood flood-opacity="0" result="BackgroundImageFix"/>
<feColorMatrix in="SourceAlpha" type="matrix" values="0 0 0 0 0 0 0 0 0 0 0 0 0 0 0 0 0 0 127 0"/>
<feOffset dy="4"/>
<feGaussianBlur stdDeviation="2"/>
<feColorMatrix type="matrix" values="0 0 0 0 0 0 0 0 0 0 0 0 0 0 0 0 0 0 0.25 0"/>
<feBlend mode="normal" in2="BackgroundImageFix" result="effect1_dropShadow"/>
<feBlend mode="normal" in="SourceGraphic" in2="effect1_dropShadow" result="shape"/>
</filter>
</defs>
</svg>
