<svg width="206" height="223" viewBox="0 0 206 223" fill="none" xmlns="http://www.w3.org/2000/svg">
<path d="M50.2795 93.8142C6.26507 84.3784 21.0406 138.781 33.9301 167.162C49.609 201.684 92.448 198.736 98.1501 178.008C105.278 152.097 99.6167 168.451 152.401 159.129C205.186 149.807 167.455 47.9286 134.636 28.1096C101.817 8.29057 112.5 50.4623 115.722 74.0445C118.943 97.6267 105.297 105.609 50.2795 93.8142Z" fill="url(#paint0_linear)"/>
<path d="M43.1638 49.1487C43.8471 48.9942 44.5545 48.9793 45.2437 49.105C45.9329 49.2306 46.5895 49.4942 47.1743 49.88C48.3424 50.6577 49.3155 51.6942 50.018 52.909C51.4415 55.2067 51.9225 58.2812 51.968 60.982C48.9683 60.8325 46.443 58.4502 45.2145 57.1632C43.2905 55.1222 41.0805 50.27 43.1638 49.1487Z" fill="#00C041"/>
<path d="M56.7715 62.8377C56.1743 62.3304 55.7221 61.6741 55.4606 60.9355C55.1992 60.1969 55.1379 59.4022 55.283 58.6322C55.4418 57.8662 55.7511 57.1394 56.1929 56.4939C56.6348 55.8485 57.2004 55.2971 57.857 54.872C58.4583 54.4722 59.196 54.1537 59.8883 54.3649C60.2051 54.4833 60.4846 54.6838 60.6983 54.946C60.9119 55.2082 61.0518 55.5225 61.1038 55.8567C61.1945 56.5291 61.1082 57.2136 60.8535 57.8424C60.0735 60.0199 58.923 61.9862 56.7715 62.8377Z" fill="#00C041"/>
<path d="M58.5135 69.3735C58.1783 68.8792 57.8941 68.3522 57.6653 67.8005C57.392 67.2071 57.1912 66.583 57.0673 65.9415C56.8869 65.1687 56.7577 64.3848 56.6805 63.595C56.5538 62.1387 56.7859 60.6736 57.3565 59.3278C57.5348 58.9279 57.7526 58.5468 58.0065 58.1903C58.2015 57.9465 58.3315 57.823 58.3315 57.836C58.3315 57.849 57.9415 58.4015 57.5353 59.4123C57.0382 60.7393 56.8428 62.1603 56.9633 63.5723C57.035 64.3516 57.15 65.1263 57.3078 65.8928C57.4169 66.5191 57.5912 67.1324 57.8278 67.7225C58.2795 68.7268 58.559 69.354 58.5135 69.3735Z" fill="#00C041"/>
<path d="M45.1853 52.6912C45.4145 52.8885 45.6255 53.1061 45.8158 53.3412C46.2026 53.7734 46.7583 54.4072 47.4408 55.1937C48.7961 56.7699 50.6453 58.9669 52.6408 61.4402C54.6363 63.9134 56.3555 66.2112 57.558 67.8947C58.1658 68.7397 58.65 69.4254 58.975 69.9064C59.158 70.1478 59.32 70.4044 59.4593 70.6734C59.2473 70.4582 59.0538 70.2256 58.8808 69.9779L57.3858 68.0279C56.1248 66.3769 54.3698 64.1084 52.3873 61.6352L47.2718 55.3302L45.7248 53.4192C45.5259 53.1912 45.3455 52.9478 45.1853 52.6912V52.6912Z" fill="#00C041"/>
<path d="M54.7306 65.7595C53.367 64.8269 51.8008 64.2326 50.1618 64.0257C48.5228 63.8188 46.8581 64.0054 45.3056 64.57C44.5191 64.8625 43.6806 65.4117 43.6416 66.2502C43.6026 67.0887 44.4411 67.6867 45.2178 68.0117C46.8476 68.6554 48.6314 68.8023 50.3445 68.4339C52.0576 68.0655 53.6233 67.1982 54.8443 65.9415" fill="#00C041"/>
<path d="M47.4083 65.87C47.5497 65.7944 47.7022 65.7417 47.8601 65.714C48.1526 65.6327 48.5848 65.5385 49.1211 65.4377C50.5316 65.1656 51.98 65.1535 53.3948 65.402C54.1746 65.5631 54.9232 65.8496 55.6113 66.2502C56.5431 66.8079 57.3347 67.5717 57.9253 68.483C58.024 68.6084 58.1019 68.7488 58.1561 68.899C58.1073 68.9347 57.7368 68.366 56.9698 67.599C55.9691 66.6208 54.7056 65.9546 53.3331 65.6815C51.9513 65.4438 50.5405 65.4273 49.1536 65.6327C48.0811 65.7725 47.4181 65.9025 47.4083 65.87Z" fill="#00C041"/>
<path d="M59.1278 131.738C68.8193 127.032 72.5991 116.037 73.8698 105.816C74.0843 104.109 74.5556 102.351 73.9836 100.733C73.4116 99.1142 71.6923 97.8077 70.0576 98.2724C68.7056 98.6624 67.9223 100.044 67.0253 101.142C65.8252 102.609 64.2357 103.707 62.4396 104.311C61.2696 104.698 59.8786 104.828 58.9036 104.07C57.5678 103.03 57.7173 100.98 57.9968 99.2929L59.5568 89.8679C59.8363 88.1812 60.1158 86.4587 59.8461 84.7719C59.5763 83.0852 58.6533 81.4147 57.1193 80.7094C55.5853 80.0042 53.4533 80.6152 52.8521 82.2109C52.5986 82.8772 52.6278 83.6117 52.4686 84.3072C52.3093 85.0027 51.8608 85.7209 51.1686 85.8119C50.4763 85.9029 49.8686 85.3179 49.4396 84.7427C47.9706 82.7602 47.1353 80.3779 46.3781 78.0184C45.6208 75.6589 44.9058 73.2539 43.6188 71.1447C42.3318 69.0354 40.3688 67.2122 37.9866 66.689C35.6043 66.1657 32.7866 67.2512 31.7921 69.5262C30.7976 71.8012 31.7921 74.4434 33.0076 76.6112C34.7942 79.8245 37.0361 82.7625 39.6636 85.3342C40.1348 85.7989 40.6386 86.3092 40.7491 86.9592C40.9376 88.1422 39.6928 89.0912 38.5228 89.2829C37.2001 89.5007 35.8546 89.1529 34.5123 89.1009C33.1701 89.0489 31.6556 89.3999 30.9601 90.5634C29.9851 92.1884 31.1486 94.2164 32.3803 95.6269C34.8444 98.4506 37.7765 100.829 41.0481 102.657C42.2148 103.307 43.4596 103.914 44.3208 104.948C45.1821 105.981 45.5461 107.593 44.7531 108.685C43.9601 109.777 42.3448 109.911 41.0838 109.462C39.8228 109.014 38.7698 108.12 37.6031 107.47C35.4256 106.225 32.4031 105.907 30.5993 107.675C29.4131 108.838 29.0361 110.658 29.2798 112.309C29.5236 113.96 30.3101 115.468 31.1746 116.885C34.1971 121.838 38.3961 126.109 43.4823 128.829C48.5686 131.549 53.4696 132.852 59.1278 131.754" fill="url(#paint1_linear)"/>
<path d="M57.7531 132.277C58.0261 128.192 58.2081 130.311 57.5191 124.945C56.8301 119.579 55.6048 113.755 54.1066 107.72L52.9788 103.245C52.6051 101.779 52.2378 100.32 51.7861 98.9224C50.9182 96.2344 49.9016 93.5968 48.7408 91.0217C47.6521 88.5549 46.5276 86.2539 45.4583 84.1122C44.3891 81.9704 43.3556 79.9814 42.3286 78.2199C40.7291 75.4305 38.911 72.7724 36.8913 70.2704C36.1796 69.3864 35.5913 68.7202 35.2078 68.2717L34.7528 67.7647C34.7046 67.7039 34.6501 67.6484 34.5903 67.5989C34.6308 67.6661 34.6776 67.7292 34.7301 67.7874C34.8373 67.9174 34.9803 68.0897 35.1591 68.3139C35.5393 68.7722 36.0983 69.4547 36.7841 70.3484C38.7605 72.8734 40.5453 75.5426 42.1238 78.3337C43.1313 80.0984 44.1518 82.0777 45.2146 84.2194C46.2773 86.3612 47.3823 88.6687 48.4646 91.1322C49.6143 93.7039 50.6212 96.3372 51.4806 99.0199C51.9258 100.414 52.2898 101.857 52.6636 103.329C53.0373 104.802 53.4078 106.29 53.7881 107.798C55.2863 113.84 56.5246 119.648 57.2201 124.997C57.9156 130.347 57.7628 128.205 57.5191 132.277" fill="#00C041"/>
<path d="M51.7015 98.8867C51.8182 98.665 51.9119 98.432 51.981 98.1912C52.1435 97.7395 52.358 97.0797 52.6083 96.2575C53.1153 94.613 53.736 92.3217 54.412 89.7932C55.088 87.2647 55.7413 84.9832 56.271 83.355C56.531 82.5392 56.752 81.8795 56.921 81.4277C57.0178 81.1968 57.0886 80.956 57.1323 80.7095C57.0008 80.9218 56.8918 81.1472 56.8073 81.3822C56.6155 81.8242 56.362 82.471 56.0728 83.2835C55.4878 84.9085 54.7988 87.1835 54.1228 89.7087C53.4468 92.234 52.865 94.4667 52.4068 96.2087C52.1988 96.9855 52.02 97.642 51.877 98.1587C51.7894 98.3934 51.7305 98.6379 51.7015 98.8867V98.8867Z" fill="#00C041"/>
<path d="M30.6448 91.3759C30.9202 91.4842 31.2053 91.5658 31.4963 91.6197C32.0423 91.7562 32.8385 91.9447 33.8135 92.2242C35.7635 92.7572 38.4383 93.5827 41.347 94.6259C44.2558 95.6692 46.846 96.7352 48.6985 97.5509C49.628 97.9572 50.3723 98.3049 50.8858 98.5259C51.1458 98.6672 51.419 98.7825 51.7015 98.8704C51.4628 98.6953 51.2082 98.543 50.941 98.4154C50.4405 98.1457 49.7093 97.7654 48.7895 97.3332C46.9565 96.4589 44.3695 95.3604 41.4543 94.3107C38.9671 93.4081 36.4352 92.6336 33.8688 91.9902C32.8938 91.7464 32.078 91.5807 31.519 91.4799C31.2313 91.4193 30.9387 91.3845 30.6448 91.3759Z" fill="#00C041"/>
<path d="M57.3306 124.503C57.3306 124.503 57.4054 124.428 57.5224 124.263L58.0196 123.538C58.4454 122.904 59.0401 121.975 59.7616 120.814C61.2046 118.494 63.0961 115.228 65.1339 111.594C67.1716 107.961 69.0339 104.681 70.4249 102.335C71.1074 101.197 71.6664 100.258 72.0824 99.5627C72.2611 99.2604 72.4074 99.0102 72.5309 98.8054C72.5886 98.7199 72.6345 98.627 72.6674 98.5292C72.6674 98.5292 72.5926 98.6039 72.4756 98.7697L71.9556 99.4944C71.5266 100.128 70.9319 101.058 70.2104 102.218C68.7771 104.545 66.8856 107.795 64.8479 111.438C62.8101 115.081 60.9479 118.351 59.5569 120.697C58.8744 121.835 58.3154 122.774 57.8994 123.47L57.4541 124.227C57.4005 124.313 57.3589 124.406 57.3306 124.503V124.503Z" fill="#00C041"/>
<path d="M29.9591 110.622C30.0402 110.688 30.1298 110.743 30.2256 110.785L31.0056 111.198L33.9306 112.689C36.4039 113.95 39.8001 115.731 43.5473 117.704C47.2946 119.677 50.6973 121.425 53.2128 122.638C54.4608 123.242 55.4878 123.72 56.1866 124.038L57.0056 124.399C57.0981 124.447 57.1965 124.481 57.2981 124.503C57.217 124.437 57.1274 124.383 57.0316 124.341L56.2386 123.928L53.3136 122.436C50.8403 121.175 47.4441 119.394 43.6968 117.421C39.9496 115.449 36.5469 113.697 34.0346 112.488C32.7834 111.883 31.7596 111.406 31.0576 111.087L30.2516 110.72C30.1588 110.675 30.0604 110.642 29.9591 110.622Z" fill="#00C041"/>
<path d="M168.273 159.47C168.273 159.515 137.505 159.554 99.561 159.554C61.6173 159.554 30.8431 159.519 30.8431 159.47C30.8431 159.421 61.6043 159.385 99.561 159.385C137.518 159.385 168.273 159.424 168.273 159.47Z" fill="#263238"/>
<path d="M38.3928 105.647C38.3928 105.647 40.6353 104.132 43.4368 109.504C46.2383 114.877 47.3108 117.98 47.3108 117.98C47.3108 117.98 48.0486 119.105 48.8188 118.357C49.5891 117.61 50.6323 115.504 51.9583 115.871C53.2843 116.238 53.7978 117.772 53.5573 120.021C53.3168 122.27 52.9723 127.217 52.9431 127.662C52.9138 128.107 53.1706 128.744 53.7751 128.312C54.3796 127.88 57.8538 123.947 59.6251 125.712C61.3963 127.477 59.6998 133.626 59.5276 134.302C59.3553 134.978 59.4886 135.277 59.8103 135.43C60.1321 135.582 61.1753 134.159 62.2088 133.08C63.2423 132.001 64.63 130.925 65.566 132.027C66.502 133.129 66.8433 137.731 62.5306 145.251L60.3043 148.605L56.2646 148.42C47.6423 147.494 44.1161 144.52 43.7781 143.113C43.4401 141.705 45.1171 141.215 46.5991 141.013C48.0811 140.812 49.8491 140.808 49.9108 140.451C49.9726 140.093 49.8133 139.817 49.1633 139.56C48.5133 139.304 42.5366 137.064 42.1531 134.598C41.7696 132.131 46.9956 131.634 47.6976 131.39C48.3996 131.146 48.0226 130.564 47.6521 130.33C47.2816 130.096 43.0663 127.467 41.1066 126.339C39.1468 125.212 38.1816 123.944 38.6853 122.608C39.1663 121.308 41.4836 121.715 42.5431 121.529C43.6026 121.344 43.1216 120.086 43.1216 120.086C43.1216 120.086 41.2366 117.399 38.5358 111.961C35.8351 106.524 38.4416 105.601 38.4416 105.601" fill="url(#paint2_linear)"/>
<path d="M40.9116 110.453C40.9317 110.484 40.9502 110.515 40.9668 110.548L41.1196 110.837L41.6883 111.945L43.7683 116.034C45.5396 119.485 47.9933 124.24 50.6746 129.495C53.3558 134.75 55.8161 139.515 57.5451 142.979C58.4031 144.708 59.0953 146.112 59.5796 147.091L60.1223 148.212L60.2621 148.508C60.2913 148.573 60.3043 148.608 60.3043 148.608C60.3043 148.608 60.2816 148.579 60.2458 148.514L60.0963 148.228C59.9598 147.965 59.7713 147.578 59.5275 147.117C59.0303 146.142 58.3218 144.751 57.4476 143.028C55.7056 139.577 53.2453 134.819 50.5381 129.57C47.8308 124.321 45.3998 119.547 43.6806 116.082L41.6331 111.971C41.4023 111.49 41.2203 111.113 41.0903 110.85C41.0318 110.726 40.9863 110.629 40.9538 110.554C40.9349 110.523 40.9207 110.489 40.9116 110.453Z" fill="#28FF0C"/>
<path d="M50.616 118.877C50.5652 119.235 50.4903 119.589 50.3918 119.937C50.2358 120.629 50.0343 121.507 49.81 122.482C49.5858 123.457 49.3745 124.37 49.2055 125.02C49.1178 125.345 49.043 125.602 48.9845 125.78C48.9624 125.875 48.9263 125.966 48.8773 126.05C48.9325 125.693 49.0062 125.34 49.0983 124.991L49.6605 122.443C49.888 121.448 50.109 120.551 50.2878 119.904C50.3788 119.579 50.4568 119.323 50.5153 119.147C50.5355 119.053 50.5695 118.962 50.616 118.877V118.877Z" fill="#28FF0C"/>
<path d="M48.5068 126.131C48.5068 126.17 46.6478 125.696 44.3793 125.065C42.1108 124.435 40.2843 123.895 40.2973 123.853C40.3103 123.811 42.1531 124.289 44.4216 124.916C46.6901 125.543 48.5166 126.089 48.5068 126.131Z" fill="#28FF0C"/>
<path d="M53.7199 135.173C53.6236 135.2 53.5242 135.214 53.4241 135.215C53.2356 135.235 52.9594 135.254 52.6181 135.27C51.9356 135.303 50.9931 135.326 49.9466 135.296C48.9001 135.267 47.9641 135.192 47.2849 135.121C46.9599 135.085 46.6706 135.049 46.4789 135.02C46.3801 135.013 46.2827 134.992 46.1896 134.958C46.5576 134.953 46.9256 134.97 47.2914 135.01C47.9739 135.056 48.9164 135.111 49.9531 135.14C50.9899 135.17 51.9324 135.166 52.6149 135.16C52.9831 135.141 53.3522 135.145 53.7199 135.173V135.173Z" fill="#28FF0C"/>
<path d="M57.0738 129.031C56.9471 129.347 56.796 129.654 56.6221 129.947C56.3231 130.503 55.9038 131.267 55.4326 132.105C54.9613 132.944 54.5258 133.701 54.2041 134.244C54.0439 134.545 53.8602 134.833 53.6548 135.105C53.7816 134.788 53.9327 134.482 54.1066 134.188C54.4056 133.633 54.8248 132.869 55.2961 132.03C55.7673 131.192 56.2028 130.435 56.5246 129.895C56.6854 129.593 56.869 129.304 57.0738 129.031V129.031Z" fill="#28FF0C"/>
<path d="M62.6898 136.427C62.655 136.542 62.6058 136.651 62.5436 136.752L62.0853 137.594C61.6953 138.299 61.1461 139.271 60.5318 140.34C59.9176 141.41 59.3521 142.375 58.9361 143.067C58.7411 143.392 58.5721 143.662 58.4388 143.886C58.3835 143.989 58.3158 144.085 58.2373 144.172C58.2731 144.059 58.3222 143.949 58.3836 143.847L58.8418 143.005C59.2318 142.297 59.7811 141.325 60.3953 140.256C61.0096 139.187 61.5751 138.225 61.9911 137.532L62.4883 136.713C62.5458 136.612 62.6133 136.516 62.6898 136.427V136.427Z" fill="#28FF0C"/>
<path d="M58.3056 143.954C58.1828 143.981 58.0573 143.992 57.9318 143.987C57.6881 143.987 57.3371 144.003 56.9048 144.006C56.0403 144.006 54.8411 144.006 53.5216 143.919C52.2021 143.831 51.0061 143.733 50.1481 143.633C49.7158 143.584 49.3681 143.535 49.1308 143.499C49.0048 143.489 48.8805 143.464 48.7603 143.425C48.8857 143.413 49.0119 143.413 49.1373 143.425L50.1578 143.509C51.0191 143.584 52.2118 143.678 53.5281 143.75C54.8443 143.821 56.0403 143.86 56.9048 143.883L57.9318 143.912C58.0575 143.914 58.1827 143.928 58.3056 143.954V143.954Z" fill="#28FF0C"/>
<path d="M165.799 103.827L154.921 114.418L144.898 133.545L133.627 155.173L119.779 148.673L104.81 141.01L114.384 122.719L120.335 102.244C116.13 105.032 108.31 108.832 98.9825 106.849C88.862 104.704 93.7208 66.5492 93.7208 66.5492L104.842 66.2632L105.96 93.1634L118.522 87.6124L118.541 87.6579C119.298 87.3329 119.961 87.0079 120.312 86.8292C127.264 83.0364 131.827 82.5782 139.286 85.2399L150.046 88.8149C152.812 90.1149 163.007 95.1362 165.799 103.827Z" fill="#0012ED"/>
<path d="M127.735 84.4404C127.735 84.4404 127.485 84.5834 127.063 84.8857C126.47 85.3165 125.944 85.8323 125.503 86.4164C124.854 87.2881 124.337 88.2507 123.969 89.2732C123.521 90.5299 123.138 91.8089 122.821 93.1049L120.91 100.135C120.66 101.015 120.459 101.737 120.309 102.257C120.241 102.494 120.182 102.686 120.14 102.832C120.124 102.901 120.1 102.967 120.069 103.03C120.073 102.961 120.086 102.892 120.108 102.826C120.143 102.673 120.189 102.481 120.247 102.241C120.381 101.714 120.572 100.989 120.793 100.102C121.274 98.2822 121.931 95.8024 122.659 93.0594C122.977 91.759 123.366 90.4766 123.822 89.2179C124.202 88.1854 124.737 87.2167 125.408 86.3449C125.866 85.7571 126.415 85.2459 127.033 84.8304C127.2 84.7176 127.374 84.6156 127.553 84.5249C127.612 84.4925 127.673 84.4642 127.735 84.4404V84.4404Z" fill="#263238"/>
<g opacity="0.3">
<path opacity="0.3" d="M123.676 89.8322C120.566 98.2529 114.972 102.959 107.052 107.177C111.728 106.659 116.21 105.018 120.114 102.393" fill="black"/>
</g>
<g opacity="0.3">
<path opacity="0.3" d="M133.585 83.8392C134.903 104.938 136.22 126.036 137.537 147.133L133.637 155.173L133.585 83.8392Z" fill="black"/>
</g>
<path d="M145.831 105.728C145.786 105.747 145.389 104.753 144.833 103.554C144.278 102.354 143.784 101.402 143.826 101.379C143.979 101.558 144.109 101.756 144.213 101.968C144.43 102.345 144.71 102.878 144.986 103.482C145.262 104.087 145.49 104.642 145.636 105.052C145.732 105.267 145.797 105.495 145.831 105.728V105.728Z" fill="#FAFAFA"/>
<path d="M154.684 101.279C154.014 101.8 153.308 102.273 152.572 102.696C151.866 103.169 151.13 103.595 150.368 103.97C151.042 103.453 151.749 102.979 152.484 102.553C153.188 102.08 153.924 101.654 154.684 101.279V101.279Z" fill="#FAFAFA"/>
<path d="M150.843 98.0742C150.73 97.5057 150.671 96.9279 150.667 96.3484C150.613 95.7701 150.613 95.188 150.667 94.6097C150.784 95.1786 150.843 95.7579 150.843 96.3387C150.899 96.9158 150.899 97.4971 150.843 98.0742Z" fill="#FAFAFA"/>
<path d="M159.679 97.4567C158.589 96.9157 157.551 96.2749 156.579 95.5424C157.137 95.7875 157.671 96.0834 158.175 96.4264C158.707 96.7221 159.211 97.067 159.679 97.4567V97.4567Z" fill="#FAFAFA"/>
<path d="M146.169 114.987C146.409 114.218 146.703 113.467 147.047 112.738C147.341 111.989 147.686 111.26 148.08 110.557C147.841 111.327 147.548 112.079 147.203 112.806C146.909 113.556 146.564 114.285 146.169 114.987V114.987Z" fill="#FAFAFA"/>
<path d="M142.233 118.972C141.921 118.535 141.655 118.066 141.44 117.574C141.174 117.106 140.956 116.612 140.79 116.099C141.103 116.536 141.37 117.004 141.587 117.496C141.854 117.964 142.071 118.458 142.233 118.972Z" fill="#FAFAFA"/>
<path d="M145.526 124.337C144.995 124.567 144.431 124.711 143.855 124.763C143.288 124.873 142.706 124.89 142.133 124.815C142.133 124.766 142.897 124.731 143.833 124.597C144.769 124.464 145.513 124.285 145.526 124.337Z" fill="#FAFAFA"/>
<path d="M149.747 118.468C149.889 117.925 150.082 117.397 150.326 116.892C150.518 116.365 150.763 115.858 151.057 115.38C150.918 115.924 150.725 116.452 150.482 116.957C150.291 117.485 150.045 117.992 149.747 118.468V118.468Z" fill="#FAFAFA"/>
<path d="M139.481 130.863C139.439 130.889 138.961 130.23 138.304 129.472C137.648 128.715 137.063 128.146 137.099 128.111C138.074 128.854 138.886 129.791 139.481 130.863V130.863Z" fill="#FAFAFA"/>
<path d="M137.618 117.535C137.388 118.103 137.104 118.647 136.77 119.16C136.486 119.706 136.152 120.224 135.772 120.707C136.007 120.141 136.292 119.597 136.624 119.082C136.907 118.537 137.24 118.019 137.618 117.535V117.535Z" fill="#FAFAFA"/>
<path d="M138.945 112.962C138.329 112.888 137.721 112.76 137.128 112.579C136.521 112.451 135.927 112.268 135.353 112.033C135.969 112.105 136.577 112.234 137.17 112.416C137.777 112.543 138.371 112.726 138.945 112.962V112.962Z" fill="#FAFAFA"/>
<path d="M138.867 103.537C139.224 103.955 139.55 104.398 139.842 104.863C140.176 105.295 140.478 105.752 140.745 106.228C140.345 105.851 139.995 105.424 139.705 104.958C139.364 104.524 139.082 104.046 138.867 103.537V103.537Z" fill="#FAFAFA"/>
<path d="M135.86 103.066C135.151 103.835 134.36 104.523 133.501 105.12C133.834 104.716 134.212 104.35 134.625 104.028C135.002 103.665 135.416 103.342 135.86 103.066V103.066Z" fill="#FAFAFA"/>
<path d="M138.236 98.1359C137.138 97.2705 136.224 96.1956 135.545 94.9737C135.587 94.9477 136.12 95.7082 136.864 96.5792C137.609 97.4502 138.272 98.1002 138.236 98.1359Z" fill="#FAFAFA"/>
<path d="M146.55 96.6182C145.962 96.888 145.352 97.1055 144.726 97.2682C144.118 97.4839 143.491 97.6449 142.854 97.7492C143.443 97.4819 144.053 97.2645 144.678 97.0992C145.286 96.884 145.913 96.7231 146.55 96.6182Z" fill="#FAFAFA"/>
<path d="M134.846 88.7011C134.797 88.7011 134.82 87.9569 134.703 87.0534C134.586 86.1499 134.378 85.4284 134.437 85.4284C134.878 86.4627 135.02 87.6 134.846 88.7109V88.7011Z" fill="#FAFAFA"/>
<path d="M127.449 112.267C127.21 112.475 126.954 112.664 126.686 112.832C126.205 113.157 125.548 113.642 124.846 114.194C124.144 114.747 123.527 115.27 123.085 115.653C122.856 115.874 122.611 116.079 122.353 116.264C122.545 116.009 122.762 115.775 123.003 115.566C123.556 115.034 124.137 114.532 124.742 114.061C125.345 113.587 125.97 113.143 126.617 112.732C126.879 112.551 127.158 112.395 127.449 112.267Z" fill="#FAFAFA"/>
<path d="M127.024 109.66C126.981 109.683 126.435 108.835 125.678 107.844C124.921 106.852 124.251 106.098 124.287 106.063C124.472 106.188 124.637 106.341 124.778 106.514C125.144 106.905 125.49 107.314 125.815 107.74C126.192 108.24 126.507 108.715 126.718 109.066C126.847 109.249 126.95 109.449 127.024 109.66V109.66Z" fill="#FAFAFA"/>
<path d="M129.003 99.3872C127.998 100.071 126.932 100.659 125.818 101.145C126.305 100.781 126.825 100.462 127.371 100.193C127.889 99.8738 128.435 99.604 129.003 99.3872Z" fill="#FAFAFA"/>
<path d="M127.043 94.9023C126.838 94.7825 126.651 94.6348 126.487 94.4635C126.066 94.0791 125.674 93.6641 125.314 93.222C124.95 92.7806 124.619 92.3136 124.323 91.8245C124.186 91.6304 124.076 91.4182 123.998 91.194C124.043 91.168 124.599 92.091 125.441 93.1148C126.283 94.1385 127.085 94.8633 127.043 94.9023Z" fill="#FAFAFA"/>
<path d="M130.417 94.8079C130.565 94.3145 130.765 93.8384 131.015 93.3877C131.215 92.9122 131.467 92.46 131.765 92.0389C131.619 92.533 131.419 93.0093 131.167 93.4592C130.968 93.9354 130.716 94.3878 130.417 94.8079V94.8079Z" fill="#FAFAFA"/>
<path d="M129.516 89.6762C129.464 89.6762 129.516 88.6655 129.328 87.4467C129.139 86.228 128.779 85.2855 128.827 85.266C128.95 85.452 129.043 85.656 129.104 85.8705C129.283 86.3738 129.415 86.8928 129.497 87.4207C129.578 87.9486 129.611 88.4826 129.598 89.0165C129.606 89.2393 129.579 89.4621 129.516 89.6762V89.6762Z" fill="#FAFAFA"/>
<path d="M130.335 115.562C130.314 115.245 130.314 114.927 130.335 114.61C130.358 114.025 130.374 113.216 130.351 112.335C130.329 111.454 130.27 110.635 130.221 110.06C130.177 109.746 130.158 109.429 130.163 109.111C130.253 109.417 130.313 109.73 130.342 110.047C130.443 110.808 130.503 111.574 130.52 112.342C130.541 113.108 130.519 113.875 130.455 114.639C130.448 114.95 130.407 115.26 130.335 115.562V115.562Z" fill="#FAFAFA"/>
<path d="M129.854 123.652C129.4 123.234 128.919 122.846 128.415 122.491C127.881 122.183 127.329 121.909 126.76 121.672C127.383 121.778 127.979 122.008 128.511 122.348C129.044 122.688 129.503 123.131 129.861 123.652H129.854Z" fill="#FAFAFA"/>
<path d="M133.91 128.657C133.195 129.123 132.449 129.541 131.678 129.908C130.933 130.326 130.161 130.693 129.367 131.006C130.084 130.543 130.829 130.126 131.6 129.758C132.344 129.34 133.116 128.972 133.91 128.657V128.657Z" fill="#FAFAFA"/>
<path d="M122.477 130.876C121.884 130.216 121.334 129.518 120.832 128.787C120.284 128.088 119.78 127.355 119.324 126.593C119.916 127.255 120.465 127.954 120.969 128.686C121.516 129.384 122.02 130.116 122.477 130.876V130.876Z" fill="#FAFAFA"/>
<path d="M118.96 121.633C118.904 121.416 118.879 121.192 118.886 120.967C118.869 120.554 118.863 119.992 118.886 119.342C118.908 118.692 118.973 118.143 119.029 117.717C119.044 117.496 119.089 117.277 119.162 117.067C119.211 117.067 119.113 118.088 119.055 119.342C118.996 120.597 118.993 121.633 118.96 121.633Z" fill="#FAFAFA"/>
<path d="M115.132 137.412C114.466 136.967 113.832 136.476 113.234 135.943C112.6 135.453 112.002 134.918 111.443 134.344C112.109 134.789 112.743 135.28 113.341 135.813C113.975 136.304 114.573 136.838 115.132 137.412V137.412Z" fill="#FAFAFA"/>
<path d="M117.42 136.928C117.315 136.083 117.266 135.231 117.273 134.38C117.227 133.53 117.235 132.678 117.299 131.829C117.404 132.674 117.453 133.525 117.446 134.377C117.493 135.227 117.484 136.079 117.42 136.928Z" fill="#FAFAFA"/>
<path d="M121.937 146.714C121.937 146.74 121.531 146.58 120.878 146.369C119.177 145.822 117.392 145.578 115.606 145.651C114.921 145.677 114.498 145.726 114.495 145.696C114.589 145.66 114.687 145.637 114.787 145.628C114.976 145.592 115.255 145.56 115.6 145.531C117.402 145.394 119.212 145.643 120.91 146.259C121.169 146.352 121.422 146.461 121.668 146.584C121.764 146.613 121.855 146.657 121.937 146.714V146.714Z" fill="#FAFAFA"/>
<path d="M125.659 148.501C125.923 148.639 126.169 148.808 126.393 149.005C127.517 149.895 128.535 150.913 129.425 152.037C129.622 152.261 129.791 152.508 129.929 152.772C129.714 152.57 129.514 152.353 129.331 152.122C128.974 151.709 128.467 151.147 127.878 150.558C127.29 149.97 126.728 149.466 126.315 149.106C126.082 148.921 125.862 148.719 125.659 148.501Z" fill="#FAFAFA"/>
<path d="M127.28 131.569C126.95 130.96 126.669 130.327 126.439 129.674C126.158 129.043 125.929 128.391 125.753 127.724C126.083 128.332 126.364 128.966 126.595 129.619C126.875 130.249 127.104 130.901 127.28 131.569V131.569Z" fill="#FAFAFA"/>
<path d="M114.225 98.6299C114.087 98.8342 113.919 99.017 113.728 99.1727C113.294 99.5757 112.829 99.9431 112.337 100.271C111.844 100.602 111.324 100.891 110.783 101.136C110.566 101.252 110.332 101.336 110.091 101.386C110.071 101.337 111.102 100.895 112.242 100.131C113.383 99.3677 114.189 98.5909 114.225 98.6299Z" fill="#FAFAFA"/>
<path d="M115.06 95.1849C114.993 94.2187 115.039 93.248 115.197 92.2924C115.264 93.2586 115.218 94.2294 115.06 95.1849Z" fill="#FAFAFA"/>
<path d="M108.577 98.0774C107.994 97.9042 107.43 97.6768 106.89 97.3982C106.324 97.1704 105.78 96.8907 105.265 96.5629C105.846 96.7379 106.411 96.9653 106.952 97.2422C107.518 97.47 108.062 97.7496 108.577 98.0774V98.0774Z" fill="#FAFAFA"/>
<path d="M120.143 93.6704C120.106 93.0709 120.124 92.4692 120.199 91.8732C120.214 91.2727 120.288 90.6751 120.42 90.0889C120.457 90.6883 120.44 91.29 120.368 91.8862C120.349 92.4867 120.274 93.0841 120.143 93.6704Z" fill="#FAFAFA"/>
<path d="M105.132 104.967C104.473 104.801 103.847 104.527 103.279 104.155C102.681 103.831 102.144 103.406 101.69 102.9C101.722 102.861 102.415 103.443 103.364 104.012C104.313 104.581 105.151 104.919 105.132 104.967Z" fill="#FAFAFA"/>
<path d="M100.312 98.3536C99.8932 98.9304 99.4303 99.4737 98.9273 99.9786C98.4645 100.526 97.9604 101.036 97.4193 101.506C98.2993 100.376 99.2664 99.3165 100.312 98.3373V98.3536Z" fill="#FAFAFA"/>
<path d="M99.8991 92.4289C99.3454 92.2417 98.8309 91.9542 98.3813 91.5807C97.8998 91.2521 97.4805 90.8405 97.1431 90.3652C97.1788 90.3294 97.7248 90.8787 98.4853 91.4442C99.2458 92.0097 99.9218 92.3867 99.8991 92.4289Z" fill="#FAFAFA"/>
<path d="M96.8604 93.6705C96.6763 94.0184 96.4432 94.338 96.1681 94.6195C95.9347 94.937 95.6579 95.2204 95.3459 95.4612C95.7623 94.7948 96.2724 94.1918 96.8604 93.6705V93.6705Z" fill="#FAFAFA"/>
<path d="M103.36 82.6725C102.982 83.2664 102.557 83.8293 102.09 84.356C101.667 84.92 101.198 85.4483 100.689 85.9355C101.068 85.3408 101.492 84.7768 101.96 84.2487C102.384 83.687 102.852 83.16 103.36 82.6725V82.6725Z" fill="#FAFAFA"/>
<path d="M97.7931 83.9238C97.2919 83.4789 96.8288 82.993 96.4086 82.471C95.9479 81.9867 95.5283 81.4649 95.1541 80.911C95.6558 81.3541 96.119 81.839 96.5386 82.3605C96.9996 82.8458 97.4192 83.3687 97.7931 83.9238V83.9238Z" fill="#FAFAFA"/>
<path d="M100.581 76.8647C100.209 76.3831 99.8823 75.8673 99.6065 75.3242C99.2845 74.8082 99.0093 74.2643 98.7842 73.6992C99.1565 74.1824 99.483 74.6992 99.7592 75.243C100.082 75.7577 100.357 76.3005 100.581 76.8647V76.8647Z" fill="#FAFAFA"/>
<path d="M100.435 72.3114C100.396 72.2789 100.884 71.6614 101.27 70.7872C101.657 69.9129 101.797 69.1427 101.849 69.1622C101.768 70.3497 101.267 71.4696 100.435 72.3212V72.3114Z" fill="#FAFAFA"/>
<path d="M95.076 72.0417C95.0255 71.3546 95.1638 70.6669 95.4758 70.0527C95.6775 69.6119 95.9449 69.2043 96.2688 68.8437C96.3928 68.6849 96.5462 68.5514 96.7205 68.4504C96.2986 68.9672 95.9326 69.5271 95.6285 70.1209C95.376 70.7395 95.1907 71.3835 95.076 72.0417V72.0417Z" fill="#FAFAFA"/>
<path d="M141.935 64.3099C141.785 62.9628 141.769 61.6042 141.886 60.2539C142.007 58.8954 142.527 57.603 143.381 56.5392C144.268 55.5122 145.633 54.8524 146.975 55.0247C147.807 55.1319 148.6 55.5414 149.429 55.5187C150.404 55.4894 151.239 54.8914 152.12 54.4917C153.509 53.8614 155.064 53.6983 156.553 54.0269C157.338 54.1749 158.065 54.5422 158.649 55.0864C158.937 55.361 159.151 55.7043 159.27 56.0841C159.388 56.4639 159.409 56.8676 159.329 57.2574C160.311 57.2143 161.294 57.3006 162.254 57.5142C163.214 57.7307 164.053 58.3137 164.59 59.1392C165.075 59.9874 165.042 61.1672 164.347 61.8529C164.804 61.7916 165.269 61.9017 165.65 62.162C166.032 62.4224 166.304 62.8147 166.414 63.2634C166.5 63.7175 166.454 64.1868 166.281 64.6155C166.108 65.0442 165.816 65.4142 165.439 65.6814C164.53 66.2379 163.453 66.4543 162.4 66.2924C161.496 66.1202 160.45 65.8667 159.725 65.3174" fill="#263238"/>
<path d="M141.229 94.9249C143.022 95.3854 144.925 95.1184 146.521 94.1821C148.118 93.2457 149.28 91.716 149.754 89.9264C150.303 87.8432 150.752 86.0979 150.752 86.0979C150.752 86.0979 156.183 87.0307 157.98 81.8729C159.777 76.7152 162.855 64.5797 162.855 64.5797C160.343 62.3338 157.278 60.7989 153.975 60.1333C150.672 59.4677 147.252 59.6956 144.067 60.7934L143.092 61.1184L136.192 86.2507C135.942 87.1511 135.875 88.0924 135.994 89.0193C136.113 89.9461 136.416 90.8399 136.885 91.6479C137.354 92.456 137.98 93.1622 138.726 93.7249C139.472 94.2877 140.323 94.6957 141.229 94.9249V94.9249Z" fill="#B78876"/>
<path d="M150.784 86.0264C148.387 85.2709 146.268 83.8195 144.697 81.8566C144.697 81.8566 145.042 86.1044 150.349 87.3816L150.784 86.0264Z" fill="#AA6550"/>
<path d="M141.951 66.702C141.876 66.6338 138.756 64.4628 137.687 68.0313C136.618 71.5998 140.417 71.9313 140.453 71.837C140.488 71.7428 141.951 66.702 141.951 66.702Z" fill="#B78876"/>
<path d="M139.76 70.1566C139.76 70.1566 139.686 70.1826 139.565 70.1989C139.402 70.2124 139.239 70.1636 139.11 70.0624C138.785 69.8121 138.639 69.1166 138.815 68.4699C138.896 68.161 139.046 67.8744 139.253 67.6314C139.322 67.5324 139.413 67.4512 139.519 67.3946C139.626 67.3381 139.744 67.3078 139.864 67.3064C139.943 67.3056 140.02 67.3335 140.079 67.3849C140.139 67.4364 140.178 67.5078 140.189 67.5859C140.209 67.6996 140.163 67.7646 140.189 67.7776C140.215 67.7906 140.284 67.7386 140.297 67.5826C140.304 67.4893 140.278 67.3964 140.225 67.3194C140.187 67.2667 140.138 67.2223 140.082 67.1888C140.027 67.1552 139.965 67.1334 139.9 67.1244C139.745 67.1087 139.588 67.1334 139.445 67.1961C139.302 67.2587 139.178 67.3571 139.084 67.4819C138.839 67.7446 138.663 68.0639 138.571 68.4114C138.376 69.1361 138.542 69.9194 139.013 70.2249C139.101 70.2812 139.2 70.3171 139.303 70.33C139.407 70.343 139.512 70.3326 139.611 70.2996C139.738 70.2411 139.78 70.1696 139.76 70.1566Z" fill="#AA6550"/>
<path d="M158.484 72.0288C158.42 72.2242 158.282 72.3868 158.1 72.4811C157.917 72.5754 157.705 72.5939 157.509 72.5325C157.412 72.5084 157.322 72.4652 157.243 72.4056C157.163 72.346 157.097 72.2712 157.047 72.1855C156.997 72.0998 156.965 72.005 156.952 71.9067C156.939 71.8083 156.946 71.7084 156.972 71.6128C157.035 71.4204 157.17 71.26 157.349 71.1654C157.528 71.0708 157.737 71.0494 157.931 71.1058C158.029 71.1285 158.121 71.1707 158.202 71.2298C158.283 71.2889 158.352 71.3638 158.403 71.45C158.455 71.5361 158.489 71.6317 158.502 71.7312C158.516 71.8306 158.51 71.9318 158.484 72.0288V72.0288Z" fill="#263238"/>
<path d="M159.446 71.5282C159.322 71.5932 158.903 70.9952 158.11 70.7287C157.317 70.4622 156.599 70.667 156.547 70.5402C156.517 70.485 156.67 70.342 156.985 70.2412C157.411 70.1155 157.866 70.1269 158.285 70.2737C158.699 70.4105 159.057 70.6758 159.309 71.031C159.481 71.3007 159.504 71.5022 159.446 71.5282Z" fill="#263238"/>
<path d="M150.684 69.4125C150.621 69.6049 150.486 69.7653 150.307 69.8599C150.128 69.9545 149.919 69.9759 149.725 69.9195C149.629 69.8953 149.538 69.8522 149.459 69.7926C149.38 69.733 149.313 69.6582 149.263 69.5725C149.213 69.4868 149.181 69.392 149.168 69.2937C149.155 69.1953 149.162 69.0954 149.189 68.9997C149.251 68.8069 149.386 68.6459 149.565 68.5512C149.744 68.4565 149.953 68.4355 150.147 68.4928C150.243 68.5169 150.334 68.56 150.413 68.6196C150.492 68.6792 150.559 68.7541 150.609 68.8397C150.659 68.9254 150.691 69.0202 150.704 69.1186C150.717 69.217 150.71 69.3169 150.684 69.4125Z" fill="#263238"/>
<path d="M151.6 69.0582C151.477 69.1265 151.054 68.5252 150.261 68.2587C149.468 67.9922 148.753 68.197 148.698 68.0702C148.672 68.015 148.821 67.872 149.14 67.7745C149.566 67.6486 150.02 67.6588 150.44 67.8037C150.853 67.9415 151.213 68.2065 151.467 68.561C151.633 68.8307 151.659 69.0322 151.6 69.0582Z" fill="#263238"/>
<path d="M152.504 75.9125C152.504 75.867 153.037 75.945 153.869 76.1107C154.08 76.1595 154.285 76.1822 154.366 76.0555C154.453 75.8504 154.475 75.6237 154.431 75.4055C154.405 74.8497 154.379 74.268 154.35 73.6602C154.255 71.187 154.259 69.1785 154.35 69.1752C154.441 69.172 154.606 71.1772 154.701 73.6505C154.72 74.2582 154.736 74.84 154.753 75.3957C154.799 75.6821 154.743 75.9758 154.593 76.2245C154.54 76.2862 154.473 76.3349 154.399 76.367C154.324 76.3991 154.242 76.4137 154.161 76.4097C154.038 76.4036 153.917 76.3806 153.8 76.3415C152.991 76.1172 152.491 75.9547 152.504 75.9125Z" fill="#263238"/>
<path d="M149.985 75.6752C150.115 75.7109 149.829 76.5722 150.362 77.4302C150.895 78.2882 151.84 78.5027 151.808 78.6229C151.808 78.6814 151.545 78.7237 151.158 78.6034C150.651 78.4413 150.218 78.1051 149.936 77.6544C149.662 77.2229 149.569 76.7013 149.676 76.2017C149.76 75.8312 149.926 75.6492 149.985 75.6752Z" fill="#263238"/>
<path d="M159.621 70.0364C159.423 70.1697 158.939 69.7992 158.285 69.5684C157.632 69.3377 157.031 69.2824 156.966 69.0517C156.94 68.9412 157.089 68.7884 157.388 68.7007C157.784 68.6056 158.198 68.6303 158.58 68.7715C158.961 68.9127 159.292 69.164 159.53 69.4937C159.699 69.7569 159.712 69.9682 159.621 70.0364Z" fill="#263238"/>
<path d="M151.529 65.8375C151.408 65.9025 151.204 65.7952 150.973 65.6555C150.674 65.4771 150.361 65.3238 150.037 65.1972C149.708 65.0789 149.37 64.9898 149.026 64.9307C148.75 64.8755 148.535 64.8332 148.487 64.7032C148.438 64.5732 148.594 64.3782 148.945 64.2482C149.412 64.1007 149.915 64.1133 150.374 64.284C150.833 64.4547 151.222 64.7738 151.48 65.1907C151.659 65.532 151.642 65.7855 151.529 65.8375Z" fill="#263238"/>
<path d="M162.585 66.2665C159.871 66.1085 157.277 65.0896 155.182 63.3577C152.848 61.4467 149.926 60.1077 149.13 60.4847C148.334 60.8617 147.577 63.5397 144.788 63.7347C144.788 63.7347 143.794 68.951 141.772 68.2847C139.751 67.6185 142.861 59.9095 142.861 59.9095L148.467 58.59L154.21 58.8012L159.367 59.9712L163.83 62.5355L162.585 66.2665Z" fill="#263238"/>
<path d="M133.629 45.8097H60.6569V159.443H133.629V45.8097Z" fill="#FAFAFA"/>
<path d="M133.628 159.437C133.628 158.739 133.595 112.589 133.55 45.8045L133.628 45.8825H60.6651L60.7528 45.798C60.7528 88.7889 60.7528 128.374 60.7333 159.431L60.6651 159.363L133.637 159.431L60.6651 159.496H60.6001V159.437C60.6001 128.38 60.6001 88.7954 60.5806 45.8045V45.72H60.6748H133.637H133.715V45.798C133.66 112.592 133.628 158.742 133.628 159.437Z" fill="#263238"/>
<path d="M80.2138 71.1123H70.8765C70.5668 71.1123 70.2697 70.9894 70.0504 70.7707C69.8311 70.552 69.7074 70.2552 69.7065 69.9455V57.0203C69.7074 56.7105 69.8311 56.4138 70.0504 56.1951C70.2697 55.9763 70.5668 55.8535 70.8765 55.8535H76.798L81.3805 60.5758V69.9455C81.3805 70.2549 81.2576 70.5517 81.0388 70.7705C80.82 70.9893 80.5232 71.1123 80.2138 71.1123Z" fill="#0012ED"/>
<path d="M76.7981 55.8535V59.4903C76.799 59.7779 76.9136 60.0535 77.117 60.2569C77.3204 60.4603 77.596 60.5749 77.8836 60.5758H81.3806L76.7981 55.8535Z" fill="#0012ED"/>
<g opacity="0.2">
<path opacity="0.2" d="M76.8467 59.8087C76.8482 60.0839 76.9437 60.3504 77.1175 60.5638C77.2914 60.7772 77.533 60.9248 77.8022 60.9819L77.9192 61.0079C78.3742 61.0892 81.3805 61.6222 81.3805 61.5539V60.5789H77.8835C77.8835 60.5789 77.0125 60.5464 76.8467 59.8087Z" fill="black"/>
</g>
<g opacity="0.3">
<path opacity="0.3" d="M76.7981 55.8535V59.4903C76.799 59.7779 76.9136 60.0535 77.117 60.2569C77.3204 60.4603 77.596 60.5749 77.8836 60.5758H81.3806L76.7981 55.8535Z" fill="white"/>
</g>
<path d="M76.0148 59.3375C75.2976 59.4211 74.5751 59.4493 73.8536 59.422C73.1331 59.4494 72.4116 59.4211 71.6956 59.3375C72.4116 59.2539 73.1331 59.2257 73.8536 59.253C74.5751 59.2257 75.2976 59.254 76.0148 59.3375V59.3375Z" fill="#FAFAFA"/>
<path d="M78.8033 61.398C78.8033 61.4435 77.214 61.4825 75.2511 61.4825C73.2881 61.4825 71.6956 61.4435 71.6956 61.398C71.6956 61.3525 73.2881 61.3135 75.2511 61.3135C77.214 61.3135 78.8033 61.3492 78.8033 61.398Z" fill="#FAFAFA"/>
<path d="M79.4436 63.1139C79.4436 63.1627 77.7113 63.1984 75.5696 63.1984C73.4278 63.1984 71.6956 63.1627 71.6956 63.1139C71.6956 63.0652 73.4311 63.0294 75.5696 63.0294C77.7081 63.0294 79.4436 63.0684 79.4436 63.1139Z" fill="#FAFAFA"/>
<path d="M79.4436 64.7357C79.4436 64.7812 77.7113 64.8202 75.5696 64.8202C73.4278 64.8202 71.6956 64.7812 71.6956 64.7357C71.6956 64.6902 73.4311 64.6512 75.5696 64.6512C77.7081 64.6512 79.4436 64.6869 79.4436 64.7357Z" fill="#FAFAFA"/>
<path d="M79.4436 66.3542C79.4436 66.4029 77.7113 66.4387 75.5696 66.4387C73.4278 66.4387 71.6956 66.4029 71.6956 66.3542C71.6956 66.3054 73.4311 66.2697 75.5696 66.2697C77.7081 66.2697 79.4436 66.3087 79.4436 66.3542Z" fill="#FAFAFA"/>
<path d="M79.4436 67.976C79.4436 68.0215 77.7113 68.0605 75.5696 68.0605C73.4278 68.0605 71.6956 68.0215 71.6956 67.976C71.6956 67.9305 73.4311 67.8915 75.5696 67.8915C77.7081 67.8915 79.4436 67.9272 79.4436 67.976Z" fill="#FAFAFA"/>
<path d="M84.6468 62.4932H83.6718V62.1357H86.0475V62.4932H85.0725V65.0087H84.6663L84.6468 62.4932Z" fill="#263238"/>
<path d="M88.5696 64.6512V65.0087H86.4863V62.1357H88.5111V62.4932H86.8861V63.3739H88.3258V63.7249H86.8861V64.6512H88.5696Z" fill="#263238"/>
<path d="M91.1533 65.0087L90.5325 64.1247C90.473 64.1281 90.4133 64.1281 90.3538 64.1247H89.6453V64.999H89.2325V62.126H90.3603C91.1078 62.126 91.5563 62.503 91.5563 63.127C91.5663 63.3266 91.5098 63.5238 91.3957 63.6879C91.2816 63.852 91.1164 63.9736 90.9258 64.0337L91.6083 65.0087H91.1533ZM91.1533 63.1367C91.1533 62.7272 90.8803 62.4867 90.3538 62.4867H89.6453V63.7867H90.3408C90.8673 63.7867 91.1403 63.5625 91.1403 63.1367H91.1533Z" fill="#263238"/>
<path d="M94.8779 65.0087V62.9124L93.8379 64.6544H93.6494L92.6126 62.9254V65.0054H92.2194V62.1324H92.5444L93.7404 64.1507L94.9201 62.1324H95.2451V65.0054L94.8779 65.0087Z" fill="#263238"/>
<path d="M95.8853 64.6805L96.0348 64.3555C96.3034 64.5716 96.6392 64.6866 96.9838 64.6805C97.4811 64.6805 97.6923 64.4855 97.6923 64.2352C97.6923 63.5332 95.9536 63.9785 95.9536 62.9125C95.9536 62.4672 96.2981 62.0902 97.0521 62.0902C97.3782 62.0839 97.6991 62.1731 97.9751 62.347L97.8418 62.672C97.6055 62.5222 97.3318 62.4422 97.0521 62.4412C96.5646 62.4412 96.3566 62.646 96.3566 62.8962C96.3566 63.595 98.0953 63.1562 98.0953 64.1962C98.0953 64.635 97.7411 65.012 96.9838 65.012C96.5904 65.0313 96.2024 64.9142 95.8853 64.6805V64.6805Z" fill="#263238"/>
<path d="M99.5513 63.5625C99.5396 63.2582 99.6192 62.9573 99.7798 62.6985C99.9404 62.4398 100.175 62.2349 100.453 62.1103C100.73 61.9856 101.039 61.9469 101.339 61.9991C101.639 62.0512 101.917 62.1919 102.136 62.403C102.356 62.6141 102.507 62.886 102.571 63.1838C102.635 63.4816 102.608 63.7917 102.495 64.0742C102.381 64.3568 102.186 64.5989 101.933 64.7694C101.681 64.94 101.383 65.0313 101.079 65.0315C100.881 65.0408 100.683 65.0096 100.497 64.9398C100.311 64.87 100.142 64.7631 99.999 64.6256C99.856 64.4882 99.7426 64.323 99.6656 64.1402C99.5887 63.9574 99.5497 63.7608 99.5513 63.5625V63.5625ZM102.19 63.5625C102.192 63.3415 102.128 63.1249 102.007 62.9402C101.886 62.7555 101.712 62.6111 101.508 62.5254C101.304 62.4396 101.08 62.4163 100.863 62.4585C100.646 62.5007 100.446 62.6064 100.29 62.7622C100.133 62.918 100.026 63.1169 99.9826 63.3337C99.9391 63.5504 99.9611 63.7751 100.046 63.9793C100.13 64.1835 100.274 64.358 100.458 64.4805C100.642 64.6031 100.858 64.6681 101.079 64.6675C101.226 64.6724 101.372 64.6473 101.508 64.5936C101.645 64.5399 101.769 64.4588 101.873 64.3553C101.978 64.2517 102.059 64.128 102.114 63.9917C102.168 63.8553 102.194 63.7093 102.19 63.5625V63.5625Z" fill="#263238"/>
<path d="M103.64 62.4932V63.4942H105.08V63.8484H103.64V65.0087H103.23V62.1357H105.255V62.4932H103.64Z" fill="#263238"/>
<path d="M106.675 64.6805L106.828 64.3555C107.096 64.5711 107.43 64.6861 107.774 64.6805C108.271 64.6805 108.486 64.4855 108.486 64.2352C108.486 63.5332 106.747 63.9785 106.747 62.9125C106.747 62.4672 107.091 62.0902 107.845 62.0902C108.171 62.0844 108.492 62.1736 108.768 62.347L108.632 62.672C108.397 62.5227 108.124 62.4427 107.845 62.4412C107.358 62.4412 107.147 62.646 107.147 62.8962C107.147 63.595 108.885 63.1562 108.885 64.1962C108.885 64.635 108.534 65.012 107.774 65.012C107.38 65.0308 106.993 64.9138 106.675 64.6805Z" fill="#263238"/>
<path d="M111.57 64.6512V65.0087H109.487V62.1357H111.511V62.4932H109.886V63.3739H111.326V63.7249H109.886V64.6512H111.57Z" fill="#263238"/>
<path d="M114.154 65.0087L113.536 64.1247C113.475 64.128 113.415 64.128 113.354 64.1247H112.646V64.999H112.236V62.126H113.354C114.102 62.126 114.553 62.503 114.553 63.127C114.563 63.327 114.506 63.5246 114.391 63.6887C114.277 63.8528 114.111 63.9742 113.92 64.0337L114.602 65.0087H114.154ZM114.154 63.1367C114.154 62.7272 113.881 62.4867 113.354 62.4867H112.659V63.7867H113.354C113.868 63.7867 114.141 63.5625 114.141 63.1367H114.154Z" fill="#263238"/>
<path d="M117.709 62.1357L116.451 65.0087H116.035L114.771 62.1357H115.216L116.25 64.4952L117.29 62.1357H117.709Z" fill="#263238"/>
<path d="M118.076 62.1357H118.486V65.0087H118.076V62.1357Z" fill="#263238"/>
<path d="M119.113 63.5625C119.111 63.3644 119.149 63.168 119.225 62.9852C119.301 62.8025 119.414 62.6372 119.556 62.4997C119.699 62.3621 119.868 62.2551 120.053 62.1852C120.239 62.1154 120.436 62.0841 120.634 62.0935C120.838 62.0853 121.04 62.1212 121.229 62.1986C121.417 62.276 121.587 62.3931 121.726 62.542L121.459 62.7987C121.355 62.6902 121.229 62.6051 121.09 62.5491C120.95 62.4931 120.8 62.4674 120.65 62.4737C120.467 62.4745 120.287 62.5206 120.127 62.6081C119.966 62.6955 119.83 62.8214 119.73 62.9746C119.629 63.1278 119.569 63.3034 119.554 63.4857C119.538 63.668 119.568 63.8513 119.641 64.0191C119.714 64.1869 119.828 64.3339 119.971 64.4471C120.115 64.5602 120.285 64.6359 120.465 64.6673C120.645 64.6987 120.83 64.6849 121.004 64.627C121.178 64.5692 121.334 64.4692 121.459 64.336L121.726 64.5927C121.587 64.7422 121.417 64.86 121.228 64.9379C121.039 65.0159 120.835 65.0522 120.631 65.0445C120.432 65.0534 120.234 65.0215 120.048 64.9506C119.862 64.8798 119.693 64.7715 119.55 64.6326C119.408 64.4937 119.296 64.327 119.221 64.1429C119.145 63.9589 119.109 63.7613 119.113 63.5625V63.5625Z" fill="#263238"/>
<path d="M124.398 64.6512V65.0087H122.314V62.1357H124.339V62.4932H122.714V63.3739H124.16V63.7249H122.721V64.6512H124.398Z" fill="#263238"/>
<path d="M87.2241 67.9564L86.4571 70.2314H86.1158L85.4853 68.4179L84.8581 70.2444H84.5103L83.7466 67.9694H84.0716L84.6891 69.8317L85.3391 67.9694H85.6413L86.2718 69.8414L86.9023 67.9694L87.2241 67.9564Z" fill="#E0E0E0"/>
<path d="M89.005 69.484H87.5977C87.6188 69.6328 87.6956 69.768 87.8128 69.8622C87.9299 69.9563 88.0784 70.0024 88.2282 69.991C88.3212 69.9939 88.4137 69.9769 88.4994 69.941C88.5852 69.9051 88.6623 69.8512 88.7255 69.783L88.901 69.9845C88.814 70.0783 88.7075 70.1519 88.589 70.2001C88.4706 70.2484 88.343 70.2702 88.2152 70.264C88.0947 70.2731 87.9736 70.2569 87.8597 70.2163C87.7459 70.1757 87.6418 70.1117 87.5542 70.0284C87.4666 69.9451 87.3975 69.8444 87.3512 69.7327C87.305 69.621 87.2827 69.5008 87.2857 69.38C87.2808 69.264 87.2998 69.1482 87.3414 69.0398C87.3831 68.9314 87.4465 68.8327 87.5279 68.7498C87.6092 68.6669 87.7067 68.6016 87.8143 68.558C87.922 68.5143 88.0374 68.4932 88.1535 68.496C88.27 68.493 88.3859 68.5144 88.4938 68.5588C88.6016 68.6031 88.699 68.6694 88.7797 68.7535C88.8605 68.8376 88.9228 68.9377 88.9627 69.0472C89.0026 69.1568 89.0192 69.2734 89.0115 69.3898C89.0115 69.4125 89.0082 69.4548 89.005 69.484ZM87.5977 69.2598H88.7092C88.6944 69.1227 88.6295 68.996 88.5269 68.9039C88.4243 68.8119 88.2913 68.7609 88.1535 68.7609C88.0157 68.7609 87.8827 68.8119 87.7801 68.9039C87.6775 68.996 87.6126 69.1227 87.5977 69.2598V69.2598Z" fill="#E0E0E0"/>
<path d="M89.4471 67.82H89.7721V70.2445H89.4471V67.82Z" fill="#E0E0E0"/>
<path d="M90.1978 69.3799C90.1954 69.2604 90.2177 69.1417 90.2633 69.0312C90.3089 68.9206 90.3769 68.8208 90.463 68.7378C90.549 68.6548 90.6513 68.5904 90.7634 68.5488C90.8755 68.5072 90.9949 68.4892 91.1143 68.4959C91.2544 68.4883 91.3939 68.5187 91.518 68.5839C91.6422 68.6491 91.7464 68.7468 91.8196 68.8665L91.5791 69.0192C91.5291 68.9411 91.4597 68.8772 91.3776 68.834C91.2956 68.7907 91.2038 68.7694 91.1111 68.7722C90.9571 68.7834 90.8132 68.8525 90.7081 68.9656C90.603 69.0786 90.5446 69.2272 90.5446 69.3816C90.5446 69.5359 90.603 69.6845 90.7081 69.7976C90.8132 69.9106 90.9571 69.9797 91.1111 69.991C91.2038 69.9938 91.2956 69.9725 91.3776 69.9292C91.4597 69.8859 91.5291 69.8221 91.5791 69.744L91.8196 69.8934C91.7464 70.0131 91.6422 70.1108 91.518 70.176C91.3939 70.2412 91.2544 70.2716 91.1143 70.2639C90.9949 70.2707 90.8755 70.2527 90.7634 70.2111C90.6513 70.1695 90.549 70.1052 90.463 70.0221C90.3769 69.9391 90.3089 69.8393 90.2633 69.7287C90.2177 69.6182 90.1954 69.4995 90.1978 69.3799Z" fill="#E0E0E0"/>
<path d="M92.0372 69.3799C92.034 69.2014 92.084 69.0259 92.1808 68.8758C92.2776 68.7257 92.4168 68.6078 92.5808 68.537C92.7448 68.4663 92.9261 68.446 93.1017 68.4786C93.2773 68.5112 93.4393 68.5953 93.5669 68.7202C93.6946 68.8451 93.7822 69.0052 93.8186 69.18C93.8551 69.3549 93.8387 69.5366 93.7716 69.7021C93.7044 69.8676 93.5896 70.0094 93.4416 70.1094C93.2937 70.2095 93.1193 70.2633 92.9407 70.2639C92.8223 70.2693 92.704 70.2503 92.5933 70.208C92.4825 70.1657 92.3816 70.1012 92.2969 70.0182C92.2122 69.9353 92.1454 69.8359 92.1007 69.7261C92.056 69.6163 92.0344 69.4984 92.0372 69.3799V69.3799ZM93.5225 69.3799C93.5174 69.2653 93.4787 69.1548 93.4113 69.062C93.3438 68.9692 93.2506 68.8983 93.1431 68.8581C93.0357 68.8179 92.9188 68.8101 92.807 68.8358C92.6953 68.8615 92.5935 68.9195 92.5144 69.0025C92.4353 69.0856 92.3824 69.1901 92.3622 69.303C92.342 69.416 92.3555 69.5323 92.4009 69.6376C92.4463 69.743 92.5217 69.8326 92.6177 69.8954C92.7137 69.9582 92.826 69.9915 92.9407 69.9909C93.0202 69.993 93.0992 69.9783 93.1727 69.9479C93.2461 69.9176 93.3124 69.8721 93.3672 69.8146C93.422 69.757 93.4642 69.6886 93.4909 69.6137C93.5177 69.5388 93.5284 69.4592 93.5225 69.3799Z" fill="#E0E0E0"/>
<path d="M97.1495 69.25V70.2445H96.8245V69.2857C96.8245 68.9445 96.6587 68.7787 96.376 68.7787C96.0932 68.7787 95.856 68.977 95.856 69.354V70.2445H95.531V69.2857C95.531 68.9445 95.3652 68.7787 95.0825 68.7787C94.7997 68.7787 94.5625 68.977 94.5625 69.354V70.2445H94.2375V68.5122H94.5852V68.7722C94.6549 68.681 94.7458 68.6081 94.85 68.56C94.9542 68.5118 95.0686 68.4899 95.1832 68.496C95.3038 68.489 95.4238 68.5157 95.53 68.5731C95.6362 68.6305 95.7243 68.7163 95.7845 68.821C95.8601 68.716 95.9605 68.6314 96.0767 68.5747C96.193 68.5179 96.3215 68.4909 96.4507 68.496C96.5496 68.4872 96.6491 68.5011 96.7417 68.5368C96.8344 68.5724 96.9176 68.6288 96.985 68.7016C97.0525 68.7744 97.1024 68.8616 97.1309 68.9567C97.1594 69.0517 97.1658 69.1521 97.1495 69.25Z" fill="#E0E0E0"/>
<path d="M99.2978 69.484H97.8938C97.9133 69.6329 97.9893 69.7685 98.1061 69.8629C98.2229 69.9573 98.3714 70.0031 98.5211 69.991C98.6145 69.9944 98.7076 69.9776 98.794 69.9417C98.8804 69.9058 98.958 69.8517 99.0216 69.783L99.1938 69.9845C99.066 70.117 98.9023 70.2093 98.7229 70.2501C98.5434 70.2909 98.3559 70.2785 98.1834 70.2143C98.0109 70.1501 97.8608 70.037 97.7517 69.8888C97.6425 69.7406 97.5789 69.5638 97.5688 69.38C97.5643 69.2638 97.5837 69.148 97.6257 69.0395C97.6678 68.9311 97.7315 68.8325 97.8131 68.7496C97.8947 68.6668 97.9924 68.6016 98.1002 68.558C98.208 68.5143 98.3236 68.4933 98.4398 68.496C98.5562 68.493 98.672 68.5144 98.7797 68.5587C98.8873 68.6031 98.9845 68.6695 99.065 68.7537C99.1455 68.8378 99.2075 68.9379 99.247 69.0475C99.2866 69.157 99.3028 69.2736 99.2946 69.3898C99.3043 69.4125 99.3011 69.4548 99.2978 69.484ZM97.8938 69.2598H99.0053C98.9905 69.1227 98.9255 68.996 98.8229 68.9039C98.7204 68.8119 98.5874 68.761 98.4496 68.761C98.3117 68.761 98.1787 68.8119 98.0762 68.9039C97.9736 68.996 97.9086 69.1227 97.8938 69.2598V69.2598Z" fill="#E0E0E0"/>
<path d="M99.6682 70.0625C99.6682 70.0346 99.6738 70.007 99.6846 69.9813C99.6955 69.9557 99.7114 69.9324 99.7314 69.913C99.7514 69.8936 99.7751 69.8784 99.8011 69.8684C99.8271 69.8583 99.8549 69.8536 99.8827 69.8545C99.9379 69.8545 99.9908 69.8764 100.03 69.9154C100.069 69.9544 100.091 70.0073 100.091 70.0625C100.091 70.1176 100.069 70.1705 100.03 70.2095C99.9908 70.2485 99.9379 70.2705 99.8827 70.2705C99.8549 70.2713 99.8271 70.2666 99.8011 70.2565C99.7751 70.2465 99.7514 70.2313 99.7314 70.2119C99.7114 70.1925 99.6955 70.1693 99.6846 70.1436C99.6738 70.1179 99.6682 70.0903 99.6682 70.0625V70.0625ZM99.6975 67.963H100.068L100.006 69.5295H99.756L99.6975 67.963Z" fill="#E0E0E0"/>
<path d="M128.944 52.8018H128.561C128.322 52.8018 128.128 52.9953 128.128 53.234V147.78C128.128 148.018 128.322 148.212 128.561 148.212H128.944C129.183 148.212 129.376 148.018 129.376 147.78V53.234C129.376 52.9953 129.183 52.8018 128.944 52.8018Z" fill="#E0E0E0"/>
<path d="M128.944 52.8018H128.561C128.322 52.8018 128.128 52.9953 128.128 53.234V101.558C128.128 101.797 128.322 101.99 128.561 101.99H128.944C129.183 101.99 129.376 101.797 129.376 101.558V53.234C129.376 52.9953 129.183 52.8018 128.944 52.8018Z" fill="#0012ED"/>
<path d="M72.0791 81.2814V83.5564H71.7541V81.5674H71.2373V81.2814H72.0791Z" fill="#263238"/>
<path d="M72.573 83.3647C72.5737 83.3212 72.5872 83.2788 72.6118 83.2428C72.6365 83.2069 72.6713 83.1791 72.7117 83.1629C72.7521 83.1466 72.7964 83.1427 72.8391 83.1516C72.8818 83.1605 72.9208 83.1818 72.9514 83.2128C72.982 83.2439 73.0027 83.2833 73.011 83.326C73.0193 83.3688 73.0147 83.4131 72.9979 83.4533C72.9811 83.4935 72.9527 83.5278 72.9165 83.5519C72.8802 83.5761 72.8376 83.589 72.794 83.589C72.7646 83.5894 72.7354 83.5839 72.7082 83.5728C72.6809 83.5616 72.6562 83.5451 72.6356 83.5241C72.6149 83.5031 72.5987 83.4782 72.588 83.4508C72.5772 83.4234 72.5722 83.3941 72.573 83.3647Z" fill="#263238"/>
<path d="M74.8415 81.5674H74.055V81.2814H75.9497V81.5674H75.1632V83.5694H74.8382L74.8415 81.5674Z" fill="#263238"/>
<path d="M77.6398 82.809H76.2326C76.2528 82.9575 76.329 83.0926 76.4456 83.1869C76.5622 83.2811 76.7103 83.3273 76.8598 83.3159C76.9535 83.3189 77.0468 83.3016 77.1332 83.2651C77.2196 83.2287 77.2971 83.1739 77.3603 83.1047L77.5326 83.3094C77.4054 83.4434 77.2417 83.5371 77.0617 83.5787C76.8818 83.6204 76.6935 83.6083 76.5204 83.5439C76.3473 83.4795 76.1969 83.3657 76.0879 83.2165C75.979 83.0673 75.9163 82.8895 75.9076 82.7049C75.9026 82.5889 75.9216 82.4731 75.9632 82.3647C76.0049 82.2563 76.0684 82.1576 76.1497 82.0747C76.2311 81.9919 76.3286 81.9266 76.4362 81.8829C76.5438 81.8393 76.6592 81.8182 76.7753 81.821C76.8919 81.818 77.0078 81.8394 77.1156 81.8837C77.2234 81.928 77.3208 81.9944 77.4015 82.0785C77.4823 82.1626 77.5446 82.2626 77.5845 82.3722C77.6244 82.4817 77.641 82.5984 77.6333 82.7147C77.6463 82.7374 77.6431 82.7797 77.6398 82.809ZM76.2326 82.5815H77.3603C77.3455 82.4444 77.2805 82.3177 77.1779 82.2256C77.0754 82.1336 76.9424 82.0826 76.8046 82.0826C76.6667 82.0826 76.5338 82.1336 76.4312 82.2256C76.3286 82.3177 76.2637 82.4444 76.2488 82.5815H76.2326Z" fill="#263238"/>
<path d="M79.0113 81.8209V82.1264H78.9398C78.8634 82.1214 78.7868 82.1334 78.7156 82.1616C78.6444 82.1898 78.5804 82.2335 78.5281 82.2895C78.4759 82.3455 78.4367 82.4124 78.4135 82.4854C78.3903 82.5583 78.3836 82.6356 78.3938 82.7114V83.5727H78.0688V81.8404H78.3679V82.1329C78.4329 82.0237 78.5285 81.9359 78.6428 81.8805C78.7572 81.825 78.8853 81.8043 79.0113 81.8209Z" fill="#263238"/>
<path d="M82.2743 82.5717V83.5694H81.9493V82.5944C81.9493 82.2694 81.7869 82.0907 81.5009 82.0907C81.2149 82.0907 80.9841 82.2889 80.9841 82.6659V83.5564H80.6591V82.5815C80.6591 82.2565 80.4966 82.0777 80.2106 82.0777C80.1366 82.0746 80.0629 82.0877 79.9946 82.1164C79.9263 82.145 79.8651 82.1883 79.8155 82.2432C79.7658 82.2981 79.7289 82.3633 79.7073 82.4341C79.6857 82.505 79.68 82.5797 79.6906 82.653V83.5434H79.3656V81.8112H79.6646V82.0712C79.7341 81.9798 79.8249 81.9067 79.9292 81.8586C80.0334 81.8104 80.1479 81.7886 80.2626 81.795C80.3831 81.788 80.5032 81.8146 80.6094 81.872C80.7156 81.9295 80.8037 82.0153 80.8638 82.12C80.9397 82.0145 81.0407 81.9296 81.1575 81.8729C81.2744 81.8161 81.4036 81.7894 81.5333 81.795C81.6377 81.7778 81.7447 81.7864 81.845 81.82C81.9453 81.8536 82.0359 81.9112 82.1089 81.9877C82.1819 82.0642 82.2352 82.1574 82.264 82.2592C82.2928 82.361 82.2964 82.4682 82.2743 82.5717Z" fill="#263238"/>
<path d="M72.9761 118.786V119.069H71.3511V118.848L72.2806 117.948C72.5243 117.714 72.5698 117.571 72.5698 117.425C72.5698 117.191 72.4008 117.048 72.0823 117.048C71.9724 117.041 71.8625 117.06 71.761 117.103C71.6596 117.146 71.5694 117.211 71.4973 117.295L71.2731 117.103C71.3782 116.986 71.508 116.895 71.6531 116.834C71.7981 116.774 71.9547 116.747 72.1116 116.755C72.5893 116.755 72.8948 117.002 72.8948 117.405C72.8912 117.545 72.8557 117.683 72.7909 117.807C72.7261 117.932 72.6339 118.04 72.5211 118.123L71.8191 118.799L72.9761 118.786Z" fill="#263238"/>
<path d="M73.2718 118.864C73.2709 118.835 73.276 118.806 73.2867 118.778C73.2975 118.751 73.3137 118.726 73.3343 118.705C73.355 118.684 73.3797 118.668 73.4069 118.656C73.4341 118.645 73.4633 118.64 73.4928 118.64C73.5522 118.64 73.6093 118.664 73.6513 118.706C73.6934 118.748 73.717 118.805 73.717 118.864C73.717 118.924 73.6934 118.981 73.6513 119.023C73.6093 119.065 73.5522 119.089 73.4928 119.089C73.4635 119.089 73.4345 119.083 73.4074 119.072C73.3804 119.06 73.3559 119.044 73.3353 119.023C73.3148 119.002 73.2986 118.977 73.2876 118.95C73.2767 118.923 73.2713 118.894 73.2718 118.864Z" fill="#263238"/>
<path d="M75.0853 116.781H75.4103V118.786H76.6486V119.069H75.0853V116.781Z" fill="#263238"/>
<path d="M76.9281 116.801C76.9281 116.773 76.9336 116.746 76.9443 116.721C76.955 116.696 76.9706 116.673 76.9904 116.654C77.0101 116.634 77.0334 116.62 77.059 116.61C77.0846 116.6 77.1119 116.595 77.1394 116.596C77.1795 116.597 77.2185 116.61 77.2513 116.634C77.2841 116.657 77.3093 116.689 77.3238 116.727C77.3383 116.764 77.3415 116.805 77.3328 116.844C77.3242 116.884 77.3042 116.92 77.2754 116.948C77.2465 116.976 77.21 116.994 77.1705 117.002C77.1309 117.009 77.0901 117.005 77.0531 116.989C77.016 116.973 76.9844 116.947 76.9622 116.914C76.94 116.88 76.9281 116.841 76.9281 116.801V116.801ZM76.9833 117.337H77.3083V119.069H76.9833V117.337Z" fill="#263238"/>
<path d="M77.734 118.205C77.7316 118.085 77.7538 117.967 77.7992 117.857C77.8447 117.746 77.9124 117.647 77.9981 117.564C78.0838 117.481 78.1856 117.416 78.2973 117.375C78.409 117.333 78.5281 117.314 78.6473 117.321C78.7879 117.312 78.9282 117.342 79.0531 117.407C79.1779 117.473 79.2826 117.571 79.3557 117.691L79.1152 117.844C79.0653 117.766 78.9959 117.702 78.9138 117.659C78.8318 117.615 78.74 117.594 78.6473 117.597C78.4933 117.608 78.3494 117.677 78.2443 117.79C78.1392 117.903 78.0808 118.052 78.0808 118.206C78.0808 118.361 78.1392 118.509 78.2443 118.622C78.3494 118.735 78.4933 118.804 78.6473 118.816C78.7402 118.818 78.8321 118.796 78.9141 118.752C78.9961 118.708 79.0654 118.644 79.1152 118.565L79.3557 118.715C79.2827 118.836 79.1782 118.934 79.0534 119C78.9286 119.066 78.7882 119.097 78.6473 119.089C78.5281 119.095 78.409 119.077 78.2973 119.035C78.1856 118.993 78.0838 118.929 77.9981 118.846C77.9124 118.763 77.8447 118.663 77.7992 118.553C77.7538 118.442 77.7316 118.324 77.734 118.205V118.205Z" fill="#263238"/>
<path d="M81.2928 118.309H79.8888C79.9091 118.457 79.9853 118.592 80.1019 118.687C80.2184 118.781 80.3666 118.827 80.5161 118.816C80.6098 118.819 80.703 118.801 80.7894 118.765C80.8758 118.728 80.9533 118.674 81.0165 118.604L81.1888 118.809C81.061 118.942 80.8973 119.034 80.7179 119.075C80.5384 119.116 80.3509 119.103 80.1784 119.039C80.0059 118.975 79.8558 118.862 79.7467 118.713C79.6375 118.565 79.5739 118.388 79.5638 118.205C79.5593 118.088 79.5787 117.973 79.6207 117.864C79.6627 117.756 79.7265 117.657 79.8081 117.574C79.8897 117.491 79.9874 117.426 80.0952 117.383C80.203 117.339 80.3186 117.318 80.4348 117.321C80.5512 117.318 80.667 117.339 80.7746 117.383C80.8823 117.428 80.9795 117.494 81.06 117.578C81.1405 117.662 81.2025 117.763 81.242 117.872C81.2816 117.982 81.2977 118.098 81.2895 118.214C81.2993 118.24 81.296 118.279 81.2928 118.309ZM79.8888 118.081H81.0003C80.9855 117.944 80.9205 117.817 80.8179 117.725C80.7154 117.633 80.5824 117.582 80.4446 117.582C80.3067 117.582 80.1737 117.633 80.0712 117.725C79.9686 117.817 79.9036 117.944 79.8888 118.081Z" fill="#263238"/>
<path d="M83.3793 118.071V119.069H83.0543V118.094C83.0543 117.769 82.8853 117.59 82.5895 117.59C82.5136 117.585 82.4374 117.596 82.3663 117.623C82.2952 117.65 82.231 117.693 82.1785 117.748C82.1259 117.803 82.0862 117.869 82.0623 117.941C82.0384 118.014 82.0309 118.09 82.0403 118.166V119.056H81.7153V117.324H82.0175V117.584C82.0918 117.491 82.1872 117.418 82.2958 117.37C82.4044 117.322 82.523 117.3 82.6415 117.308C82.7435 117.296 82.8468 117.308 82.9434 117.343C83.04 117.378 83.1273 117.434 83.1986 117.508C83.2699 117.582 83.3233 117.671 83.3546 117.769C83.3859 117.866 83.3944 117.97 83.3793 118.071V118.071Z" fill="#263238"/>
<path d="M83.8115 118.205C83.8086 118.085 83.8305 117.967 83.8758 117.856C83.921 117.746 83.9887 117.646 84.0745 117.563C84.1603 117.48 84.2624 117.415 84.3743 117.374C84.4862 117.332 84.6056 117.314 84.7248 117.321C84.8654 117.312 85.0058 117.342 85.1306 117.407C85.2555 117.473 85.3601 117.571 85.4333 117.691L85.1928 117.844C85.1423 117.766 85.0723 117.702 84.9897 117.658C84.9071 117.615 84.8147 117.594 84.7215 117.597C84.5676 117.608 84.4236 117.677 84.3186 117.79C84.2135 117.903 84.1551 118.052 84.1551 118.206C84.1551 118.361 84.2135 118.509 84.3186 118.622C84.4236 118.735 84.5676 118.804 84.7215 118.816C84.815 118.818 84.9075 118.796 84.99 118.752C85.0726 118.709 85.1424 118.644 85.1928 118.565L85.4333 118.715C85.3603 118.836 85.2558 118.934 85.1309 119C85.0061 119.066 84.8657 119.097 84.7248 119.089C84.6057 119.095 84.4866 119.077 84.3749 119.035C84.2632 118.993 84.1613 118.929 84.0756 118.846C83.9899 118.763 83.9222 118.663 83.8768 118.553C83.8313 118.442 83.8091 118.324 83.8115 118.205V118.205Z" fill="#263238"/>
<path d="M87.3703 118.309H85.9663C85.9866 118.457 86.0628 118.592 86.1794 118.687C86.2959 118.781 86.4441 118.827 86.5936 118.816C86.6873 118.819 86.7806 118.801 86.8669 118.765C86.9533 118.728 87.0308 118.674 87.0941 118.604L87.2663 118.809C87.1385 118.942 86.9749 119.034 86.7954 119.075C86.6159 119.116 86.4284 119.103 86.2559 119.039C86.0834 118.975 85.9333 118.862 85.8242 118.713C85.715 118.565 85.6515 118.388 85.6413 118.205C85.6368 118.088 85.6562 117.973 85.6982 117.864C85.7403 117.756 85.804 117.657 85.8856 117.574C85.9672 117.491 86.065 117.426 86.1727 117.383C86.2805 117.339 86.3961 117.318 86.5123 117.321C86.6287 117.318 86.7445 117.339 86.8522 117.383C86.9598 117.428 87.057 117.494 87.1375 117.578C87.218 117.662 87.28 117.763 87.3195 117.872C87.3591 117.982 87.3753 118.098 87.3671 118.214C87.3768 118.24 87.3736 118.279 87.3703 118.309ZM85.9663 118.081H87.0778C87.063 117.944 86.998 117.817 86.8955 117.725C86.7929 117.633 86.6599 117.582 86.5221 117.582C86.3842 117.582 86.2513 117.633 86.1487 117.725C86.0461 117.817 85.9812 117.944 85.9663 118.081V118.081Z" fill="#263238"/>
<path d="M121.31 88.7141C121.31 88.7629 110.094 88.7986 96.2623 88.7986C82.4303 88.7986 71.2113 88.7629 71.2113 88.7141C71.2113 88.6654 82.427 88.6296 96.2623 88.6296C110.098 88.6296 121.31 88.6686 121.31 88.7141Z" fill="#263238"/>
<path d="M121.31 92.5069C121.31 92.5524 110.094 92.5914 96.2623 92.5914C82.4303 92.5914 71.2113 92.5524 71.2113 92.5069C71.2113 92.4614 82.427 92.4224 96.2623 92.4224C110.098 92.4224 121.31 92.4582 121.31 92.5069Z" fill="#263238"/>
<path d="M121.31 96.2964C121.31 96.3452 110.094 96.3809 96.2623 96.3809C82.4303 96.3809 71.2113 96.3452 71.2113 96.2964C71.2113 96.2477 82.427 96.2119 96.2623 96.2119C110.098 96.2119 121.31 96.2509 121.31 96.2964Z" fill="#263238"/>
<path d="M121.31 100.089C121.31 100.135 110.094 100.174 96.2623 100.174C82.4303 100.174 71.2113 100.135 71.2113 100.089C71.2113 100.044 82.427 100.005 96.2623 100.005C110.098 100.005 121.31 100.04 121.31 100.089Z" fill="#263238"/>
<path d="M121.31 103.879C121.31 103.927 110.094 103.963 96.2623 103.963C82.4303 103.963 71.2113 103.927 71.2113 103.879C71.2113 103.83 82.427 103.794 96.2623 103.794C110.098 103.794 121.31 103.833 121.31 103.879Z" fill="#263238"/>
<path d="M121.31 107.671C121.31 107.717 110.094 107.756 96.2623 107.756C82.4303 107.756 71.2113 107.717 71.2113 107.671C71.2113 107.626 82.427 107.587 96.2623 107.587C110.098 107.587 121.31 107.623 121.31 107.671Z" fill="#263238"/>
<path d="M121.31 122.062C121.31 122.108 110.094 122.147 96.2623 122.147C82.4303 122.147 71.2113 122.108 71.2113 122.062C71.2113 122.017 82.427 121.978 96.2623 121.978C110.098 121.978 121.31 122.023 121.31 122.062Z" fill="#263238"/>
<path d="M121.31 125.312C121.31 125.361 110.094 125.397 96.2623 125.397C82.4303 125.397 71.2113 125.361 71.2113 125.312C71.2113 125.264 82.427 125.228 96.2623 125.228C110.098 125.228 121.31 125.267 121.31 125.312Z" fill="#E0E0E0"/>
<path d="M121.31 128.562C121.31 128.608 110.094 128.647 96.2623 128.647C82.4303 128.647 71.2113 128.608 71.2113 128.562C71.2113 128.517 82.427 128.478 96.2623 128.478C110.098 128.478 121.31 128.51 121.31 128.562Z" fill="#EBEBEB"/>
<path d="M134.333 145.742L138.116 143.922L136.036 137.773L131.466 136.717C131.041 136.619 130.566 136.505 130.04 136.359C129.42 136.187 128.835 135.911 128.307 135.543C127.635 135.116 127.025 134.599 126.494 134.006C126.062 133.418 125.145 133.639 125.145 134.292C125.145 134.945 126.299 136.593 128.35 137.76C130.4 138.927 126.773 139.489 125.46 139.71C124.147 139.931 120.111 140.838 119.87 141.296C119.519 141.965 120.195 142.479 121.495 142.222C122.795 141.965 126.79 141.458 126.894 142.154V142.173C126.573 142.675 126.417 143.264 126.448 143.859C126.479 144.453 126.695 145.023 127.066 145.488C127.8 146.408 128.902 147.562 129.711 147.386C131.232 147.065 134.333 145.742 134.333 145.742Z" fill="#B78876"/>
<path d="M134.102 134.923L137.648 146.912L165.179 138.546C166.584 138.117 167.889 137.412 169.019 136.472C170.148 135.532 171.079 134.376 171.756 133.072C172.433 131.768 172.844 130.342 172.963 128.877C173.083 127.412 172.909 125.939 172.452 124.542L165.702 103.537L151.041 107.177L159.088 126.612L134.102 134.923Z" fill="#0012ED"/>
<path d="M165.799 138.335L165.666 138.384L165.269 138.511L163.729 138.988L157.96 140.756L137.921 146.837L137.846 146.857L137.82 146.785C136.595 143.119 135.405 139.089 134.031 134.949L134.005 134.871L134.086 134.841L134.778 134.614L159.075 126.544L159.036 126.632C157.086 121.919 155.506 118.058 154.401 115.367C153.855 114.028 153.426 112.982 153.134 112.264C152.994 111.909 152.884 111.636 152.809 111.448C152.734 111.259 152.705 111.168 152.705 111.168C152.705 111.168 152.75 111.259 152.828 111.441L153.173 112.247C153.472 112.962 153.911 114.006 154.473 115.338C155.591 118.023 157.196 121.877 159.159 126.583L159.185 126.648L159.117 126.671L134.82 134.773L134.128 135.004L134.18 134.897C135.558 139.04 136.741 143.07 137.963 146.733L137.866 146.681L157.921 140.662L163.713 138.936L165.26 138.485L165.663 138.371L165.799 138.335Z" fill="#263238"/>
<path d="M164.178 130.106C164.152 130.106 163.97 129.804 163.602 129.346C162.638 128.148 161.327 127.279 159.849 126.856C159.283 126.694 158.919 126.648 158.922 126.619C159.008 126.603 159.096 126.603 159.182 126.619C159.417 126.641 159.649 126.68 159.878 126.736C160.637 126.92 161.358 127.234 162.01 127.665C162.662 128.096 163.233 128.639 163.697 129.268C163.837 129.457 163.963 129.657 164.074 129.866C164.123 129.939 164.158 130.02 164.178 130.106V130.106Z" fill="#263238"/>
<path d="M157.505 108.198C157.42 107.609 157.392 107.014 157.421 106.42C157.392 105.826 157.42 105.231 157.505 104.642C157.618 105.825 157.618 107.015 157.505 108.198V108.198Z" fill="#FAFAFA"/>
<path d="M163.033 108.481C162.78 107.933 162.58 107.363 162.435 106.778C162.235 106.209 162.09 105.622 162 105.026C162.452 106.143 162.798 107.299 163.033 108.481V108.481Z" fill="#FAFAFA"/>
<path d="M159.605 113.469C158.466 113.461 157.353 113.134 156.391 112.527C156.413 112.481 157.092 112.803 157.98 113.06C158.867 113.317 159.608 113.421 159.605 113.469Z" fill="#FAFAFA"/>
<path d="M165.858 116.212C165.871 115.641 165.94 115.073 166.066 114.516C166.135 113.948 166.26 113.389 166.439 112.845C166.425 113.417 166.355 113.987 166.231 114.545C166.163 115.112 166.038 115.671 165.858 116.212Z" fill="#FAFAFA"/>
<path d="M163.622 120.691C163.032 119.677 162.544 118.608 162.162 117.499C162.75 118.514 163.239 119.583 163.622 120.691V120.691Z" fill="#FAFAFA"/>
<path d="M162.705 124.61C162.17 124.447 161.653 124.229 161.161 123.96C160.646 123.743 160.155 123.473 159.696 123.154C160.229 123.322 160.744 123.54 161.236 123.804C161.752 124.022 162.244 124.292 162.705 124.61Z" fill="#FAFAFA"/>
<path d="M169.738 123.567C169.563 124.077 169.356 124.575 169.118 125.059C168.932 125.564 168.715 126.057 168.468 126.535C168.699 125.474 169.13 124.467 169.738 123.567Z" fill="#FAFAFA"/>
<path d="M167.782 133.008C167.547 131.806 167.426 130.584 167.421 129.359C167.562 129.955 167.65 130.563 167.684 131.175C167.772 131.782 167.805 132.396 167.782 133.008V133.008Z" fill="#FAFAFA"/>
<path d="M162.816 135.989C162.347 135.677 161.911 135.317 161.516 134.916C161.085 134.558 160.691 134.157 160.339 133.72C160.808 134.032 161.244 134.391 161.639 134.793C162.07 135.151 162.464 135.552 162.816 135.989Z" fill="#FAFAFA"/>
<path d="M154.236 136.843C153.621 137.875 152.909 138.846 152.11 139.742C152.392 139.212 152.726 138.71 153.105 138.244C153.437 137.743 153.816 137.274 154.236 136.843Z" fill="#FAFAFA"/>
<path d="M156.956 132.823C156.463 132.504 156.019 132.115 155.64 131.666C155.22 131.256 154.865 130.785 154.587 130.269C154.626 130.239 155.11 130.85 155.763 131.552C156.417 132.254 156.985 132.787 156.956 132.823Z" fill="#FAFAFA"/>
<path d="M150.485 133.736C150.073 133.902 149.625 133.957 149.185 133.896C148.742 133.89 148.308 133.771 147.924 133.551C147.944 133.502 148.493 133.678 149.195 133.727C149.897 133.775 150.485 133.688 150.485 133.736Z" fill="#FAFAFA"/>
<path d="M146.387 140.847C146.225 140.396 146.116 139.927 146.062 139.45C145.952 138.982 145.899 138.503 145.903 138.023C146.174 138.942 146.337 139.89 146.387 140.847V140.847Z" fill="#FAFAFA"/>
<path d="M141.551 143.298C140.43 142.725 139.363 142.052 138.363 141.286C138.937 141.549 139.486 141.862 140.004 142.222C140.55 142.535 141.068 142.895 141.551 143.298V143.298Z" fill="#FAFAFA"/>
<path d="M143.277 134.646C143.313 134.679 142.841 135.238 142.318 135.966C141.795 136.694 141.405 137.315 141.363 137.292C141.559 136.777 141.834 136.296 142.178 135.865C142.478 135.403 142.848 134.992 143.277 134.646Z" fill="#FAFAFA"/>
<path d="M139.539 136.288C139.203 136.214 138.882 136.085 138.587 135.907C138.269 135.779 137.975 135.599 137.716 135.374C138.37 135.575 138.987 135.884 139.539 136.288Z" fill="#FAFAFA"/>
<g opacity="0.2">
<path opacity="0.2" d="M158.857 126.115C160.326 126.265 161.799 126.417 163.264 126.603C163.775 126.64 164.279 126.749 164.759 126.928C164.998 127.021 165.216 127.161 165.399 127.34C165.582 127.52 165.727 127.734 165.825 127.971C165.917 128.211 165.927 128.475 165.853 128.721C165.78 128.967 165.627 129.182 165.419 129.333C165.211 129.439 164.979 129.49 164.745 129.48C164.511 129.469 164.285 129.399 164.087 129.274C163.693 129.024 163.325 128.735 162.988 128.413C162.327 127.866 161.559 127.464 160.733 127.233C160.356 127.162 159.993 127.035 159.654 126.856C159.484 126.762 159.348 126.618 159.264 126.443C159.181 126.269 159.153 126.072 159.186 125.881" fill="black"/>
</g>
<defs>
<linearGradient id="paint0_linear" x1="145.162" y1="37.08" x2="40.3019" y2="173.995" gradientUnits="userSpaceOnUse">
<stop stop-color="#FCA104"/>
<stop offset="0.893144" stop-color="#7D2DBC" stop-opacity="0.803508"/>
<stop offset="1" stop-color="#3920D2" stop-opacity="0.78"/>
</linearGradient>
<linearGradient id="paint1_linear" x1="51.733" y1="66.5594" x2="51.733" y2="132.143" gradientUnits="userSpaceOnUse">
<stop stop-color="#00FF57"/>
<stop offset="1" stop-color="#004F1B"/>
</linearGradient>
<linearGradient id="paint2_linear" x1="51.7335" y1="105.45" x2="51.7335" y2="148.605" gradientUnits="userSpaceOnUse">
<stop stop-color="#0CFF1F"/>
<stop offset="1" stop-color="#004A19"/>
</linearGradient>
</defs>
</svg>
